<svg width="62" height="62" viewBox="0 0 62 62" fill="none" xmlns="http://www.w3.org/2000/svg">
<path d="M30.9994 61.0243C47.6006 61.0243 61.0584 47.5664 61.0584 30.9653C61.0584 14.3641 47.6006 0.90625 30.9994 0.90625C14.3983 0.90625 0.94043 14.3641 0.94043 30.9653C0.94043 47.5664 14.3983 61.0243 30.9994 61.0243Z" fill="#29441E"/>
<path d="M36.8967 16.27H25.6647C23.1823 16.2703 20.8017 17.2565 19.0465 19.0118C17.2912 20.7671 16.305 23.1477 16.3047 25.63V36.862C16.305 39.3444 17.2912 41.725 19.0465 43.4802C20.8017 45.2355 23.1823 46.2218 25.6647 46.222H36.8967C39.379 46.2218 41.7596 45.2355 43.5149 43.4802C45.2702 41.725 46.2564 39.3444 46.2567 36.862V25.63C46.2564 23.1477 45.2702 20.7671 43.5149 19.0118C41.7596 17.2565 39.379 16.2703 36.8967 16.27V16.27ZM43.4487 36.862C43.4468 38.5991 42.7559 40.2646 41.5276 41.4929C40.2993 42.7213 38.6338 43.4122 36.8967 43.414H25.6647C23.9276 43.4122 22.2621 42.7213 21.0338 41.4929C19.8054 40.2646 19.1145 38.5991 19.1127 36.862V25.63C19.1145 23.8929 19.8054 22.2274 21.0338 20.9991C22.2621 19.7708 23.9276 19.0799 25.6647 19.078H36.8967C38.6338 19.0799 40.2993 19.7708 41.5276 20.9991C42.7559 22.2274 43.4468 23.8929 43.4487 25.63V36.862Z" fill="white"/>
<path d="M31.281 23.7578C29.8 23.7578 28.3523 24.197 27.1209 25.0198C25.8895 25.8426 24.9297 27.012 24.363 28.3803C23.7962 29.7485 23.6479 31.2541 23.9369 32.7066C24.2258 34.1592 24.939 35.4934 25.9862 36.5406C27.0334 37.5878 28.3676 38.301 29.8201 38.5899C31.2727 38.8789 32.7783 38.7306 34.1465 38.1638C35.5148 37.5971 36.6842 36.6373 37.507 35.4059C38.3298 34.1745 38.769 32.7268 38.769 31.2458C38.769 29.2599 37.9801 27.3553 36.5758 25.951C35.1715 24.5467 33.2669 23.7578 31.281 23.7578ZM31.281 35.9258C30.3554 35.9258 29.4505 35.6513 28.6809 35.1371C27.9113 34.6228 27.3114 33.8919 26.9572 33.0368C26.603 32.1816 26.5103 31.2406 26.6909 30.3328C26.8715 29.425 27.3172 28.5911 27.9717 27.9366C28.6262 27.282 29.4601 26.8363 30.368 26.6557C31.2758 26.4752 32.2168 26.5678 33.0719 26.9221C33.9271 27.2763 34.658 27.8761 35.1722 28.6457C35.6865 29.4154 35.961 30.3202 35.961 31.2458C35.9594 32.4865 35.4658 33.676 34.5885 34.5533C33.7112 35.4306 32.5217 35.9242 31.281 35.9258Z" fill="white"/>
<path d="M39.331 24.1952C39.8822 24.1952 40.329 23.7484 40.329 23.1972C40.329 22.646 39.8822 22.1992 39.331 22.1992C38.7798 22.1992 38.333 22.646 38.333 23.1972C38.333 23.7484 38.7798 24.1952 39.331 24.1952Z" fill="white"/>
</svg>
