<svg width="61" height="62" viewBox="0 0 61 62" fill="none" xmlns="http://www.w3.org/2000/svg">
<path d="M30.06 61.0272C46.6617 61.0272 60.12 47.5689 60.12 30.9672C60.12 14.3655 46.6617 0.907227 30.06 0.907227C13.4583 0.907227 0 14.3655 0 30.9672C0 47.5689 13.4583 61.0272 30.06 61.0272Z" fill="#29441E"/>
<path d="M48.0201 33.3822V45.7822H40.8361V34.2162C40.8361 31.3162 39.7991 29.3302 37.1971 29.3302C36.3869 29.3347 35.5978 29.5895 34.938 30.0597C34.2781 30.53 33.7798 31.1927 33.5111 31.9572C33.3267 32.5217 33.2461 33.1149 33.2731 33.7082V45.7822H26.0871C26.0871 45.7822 26.1871 26.1992 26.0871 24.1722H33.2731V27.2342C33.2591 27.2582 33.2381 27.2822 33.2251 27.3052H33.2731V27.2342C33.9233 26.1042 34.8708 25.174 36.0125 24.5446C37.1542 23.9152 38.4465 23.6107 39.7491 23.6642C44.4761 23.6642 48.0201 26.7532 48.0201 33.3892V33.3822ZM18.5701 13.7512C18.0576 13.7077 17.5416 13.7703 17.0544 13.9351C16.5671 14.0999 16.119 14.3633 15.7381 14.7089C15.3571 15.0545 15.0515 15.4749 14.8402 15.9439C14.6289 16.4129 14.5165 16.9203 14.5101 17.4347C14.5036 17.949 14.6032 18.4591 14.8026 18.9333C15.002 19.4074 15.297 19.8354 15.6691 20.1905C16.0412 20.5456 16.4825 20.8202 16.9655 20.9972C17.4484 21.1742 17.9627 21.2497 18.4761 21.2192H18.5231C19.0383 21.2637 19.5571 21.2011 20.0469 21.0353C20.5367 20.8695 20.9869 20.6041 21.3691 20.2558C21.7513 19.9074 22.0572 19.4838 22.2676 19.0114C22.478 18.5391 22.5884 18.0283 22.5917 17.5112C22.595 16.9941 22.4912 16.4819 22.2869 16.0069C22.0826 15.5319 21.7821 15.1043 21.4045 14.7511C21.0268 14.3979 20.5801 14.1267 20.0924 13.9546C19.6048 13.7825 19.0868 13.7133 18.5711 13.7512H18.5701ZM14.9361 45.7822H22.1191V24.1682H14.9361V45.7822Z" fill="#F1F2F2"/>
</svg>
