<svg width="363" height="565" viewBox="0 0 363 565" fill="none" xmlns="http://www.w3.org/2000/svg">
<path opacity="0.05" d="M215.457 351.243C295.929 322.548 341.648 322.082 269.896 207.48C198.144 92.8773 267.112 54.6836 406.544 173.699C545.975 292.714 365.303 418.032 299.81 438.819C234.318 459.607 134.985 379.936 215.457 351.243Z" fill="#2B76FF"/>
<path d="M210.972 96.5384C215.135 99.7914 221.148 99.0531 224.401 94.8895C227.654 90.7259 226.915 84.7136 222.752 81.4606C218.588 78.2076 212.576 78.9458 209.323 83.1095C206.07 87.2731 206.808 93.2854 210.972 96.5384Z" fill="#ABD840"/>
<path d="M140.087 382.243C144.836 384.558 150.563 382.586 152.878 377.837C155.193 373.089 153.221 367.362 148.472 365.047C143.724 362.731 137.997 364.704 135.682 369.452C133.366 374.201 135.339 379.928 140.087 382.243Z" fill="#29441E"/>
<path d="M147.946 443.54C151.64 445.341 156.094 443.806 157.894 440.113C159.695 436.42 158.161 431.966 154.468 430.165C150.774 428.364 146.32 429.898 144.52 433.592C142.719 437.285 144.253 441.739 147.946 443.54Z" fill="#CBDDFF"/>
<path d="M240.879 255.13C244.572 256.931 249.026 255.396 250.827 251.703C252.628 248.01 251.094 243.556 247.4 241.755C243.707 239.954 239.253 241.488 237.452 245.182C235.651 248.875 237.186 253.329 240.879 255.13Z" fill="#CBDDFF"/>
</svg>
