<svg width="330" height="456" viewBox="0 0 330 456" fill="none" xmlns="http://www.w3.org/2000/svg">
<path opacity="0.05" d="M155.759 172.37C90.8525 195.514 53.9775 195.889 111.85 288.323C169.722 380.757 114.095 411.563 1.63526 315.57C-110.825 219.577 34.8986 118.5 87.7222 101.733C140.546 84.9669 220.665 149.227 155.759 172.37Z" fill="#2B76FF"/>
<path d="M159.377 377.804C156.019 375.181 151.169 375.776 148.546 379.134C145.922 382.493 146.517 387.342 149.875 389.966C153.234 392.589 158.083 391.994 160.707 388.636C163.33 385.277 162.735 380.428 159.377 377.804Z" fill="#ABD840"/>
<path d="M216.55 147.366C212.719 145.498 208.101 147.089 206.233 150.919C204.366 154.749 205.957 159.368 209.787 161.236C213.617 163.103 218.236 161.512 220.103 157.682C221.971 153.852 220.38 149.233 216.55 147.366Z" fill="#29441E"/>
<path d="M210.21 97.926C207.231 96.4736 203.639 97.711 202.186 100.69C200.734 103.669 201.971 107.261 204.95 108.714C207.929 110.166 211.521 108.929 212.974 105.95C214.426 102.971 213.189 99.3785 210.21 97.926Z" fill="#CBDDFF"/>
<path d="M135.254 249.891C132.275 248.438 128.682 249.676 127.23 252.655C125.777 255.633 127.015 259.226 129.994 260.678C132.973 262.131 136.565 260.893 138.018 257.914C139.47 254.936 138.233 251.343 135.254 249.891Z" fill="#CBDDFF"/>
</svg>
