<svg width="167" height="167" viewBox="0 0 167 167" fill="none" xmlns="http://www.w3.org/2000/svg">
<path d="M78.0635 12.005H56.0635V23.005H78.0635V12.005Z" fill="#C68776" stroke="#29441E" stroke-width="5"/>
<path d="M113.063 12.005H89.0635V23.005H113.063V12.005Z" fill="#99503D" stroke="#29441E" stroke-width="5"/>
<path d="M93.0635 3.005H74.0635V51.005H93.0635V3.005Z" fill="#FF9100" stroke="#29441E" stroke-width="5"/>
<path d="M93.0635 3.005H84.0635V51.005H93.0635V3.005Z" fill="#FF641A" stroke="#29441E" stroke-width="5"/>
<path d="M164.063 88.222V97.654H135.763V88.22C135.756 85.7201 134.76 83.3247 132.992 81.557C131.224 79.7893 128.829 78.7931 126.329 78.7859H112.179L102.745 88.22H64.6961L55.2621 78.7859H22.2451V50.486H55.2631L64.6961 41.054H102.745L112.179 50.488H126.329C131.285 50.4866 136.192 51.4618 140.771 53.3576C145.35 55.2535 149.51 58.0329 153.014 61.5371C156.518 65.0413 159.298 69.2015 161.193 73.7802C163.089 78.3589 164.064 83.2663 164.063 88.222Z" fill="#EFE2DD" stroke="#29441E" stroke-width="5"/>
<path d="M164.063 88.222V97.654H135.763V88.22C135.756 85.7201 134.76 83.3247 132.992 81.557C131.225 79.7893 128.829 78.7931 126.329 78.7859H112.179L102.745 88.22H83.5635V41.054H102.745L112.179 50.488H126.329C131.285 50.4866 136.193 51.4618 140.771 53.3576C145.35 55.2535 149.51 58.0329 153.014 61.5371C156.519 65.0413 159.298 69.2015 161.194 73.7802C163.09 78.3589 164.065 83.2663 164.063 88.222Z" fill="#CDBFBA" stroke="#29441E" stroke-width="5"/>
<path d="M121.611 31.62C117.86 31.6157 114.263 30.1236 111.61 27.4709C108.957 24.8181 107.465 21.2215 107.461 17.47C107.416 15.5835 107.749 13.707 108.44 11.951C109.131 10.195 110.166 8.59489 111.484 7.24478C112.803 5.89467 114.378 4.82182 116.117 4.08933C117.856 3.35683 119.724 2.97949 121.611 2.97949C123.498 2.97949 125.366 3.35683 127.105 4.08933C128.844 4.82182 130.419 5.89467 131.738 7.24478C133.056 8.59489 134.091 10.195 134.782 11.951C135.473 13.707 135.806 15.5835 135.761 17.47C135.757 21.2215 134.265 24.8181 131.612 27.4709C128.959 30.1236 125.363 31.6157 121.611 31.62Z" fill="#FF641A" stroke="#29441E" stroke-width="5"/>
<path d="M45.8288 31.62C42.0773 31.6157 38.4806 30.1236 35.8279 27.4709C33.1752 24.8181 31.683 21.2215 31.6788 17.47C31.6339 15.5835 31.9668 13.707 32.6577 11.951C33.3487 10.195 34.3838 8.59489 35.7022 7.24478C37.0205 5.89467 38.5956 4.82182 40.3347 4.08933C42.0738 3.35683 43.9418 2.97949 45.8288 2.97949C47.7159 2.97949 49.5838 3.35683 51.3229 4.08933C53.062 4.82182 54.6371 5.89467 55.9555 7.24478C57.2738 8.59489 58.309 10.195 58.9999 11.951C59.6908 13.707 60.0237 15.5835 59.9788 17.47C59.9746 21.2215 58.4824 24.8181 55.8297 27.4709C53.177 30.1236 49.5803 31.6157 45.8288 31.62Z" fill="#FF9100" stroke="#29441E" stroke-width="5"/>
<path d="M149.913 164.005C146.161 164.001 142.565 162.509 139.912 159.856C137.259 157.203 135.767 153.606 135.763 149.855C135.763 144.455 143.096 123.755 149.913 107.094C156.73 123.759 164.063 144.461 164.063 149.86C164.057 153.611 162.564 157.206 159.912 159.858C157.259 162.509 153.663 164.001 149.913 164.005Z" fill="#9BFCFF" stroke="#29441E" stroke-width="5"/>
<path d="M7.78027 31.063V98.213L31.6803 86.421V42.855L7.78027 31.063Z" fill="#CDBFBA" stroke="#29441E" stroke-width="5"/>
<path d="M12.0635 23.005H3.06348V107.005H12.0635V23.005Z" fill="#537983" stroke="#29441E" stroke-width="5"/>
</svg>
