<svg width="161" height="162" viewBox="0 0 161 162" fill="none" xmlns="http://www.w3.org/2000/svg">
<path d="M133.932 84.9849C139.289 81.7397 143.437 76.8306 145.742 71.007C148.047 65.1835 148.383 58.7655 146.699 52.7329C145.015 46.7004 141.402 41.3849 136.414 37.5979C131.425 33.8109 125.334 31.7605 119.071 31.7599H118.363V31.0479C118.318 23.4696 115.276 16.217 109.902 10.8741C104.527 5.53119 97.2567 2.53223 89.6783 2.53223C82.0999 2.53223 74.8295 5.53119 69.4549 10.8741C64.0804 16.217 61.0386 23.4696 60.9938 31.0479V31.7599H60.2818C54.0182 31.7596 47.9267 33.8094 42.9373 37.596C37.9479 41.3827 34.335 46.6983 32.6501 52.731C30.9653 58.7637 31.3011 65.1821 33.6063 71.0061C35.9116 76.8301 40.0595 81.7395 45.4168 84.9849C38.253 86.0484 31.7566 89.7823 27.2316 95.4371C22.7067 101.092 20.4881 108.249 21.0212 115.472C21.5544 122.694 24.7998 129.448 30.106 134.377C35.4122 139.306 42.3865 142.046 49.6288 142.046H129.718C136.96 142.046 143.935 139.307 149.241 134.378C154.547 129.449 157.793 122.695 158.326 115.472C158.86 108.249 156.641 101.092 152.116 95.4373C147.591 89.7824 141.095 86.0484 133.931 84.9849H133.932Z" fill="#9BD069"/>
<path d="M89.6749 2.36292C85.8449 2.36292 82.375 5.57391 79.875 10.7629C77.375 15.9519 75.8119 23.1239 75.8119 31.0449V31.7559H75.469C67.809 31.7559 61.6019 44.6009 61.6019 60.4429C61.573 65.2658 62.1919 70.0708 63.442 74.7289C64.3701 78.4308 66.0155 81.9146 68.2849 84.9829C61.5899 87.0209 56.455 98.9479 56.455 113.359C56.455 121.28 58.0079 128.45 60.5149 133.641C63.0219 138.832 66.493 142.041 70.315 142.041H49.6299C42.3886 142.04 35.4157 139.3 30.1105 134.371C24.8054 129.442 21.5605 122.689 21.0272 115.468C20.4938 108.246 22.7115 101.09 27.235 95.4352C31.7586 89.7806 38.2534 86.046 45.4159 84.9809C41.2674 82.4612 37.8217 78.9353 35.398 74.7299C32.8954 70.3675 31.5834 65.424 31.5934 60.3948C31.6035 55.3656 32.9351 50.4274 35.455 46.075C37.9748 41.7226 41.5944 38.1089 45.9508 35.5961C50.3073 33.0834 55.2477 31.7597 60.277 31.7579H60.9909V31.0469C60.9917 23.4397 64.0141 16.1443 69.3932 10.7651C74.7723 5.38602 82.0677 2.36371 89.6749 2.36292Z" fill="#7DBE3B"/>
<path d="M101.986 120.258L108.309 158.646H71.0381L75.4651 131.764L93.2101 127.337L77.5381 119.171L85.9381 68.1709H93.4131L98.0421 96.2859L111.359 86.1509L115.387 90.1789L101.986 120.258Z" fill="#C17D4F"/>
<path d="M75.4651 131.764L88.0841 128.615L87.5901 158.645H71.0381L75.4651 131.764Z" fill="#985E33"/>
<path d="M89.0791 68.1719L88.1481 124.698L77.5352 119.17L85.9352 68.1699L89.0791 68.1719Z" fill="#985E33"/>
<path d="M36.2483 91.853L28.2653 83.8699C27.7883 83.393 27.4099 82.8268 27.1518 82.2036C26.8936 81.5804 26.7607 80.9125 26.7607 80.2379C26.7607 79.5634 26.8936 78.8955 27.1518 78.2723C27.4099 77.6491 27.7883 77.0829 28.2653 76.6059L31.8653 73.006C32.3423 72.5289 32.9085 72.1505 33.5317 71.8924C34.1549 71.6342 34.8228 71.5013 35.4973 71.5013C36.1719 71.5013 36.8398 71.6342 37.463 71.8924C38.0862 72.1505 38.6524 72.5289 39.1293 73.006L47.1123 80.989L36.2483 91.853Z" fill="#D0E2E7"/>
<path d="M25.1408 110.793C28.1106 110.446 30.8764 109.107 32.9908 106.993L39.9408 100.043L37.1178 92.7209L29.7988 89.8979L3.68178 116.021C2.88976 116.832 2.44938 117.923 2.45613 119.056C2.46288 120.19 2.91622 121.275 3.71784 122.077C4.51946 122.878 5.60476 123.332 6.7384 123.339C7.87205 123.345 8.96267 122.905 9.77378 122.113L17.2898 114.597C19.4039 112.481 22.1701 111.141 25.1408 110.793Z" fill="#C17D4F"/>
<path d="M5.78943 123.266C4.99035 123.091 4.25853 122.69 3.68143 122.11C3.28119 121.71 2.96369 121.235 2.74706 120.712C2.53044 120.19 2.41895 119.629 2.41895 119.063C2.41895 118.498 2.53044 117.937 2.74706 117.415C2.96369 116.892 3.28119 116.417 3.68143 116.017L29.7984 89.8999L37.1184 92.7239L38.0274 95.0789L33.0624 93.1649L6.94843 119.281C6.43522 119.794 6.06009 120.428 5.85797 121.125C5.65584 121.822 5.6333 122.558 5.79243 123.266H5.78943Z" fill="#985E33"/>
<path d="M45.1621 74.531L55.3034 84.6723L39.9465 100.029L29.8052 89.888L45.1621 74.531Z" fill="#F1F4F6"/>
<path d="M45.5463 118.807L39.9463 100.041L44.4373 91.493L55.3033 84.684L74.0693 90.284L45.5463 118.807Z" fill="#F1F4F6"/>
<path d="M153.136 92.9839C149.473 88.7752 144.745 85.6299 139.447 83.8779C144.115 79.816 147.463 74.4522 149.062 68.4744C150.66 62.4966 150.436 56.1776 148.419 50.3279C146.402 44.4782 142.682 39.3646 137.739 35.6431C132.795 31.9216 126.853 29.7618 120.673 29.4409C120.259 21.4983 116.813 14.0174 111.045 8.54169C105.276 3.06597 97.6265 0.0131836 89.6731 0.0131836C81.7197 0.0131836 74.0697 3.06597 68.3014 8.54169C62.5331 14.0174 59.0867 21.4983 58.6731 29.4409C53.8602 29.6935 49.1721 31.0622 44.9795 33.439C40.7868 35.8158 37.2046 39.1354 34.5161 43.1353C31.8276 47.1352 30.1066 51.7057 29.489 56.4855C28.8715 61.2652 29.3745 66.1231 30.9581 70.6749C30.6889 70.8798 30.4337 71.1022 30.1941 71.3409L26.5941 74.9409C25.8979 75.6369 25.3457 76.4631 24.9689 77.3725C24.5921 78.2819 24.3982 79.2566 24.3982 80.2409C24.3982 81.2253 24.5921 82.2 24.9689 83.1094C25.3457 84.0188 25.8979 84.845 26.5941 85.5409L28.7081 87.6549L28.1281 88.2349L28.1161 88.2479L21.5571 94.8049C21.1148 95.2472 20.8664 95.847 20.8664 96.4724C20.8664 97.0979 21.1148 97.6977 21.5571 98.1399C21.9993 98.5822 22.5992 98.8306 23.2246 98.8306C23.85 98.8306 24.4498 98.5822 24.8921 98.1399L29.7991 93.2329L36.6051 100.039L31.3231 105.321C29.5823 107.058 27.3082 108.159 24.8661 108.448C23.203 108.645 21.5823 109.108 20.0661 109.819C20.0171 109.84 19.9661 109.861 19.9221 109.885C18.3271 110.648 16.8732 111.676 15.6221 112.925L8.10609 120.438C7.92631 120.624 7.71144 120.771 7.47396 120.873C7.23648 120.975 6.98113 121.029 6.72277 121.031C6.46441 121.033 6.2082 120.984 5.96903 120.886C5.72985 120.788 5.5125 120.644 5.32961 120.461C5.14672 120.279 5.00193 120.062 4.90368 119.823C4.80543 119.584 4.75567 119.328 4.7573 119.07C4.75892 118.811 4.8119 118.556 4.91316 118.318C5.01441 118.08 5.16191 117.865 5.34709 117.685L18.6891 104.343C19.1317 103.901 19.3807 103.301 19.3811 102.676C19.3816 102.05 19.1336 101.45 18.6916 101.007C18.2496 100.565 17.6499 100.316 17.0244 100.315C16.3988 100.315 15.7987 100.563 15.3561 101.005L2.01309 114.352C0.762991 115.602 0.0606407 117.297 0.0605469 119.065C0.0604531 120.833 0.762624 122.528 2.01259 123.778C3.26255 125.029 4.95792 125.731 6.72574 125.731C8.49355 125.731 10.189 125.029 11.4391 123.779L18.7391 116.479C19.5134 124.133 23.1017 131.228 28.8086 136.387C34.5155 141.547 41.9346 144.404 49.6281 144.405H70.9931L68.7111 158.263C68.6555 158.601 68.6741 158.946 68.7654 159.276C68.8568 159.606 69.0188 159.911 69.2402 160.172C69.4615 160.433 69.737 160.643 70.0475 160.787C70.3579 160.93 70.696 161.005 71.0381 161.005H108.31C108.652 161.005 108.99 160.931 109.301 160.787C109.611 160.643 109.887 160.434 110.108 160.173C110.33 159.912 110.492 159.606 110.583 159.276C110.674 158.946 110.693 158.601 110.637 158.263L108.354 144.405H129.717C130.744 144.405 131.762 144.356 132.743 144.258C133.051 144.227 133.35 144.136 133.624 143.99C133.897 143.844 134.138 143.645 134.334 143.406C134.531 143.166 134.678 142.89 134.768 142.594C134.857 142.297 134.888 141.986 134.857 141.678C134.826 141.37 134.735 141.071 134.589 140.798C134.443 140.524 134.244 140.283 134.005 140.087C133.765 139.89 133.489 139.743 133.193 139.653C132.897 139.564 132.585 139.533 132.277 139.564C131.451 139.646 130.59 139.688 129.718 139.688H107.58L104.431 120.572L117.542 91.1399C117.736 90.7042 117.793 90.2198 117.707 89.7508C117.62 89.2818 117.392 88.8502 117.055 88.5129L113.027 84.4849C112.623 84.0805 112.087 83.8364 111.516 83.798C110.946 83.7596 110.381 83.9294 109.927 84.2759L99.7271 92.0369L95.7381 67.7899C95.6471 67.2384 95.3632 66.7371 94.937 66.3754C94.5108 66.0137 93.9701 65.8151 93.4111 65.8149H85.9371C85.3781 65.8149 84.8372 66.0134 84.4109 66.3752C83.9847 66.7369 83.7009 67.2383 83.6101 67.7899L75.2101 118.79C75.1294 119.28 75.2055 119.783 75.4276 120.228C75.6497 120.672 76.0065 121.035 76.4471 121.265L86.6041 126.557L74.8941 129.479C74.4481 129.59 74.0442 129.829 73.7322 130.167C73.4203 130.504 73.2137 130.926 73.1381 131.379L71.7701 139.686H49.6281C42.6873 139.686 36.0273 136.945 31.0979 132.058C26.1685 127.172 23.3687 120.537 23.3081 113.596C23.991 113.372 24.6945 113.217 25.4081 113.133C28.9053 112.72 32.1621 111.143 34.6551 108.656L38.8081 104.503L43.2801 119.482C43.3968 119.873 43.6131 120.228 43.9079 120.51C44.2027 120.793 44.5659 120.994 44.9619 121.095C45.3579 121.195 45.7731 121.19 46.1669 121.082C46.5606 120.973 46.9194 120.764 47.2081 120.475L75.7321 91.9549C76.0211 91.6663 76.2301 91.3075 76.3387 90.9137C76.4473 90.52 76.4518 90.1048 76.3517 89.7088C76.2516 89.3128 76.0503 88.9496 75.7676 88.6548C75.4849 88.3599 75.1305 88.1436 74.7391 88.0269L56.5441 82.5949L46.8241 72.8749C46.6051 72.6559 46.3452 72.4822 46.0591 72.3637C45.7729 72.2452 45.4663 72.1842 45.1566 72.1842C44.8469 72.1842 44.5402 72.2452 44.2541 72.3637C43.968 72.4822 43.7081 72.6559 43.4891 72.8749L42.9091 73.4549L40.7951 71.3409C40.1011 70.6419 39.2753 70.0874 38.3656 69.7098C37.4558 69.3321 36.4801 69.1388 35.4951 69.1409H35.4281C34.0405 65.1719 33.6234 60.9284 34.2117 56.7652C34.8 52.6019 36.3767 48.6401 38.8098 45.211C41.2429 41.782 44.4617 38.9853 48.197 37.0551C51.9323 35.1248 56.0755 34.117 60.2801 34.1159H60.9911C61.6165 34.1159 62.2162 33.8675 62.6584 33.4253C63.1007 32.9831 63.3491 32.3833 63.3491 31.7579V31.0469C63.3491 24.0654 66.1225 17.3698 71.0592 12.4331C75.9959 7.49636 82.6915 4.72295 89.6731 4.72295C96.6546 4.72295 103.35 7.49636 108.287 12.4331C113.224 17.3698 115.997 24.0654 115.997 31.0469V31.7579C115.997 32.3833 116.246 32.9831 116.688 33.4253C117.13 33.8675 117.73 34.1159 118.355 34.1159H119.069C124.818 34.1169 130.408 35.9991 134.987 39.4752C139.566 42.9514 142.881 47.8304 144.426 53.3675C145.972 58.9045 145.663 64.7952 143.547 70.1402C141.431 75.4852 137.623 79.9907 132.706 82.9689C132.291 83.2207 131.964 83.5944 131.769 84.039C131.575 84.4835 131.522 84.9774 131.618 85.4531C131.715 85.9287 131.955 86.3631 132.308 86.6969C132.66 87.0306 133.107 87.2475 133.587 87.3179C139.263 88.1627 144.507 90.8383 148.522 94.9376C152.537 99.0369 155.103 104.336 155.83 110.027C156.557 115.719 155.405 121.493 152.549 126.47C149.693 131.446 145.289 135.354 140.008 137.598C139.716 137.714 139.451 137.888 139.227 138.108C139.003 138.329 138.825 138.592 138.704 138.882C138.583 139.172 138.522 139.483 138.523 139.798C138.524 140.112 138.588 140.423 138.711 140.712C138.834 141.001 139.013 141.263 139.239 141.482C139.464 141.701 139.731 141.872 140.024 141.987C140.316 142.101 140.629 142.156 140.943 142.147C141.257 142.139 141.567 142.068 141.853 141.939C146.363 140.022 150.355 137.066 153.503 133.311C156.651 129.556 158.865 125.11 159.966 120.335C161.066 115.561 161.021 110.593 159.834 105.839C158.647 101.085 156.352 96.6799 153.136 92.9829V92.9839ZM93.7801 129.625C94.2447 129.509 94.6631 129.255 94.9797 128.896C95.2962 128.537 95.496 128.09 95.5523 127.614C95.6086 127.139 95.5189 126.657 95.2951 126.234C95.0712 125.811 94.7238 125.466 94.2991 125.245L80.1421 117.868L87.9421 70.5309H91.4131L95.7131 96.6699C95.779 97.0713 95.9477 97.4488 96.2027 97.7657C96.4576 98.0827 96.7902 98.3282 97.1682 98.4786C97.5461 98.629 97.9565 98.679 98.3595 98.6239C98.7625 98.5688 99.1444 98.4103 99.4681 98.1639L111.146 89.2769L112.571 90.7019L99.8321 119.302C99.6442 119.723 99.584 120.19 99.6591 120.645L105.531 156.291H73.8161L77.5401 133.68L93.7801 129.625ZM46.6711 114.344L42.6021 100.715L55.9701 87.3469L69.6001 91.4159L46.6711 114.344ZM51.9621 84.6849L39.9401 96.7049L33.1341 89.9049L45.1561 77.8779L51.9621 84.6849ZM39.5731 76.7909L37.0641 79.2999L32.0471 84.3169L29.9321 82.2049C29.4113 81.6838 29.1187 80.9772 29.1187 80.2404C29.1187 79.5037 29.4113 78.7971 29.9321 78.2759L33.5321 74.6759C34.053 74.1552 34.7595 73.8626 35.4961 73.8626C36.2327 73.8626 36.9391 74.1552 37.4601 74.6759L39.5731 76.7909Z" fill="#29441E"/>
<path d="M65.3547 122.404C65.1257 121.822 64.6749 121.355 64.1015 121.105C63.528 120.855 62.8788 120.843 62.2967 121.072L52.4617 124.937C52.1734 125.05 51.9103 125.219 51.6873 125.434C51.4644 125.649 51.2859 125.906 51.1622 126.19C51.0385 126.474 50.9719 126.779 50.9662 127.089C50.9605 127.399 51.0159 127.706 51.1292 127.995C51.2425 128.283 51.4114 128.546 51.6263 128.769C51.8413 128.992 52.0981 129.17 52.382 129.294C52.6659 129.418 52.9714 129.484 53.281 129.49C53.5907 129.496 53.8984 129.44 54.1867 129.327L64.0217 125.462C64.604 125.233 65.0715 124.783 65.3215 124.209C65.5714 123.636 65.5834 122.986 65.3547 122.404Z" fill="#29441E"/>
<path d="M62.0468 137.406C62.3198 137.552 62.619 137.644 62.9273 137.675C63.2355 137.705 63.5468 137.675 63.8434 137.585C64.14 137.496 64.4159 137.349 64.6555 137.152C64.8952 136.956 65.0937 136.714 65.2399 136.441L68.3129 130.704C68.6082 130.153 68.6724 129.506 68.4913 128.908C68.3102 128.309 67.8987 127.807 67.3474 127.511C66.796 127.216 66.1498 127.152 65.5511 127.333C64.9524 127.514 64.4502 127.926 64.1548 128.477L61.0818 134.214C60.7868 134.765 60.7227 135.411 60.9037 136.01C61.0846 136.608 61.4958 137.11 62.0468 137.406Z" fill="#29441E"/>
</svg>
