<svg width="166" height="166" viewBox="0 0 166 166" fill="none" xmlns="http://www.w3.org/2000/svg">
<path d="M82.5636 85.7249V95.1589H73.6896L61.8186 107.03V121.404H38.3516V63.7349H61.8196V93.6929L69.7846 85.7279L82.5636 85.7249Z" fill="#A65210" stroke="#29441E" stroke-width="4"/>
<path d="M82.563 85.7249V95.1589H73.689L61.818 107.03V121.404H50.083V63.7349H61.818V93.6929L69.783 85.7279L82.563 85.7249Z" fill="#703803" stroke="#29441E" stroke-width="4"/>
<path d="M163.063 59.5059V71.0059C163.063 77.1058 160.64 82.956 156.327 87.2693C152.014 91.5826 146.163 94.0059 140.063 94.0059C133.963 94.0059 128.113 91.5826 123.8 87.2693C119.487 82.956 117.063 77.1058 117.063 71.0059V59.5059C117.063 53.4059 119.487 47.5557 123.8 43.2424C128.113 38.9291 133.963 36.5059 140.063 36.5059C146.163 36.5059 152.014 38.9291 156.327 43.2424C160.64 47.5557 163.063 53.4059 163.063 59.5059Z" fill="#AAE234" stroke="#29441E" stroke-width="4"/>
<path d="M162.339 59.8669V70.6429C162.339 76.3587 160.068 81.8402 156.026 85.8819C151.984 89.9235 146.503 92.1944 140.787 92.1949V38.3119C143.618 38.3116 146.421 38.869 149.036 39.9522C151.651 41.0354 154.027 42.6231 156.028 44.6248C158.03 46.6265 159.617 49.0028 160.7 51.6181C161.783 54.2333 162.34 57.0363 162.339 59.8669Z" fill="#56C125"/>
<path d="M135.348 65.2539H144.782V121.406H135.348V65.2539Z" fill="#A65210" stroke="#29441E" stroke-width="4"/>
<path d="M140.064 65.2539H144.781V121.406H140.064V65.2539Z" fill="#703803" stroke="#29441E" stroke-width="4"/>
<path d="M97.0222 54.8109C97.0225 58.2265 96.0289 61.5685 94.1625 64.4292C92.2962 67.2898 89.6378 69.5457 86.5115 70.9215C83.3851 72.2973 79.926 72.7337 76.556 72.1775C73.1859 71.6212 70.0505 70.0964 67.5322 67.7889C62.2161 70.8206 56.2019 72.415 50.0822 72.415C43.9624 72.415 37.9482 70.8206 32.6322 67.7889C30.707 69.5496 28.4144 70.8603 25.9204 71.626C23.4264 72.3918 20.7934 72.5936 18.2118 72.2167C15.6302 71.8398 13.1648 70.8937 10.9938 69.4469C8.82282 68 7.00066 66.0886 5.65918 63.851C4.31771 61.6134 3.49047 59.1056 3.23734 56.509C2.98421 53.9123 3.31152 51.2919 4.19558 48.8374C5.07964 46.3828 6.49834 44.1555 8.349 42.3166C10.1997 40.4777 12.436 39.0732 14.8962 38.2049C14.8872 37.8749 14.8802 37.5419 14.8802 37.2049C14.8826 28.6568 17.9947 20.4016 23.6359 13.9793C29.277 7.55692 37.062 3.40614 45.5383 2.30129C54.0147 1.19643 62.6035 3.21296 69.7024 7.97468C76.8014 12.7364 81.9256 19.9181 84.1192 28.1799L81.6452 32.8749C81.6452 32.8749 85.2742 37.8619 85.2742 38.2049C88.7086 39.4173 91.6826 41.6647 93.7866 44.6376C95.8906 47.6106 97.021 51.1627 97.0222 54.8049V54.8109Z" fill="#AAE234" stroke="#29441E" stroke-width="4"/>
<path d="M95.021 53.8109C95.0854 58.1466 93.4258 62.3306 90.4069 65.4433C87.3879 68.556 83.2567 70.3427 78.921 70.4109C74.87 70.4066 70.9759 68.8444 68.045 66.0479C63.2124 68.9086 57.6988 70.4156 52.083 70.4109V4.00488C67.015 4.00488 79.574 14.4829 83.219 28.6959L80.955 33.1209C80.955 33.1209 84.275 37.8209 84.275 38.1479C87.4545 39.3433 90.1903 41.4863 92.1123 44.287C94.0344 47.0878 95.0501 50.4112 95.022 53.8079L95.021 53.8109Z" fill="#56C125"/>
<path d="M84.2909 37.2548C84.2909 37.5628 84.2849 37.8648 84.2769 38.1668C82.2834 37.4644 80.1709 37.1616 78.0603 37.2757C75.9497 37.3899 73.8822 37.9187 71.976 38.832C70.0698 39.7453 68.3622 41.0252 66.9508 42.5986C65.5393 44.172 64.4517 46.008 63.7499 48.0018L55.5029 45.4588L55.5549 45.2948L55.6129 45.1308C57.5569 39.6063 61.3998 34.9518 66.4564 31.9972C71.513 29.0426 77.4547 27.98 83.2219 28.9988C83.9348 31.6928 84.2945 34.4681 84.2919 37.2548H84.2909Z" fill="#019A5A"/>
<path d="M163.063 132.217L158.029 137.034L163.063 141.65V163.005H2.06348V141.65L7.09748 136.955L2.06348 132.217V118.233L7.44048 114.667C12.6105 117.167 14.3305 122.867 22.1885 122.867C32.2515 122.867 32.2515 113.515 42.3135 113.515C52.3755 113.515 52.3765 122.867 62.4385 122.867C72.5005 122.867 72.4975 113.516 82.5635 113.516C92.6225 113.516 92.6225 122.868 102.685 122.868C112.748 122.868 112.748 113.516 122.81 113.516C132.872 113.516 132.873 122.868 142.938 122.868C150.787 122.868 152.513 117.176 157.67 114.673L163.063 118.233V132.217Z" fill="#58C4FE" stroke="#29441E" stroke-width="4"/>
<path d="M162.34 131.272L157.351 135.846L162.34 140.229V160.505H82.5635V113.516C92.5325 113.516 92.5325 122.395 102.504 122.395C112.476 122.395 112.476 113.516 122.448 113.516C132.42 113.516 132.42 122.395 142.395 122.395C150.173 122.395 151.884 116.995 156.995 114.614L162.339 117.994L162.34 131.272Z" fill="#218ED2"/>
<path d="M163.063 132.217V141.651C159.884 141.651 158.503 142.934 156.211 145.063C153.511 147.569 149.821 151.003 142.938 151.003C136.055 151.003 132.36 147.569 129.662 145.063C127.373 142.934 125.989 141.651 122.81 141.651C119.631 141.651 118.25 142.934 115.958 145.063C113.263 147.569 109.568 151.003 102.685 151.003C95.8025 151.003 92.1075 147.569 89.4125 145.063C87.1205 142.934 85.7395 141.651 82.5635 141.651C79.3875 141.651 78.0035 142.934 75.7145 145.063C73.0145 147.569 69.3245 151.003 62.4415 151.003C55.5585 151.003 51.8635 147.569 49.1635 145.062C46.8745 142.933 45.4905 141.65 42.3145 141.65C39.1385 141.65 37.7515 142.933 35.4625 145.062C32.7625 147.568 29.0725 151.002 22.1895 151.002C15.3065 151.002 11.6115 147.568 8.91648 145.062C6.62348 142.934 5.23948 141.651 2.06348 141.651V132.217C8.94648 132.217 12.6415 135.648 15.3365 138.154C17.6285 140.283 19.0095 141.569 22.1885 141.569C25.3675 141.569 26.7485 140.283 29.0375 138.154C31.7375 135.648 35.4275 132.217 42.3135 132.217C49.1995 132.217 52.8885 135.648 55.5865 138.154C57.8755 140.283 59.2595 141.569 62.4385 141.569C65.6175 141.569 66.9985 140.283 69.2875 138.154C71.9875 135.648 75.6775 132.217 82.5605 132.217C89.4435 132.217 93.1355 135.648 95.8305 138.154C98.1225 140.283 99.5065 141.569 102.682 141.569C105.858 141.569 107.242 140.283 109.534 138.154C112.229 135.648 115.924 132.217 122.807 132.217C129.69 132.217 133.385 135.648 136.083 138.154C138.372 140.283 139.756 141.569 142.935 141.569C146.114 141.569 147.495 140.283 149.787 138.154C152.485 135.648 156.177 132.217 163.063 132.217Z" fill="#BCF7FC" stroke="#29441E" stroke-width="4"/>
<path d="M163.063 132.217V141.651C159.884 141.651 158.503 142.934 156.211 145.063C153.511 147.569 149.821 151.003 142.938 151.003C136.055 151.003 132.36 147.569 129.662 145.063C127.373 142.934 125.989 141.651 122.81 141.651C119.631 141.651 118.25 142.934 115.958 145.063C113.263 147.569 109.568 151.003 102.685 151.003C95.8025 151.003 92.1075 147.569 89.4125 145.063C87.1205 142.934 85.7395 141.651 82.5635 141.651V132.217C89.4465 132.217 93.1385 135.648 95.8335 138.154C98.1255 140.283 99.5095 141.569 102.685 141.569C105.861 141.569 107.245 140.283 109.537 138.154C112.232 135.648 115.927 132.217 122.81 132.217C129.693 132.217 133.388 135.648 136.086 138.154C138.375 140.283 139.759 141.569 142.938 141.569C146.117 141.569 147.498 140.283 149.79 138.154C152.485 135.648 156.177 132.217 163.063 132.217Z" fill="#77D7F2" stroke="#29441E" stroke-width="4"/>
<path d="M163.063 108.8V118.234C159.884 118.234 158.503 119.517 156.211 121.646C153.511 124.152 149.821 127.586 142.938 127.586C136.055 127.586 132.36 124.152 129.662 121.646C127.373 119.517 125.989 118.234 122.81 118.234C119.631 118.234 118.25 119.517 115.958 121.646C113.263 124.152 109.568 127.586 102.685 127.586C95.8025 127.586 92.1075 124.152 89.4125 121.646C87.1205 119.517 85.7395 118.234 82.5635 118.234C79.3875 118.234 78.0035 119.517 75.7145 121.646C73.0145 124.152 69.3245 127.586 62.4415 127.586C55.5585 127.586 51.8635 124.152 49.1635 121.645C46.8745 119.516 45.4905 118.233 42.3145 118.233C39.1385 118.233 37.7515 119.516 35.4625 121.645C32.7625 124.151 29.0725 127.585 22.1895 127.585C15.3065 127.585 11.6115 124.151 8.91648 121.645C6.62348 119.517 5.23948 118.234 2.06348 118.234V108.8C8.94648 108.8 12.6415 112.231 15.3365 114.737C17.6285 116.866 19.0095 118.152 22.1885 118.152C25.3675 118.152 26.7485 116.866 29.0375 114.737C31.7375 112.231 35.4275 108.8 42.3135 108.8C49.1995 108.8 52.8885 112.231 55.5865 114.737C57.8755 116.866 59.2595 118.152 62.4385 118.152C65.6175 118.152 66.9985 116.866 69.2875 114.737C71.9875 112.231 75.6775 108.8 82.5605 108.8C89.4435 108.8 93.1355 112.231 95.8305 114.737C98.1225 116.866 99.5065 118.152 102.682 118.152C105.858 118.152 107.242 116.866 109.534 114.737C112.229 112.231 115.924 108.8 122.807 108.8C129.69 108.8 133.385 112.231 136.083 114.737C138.372 116.866 139.756 118.152 142.935 118.152C146.114 118.152 147.495 116.866 149.787 114.737C152.482 112.231 156.174 108.8 163.06 108.8H163.063Z" fill="#BCF7FC" stroke="#29441E" stroke-width="4"/>
<path d="M163.063 108.8V118.234C159.884 118.234 158.503 119.517 156.211 121.646C153.511 124.152 149.821 127.586 142.938 127.586C136.055 127.586 132.36 124.152 129.662 121.646C127.373 119.517 125.989 118.234 122.81 118.234C119.631 118.234 118.25 119.517 115.958 121.646C113.263 124.152 109.568 127.586 102.685 127.586C95.8025 127.586 92.1075 124.152 89.4125 121.646C87.1205 119.517 85.7395 118.234 82.5635 118.234V108.8C89.4465 108.8 93.1385 112.231 95.8335 114.737C98.1255 116.866 99.5095 118.152 102.685 118.152C105.861 118.152 107.245 116.866 109.537 114.737C112.232 112.231 115.927 108.8 122.81 108.8C129.693 108.8 133.388 112.231 136.086 114.737C138.375 116.866 139.759 118.152 142.938 118.152C146.117 118.152 147.498 116.866 149.79 114.737C152.485 112.231 156.177 108.8 163.063 108.8Z" fill="#77D7F2" stroke="#29441E" stroke-width="4"/>
</svg>
