<svg width="29" height="26" viewBox="0 0 29 26" fill="none" xmlns="http://www.w3.org/2000/svg">
<path d="M12.9906 25.666C10.9969 25.6664 9.03054 25.2022 7.24748 24.3103C5.46442 23.4185 3.91367 22.1234 2.71823 20.5279C1.52278 18.9324 0.71551 17.0803 0.36044 15.1185C0.00536956 13.1567 0.112264 11.1392 0.672646 9.2259C1.23303 7.3126 2.23148 5.55618 3.58883 4.09593C4.94618 2.63568 6.62509 1.51176 8.49241 0.813307C10.3597 0.114851 12.3641 -0.13893 14.3466 0.0720894C16.3291 0.283109 18.2351 0.953124 19.9136 2.029C20.0989 2.15877 20.2269 2.35524 20.2707 2.57727C20.3145 2.79929 20.2706 3.02963 20.1483 3.22004C20.026 3.41045 19.8348 3.54615 19.6147 3.59871C19.3946 3.65127 19.1627 3.61662 18.9676 3.502C16.8949 2.17493 14.4394 1.57565 11.9884 1.79869C9.53735 2.02173 7.23034 3.05439 5.43124 4.73378C3.63213 6.41318 2.44331 8.64373 2.05229 11.0736C1.66128 13.5035 2.09033 15.9944 3.27177 18.1534C4.4532 20.3124 6.31978 22.0167 8.57708 22.9974C10.8344 23.9781 13.3539 24.1794 15.7383 23.5695C18.1227 22.9597 20.2362 21.5734 21.7454 19.6294C23.2547 17.6853 24.0738 15.2941 24.0736 12.833C24.0736 12.468 24.0556 12.106 24.0226 11.75C24.0001 11.519 24.0704 11.2886 24.2179 11.1094C24.3654 10.9302 24.578 10.8169 24.8091 10.7945C25.0401 10.7721 25.2705 10.8424 25.4497 10.9899C25.6289 11.1374 25.7421 11.35 25.7646 11.581C25.8039 11.993 25.8236 12.4103 25.8236 12.833C25.8196 16.2353 24.4663 19.4971 22.0605 21.9029C19.6547 24.3087 16.3929 25.662 12.9906 25.666Z" fill="#29441E"/>
<path d="M14.4486 15.749C14.3337 15.7491 14.22 15.7265 14.1139 15.6824C14.0078 15.6383 13.9115 15.5736 13.8306 15.492L8.58061 10.242C8.41644 10.0778 8.32422 9.85517 8.32422 9.623C8.32422 9.39083 8.41644 9.16817 8.58061 9.004C8.74478 8.83983 8.96745 8.7476 9.19962 8.7476C9.43179 8.7476 9.65445 8.83983 9.81862 9.004L14.4506 13.636L26.6636 1.419C26.8278 1.25483 27.0505 1.1626 27.2826 1.1626C27.5148 1.1626 27.7375 1.25483 27.9016 1.419C28.0658 1.58317 28.158 1.80583 28.158 2.038C28.158 2.27017 28.0658 2.49283 27.9016 2.657L15.0686 15.494C14.9039 15.6577 14.6809 15.7495 14.4486 15.749Z" fill="#29441E"/>
</svg>
