<svg width="386" height="460" viewBox="0 0 386 460" fill="none" xmlns="http://www.w3.org/2000/svg">
<g opacity="0.53">
<g opacity="0.53">
<g opacity="0.53">
<path opacity="0.53" d="M153.537 334.048C153.537 333.904 153.533 333.76 153.525 333.615V333.604C153.519 333.46 153.512 333.32 153.504 333.179C153.497 333.057 153.488 332.936 153.479 332.814C153.479 332.792 153.479 332.77 153.479 332.747C153.479 332.724 153.479 332.722 153.479 332.709C153.466 332.551 153.452 332.391 153.436 332.231C153.428 332.152 153.418 332.072 153.409 331.992C153.409 331.949 153.4 331.906 153.395 331.864C153.39 331.822 153.387 331.788 153.382 331.751C153.359 331.571 153.335 331.39 153.309 331.208C153.309 331.177 153.299 331.145 153.294 331.114C153.287 331.065 153.278 331.014 153.271 330.967C153.255 330.867 153.24 330.767 153.223 330.667C153.206 330.567 153.181 330.436 153.161 330.32C153.15 330.265 153.141 330.21 153.131 330.155C153.126 330.128 153.121 330.101 153.116 330.074C153.074 329.86 153.029 329.645 152.982 329.429L152.97 329.381C152.956 329.316 152.939 329.251 152.925 329.187C152.89 329.034 152.855 328.882 152.817 328.729C152.806 328.685 152.793 328.641 152.782 328.597C152.75 328.474 152.717 328.35 152.682 328.227C152.654 328.127 152.63 328.022 152.601 327.919C152.588 327.873 152.573 327.828 152.559 327.781C152.501 327.581 152.438 327.372 152.375 327.167C152.349 327.084 152.326 327.001 152.3 326.918C152.293 326.897 152.285 326.877 152.279 326.856C152.146 326.448 152.004 326.042 151.855 325.636C151.84 325.597 151.828 325.557 151.814 325.518C151.787 325.446 151.757 325.375 151.73 325.303C151.663 325.122 151.592 324.941 151.516 324.76C151.465 324.633 151.416 324.507 151.36 324.381C151.284 324.199 151.205 324.018 151.125 323.836C151.071 323.714 151.018 323.592 150.962 323.471C150.876 323.282 150.785 323.093 150.696 322.905C150.643 322.794 150.59 322.682 150.536 322.57C150.428 322.353 150.316 322.136 150.204 321.921C150.168 321.851 150.134 321.78 150.097 321.711L150.084 321.688C149.877 321.299 149.659 320.914 149.436 320.532C149.41 320.489 149.388 320.444 149.362 320.401C149.336 320.358 149.296 320.294 149.262 320.24C149.152 320.056 149.04 319.874 148.926 319.692C148.881 319.619 148.838 319.545 148.791 319.473C148.763 319.429 148.733 319.385 148.705 319.341C148.641 319.241 148.577 319.141 148.512 319.041C148.447 318.941 148.399 318.866 148.341 318.779C148.297 318.714 148.251 318.65 148.207 318.585C148.146 318.496 148.086 318.408 148.024 318.32C147.982 318.26 147.942 318.199 147.9 318.139C147.815 318.019 147.728 317.9 147.641 317.781L147.548 317.653L147.513 317.605C147.379 317.429 147.246 317.254 147.113 317.081L147.04 316.989L146.94 316.868C146.881 316.792 146.822 316.716 146.762 316.641C146.651 316.503 146.54 316.367 146.428 316.231L146.413 316.213C146.299 316.076 146.184 315.94 146.067 315.804C145.999 315.725 145.93 315.647 145.861 315.568L145.792 315.49L145.741 315.431C145.631 315.308 145.52 315.186 145.409 315.065C145.354 315.005 145.297 314.945 145.241 314.885L145.161 314.8L145.082 314.716C144.978 314.606 144.873 314.498 144.767 314.39C144.711 314.333 144.654 314.276 144.597 314.22L144.525 314.148L144.448 314.071C144.341 313.967 144.234 313.863 144.126 313.759C144.063 313.699 143.999 313.639 143.935 313.58L143.874 313.523L143.814 313.467C143.714 313.367 143.605 313.275 143.499 313.18L143.252 312.963L143.211 312.927L143.18 312.9C143.075 312.809 142.968 312.719 142.862 312.63C142.755 312.542 142.649 312.454 142.543 312.367H142.537L142.528 312.36C142.428 312.278 142.323 312.196 142.219 312.115C142.115 312.034 142.002 311.947 141.892 311.864L141.847 311.831L141.795 311.793L141.56 311.618C141.449 311.537 141.337 311.457 141.225 311.379L141.141 311.321L141.069 311.271L140.887 311.146C140.77 311.068 140.653 310.99 140.535 310.914L140.418 310.84L140.332 310.786L140.177 310.686C140.058 310.612 139.937 310.539 139.816 310.468L139.63 310.359L139.484 310.276C139.384 310.22 139.284 310.166 139.184 310.112C139.119 310.077 139.053 310.044 138.984 310.012L138.933 309.985L138.881 309.958C138.781 309.908 138.681 309.858 138.581 309.811C138.481 309.764 138.401 309.727 138.31 309.687L138.266 309.667L138.238 309.654C138.123 309.603 138.009 309.554 137.895 309.508C137.812 309.474 137.729 309.442 137.647 309.408L137.591 309.386L137.553 309.371C137.418 309.32 137.284 309.271 137.153 309.226C137.105 309.209 137.053 309.196 137.009 309.18L136.885 309.141L136.748 309.097C136.6 309.053 136.452 309.011 136.305 308.973H136.294L136.237 308.96C136.094 308.924 135.951 308.89 135.809 308.86L135.709 308.842C135.634 308.827 135.56 308.814 135.485 308.801C135.41 308.788 135.333 308.771 135.257 308.759C135.211 308.752 135.167 308.749 135.121 308.742C135.014 308.727 134.907 308.714 134.8 308.702C134.739 308.695 134.676 308.685 134.615 308.68C134.581 308.68 134.549 308.68 134.515 308.68C134.279 308.661 134.044 308.649 133.815 308.648C133.796 308.648 133.776 308.648 133.756 308.648H133.741H133.615C133.463 308.648 133.315 308.655 133.162 308.665C133.093 308.665 133.027 308.678 132.962 308.684C132.84 308.695 132.719 308.707 132.599 308.723C132.525 308.733 132.451 308.745 132.377 308.757C132.265 308.776 132.154 308.795 132.044 308.818C131.969 308.834 131.895 308.85 131.821 308.868C131.714 308.894 131.607 308.921 131.5 308.951C131.428 308.971 131.356 308.992 131.284 309.014C131.177 309.048 131.071 309.085 130.965 309.124C130.899 309.148 130.832 309.172 130.765 309.197C130.651 309.242 130.54 309.292 130.429 309.342C130.375 309.367 130.32 309.389 130.266 309.415C130.103 309.494 129.943 309.578 129.787 309.669L92.3379 331.432C92.4939 331.342 92.6549 331.257 92.8179 331.179C92.8709 331.153 92.9259 331.13 92.9799 331.106C93.0919 331.055 93.2029 331.006 93.3169 330.96C93.3829 330.934 93.4488 330.911 93.5168 330.887C93.6218 330.849 93.7278 330.811 93.8358 330.777C93.9068 330.755 93.9789 330.734 94.0509 330.714C94.1569 330.684 94.2638 330.656 94.3718 330.63L94.5948 330.58C94.7048 330.557 94.8168 330.538 94.9288 330.52C95.0018 330.508 95.0759 330.495 95.1509 330.485C95.2709 330.469 95.3919 330.456 95.5139 330.445C95.5819 330.439 95.6499 330.431 95.7139 330.426C95.8639 330.416 96.0139 330.411 96.1669 330.409C96.2089 330.409 96.2499 330.409 96.2919 330.409C96.3169 330.409 96.3418 330.409 96.3658 330.409C96.5978 330.409 96.8329 330.422 97.0659 330.441C97.1599 330.448 97.2549 330.458 97.3499 330.468C97.4449 330.478 97.5639 330.492 97.6709 330.508C97.7779 330.524 97.9129 330.545 98.0349 330.567C98.1089 330.58 98.1839 330.593 98.2589 330.608C98.4336 330.643 98.6092 330.682 98.7859 330.726L98.8429 330.739C99.0429 330.79 99.2358 330.848 99.4338 330.91L99.5569 330.95C99.7516 331.014 99.9465 331.082 100.142 331.155L100.198 331.177C100.404 331.257 100.61 331.342 100.817 331.434L100.862 331.455C101.069 331.548 101.277 331.648 101.484 331.755L101.535 331.782C101.749 331.892 101.963 332.008 102.177 332.132C102.412 332.266 102.645 332.407 102.877 332.556L102.963 332.61C103.182 332.75 103.399 332.894 103.614 333.041L103.686 333.091C103.906 333.244 104.124 333.401 104.341 333.562L104.393 333.6C104.621 333.772 104.848 333.949 105.072 334.13L105.081 334.137C105.308 334.321 105.533 334.509 105.755 334.702L105.795 334.737C106.004 334.921 106.212 335.107 106.418 335.297L106.479 335.354C106.679 335.54 106.876 335.729 107.069 335.922L107.141 335.994C107.331 336.185 107.519 336.378 107.705 336.574L107.785 336.66C107.971 336.86 108.155 337.06 108.337 337.26L108.404 337.337C108.592 337.551 108.777 337.768 108.961 337.988L108.974 338.004C109.149 338.214 109.319 338.428 109.489 338.643C109.52 338.683 109.553 338.723 109.584 338.764C109.754 338.983 109.921 339.204 110.084 339.428L110.177 339.556C110.307 339.734 110.435 339.915 110.561 340.096L110.743 340.36C110.846 340.512 110.948 340.664 111.048 340.817C111.112 340.917 111.177 341.017 111.241 341.112C111.315 341.228 111.388 341.346 111.461 341.463C111.575 341.645 111.687 341.827 111.796 342.011C111.855 342.111 111.912 342.211 111.969 342.304C112.192 342.686 112.41 343.071 112.617 343.46C112.657 343.535 112.695 343.612 112.735 343.687C112.848 343.905 112.961 344.123 113.069 344.342C113.124 344.452 113.175 344.564 113.228 344.674C113.319 344.863 113.409 345.052 113.496 345.242C113.551 345.364 113.605 345.486 113.658 345.607C113.739 345.789 113.817 345.97 113.894 346.152C113.947 346.278 113.994 346.404 114.05 346.531C114.123 346.712 114.194 346.893 114.264 347.074C114.307 347.186 114.348 347.297 114.389 347.407C114.539 347.813 114.681 348.219 114.812 348.627C114.846 348.727 114.876 348.835 114.912 348.939C114.975 349.139 115.038 349.348 115.096 349.554C115.138 349.702 115.179 349.854 115.219 349.999C115.252 350.122 115.286 350.246 115.319 350.369C115.369 350.569 115.416 350.766 115.461 350.959C115.476 351.024 115.493 351.088 115.507 351.153C115.564 351.411 115.618 351.669 115.667 351.927C115.677 351.983 115.687 352.038 115.697 352.094C115.737 352.312 115.774 352.528 115.808 352.744C115.816 352.793 115.824 352.844 115.831 352.89C115.868 353.142 115.902 353.392 115.931 353.641C115.931 353.684 115.94 353.726 115.945 353.769C115.973 354.021 115.998 354.269 116.018 354.523C116.018 354.546 116.018 354.569 116.018 354.592C116.038 354.854 116.053 355.116 116.063 355.376V355.387C116.074 355.665 116.079 355.941 116.078 356.216C116.078 356.468 116.071 356.716 116.058 356.962C116.058 356.977 116.058 356.992 116.058 357.006C116.046 357.236 116.029 357.461 116.006 357.683C116.006 357.706 116.006 357.73 115.999 357.754C115.976 357.972 115.949 358.186 115.916 358.396L115.907 358.457C115.873 358.675 115.834 358.89 115.79 359.101L115.783 359.133C115.736 359.355 115.684 359.571 115.627 359.783C115.627 359.789 115.627 359.794 115.627 359.8C115.57 360.009 115.509 360.213 115.442 360.413L115.428 360.454C115.362 360.648 115.293 360.838 115.218 361.024L115.201 361.065C115.124 361.252 115.044 361.435 114.959 361.614C114.959 361.62 114.953 361.626 114.95 361.632C114.867 361.802 114.78 361.969 114.69 362.132C114.68 362.15 114.67 362.17 114.659 362.188C114.572 362.343 114.479 362.488 114.384 362.64L114.32 362.74C114.22 362.887 114.12 363.031 114.02 363.169L113.981 363.216C113.881 363.34 113.786 363.459 113.681 363.575L113.581 363.686C113.498 363.777 113.413 363.865 113.326 363.951C113.281 363.996 113.236 364.042 113.19 364.086C113.099 364.172 113.006 364.254 112.911 364.334C112.868 364.371 112.826 364.41 112.782 364.445C112.738 364.48 112.67 364.53 112.614 364.573C112.514 364.652 112.414 364.73 112.302 364.803C112.162 364.903 112.019 364.991 111.872 365.077L149.321 343.314C149.454 343.238 149.584 343.157 149.709 343.071C149.724 343.061 149.737 343.05 149.751 343.04C149.857 342.967 149.96 342.888 150.062 342.81C150.11 342.774 150.162 342.741 150.206 342.703L150.23 342.682C150.274 342.646 150.316 342.607 150.359 342.571C150.435 342.506 150.512 342.443 150.585 342.371L150.637 342.319C150.683 342.275 150.727 342.23 150.773 342.184C150.819 342.138 150.879 342.084 150.93 342.028C150.963 341.993 150.994 341.955 151.03 341.919L151.13 341.808L151.212 341.717C151.285 341.629 151.357 341.539 151.427 341.449L151.465 341.401L151.476 341.388C151.551 341.288 151.625 341.188 151.697 341.088C151.722 341.052 151.745 341.014 151.77 340.977L151.835 340.877L151.904 340.772C151.968 340.672 152.03 340.566 152.091 340.46L152.11 340.425C152.12 340.407 152.131 340.388 152.14 340.37C152.179 340.299 152.219 340.23 152.256 340.158C152.305 340.064 152.356 339.968 152.399 339.872L152.408 339.854V339.846C152.456 339.746 152.502 339.646 152.547 339.546C152.581 339.468 152.614 339.388 152.647 339.308C152.652 339.295 152.658 339.282 152.664 339.269C152.67 339.256 152.671 339.252 152.674 339.244C152.715 339.144 152.754 339.039 152.792 338.934C152.82 338.857 152.847 338.778 152.873 338.699L152.887 338.657L152.897 338.629C152.93 338.529 152.963 338.429 152.997 338.329C153.031 338.229 153.058 338.135 153.077 338.047C153.077 338.042 153.077 338.037 153.077 338.031V338.021C153.104 337.919 153.131 337.815 153.156 337.711C153.181 337.607 153.204 337.505 153.225 337.405C153.224 337.397 153.224 337.389 153.225 337.381C153.225 337.37 153.225 337.359 153.231 337.348C153.249 337.264 153.266 337.179 153.282 337.093C153.302 336.989 153.32 336.883 153.337 336.777C153.337 336.753 153.345 336.728 153.348 336.704C153.351 336.68 153.355 336.663 153.357 336.643C153.366 336.583 153.376 336.524 153.384 336.464C153.398 336.364 153.412 336.253 153.424 336.146C153.429 336.098 153.434 336.046 153.439 336C153.439 335.976 153.444 335.953 153.446 335.93C153.448 335.907 153.454 335.86 153.457 335.824C153.467 335.716 153.476 335.607 153.483 335.497C153.489 335.416 153.493 335.334 153.498 335.252C153.498 335.237 153.498 335.223 153.498 335.208C153.498 335.193 153.498 335.181 153.498 335.167C153.503 335.056 153.507 334.944 153.51 334.832C153.513 334.72 153.51 334.607 153.515 334.493V334.462C153.54 334.31 153.54 334.179 153.537 334.048Z" fill="#456DAD"/>
<g opacity="0.53">
<path opacity="0.53" d="M102.184 332.115C110.206 336.747 116.116 347.385 116.09 356.202C116.068 364.216 110.115 368.808 102.09 364.176C95.1127 360.147 88.1597 348.105 88.1827 340.091C88.2107 331.277 95.2057 328.087 102.184 332.115Z" fill="#7A92CE"/>
</g>
</g>
<g opacity="0.53">
<path opacity="0.53" d="M126.145 275.359C125.878 275.514 125.618 275.673 125.362 275.835C125.28 275.886 125.201 275.935 125.121 275.991C125.004 276.067 124.886 276.141 124.771 276.218C124.722 276.252 124.671 276.287 124.626 276.318C124.496 276.407 124.369 276.498 124.242 276.588C124.115 276.678 123.976 276.779 123.842 276.876C123.708 276.973 123.596 277.064 123.475 277.159C123.398 277.22 123.317 277.278 123.241 277.339C123.182 277.387 123.126 277.439 123.068 277.484C122.991 277.547 122.915 277.611 122.839 277.675C122.683 277.809 122.529 277.942 122.379 278.075C122.314 278.133 122.248 278.191 122.184 278.25L122.109 278.318C122.063 278.361 122.021 278.407 121.976 278.45C121.752 278.663 121.534 278.879 121.32 279.101C121.278 279.145 121.231 279.186 121.189 279.231C121.147 279.276 121.113 279.318 121.073 279.36C120.924 279.521 120.773 279.686 120.634 279.851C120.577 279.917 120.516 279.979 120.461 280.045C120.437 280.074 120.414 280.104 120.39 280.133C120.254 280.295 120.123 280.461 119.99 280.633C119.93 280.709 119.866 280.783 119.808 280.86C119.794 280.878 119.781 280.897 119.767 280.916C119.667 281.05 119.567 281.189 119.467 281.326C119.393 281.426 119.315 281.526 119.242 281.637C119.23 281.654 119.219 281.673 119.207 281.69C119.127 281.806 119.051 281.926 118.974 282.044C118.897 282.162 118.812 282.286 118.734 282.41C118.72 282.432 118.707 282.456 118.693 282.479C118.629 282.579 118.567 282.688 118.504 282.793C118.429 282.919 118.351 283.042 118.278 283.17C118.258 283.206 118.239 283.243 118.219 283.279C118.158 283.388 118.098 283.499 118.038 283.61C117.978 283.721 117.915 283.83 117.856 283.943C117.828 283.997 117.802 284.053 117.774 284.107C117.718 284.216 117.664 284.326 117.61 284.436C117.565 284.528 117.517 284.618 117.473 284.711C117.429 284.804 117.4 284.874 117.362 284.954C117.309 285.068 117.257 285.183 117.205 285.298C117.174 285.367 117.142 285.434 117.111 285.498C117.061 285.613 117.011 285.731 116.966 285.847C116.921 285.963 116.876 286.06 116.832 286.168C116.814 286.212 116.795 286.254 116.778 286.299C116.709 286.472 116.644 286.65 116.578 286.827C116.547 286.91 116.515 286.99 116.484 287.074C116.477 287.091 116.47 287.108 116.464 287.126C116.361 287.408 116.261 287.695 116.164 287.985C116.164 287.994 116.158 288.003 116.155 288.012C116.134 288.074 116.116 288.138 116.096 288.201C116.024 288.423 115.953 288.646 115.885 288.874C115.874 288.91 115.864 288.948 115.854 288.984C115.818 289.105 115.784 289.229 115.754 289.352C115.711 289.504 115.667 289.652 115.625 289.808C115.609 289.87 115.594 289.934 115.577 289.997C115.54 290.14 115.503 290.285 115.467 290.43C115.436 290.552 115.404 290.671 115.375 290.794C115.355 290.879 115.337 290.968 115.317 291.053C115.281 291.209 115.245 291.366 115.21 291.525C115.187 291.625 115.163 291.725 115.141 291.831C115.119 291.937 115.1 292.04 115.079 292.143C115.042 292.321 115.006 292.501 114.972 292.682C114.954 292.774 114.935 292.863 114.917 292.956C114.896 293.068 114.878 293.185 114.858 293.297C114.823 293.49 114.789 293.683 114.758 293.879C114.743 293.968 114.726 294.055 114.712 294.145C114.694 294.256 114.679 294.371 114.662 294.482C114.626 294.712 114.592 294.943 114.562 295.176C114.548 295.276 114.532 295.366 114.519 295.464C114.506 295.562 114.494 295.664 114.481 295.764C114.446 296.024 114.413 296.285 114.381 296.549C114.367 296.663 114.352 296.773 114.338 296.887C114.329 296.967 114.322 297.051 114.313 297.131C114.278 297.451 114.245 297.777 114.213 298.104C114.201 298.229 114.186 298.349 114.175 298.474C114.175 298.519 114.168 298.567 114.164 298.613C114.116 299.15 114.071 299.695 114.033 300.252C114.033 300.264 114.033 300.275 114.033 300.287C114.005 300.687 113.981 301.103 113.957 301.518C113.951 301.631 113.945 301.745 113.939 301.859C113.931 302.014 113.922 302.168 113.915 302.324C113.906 302.502 113.9 302.685 113.892 302.866C113.886 303.008 113.88 303.15 113.874 303.293C113.857 303.729 113.842 304.17 113.83 304.616C113.83 304.64 113.83 304.663 113.83 304.686V304.696C113.816 305.19 113.806 305.69 113.8 306.196C113.8 306.363 113.8 306.534 113.795 306.702C113.795 307.002 113.788 307.302 113.786 307.609C113.786 307.701 113.786 307.794 113.786 307.886V309.486C113.786 309.665 113.786 309.845 113.786 310.025C113.786 310.06 113.786 310.095 113.786 310.125C113.786 310.856 113.777 311.591 113.759 312.316C113.759 312.339 113.759 312.361 113.759 312.384C113.75 312.723 113.738 313.059 113.723 313.391C113.723 313.413 113.723 313.435 113.723 313.457C113.711 313.703 113.697 313.946 113.681 314.186L113.674 314.295C113.66 314.487 113.645 314.679 113.629 314.867C113.629 314.91 113.62 314.953 113.617 314.996C113.605 315.119 113.592 315.24 113.58 315.36C113.574 315.414 113.568 315.468 113.562 315.522C113.55 315.622 113.537 315.722 113.524 315.822C113.518 315.873 113.511 315.922 113.504 315.977C113.493 316.058 113.48 316.138 113.468 316.218C113.46 316.275 113.451 316.332 113.442 316.388C113.433 316.444 113.422 316.507 113.411 316.566C113.4 316.625 113.387 316.701 113.375 316.766C113.363 316.831 113.352 316.883 113.34 316.941C113.328 316.999 113.314 317.075 113.299 317.141L113.273 317.257C113.256 317.332 113.238 317.407 113.22 317.481C113.21 317.521 113.2 317.561 113.19 317.601C113.17 317.675 113.15 317.748 113.13 317.82C113.12 317.855 113.111 317.891 113.1 317.926C113.071 318.026 113.04 318.126 113.007 318.226L112.993 318.266C112.964 318.352 112.935 318.436 112.904 318.519C112.894 318.547 112.883 318.574 112.873 318.601C112.842 318.681 112.81 318.76 112.773 318.838C112.767 318.852 112.761 318.868 112.755 318.882C112.716 318.971 112.676 319.058 112.634 319.143L112.603 319.206C112.566 319.28 112.528 319.353 112.488 319.424C112.481 319.437 112.474 319.45 112.467 319.462C112.421 319.542 112.374 319.62 112.325 319.697L112.287 319.755C112.246 319.817 112.203 319.878 112.16 319.938L112.126 319.985C112.073 320.055 112.019 320.123 111.962 320.185L111.91 320.243C111.868 320.291 111.824 320.343 111.779 320.384L111.71 320.452C111.666 320.494 111.622 320.534 111.576 320.574C111.553 320.594 111.53 320.615 111.507 320.634C111.484 320.653 111.438 320.688 111.407 320.714C111.376 320.74 111.307 320.789 111.257 320.824C111.207 320.859 111.127 320.911 111.057 320.951L148.506 299.188C148.56 299.157 148.612 299.124 148.664 299.088L148.704 299.059C148.756 299.024 148.804 298.987 148.854 298.95C148.877 298.932 148.902 298.916 148.925 298.898L148.958 298.87L149.027 298.81C149.053 298.788 149.08 298.766 149.105 298.743L149.161 298.688C149.184 298.665 149.208 298.643 149.23 298.619C149.252 298.595 149.261 298.59 149.276 298.574C149.291 298.558 149.333 298.51 149.362 298.474L149.414 298.416L149.433 298.395C149.477 298.343 149.52 298.29 149.562 298.234L149.578 298.212L149.612 298.166C149.637 298.132 149.662 298.099 149.685 298.066C149.708 298.033 149.722 298.011 149.74 297.983L149.778 297.926L149.802 297.889C149.839 297.829 149.875 297.769 149.911 297.707L149.92 297.692L149.941 297.653C149.966 297.609 149.99 297.565 150.014 297.52C150.029 297.493 150.042 297.463 150.056 297.435L150.087 297.372L150.11 297.326C150.141 297.26 150.172 297.193 150.201 297.126L150.207 297.111L150.225 297.067C150.247 297.015 150.27 296.967 150.291 296.908C150.301 296.882 150.311 296.856 150.32 296.83C150.329 296.804 150.341 296.775 150.351 296.748L150.377 296.68C150.399 296.619 150.42 296.557 150.441 296.495L150.455 296.455V296.445C150.481 296.364 150.507 296.282 150.532 296.198L150.544 296.155C150.555 296.12 150.564 296.084 150.574 296.049C150.584 296.014 150.6 295.959 150.612 295.914C150.62 295.887 150.626 295.857 150.633 295.829C150.64 295.801 150.654 295.75 150.664 295.71L150.686 295.622C150.697 295.577 150.706 295.531 150.717 295.485L150.743 295.369C150.743 295.353 150.751 295.337 150.754 295.321C150.765 295.271 150.775 295.221 150.785 295.169C150.795 295.117 150.809 295.053 150.82 294.994C150.82 294.981 150.825 294.968 150.828 294.955C150.838 294.902 150.847 294.846 150.856 294.793C150.865 294.74 150.877 294.675 150.887 294.615C150.887 294.603 150.887 294.592 150.893 294.58C150.9 294.535 150.906 294.489 150.913 294.444C150.925 294.364 150.937 294.284 150.949 294.203C150.949 294.188 150.949 294.173 150.955 294.157C150.96 294.121 150.964 294.084 150.969 294.048C150.982 293.948 150.995 293.848 151.007 293.748C151.007 293.723 151.014 293.698 151.016 293.672C151.018 293.646 151.022 293.614 151.025 293.585C151.038 293.465 151.05 293.346 151.062 293.224C151.062 293.193 151.068 293.162 151.072 293.13C151.072 293.117 151.072 293.104 151.072 293.091C151.088 292.903 151.103 292.712 151.117 292.52C151.117 292.505 151.117 292.491 151.117 292.476C151.117 292.461 151.117 292.432 151.117 292.411C151.133 292.171 151.147 291.928 151.159 291.682C151.159 291.674 151.159 291.666 151.159 291.657C151.159 291.648 151.159 291.63 151.159 291.616C151.175 291.283 151.186 290.947 151.195 290.608C151.195 290.594 151.195 290.581 151.195 290.567V290.541C151.213 289.816 151.219 289.082 151.222 288.35V288.339C151.222 288.308 151.222 288.276 151.222 288.245C151.222 288.065 151.222 287.885 151.222 287.705V286.105C151.222 285.705 151.228 285.313 151.232 284.921C151.232 284.753 151.232 284.581 151.237 284.415C151.244 283.904 151.254 283.399 151.267 282.901C151.267 282.877 151.267 282.855 151.267 282.831C151.278 282.384 151.292 281.943 151.31 281.508C151.316 281.363 151.322 281.221 151.328 281.078C151.342 280.741 151.358 280.408 151.375 280.078C151.381 279.963 151.387 279.848 151.393 279.734C151.417 279.307 151.443 278.885 151.471 278.468C151.509 277.911 151.554 277.368 151.602 276.828C151.617 276.657 151.635 276.489 151.651 276.319C151.683 275.992 151.716 275.666 151.751 275.346C151.773 275.146 151.796 274.957 151.819 274.764C151.851 274.498 151.884 274.236 151.919 273.979C151.945 273.779 151.972 273.579 152 273.387C152.034 273.152 152.068 272.921 152.1 272.687C152.131 272.487 152.164 272.287 152.2 272.087C152.233 271.887 152.267 271.697 152.3 271.504C152.333 271.311 152.375 271.092 152.414 270.889C152.449 270.708 152.485 270.528 152.522 270.35C152.565 270.142 152.608 269.937 152.653 269.734C152.688 269.575 152.724 269.417 152.76 269.261C152.809 269.051 152.86 268.844 152.911 268.638C152.947 268.493 152.983 268.347 153.021 268.205C153.078 267.987 153.138 267.773 153.198 267.561C153.233 267.438 153.266 267.314 153.298 267.193C153.376 266.928 153.457 266.668 153.54 266.41C153.561 266.348 153.579 266.283 153.599 266.221C153.703 265.903 153.812 265.591 153.924 265.283C153.954 265.199 153.987 265.118 154.018 265.035C154.101 264.814 154.185 264.594 154.272 264.378C154.316 264.269 154.361 264.163 154.406 264.056C154.484 263.869 154.564 263.684 154.645 263.502C154.696 263.387 154.745 263.272 154.802 263.158C154.883 262.983 154.966 262.811 155.051 262.64C155.105 262.53 155.16 262.42 155.215 262.312C155.301 262.144 155.39 261.979 155.479 261.812C155.539 261.701 155.598 261.59 155.66 261.481C155.753 261.316 155.849 261.156 155.945 260.995C156.008 260.895 156.07 260.784 156.134 260.681C156.226 260.534 156.321 260.39 156.416 260.247C156.494 260.128 156.569 260.009 156.649 259.893C156.729 259.777 156.822 259.65 156.909 259.529C157.009 259.392 157.109 259.254 157.209 259.119C157.282 259.019 157.358 258.93 157.432 258.836C157.563 258.669 157.694 258.502 157.832 258.336C157.911 258.236 157.995 258.147 158.076 258.054C158.22 257.888 158.365 257.724 158.515 257.563C158.596 257.475 158.679 257.389 158.763 257.303C158.975 257.083 159.193 256.866 159.417 256.654C159.488 256.587 159.556 256.518 159.627 256.454C159.698 256.39 159.755 256.339 159.819 256.282C159.971 256.146 160.125 256.012 160.281 255.882L160.508 255.693C160.642 255.582 160.779 255.475 160.917 255.367C161.038 255.273 161.16 255.178 161.283 255.085C161.406 254.992 161.546 254.892 161.683 254.797C161.82 254.702 161.936 254.616 162.066 254.527C162.229 254.415 162.394 254.306 162.566 254.197C162.646 254.145 162.725 254.097 162.806 254.041C163.062 253.879 163.323 253.72 163.589 253.565L126.145 275.359Z" fill="#456DAD"/>
<path opacity="0.53" d="M109.718 146.106C109.718 145.946 109.728 145.789 109.733 145.631C109.741 145.405 109.747 145.178 109.758 144.955C109.765 144.791 109.775 144.63 109.784 144.468C109.795 144.255 109.807 144.042 109.821 143.833C109.833 143.658 109.846 143.485 109.859 143.313C109.872 143.141 109.887 142.953 109.902 142.775C109.917 142.597 109.935 142.429 109.952 142.257C109.969 142.085 109.986 141.914 110.004 141.745C110.022 141.576 110.043 141.408 110.064 141.245C110.085 141.082 110.105 140.909 110.127 140.745C110.149 140.581 110.174 140.412 110.198 140.245C110.222 140.078 110.244 139.928 110.269 139.771C110.294 139.614 110.324 139.434 110.353 139.271C110.378 139.127 110.402 138.982 110.428 138.839C110.459 138.672 110.492 138.507 110.528 138.339C110.555 138.2 110.582 138.06 110.611 137.923C110.646 137.757 110.683 137.595 110.719 137.432C110.749 137.299 110.778 137.166 110.809 137.032C110.848 136.867 110.89 136.705 110.931 136.543C110.963 136.418 110.994 136.291 111.031 136.168C111.075 136.003 111.122 135.841 111.168 135.679C111.201 135.562 111.233 135.444 111.268 135.329C111.319 135.159 111.368 134.992 111.425 134.829C111.458 134.729 111.489 134.62 111.525 134.518C111.588 134.325 111.655 134.137 111.725 133.949C111.751 133.876 111.775 133.8 111.802 133.728C111.852 133.59 111.902 133.457 111.957 133.321C112.012 133.185 112.05 133.071 112.099 132.949C112.154 132.811 112.212 132.677 112.269 132.541C112.317 132.425 112.369 132.308 112.414 132.194C112.471 132.063 112.531 131.937 112.59 131.809C112.649 131.681 112.69 131.578 112.747 131.465C112.771 131.414 112.797 131.365 112.822 131.315C112.916 131.122 113.01 130.931 113.108 130.743C113.144 130.673 113.184 130.605 113.221 130.535C113.311 130.366 113.402 130.199 113.495 130.035C113.546 129.946 113.595 129.86 113.651 129.772C113.734 129.631 113.817 129.491 113.902 129.354C113.956 129.267 114.012 129.183 114.067 129.098C114.158 128.957 114.249 128.816 114.343 128.679C114.399 128.597 114.456 128.516 114.514 128.435C114.623 128.28 114.734 128.127 114.847 127.976C114.904 127.9 114.962 127.823 115.019 127.749C115.146 127.585 115.276 127.424 115.408 127.266C115.451 127.215 115.492 127.166 115.535 127.111C115.725 126.887 115.92 126.67 116.12 126.459C116.166 126.41 116.213 126.359 116.259 126.315C116.449 126.115 116.642 125.924 116.84 125.741C116.882 125.701 116.923 125.661 116.965 125.622C117.21 125.396 117.465 125.18 117.717 124.972L117.936 124.797C118.036 124.722 118.127 124.648 118.224 124.575C118.321 124.502 118.401 124.444 118.491 124.375C118.581 124.306 118.691 124.235 118.791 124.167C118.868 124.114 118.945 124.067 119.023 124.011C119.275 123.845 119.529 123.684 119.79 123.533L82.3408 145.296C82.0808 145.447 81.8257 145.609 81.5747 145.774C81.5437 145.795 81.5107 145.813 81.4747 145.834C81.4387 145.855 81.3838 145.899 81.3378 145.934C81.2378 146.002 81.1377 146.072 81.0377 146.142C80.9377 146.212 80.8598 146.271 80.7708 146.342C80.6818 146.413 80.5778 146.489 80.4818 146.564C80.4338 146.602 80.3818 146.637 80.3368 146.676C80.3128 146.696 80.2888 146.718 80.2648 146.738C80.0088 146.947 79.7578 147.163 79.5128 147.388L79.4738 147.422C79.4438 147.449 79.4168 147.48 79.3878 147.507C79.1878 147.693 78.9941 147.885 78.8068 148.081C78.7768 148.112 78.7458 148.14 78.7158 148.171L78.6677 148.225C78.4677 148.436 78.2728 148.654 78.0828 148.877L78.0568 148.906C78.0218 148.947 77.9898 148.991 77.9568 149.032C77.8235 149.19 77.6937 149.351 77.5677 149.515C77.5447 149.546 77.5197 149.574 77.4957 149.605C77.4717 149.636 77.4288 149.698 77.3958 149.743C77.2831 149.894 77.1721 150.047 77.0627 150.202C77.0297 150.249 76.9948 150.294 76.9628 150.342C76.9308 150.39 76.9178 150.412 76.8948 150.442C76.8008 150.579 76.7098 150.72 76.6188 150.861C76.5788 150.923 76.5367 150.982 76.4967 151.046L76.4537 151.118C76.3687 151.255 76.2858 151.396 76.2028 151.536C76.1598 151.608 76.1147 151.678 76.0737 151.751L76.0477 151.799C75.9537 151.963 75.8638 152.131 75.7738 152.299C75.7398 152.362 75.7047 152.422 75.6737 152.486L75.6627 152.507C75.5627 152.695 75.4708 152.886 75.3778 153.079C75.3538 153.127 75.3288 153.174 75.3058 153.223V153.229C75.2518 153.342 75.2058 153.458 75.1488 153.573C75.0918 153.688 75.0317 153.823 74.9757 153.951V153.958C74.9257 154.072 74.8758 154.19 74.8308 154.305C74.7748 154.438 74.7188 154.569 74.6648 154.705V154.713C74.6168 154.835 74.5707 154.961 74.5227 155.085C74.4747 155.209 74.4227 155.349 74.3717 155.485V155.494C74.3457 155.565 74.3218 155.639 74.2968 155.711C74.2328 155.893 74.1678 156.074 74.1068 156.26L74.0988 156.286C74.0658 156.386 74.0348 156.486 73.9988 156.592C73.9498 156.747 73.8988 156.9 73.8528 157.058L73.8408 157.101C73.8078 157.215 73.7757 157.333 73.7407 157.448C73.6997 157.591 73.6588 157.733 73.6188 157.878C73.6128 157.899 73.6088 157.92 73.6028 157.941C73.5698 158.063 73.5398 158.189 73.5078 158.313C73.4758 158.437 73.4367 158.584 73.4077 158.722C73.4007 158.749 73.3958 158.777 73.3888 158.805C73.3578 158.935 73.3288 159.068 73.2998 159.2C73.2708 159.332 73.2388 159.459 73.2108 159.591C73.2038 159.625 73.1978 159.661 73.1898 159.691C73.1608 159.827 73.1348 159.965 73.1078 160.103C73.0808 160.241 73.0557 160.352 73.0327 160.479C73.0247 160.52 73.0187 160.563 73.0107 160.604C72.9847 160.746 72.9608 160.89 72.9358 161.033C72.9148 161.154 72.8928 161.272 72.8728 161.394C72.8648 161.442 72.8587 161.494 72.8507 161.539C72.8257 161.695 72.8028 161.854 72.7798 162.013C72.7628 162.128 72.7438 162.241 72.7278 162.358C72.7208 162.408 72.7148 162.458 72.7078 162.512C72.6858 162.677 72.6648 162.844 72.6448 163.012C72.6308 163.128 72.6137 163.242 72.6007 163.359C72.5947 163.412 72.5897 163.466 72.5847 163.519C72.5657 163.687 72.5497 163.858 72.5327 164.029C72.5207 164.148 72.5067 164.264 72.4957 164.384C72.4907 164.438 72.4878 164.494 72.4828 164.548C72.4668 164.726 72.4538 164.906 72.4398 165.086C72.4308 165.208 72.4188 165.327 72.4108 165.449C72.4108 165.501 72.4047 165.554 72.4017 165.606C72.3877 165.816 72.3757 166.028 72.3647 166.241C72.3577 166.362 72.3498 166.481 72.3438 166.604C72.3438 166.645 72.3438 166.687 72.3438 166.729C72.3338 166.952 72.3267 167.179 72.3197 167.405C72.3197 167.534 72.3088 167.659 72.3058 167.789C72.3058 167.819 72.3058 167.85 72.3058 167.88C72.2998 168.126 72.2967 168.375 72.2937 168.624C72.2937 168.751 72.2937 168.876 72.2877 169.004C72.2877 169.042 72.2877 169.079 72.2877 169.117C72.2877 169.334 72.2877 169.549 72.2767 169.764C72.2767 169.818 72.2768 169.872 72.2708 169.925C72.2648 170.093 72.2571 170.259 72.2478 170.425C72.2478 170.472 72.2427 170.519 72.2397 170.566C72.2267 170.766 72.2108 170.966 72.1918 171.166C72.1918 171.201 72.1848 171.236 72.1808 171.266C72.1628 171.446 72.1424 171.624 72.1198 171.8C72.1198 171.832 72.1118 171.864 72.1078 171.9C72.0818 172.092 72.0528 172.282 72.0208 172.47C72.0148 172.507 72.0077 172.543 72.0017 172.58C71.9687 172.766 71.9327 172.95 71.8927 173.131C71.8877 173.158 71.8807 173.184 71.8757 173.21C71.8337 173.397 71.7887 173.581 71.7407 173.761L71.7297 173.802C71.6777 173.991 71.6227 174.176 71.5637 174.356L71.5568 174.376C71.4958 174.56 71.4308 174.74 71.3568 174.915L71.3478 174.935C71.2811 175.109 71.2071 175.277 71.1257 175.441L71.1138 175.466C71.0364 175.626 70.9548 175.781 70.8688 175.931L70.8488 175.964C70.7628 176.111 70.6737 176.252 70.5787 176.388L70.5548 176.421C70.4548 176.556 70.3548 176.687 70.2548 176.811L70.2388 176.828C70.1388 176.943 70.0387 177.052 69.9287 177.156C69.9127 177.172 69.8988 177.187 69.8828 177.203C69.7778 177.303 69.6667 177.394 69.5537 177.483C69.5167 177.512 69.4788 177.538 69.4418 177.565C69.3278 177.647 69.2128 177.727 69.0918 177.798L106.505 156.025C106.579 155.982 106.652 155.936 106.723 155.888C106.768 155.858 106.811 155.823 106.855 155.788C106.899 155.753 106.93 155.735 106.967 155.706C106.988 155.69 107.011 155.675 107.032 155.659C107.114 155.593 107.194 155.524 107.272 155.452L107.297 155.427C107.313 155.412 107.328 155.396 107.343 155.381C107.393 155.333 107.443 155.281 107.492 155.234C107.541 155.187 107.6 155.115 107.653 155.053L107.668 155.036L107.676 155.028C107.736 154.957 107.795 154.884 107.851 154.809C107.891 154.756 107.93 154.7 107.969 154.645L107.993 154.612C107.998 154.605 108.005 154.597 108.01 154.589C108.06 154.516 108.11 154.442 108.157 154.366C108.193 154.308 108.229 154.248 108.263 154.188L108.283 154.156L108.297 154.133C108.341 154.055 108.385 153.976 108.427 153.895C108.469 153.814 108.496 153.759 108.527 153.69L108.539 153.665L108.547 153.649C108.587 153.566 108.625 153.481 108.663 153.394C108.701 153.307 108.729 153.238 108.763 153.158L108.771 153.139L108.776 153.128C108.812 153.038 108.846 152.947 108.876 152.854C108.906 152.761 108.935 152.685 108.964 152.6L108.971 152.58V152.568C109.004 152.468 109.035 152.368 109.065 152.268C109.088 152.188 109.111 152.107 109.134 152.026C109.134 152.013 109.141 152 109.145 151.987L109.153 151.961C109.182 151.853 109.21 151.743 109.236 151.633C109.252 151.567 109.266 151.501 109.281 151.433C109.287 151.407 109.293 151.38 109.299 151.354C109.305 151.328 109.309 151.312 109.313 151.291C109.338 151.175 109.362 151.057 109.384 150.937C109.392 150.893 109.4 150.847 109.408 150.802C109.416 150.757 109.421 150.729 109.427 150.693C109.433 150.657 109.443 150.604 109.45 150.559C109.47 150.432 109.49 150.304 109.508 150.175C109.508 150.158 109.508 150.14 109.514 150.123C109.52 150.106 109.522 150.059 109.526 150.023C109.538 149.933 109.549 149.843 109.56 149.752C109.571 149.661 109.578 149.576 109.587 149.488C109.587 149.453 109.594 149.419 109.598 149.388C109.598 149.369 109.598 149.35 109.603 149.33C109.617 149.179 109.629 149.03 109.64 148.873C109.64 148.844 109.64 148.815 109.64 148.786C109.64 148.74 109.646 148.692 109.648 148.646C109.648 148.565 109.658 148.485 109.662 148.403C109.666 148.321 109.668 148.232 109.671 148.147C109.671 148.093 109.671 148.04 109.677 147.986C109.677 147.958 109.677 147.93 109.677 147.901C109.677 147.73 109.684 147.558 109.684 147.386C109.684 147.37 109.684 147.354 109.684 147.339C109.684 147.173 109.684 147.011 109.69 146.846C109.705 146.601 109.712 146.351 109.718 146.106Z" fill="#456DAD"/>
<path opacity="0.53" d="M162.944 221.04C161.249 221.779 159.495 222.378 157.7 222.83C156.983 223.09 156.28 223.36 155.59 223.642C154.901 223.923 154.226 224.216 153.564 224.521C153.231 224.673 152.904 224.829 152.582 224.987C151.611 225.461 150.671 225.961 149.762 226.487L112.313 248.25C114.845 246.794 117.501 245.569 120.251 244.59C122.046 244.138 123.8 243.539 125.496 242.8C131.22 241.3 136.664 239.824 141.145 237.22L178.594 215.457C174.11 218.064 168.665 219.536 162.944 221.04Z" fill="#456DAD"/>
<path opacity="0.53" d="M68.823 117.103C68.923 117.057 69.023 117.01 69.123 116.965C69.458 116.813 69.7951 116.665 70.1381 116.527C70.4811 116.389 70.8281 116.259 71.1781 116.135C71.2781 116.098 71.386 116.063 71.49 116.027C71.7513 115.938 72.0147 115.852 72.28 115.77C72.386 115.737 72.491 115.704 72.598 115.67C72.958 115.563 73.3211 115.462 73.6891 115.37H73.698C74.063 115.278 74.4331 115.195 74.8051 115.116C74.9161 115.093 75.0271 115.071 75.1381 115.049C75.4187 114.993 75.701 114.941 75.985 114.893C76.098 114.874 76.209 114.854 76.322 114.837C76.707 114.776 77.0941 114.72 77.4861 114.673H77.5C77.887 114.627 78.2791 114.589 78.6731 114.556C78.7911 114.546 78.9101 114.538 79.0281 114.53C79.3254 114.508 79.6254 114.49 79.9281 114.476L80.285 114.46C80.693 114.445 81.1041 114.435 81.5181 114.434H81.53C81.936 114.434 82.347 114.441 82.76 114.454L83.05 114.464C83.463 114.479 83.878 114.5 84.297 114.529L84.446 114.541C84.782 114.565 85.122 114.596 85.462 114.629C85.725 114.654 85.99 114.683 86.255 114.714C86.488 114.741 86.7211 114.768 86.9551 114.798C87.2241 114.833 87.494 114.873 87.765 114.913C88.015 114.95 88.265 114.987 88.516 115.028C88.687 115.056 88.859 115.086 89.032 115.116C89.3326 115.17 89.6351 115.226 89.9391 115.284C90.1131 115.318 90.2861 115.351 90.4601 115.384C90.7961 115.453 91.133 115.527 91.472 115.603C91.605 115.633 91.7381 115.661 91.8721 115.693C92.3454 115.804 92.822 115.921 93.302 116.045L93.4771 116.092C93.8897 116.202 94.3047 116.316 94.722 116.436L95.1221 116.554C95.5221 116.672 95.922 116.794 96.322 116.92L96.571 116.997C97.0504 117.151 97.5327 117.312 98.0181 117.479L98.329 117.588C98.7563 117.738 99.1857 117.893 99.6171 118.052L99.8361 118.133C100.318 118.315 100.803 118.503 101.291 118.698L101.631 118.835C102.114 119.035 102.598 119.23 103.086 119.435L103.128 119.453C103.57 119.642 104.016 119.841 104.462 120.041C104.928 120.25 105.396 120.466 105.862 120.686C106.04 120.769 106.216 120.85 106.395 120.935C107.039 121.243 107.687 121.56 108.339 121.888C108.47 121.954 108.602 122.025 108.733 122.088C109.244 122.349 109.756 122.615 110.272 122.888C110.498 123.008 110.726 123.134 110.953 123.256C111.379 123.487 111.807 123.721 112.237 123.961C112.69 124.214 113.142 124.467 113.598 124.73L151.047 102.967C150.701 102.767 150.356 102.571 150.012 102.377C149.903 102.315 149.795 102.259 149.686 102.198C149.257 101.958 148.829 101.724 148.404 101.498C148.241 101.41 148.076 101.316 147.914 101.229L147.721 101.129C147.205 100.855 146.693 100.59 146.183 100.329C146.069 100.271 145.953 100.208 145.839 100.15L145.788 100.125C145.136 99.7968 144.488 99.4791 143.844 99.1724L143.731 99.1175C143.59 99.0505 143.452 98.9905 143.311 98.9245C142.841 98.7045 142.373 98.4884 141.911 98.2794C141.823 98.2394 141.733 98.1964 141.645 98.1574C141.288 97.9988 140.931 97.8434 140.576 97.6914L140.534 97.6745C140.201 97.5325 139.869 97.3935 139.539 97.2575C139.385 97.1935 139.232 97.1335 139.079 97.0725L138.739 96.9354C138.285 96.7544 137.832 96.5765 137.382 96.4065L137.282 96.3704L137.063 96.2904C136.632 96.1298 136.202 95.9748 135.775 95.8255L135.464 95.7165L135.256 95.6435C134.841 95.5015 134.428 95.3651 134.017 95.2345L133.769 95.1574C133.499 95.0724 133.228 94.9865 132.959 94.9055C132.829 94.8665 132.7 94.8304 132.57 94.7924L132.17 94.6745C131.753 94.5545 131.339 94.4398 130.926 94.3305L130.751 94.2835L130.703 94.2705C130.24 94.1498 129.779 94.0364 129.322 93.9304C129.188 93.8994 129.056 93.8715 128.922 93.8415C128.679 93.7865 128.435 93.7294 128.194 93.6784L127.908 93.6225C127.734 93.5865 127.561 93.5534 127.389 93.5224C127.085 93.4638 126.782 93.4078 126.481 93.3545L125.966 93.2655C125.866 93.2495 125.773 93.2315 125.678 93.2165C125.522 93.1925 125.369 93.1745 125.214 93.1505C124.943 93.1105 124.672 93.0704 124.404 93.0354C124.169 93.0044 123.936 92.9774 123.704 92.9514C123.439 92.9214 123.174 92.8915 122.911 92.8665C122.811 92.8565 122.711 92.8434 122.611 92.8344C122.37 92.8124 122.13 92.7954 121.89 92.7774L121.741 92.7664C121.322 92.7374 120.907 92.7174 120.494 92.7014L120.203 92.6914C119.79 92.6784 119.379 92.6705 118.973 92.6715H118.956C118.543 92.6715 118.134 92.6835 117.727 92.6975C117.607 92.6975 117.488 92.7075 117.369 92.7135C117.068 92.7275 116.768 92.7455 116.469 92.7675C116.351 92.7765 116.231 92.7845 116.114 92.7945C115.72 92.8275 115.328 92.8645 114.941 92.9115H114.927C114.535 92.9585 114.148 93.0115 113.763 93.0755C113.65 93.0935 113.539 93.1135 113.426 93.1325C113.141 93.1805 112.859 93.2325 112.579 93.2885L112.246 93.3554C111.874 93.4344 111.504 93.5175 111.139 93.6095H111.13C110.762 93.7025 110.4 93.8044 110.04 93.9094C109.933 93.9414 109.828 93.9744 109.722 94.0094C109.455 94.0914 109.192 94.1775 108.932 94.2675C108.832 94.3035 108.724 94.3385 108.62 94.3755C108.27 94.5005 107.92 94.6295 107.58 94.7675C107.237 94.9055 106.899 95.0534 106.564 95.2064C106.464 95.2504 106.364 95.2975 106.27 95.3435C106.023 95.4595 105.778 95.5791 105.535 95.7025C105.435 95.7515 105.342 95.8024 105.246 95.8504C104.921 96.0204 104.6 96.1955 104.283 96.3795L66.833 118.142C67.15 117.958 67.472 117.783 67.796 117.613C67.896 117.563 67.9891 117.513 68.0861 117.465C68.3321 117.338 68.576 117.218 68.823 117.103Z" fill="#00296B"/>
<path opacity="0.53" d="M211.9 204.534V204.341C211.9 203.77 211.896 203.198 211.888 202.625C211.888 202.597 211.888 202.57 211.888 202.542C211.883 202.218 211.871 201.894 211.862 201.57C211.854 201.291 211.849 201.012 211.839 200.733C211.839 200.707 211.839 200.681 211.839 200.655C211.826 200.329 211.808 200.004 211.792 199.678C211.778 199.398 211.768 199.119 211.751 198.839C211.751 198.815 211.751 198.792 211.751 198.768C211.721 198.268 211.685 197.774 211.651 197.276C211.641 197.134 211.633 196.993 211.622 196.852C211.622 196.845 211.622 196.838 211.622 196.831C211.57 196.179 211.51 195.527 211.444 194.875C211.444 194.86 211.444 194.845 211.444 194.83C211.426 194.657 211.404 194.483 211.385 194.31C211.335 193.846 211.285 193.382 211.228 192.918C211.228 192.881 211.22 192.845 211.216 192.808C211.196 192.644 211.17 192.48 211.149 192.316C211.086 191.828 211.021 191.34 210.949 190.852C210.937 190.771 210.928 190.69 210.916 190.609C210.891 190.442 210.862 190.276 210.837 190.109C210.77 189.65 210.698 189.191 210.619 188.733C210.597 188.605 210.58 188.476 210.558 188.348C210.536 188.22 210.509 188.085 210.486 187.954C210.404 187.484 210.319 187.014 210.23 186.544C210.199 186.382 210.173 186.221 210.142 186.059C210.128 185.988 210.112 185.917 210.098 185.846C209.943 185.056 209.78 184.267 209.607 183.478C209.6 183.444 209.593 183.411 209.586 183.378C209.563 183.278 209.536 183.169 209.512 183.064C209.362 182.398 209.205 181.728 209.041 181.056C209.012 180.938 208.988 180.82 208.958 180.703C208.921 180.553 208.88 180.403 208.843 180.253C208.78 180.005 208.717 179.757 208.652 179.509C208.561 179.159 208.468 178.81 208.373 178.46C208.307 178.216 208.241 177.971 208.173 177.727C208.14 177.608 208.109 177.487 208.073 177.368C208.015 177.161 207.952 176.955 207.893 176.749C207.808 176.449 207.722 176.155 207.634 175.858C207.54 175.541 207.443 175.224 207.346 174.907C207.255 174.607 207.165 174.315 207.072 174.02C207.04 173.92 207.011 173.82 206.979 173.72C206.938 173.591 206.892 173.462 206.851 173.333C206.656 172.726 206.456 172.12 206.251 171.514C206.185 171.319 206.12 171.125 206.051 170.93C205.784 170.168 205.512 169.407 205.235 168.648L205.201 168.548C205.121 168.335 205.038 168.123 204.958 167.91C204.815 167.532 204.673 167.153 204.526 166.776C204.426 166.51 204.317 166.246 204.211 165.976C204.068 165.615 203.925 165.254 203.778 164.894C203.667 164.621 203.553 164.349 203.44 164.076C203.294 163.726 203.148 163.376 202.999 163.027C202.88 162.749 202.759 162.472 202.639 162.195C202.49 161.853 202.339 161.512 202.188 161.17C202.063 160.89 201.937 160.611 201.809 160.331C201.656 159.995 201.501 159.658 201.345 159.322C201.212 159.042 201.081 158.763 200.951 158.484C200.793 158.151 200.633 157.818 200.471 157.484C200.338 157.207 200.202 156.93 200.064 156.653C199.9 156.32 199.733 155.989 199.564 155.659C199.425 155.383 199.285 155.108 199.144 154.833C198.974 154.5 198.802 154.17 198.629 153.843C198.539 153.672 198.452 153.499 198.361 153.328C198.322 153.254 198.28 153.181 198.241 153.107C197.826 152.329 197.404 151.555 196.975 150.785C196.901 150.652 196.824 150.519 196.749 150.385C196.366 149.705 195.977 149.029 195.581 148.355C195.52 148.255 195.461 148.145 195.4 148.04L195.264 147.813C195.046 147.446 194.825 147.08 194.603 146.713C194.465 146.485 194.328 146.257 194.189 146.03C193.936 145.618 193.679 145.208 193.421 144.798C193.321 144.642 193.227 144.484 193.128 144.329L193.083 144.258C192.969 144.079 192.853 143.901 192.738 143.722C192.51 143.368 192.283 143.013 192.051 142.661C191.914 142.451 191.774 142.243 191.635 142.033C191.469 141.783 191.305 141.533 191.135 141.284C191.104 141.237 191.07 141.191 191.035 141.144C190.531 140.398 190.02 139.657 189.501 138.921C189.457 138.858 189.415 138.794 189.371 138.731C189.298 138.631 189.222 138.531 189.149 138.425C188.721 137.825 188.287 137.225 187.849 136.625C187.782 136.535 187.718 136.442 187.649 136.352L187.565 136.24C187.09 135.6 186.609 134.963 186.124 134.331L186.031 134.208C185.938 134.088 185.843 133.97 185.75 133.85C185.401 133.401 185.05 132.954 184.697 132.51C184.62 132.41 184.545 132.315 184.468 132.219C184.391 132.123 184.301 132.019 184.218 131.912C183.878 131.491 183.536 131.072 183.191 130.654C183.091 130.533 182.991 130.409 182.891 130.287C182.845 130.232 182.797 130.178 182.751 130.122C182.402 129.704 182.05 129.289 181.696 128.876C181.602 128.766 181.509 128.653 181.415 128.544L181.369 128.491C180.902 127.953 180.436 127.42 179.969 126.891L179.915 126.829C179.803 126.704 179.689 126.582 179.578 126.457C179.241 126.082 178.902 125.709 178.563 125.337C178.516 125.287 178.471 125.237 178.425 125.185C178.286 125.034 178.144 124.885 178.004 124.735C177.727 124.438 177.45 124.142 177.172 123.846C177.104 123.775 177.038 123.702 176.972 123.63C176.842 123.493 176.709 123.36 176.578 123.223C176.306 122.94 176.033 122.658 175.759 122.377C175.671 122.287 175.584 122.194 175.495 122.104C175.375 121.983 175.254 121.864 175.134 121.743C174.871 121.477 174.607 121.213 174.342 120.951C174.235 120.845 174.13 120.738 174.023 120.632C173.916 120.526 173.805 120.422 173.697 120.316C173.44 120.066 173.183 119.816 172.925 119.568C172.803 119.451 172.684 119.332 172.562 119.216C172.462 119.123 172.362 119.032 172.268 118.94C172.008 118.694 171.747 118.449 171.485 118.205C171.351 118.08 171.218 117.952 171.085 117.828L170.824 117.591C170.563 117.351 170.3 117.113 170.037 116.875C169.89 116.743 169.745 116.608 169.598 116.475C169.522 116.406 169.444 116.34 169.368 116.275C169.106 116.043 168.843 115.812 168.58 115.582C168.422 115.444 168.265 115.303 168.107 115.166L167.907 114.992C167.641 114.763 167.373 114.537 167.107 114.311C166.939 114.169 166.773 114.024 166.607 113.884L166.43 113.739C166.156 113.51 165.88 113.286 165.605 113.06C165.43 112.917 165.256 112.771 165.081 112.629L164.935 112.513C164.648 112.281 164.36 112.054 164.071 111.826C163.892 111.684 163.714 111.539 163.535 111.399L163.423 111.313C163.123 111.078 162.823 110.848 162.516 110.613C162.335 110.475 162.156 110.334 161.974 110.197L161.896 110.139C161.549 109.878 161.196 109.622 160.852 109.366C160.697 109.252 160.543 109.135 160.388 109.022L160.351 108.995C159.83 108.617 159.306 108.243 158.78 107.874L158.763 107.862C158.663 107.795 158.569 107.73 158.473 107.662C158.049 107.367 157.624 107.075 157.196 106.785L157.125 106.736C156.968 106.63 156.81 106.529 156.652 106.424C156.297 106.188 155.942 105.951 155.585 105.724L155.449 105.634C155.292 105.534 155.133 105.434 154.975 105.334C154.628 105.113 154.281 104.891 153.932 104.675C153.859 104.63 153.787 104.582 153.714 104.537C153.564 104.445 153.414 104.357 153.264 104.265C152.931 104.065 152.599 103.865 152.269 103.665C152.169 103.605 152.069 103.542 151.969 103.483C151.67 103.307 151.37 103.132 151.069 102.959L113.62 124.722C114.02 124.953 114.42 125.191 114.82 125.429C115.154 125.629 115.487 125.829 115.82 126.029C116.043 126.165 116.266 126.301 116.488 126.439C116.836 126.656 117.188 126.877 117.53 127.098C117.73 127.228 117.937 127.356 118.139 127.487C118.497 127.719 118.854 127.956 119.21 128.194C119.39 128.313 119.57 128.431 119.749 128.551C120.177 128.84 120.603 129.134 121.029 129.431C121.129 129.501 121.229 129.57 121.329 129.641C121.854 130.01 122.378 130.384 122.9 130.762C123.067 130.884 123.234 131.009 123.4 131.132C123.749 131.388 124.1 131.645 124.444 131.906C124.652 132.062 124.857 132.222 125.064 132.38C125.364 132.611 125.669 132.842 125.97 133.08C126.187 133.249 126.402 133.422 126.618 133.592C126.906 133.82 127.195 134.048 127.482 134.279C127.705 134.459 127.927 134.642 128.149 134.824C128.426 135.051 128.703 135.277 128.978 135.506C129.203 135.694 129.426 135.884 129.65 136.073C129.92 136.301 130.189 136.529 130.457 136.759C130.683 136.954 130.908 137.15 131.132 137.347C131.399 137.577 131.662 137.809 131.922 138.041C132.146 138.241 132.369 138.441 132.591 138.641C132.858 138.879 133.12 139.117 133.379 139.357C133.601 139.561 133.822 139.766 134.042 139.971C134.303 140.215 134.565 140.46 134.825 140.706C135.045 140.915 135.264 141.124 135.482 141.334C135.741 141.582 135.998 141.832 136.254 142.082C136.469 142.293 136.684 142.504 136.898 142.716C137.165 142.98 137.429 143.244 137.691 143.51C137.899 143.72 138.107 143.931 138.314 144.141C138.589 144.423 138.862 144.705 139.135 144.989C139.335 145.196 139.535 145.403 139.735 145.611C140.014 145.905 140.291 146.202 140.567 146.499C140.753 146.699 140.94 146.899 141.126 147.099C141.467 147.47 141.805 147.843 142.141 148.219C142.271 148.364 142.402 148.507 142.532 148.653C143.003 149.183 143.47 149.716 143.932 150.253C144.04 150.379 144.147 150.507 144.255 150.633C144.61 151.048 144.963 151.465 145.314 151.884C145.461 152.06 145.607 152.238 145.753 152.415C146.098 152.833 146.44 153.253 146.781 153.674C146.941 153.874 147.1 154.074 147.259 154.274C147.613 154.719 147.964 155.166 148.313 155.616C148.437 155.776 148.563 155.936 148.687 156.097C149.172 156.729 149.653 157.366 150.128 158.006C150.223 158.134 150.316 158.262 150.41 158.39C150.848 158.985 151.281 159.585 151.71 160.19C151.827 160.355 151.946 160.52 152.062 160.69C152.58 161.424 153.092 162.165 153.596 162.913C153.796 163.209 153.994 163.505 154.19 163.802C154.328 164.011 154.468 164.22 154.606 164.429C154.837 164.781 155.065 165.135 155.292 165.49C155.407 165.669 155.523 165.846 155.637 166.026C155.751 166.206 155.862 166.386 155.975 166.566C156.233 166.976 156.489 167.386 156.743 167.798C156.882 168.025 157.019 168.253 157.157 168.481C157.379 168.847 157.6 169.212 157.818 169.581C157.925 169.761 158.03 169.942 158.136 170.122C158.531 170.796 158.921 171.472 159.304 172.152C159.379 172.285 159.455 172.418 159.53 172.552C159.961 173.322 160.383 174.097 160.796 174.875C160.929 175.119 161.058 175.364 161.183 175.609C161.356 175.943 161.529 176.274 161.7 176.602C161.842 176.877 161.981 177.152 162.119 177.427C162.286 177.761 162.452 178.094 162.619 178.427C162.756 178.704 162.891 178.981 163.026 179.258C163.187 179.592 163.348 179.925 163.507 180.258C163.64 180.537 163.772 180.816 163.901 181.095C164.057 181.429 164.212 181.765 164.365 182.104C164.492 182.384 164.619 182.663 164.744 182.943C164.896 183.284 165.044 183.626 165.195 183.968C165.316 184.246 165.436 184.523 165.555 184.8C165.704 185.149 165.855 185.5 165.996 185.849C166.109 186.121 166.223 186.394 166.335 186.667C166.482 187.027 166.625 187.388 166.768 187.749C166.873 188.014 166.98 188.279 167.083 188.549C167.23 188.926 167.372 189.305 167.515 189.683C167.607 189.928 167.701 190.172 167.792 190.417C168.073 191.176 168.345 191.937 168.608 192.699C168.675 192.893 168.74 193.088 168.808 193.283C169.015 193.889 169.215 194.495 169.408 195.102C169.482 195.331 169.557 195.559 169.629 195.789C169.722 196.085 169.813 196.38 169.903 196.676C170.003 196.992 170.097 197.309 170.191 197.626C170.279 197.926 170.365 198.226 170.451 198.519C170.544 198.844 170.638 199.168 170.728 199.493C170.796 199.739 170.863 199.985 170.928 200.231C171.022 200.579 171.114 200.927 171.205 201.275C171.272 201.524 171.336 201.773 171.397 202.022C171.465 202.289 171.529 202.557 171.597 202.822C171.761 203.489 171.918 204.158 172.068 204.83C172.099 204.968 172.132 205.107 172.162 205.245C172.336 206.033 172.5 206.823 172.653 207.613C172.698 207.845 172.741 208.078 172.785 208.313C172.874 208.78 172.959 209.25 173.042 209.723C173.087 209.983 173.132 210.243 173.175 210.502C173.251 210.961 173.324 211.42 173.393 211.878C173.431 212.125 173.469 212.372 173.505 212.62C173.575 213.108 173.64 213.596 173.705 214.085C173.731 214.285 173.759 214.485 173.784 214.685C173.841 215.149 173.891 215.613 173.941 216.076C173.961 216.264 173.985 216.453 174.004 216.641C174.071 217.293 174.13 217.945 174.182 218.597C174.194 218.745 174.202 218.897 174.214 219.043C174.251 219.543 174.288 220.038 174.314 220.535C174.332 220.835 174.344 221.142 174.36 221.445C174.376 221.77 174.395 222.096 174.407 222.421C174.419 222.726 174.425 223.031 174.434 223.335C174.443 223.659 174.455 223.983 174.461 224.307C174.472 224.907 174.476 225.507 174.475 226.107C174.475 226.431 174.467 226.744 174.463 227.063C174.463 227.453 174.455 227.845 174.446 228.227C174.439 228.521 174.427 228.806 174.417 229.095C174.405 229.459 174.394 229.825 174.378 230.182C174.363 230.515 174.343 230.84 174.324 231.167C174.308 231.45 174.294 231.736 174.275 232.014C174.25 232.379 174.221 232.736 174.192 233.094C174.174 233.315 174.158 233.541 174.139 233.759C174.101 234.175 174.058 234.581 174.014 234.988C173.998 235.139 173.984 235.295 173.967 235.446C173.906 235.985 173.839 236.514 173.767 237.034C173.747 237.181 173.723 237.322 173.702 237.468C173.648 237.838 173.593 238.207 173.533 238.568C173.502 238.755 173.469 238.938 173.433 239.123C173.379 239.436 173.323 239.748 173.264 240.054C173.228 240.238 173.192 240.419 173.155 240.601C173.096 240.897 173.034 241.188 172.97 241.476C172.93 241.659 172.889 241.84 172.847 242.02C172.78 242.306 172.712 242.587 172.642 242.866C172.599 243.035 172.557 243.206 172.513 243.373C172.435 243.673 172.353 243.96 172.271 244.249C172.231 244.391 172.192 244.534 172.151 244.674C172.033 245.074 171.911 245.466 171.785 245.85C171.777 245.875 171.77 245.9 171.762 245.925C171.629 246.334 171.489 246.734 171.343 247.125C171.292 247.266 171.238 247.401 171.185 247.54C171.085 247.797 170.99 248.053 170.885 248.304C170.823 248.458 170.759 248.604 170.695 248.759C170.595 248.987 170.504 249.213 170.405 249.435C170.332 249.599 170.258 249.759 170.184 249.92C170.089 250.125 169.994 250.327 169.897 250.527C169.81 250.705 169.721 250.881 169.632 251.056C169.543 251.231 169.44 251.43 169.342 251.613C169.244 251.796 169.158 251.952 169.065 252.119C168.972 252.286 168.865 252.466 168.77 252.636C168.656 252.836 168.539 253.024 168.422 253.216C168.327 253.37 168.232 253.525 168.136 253.677C168.004 253.883 167.869 254.086 167.736 254.286C167.645 254.422 167.554 254.559 167.461 254.692C167.277 254.955 167.09 255.211 166.9 255.464C166.84 255.544 166.782 255.627 166.722 255.706C166.452 256.059 166.176 256.406 165.894 256.736C165.826 256.818 165.755 256.896 165.686 256.977C165.434 257.271 165.177 257.557 164.916 257.836C164.816 257.943 164.716 258.052 164.616 258.157C164.534 258.242 164.451 258.326 164.368 258.41C164.209 258.572 164.049 258.73 163.887 258.886C163.805 258.964 163.725 259.043 163.642 259.121C163.506 259.25 163.367 259.374 163.228 259.5C163.089 259.626 162.959 259.745 162.822 259.865C162.685 259.985 162.55 260.098 162.414 260.213C162.278 260.328 162.138 260.447 161.997 260.561C161.889 260.648 161.78 260.733 161.671 260.819C161.444 260.999 161.215 261.175 160.984 261.348C160.871 261.433 160.757 261.517 160.643 261.6C160.399 261.777 160.153 261.95 159.904 262.12C159.804 262.186 159.712 262.254 159.614 262.32C159.405 262.46 159.192 262.596 158.98 262.731C158.88 262.798 158.772 262.867 158.667 262.931C158.35 263.131 158.03 263.324 157.706 263.51H157.699L195.148 241.747C195.474 241.558 195.797 241.364 196.116 241.164C196.221 241.099 196.323 241.03 196.428 240.964C196.641 240.828 196.854 240.692 197.063 240.552L197.146 240.498C197.216 240.451 197.283 240.398 197.352 240.353C197.602 240.183 197.848 240.009 198.092 239.832C198.206 239.749 198.318 239.666 198.431 239.582C198.664 239.409 198.894 239.232 199.121 239.052C199.191 238.997 199.263 238.945 199.331 238.89L199.445 238.79C199.586 238.675 199.724 238.558 199.863 238.441C200.002 238.324 200.136 238.212 200.27 238.094C200.404 237.976 200.542 237.85 200.677 237.728C200.777 237.64 200.877 237.555 200.969 237.466C201.01 237.428 201.049 237.388 201.089 237.35C201.172 237.272 201.253 237.193 201.334 237.114C201.495 236.958 201.655 236.8 201.814 236.639C201.897 236.555 201.98 236.471 202.062 236.385C202.113 236.332 202.162 236.285 202.216 236.227C202.27 236.169 202.316 236.118 202.361 236.065C202.622 235.785 202.879 235.499 203.132 235.205C203.179 235.15 203.232 235.099 203.277 235.043C203.298 235.018 203.319 234.99 203.34 234.965C203.622 234.632 203.899 234.288 204.169 233.934C204.178 233.922 204.187 233.912 204.196 233.9C204.247 233.833 204.296 233.762 204.346 233.694C204.536 233.44 204.724 233.183 204.908 232.92C204.935 232.881 204.963 232.845 204.99 232.807C205.056 232.707 205.118 232.607 205.183 232.514C205.318 232.314 205.453 232.114 205.583 231.904C205.62 231.846 205.659 231.791 205.696 231.732C205.755 231.638 205.811 231.539 205.869 231.444C205.987 231.252 206.103 231.059 206.218 230.863C206.261 230.79 206.306 230.721 206.348 230.647C206.404 230.547 206.457 230.447 206.513 230.347C206.607 230.18 206.699 230.011 206.791 229.84C206.833 229.762 206.876 229.688 206.917 229.609C206.973 229.502 207.025 229.39 207.08 229.282C207.17 229.107 207.258 228.932 207.345 228.754C207.382 228.677 207.422 228.604 207.459 228.527C207.518 228.403 207.574 228.272 207.633 228.147C207.707 227.986 207.782 227.826 207.854 227.662C207.884 227.595 207.915 227.531 207.945 227.462C208.013 227.306 208.077 227.143 208.145 226.984C208.213 226.825 208.273 226.684 208.335 226.529C208.354 226.481 208.375 226.435 208.395 226.386C208.476 226.186 208.552 225.973 208.631 225.766C208.683 225.627 208.737 225.492 208.789 225.351L208.82 225.27C208.954 224.904 209.082 224.532 209.205 224.154V224.148C209.213 224.124 209.22 224.098 209.228 224.073C209.343 223.722 209.455 223.368 209.562 223.006C209.572 222.97 209.582 222.933 209.593 222.898C209.635 222.757 209.674 222.612 209.714 222.469C209.776 222.252 209.839 222.038 209.898 221.818C209.917 221.745 209.935 221.67 209.954 221.597C209.999 221.429 210.041 221.258 210.084 221.087C210.127 220.916 210.169 220.761 210.209 220.594C210.237 220.479 210.261 220.359 210.288 220.244C210.33 220.064 210.371 219.882 210.411 219.699C210.438 219.575 210.468 219.454 210.495 219.33C210.53 219.165 210.561 218.993 210.595 218.83C210.629 218.667 210.669 218.465 210.705 218.28C210.721 218.195 210.739 218.113 210.755 218.027C210.797 217.806 210.833 217.578 210.872 217.353C210.905 217.166 210.939 216.982 210.972 216.793C210.981 216.74 210.991 216.693 210.999 216.636C211.049 216.328 211.093 216.011 211.14 215.696C211.161 215.55 211.185 215.408 211.205 215.261C211.205 215.239 211.212 215.218 211.215 215.197C211.282 214.707 211.345 214.209 211.404 213.703V213.673C211.421 213.523 211.435 213.367 211.451 213.215C211.492 212.835 211.534 212.456 211.57 212.067C211.57 212.041 211.57 212.013 211.576 211.987C211.596 211.769 211.611 211.544 211.629 211.323C211.655 211.008 211.683 210.696 211.705 210.375C211.705 210.331 211.705 210.286 211.713 210.242C211.731 209.964 211.746 209.677 211.762 209.394C211.778 209.111 211.797 208.844 211.811 208.563C211.811 208.513 211.811 208.463 211.817 208.41C211.833 208.053 211.844 207.687 211.856 207.324C211.864 207.075 211.877 206.834 211.883 206.582C211.883 206.541 211.883 206.498 211.883 206.457C211.892 206.075 211.896 205.683 211.901 205.293C211.89 205.042 211.899 204.788 211.9 204.534Z" fill="#00296B"/>
<g opacity="0.53">
<path opacity="0.53" d="M113.543 124.912C147.027 144.244 174.507 186.202 174.393 226.281C174.293 260.749 157.165 265.712 137.234 271.068L133.388 272.461C118.351 277.027 113.788 286.434 113.721 308.076V309.676C113.7 317.29 113.676 325.705 102.863 319.462C93.0969 313.824 91.7249 304.603 91.7429 298.19L91.7508 295.39C91.8328 266.533 100.959 251.73 120.194 244.77C121.988 244.319 123.742 243.72 125.438 242.98C139.775 239.213 152.362 235.643 152.423 213.998C152.496 188.348 134.75 162.447 113.123 149.962C90.1039 136.672 72.2708 142.431 72.1948 169.285C72.1768 175.699 69.7128 181.503 61.6948 176.872C55.4168 173.247 50.1948 165.416 50.2188 158.201C50.3328 115.716 76.5688 103.564 113.543 124.912Z" fill="#002277"/>
</g>
</g>
</g>
<g opacity="0.53">
<g opacity="0.53">
<path opacity="0.53" d="M257.292 292.316V351.161L310.676 381.984V323.139L257.292 292.316Z" fill="#062B47"/>
</g>
</g>
<path opacity="0.53" d="M312.174 127.495L305.874 292.143L285.774 302.196L286.582 281.003L262.39 267.037L256.903 117.237L235.993 105.165L256.093 95.1152L312.174 127.495Z" fill="#456DAD"/>
<g opacity="0.53">
<path opacity="0.53" d="M292.075 137.544L285.775 302.194L242.292 277.094L235.992 105.172L292.075 137.544ZM290.575 333.188V392.034L237.19 361.212V302.365L290.575 333.188Z" fill="#7A92CE"/>
</g>
<path opacity="0.53" d="M237.193 302.365L257.293 292.315L310.68 323.137V381.984L290.581 392.035V333.184L237.193 302.365Z" fill="#456DAD"/>
</g>
<path d="M291.15 189.403C291.15 189.403 289.55 189.603 289.25 190.223C288.937 192.425 288.792 194.647 288.815 196.87C291.275 199.264 294.023 201.341 296.997 203.054C300.952 205.083 304.368 205.966 305.897 204.632C307.426 203.298 306.48 201.763 303.226 199.119C299.972 196.475 296.833 189.397 296.832 189.403C296.831 189.409 291.15 189.403 291.15 189.403Z" fill="#0D8785"/>
<path d="M309.855 181.471C309.855 181.471 308.255 181.671 307.955 182.291C307.643 184.493 307.498 186.715 307.521 188.938C309.981 191.332 312.73 193.409 315.704 195.122C319.657 197.151 323.074 198.034 324.604 196.7C326.134 195.366 325.188 193.831 321.934 191.187C318.68 188.543 315.54 181.465 315.54 181.471C315.54 181.477 309.855 181.471 309.855 181.471Z" fill="#0D8785"/>
<path d="M249.356 110.787C249.232 118.305 250.202 130.246 254.082 132.909C259.995 136.968 288.689 143.395 288.689 143.395L288.123 190.079C288.123 190.079 292.239 194.157 298.647 190.079C298.647 190.079 306.333 136.113 305.403 132.327C304.473 128.541 272.815 118.88 272.815 118.88L249.356 110.787Z" fill="#171B23"/>
<path d="M268.39 106.675C268.266 114.193 269.08 122.84 273.116 125.261C277.485 127.882 307.722 135.747 307.722 135.747L307.156 182.431C307.156 182.431 311.271 186.509 317.679 182.431C317.679 182.431 325.366 128.465 324.435 124.679C323.504 120.893 291.847 111.232 291.847 111.232L268.39 106.675Z" fill="#171B23"/>
<path d="M308.674 95.8335C308.674 95.8335 313.474 99.2415 312.656 101.865C311.838 104.489 305.4 98.3735 305.4 98.3735L308.674 95.8335Z" fill="#FFC6A0"/>
<path d="M280.262 56.8174C285.145 57.4094 290.379 73.6584 290.606 82.9524L308.676 95.8354C307.187 98.5615 304.703 100.607 301.742 101.545L285.42 94.0894L280.262 56.8174Z" fill="#486D39"/>
<path d="M257.608 59.4973C253.408 61.1685 249.477 63.45 245.942 66.2683L249.355 114.328C249.355 114.328 256.487 119.546 271.064 115.728C282.939 112.621 286.059 107.621 286.059 107.621C286.059 107.621 287.144 84.0652 286.029 72.6082C284.914 61.1512 280.261 56.8162 280.261 56.8162C277.671 56.0302 271.955 56.3603 271.955 56.3603L257.608 59.4973Z" fill="#29441E"/>
<path d="M273.723 26.8232C268.674 25.7653 263.433 26.0848 258.55 27.7482C251.059 30.5542 255.431 41.2242 257.635 46.2482C259.839 51.2722 261.372 49.4482 261.372 49.4482L277.694 42.8662C277.694 42.8662 279.865 42.1762 279.55 35.3662C279.557 33.52 279.003 31.7151 277.963 30.1899C276.923 28.6647 275.444 27.4909 273.723 26.8232Z" fill="#0A2435"/>
<path d="M260.006 56.8264L259.678 45.7874C259.298 45.7599 258.929 45.6485 258.597 45.4613C258.265 45.2741 257.979 45.0158 257.759 44.7048C257.54 44.3939 257.391 44.0381 257.325 43.663C257.259 43.2879 257.277 42.9028 257.378 42.5355C257.856 39.4945 260.701 41.4945 261.203 42.3895C261.203 42.3895 261.842 31.9155 267.39 30.9085C272.938 29.9015 278.317 31.0924 278.459 33.7954C278.601 36.4984 278.78 45.9405 278.459 49.4495C278.138 52.9585 275.389 54.3964 270.321 54.2554L270.668 59.9334C270.668 59.9334 268.126 61.7995 261.026 60.0665L260.006 56.8264Z" fill="#FFC6A0"/>
<path d="M270.392 55.4272C270.851 55.4126 271.308 55.4804 271.742 55.6273C273.116 56.7437 273.997 58.3531 274.199 60.1113C274.16 61.7456 273.871 63.3643 273.342 64.9113L268.742 60.7672L265.851 66.3492C264.287 65.9129 262.83 65.1581 261.571 64.1323C259.967 62.8542 258.621 61.2813 257.607 59.4982C258.4 57.4792 258.94 56.2772 258.94 56.2772C259.127 55.8142 260.004 55.5983 260.004 55.5983C260.004 55.5983 264.899 60.0392 268.741 60.2562C268.743 60.2512 270.112 59.6122 270.392 55.4272Z" fill="#F5F2F9"/>
<path d="M320.328 107.879L284.279 128.828C284.34 128.786 284.389 128.728 284.42 128.661C284.451 128.594 284.464 128.52 284.457 128.446L320.506 107.497C320.513 107.571 320.5 107.645 320.469 107.712C320.438 107.779 320.389 107.837 320.328 107.879Z" fill="#011C63"/>
<path d="M284.46 127.666L320.508 106.717V107.496L284.459 128.445L284.46 127.666Z" fill="#011C63"/>
<path d="M257.331 111.714L293.379 90.7651L320.279 106.298L284.231 127.247L257.331 111.714Z" fill="white"/>
<path d="M312.341 105.28C312.885 105.594 312.915 106.112 312.348 106.442L285.266 122.18C284.955 122.334 284.612 122.414 284.266 122.414C283.919 122.414 283.576 122.334 283.266 122.18L273.021 116.264C272.477 115.951 272.501 115.432 273.041 115.119L300.123 99.3811C300.427 99.2202 300.765 99.1347 301.109 99.1319C301.453 99.1291 301.793 99.2091 302.1 99.3651L312.341 105.28Z" fill="#DFCBFA"/>
<path d="M285.816 128.449L296.993 108.708L333.041 87.7593L321.864 107.5C321.841 107.555 321.801 107.6 321.75 107.63L285.702 128.581C285.753 128.551 285.793 128.504 285.816 128.449Z" fill="#A3BEE5"/>
<path d="M296.145 106.194L296.445 106.512C296.73 106.793 296.933 107.147 297.029 107.535C297.126 107.923 297.114 108.331 296.993 108.712L285.816 128.453C285.393 129.362 284.179 128.982 283.852 128.794L258.557 114.194C258.2 113.962 257.902 113.648 257.689 113.279C257.476 112.91 257.353 112.495 257.33 112.069V111.723L284.23 127.256L296.145 106.194Z" fill="#FCFEFB"/>
<path d="M296.146 106.194L332.194 85.2451L332.494 85.5631C332.78 85.8435 332.982 86.1974 333.079 86.5858C333.176 86.9741 333.163 87.3816 333.042 87.7631L296.993 108.712C297.114 108.331 297.127 107.923 297.03 107.535C296.933 107.147 296.732 106.793 296.447 106.512L296.146 106.194Z" fill="#FCFEFB"/>
<path d="M288.504 102.582C288.742 102.719 288.755 102.946 288.504 103.09L279.553 108.29C279.417 108.358 279.266 108.393 279.114 108.393C278.962 108.393 278.811 108.358 278.675 108.29L274.19 105.701C273.952 105.564 273.963 105.337 274.199 105.201L283.149 100.001C283.282 99.9307 283.43 99.8933 283.581 99.8921C283.731 99.8909 283.88 99.9259 284.014 99.994L288.504 102.582Z" fill="#DFCBFA"/>
<path d="M245.943 66.2642C242.13 70.6102 235.5 91.5892 235.794 94.9962C236.088 98.4032 256.757 116.43 256.757 116.43L262.679 111.178L248.045 92.8861C248.045 92.8861 253.701 79.7472 252.561 73.6862C252.251 71.9584 251.468 70.3502 250.3 69.0401C249.132 67.73 247.624 66.7691 245.943 66.2642Z" fill="#486D39"/>
<path d="M262.675 111.178C262.675 111.178 271.322 112.194 272.056 112.855C272.79 113.516 271.15 115.255 271.15 115.255C271.15 115.255 274.629 119.681 275.732 120.93C276.835 122.179 270.748 122.497 267.376 121.93C264.004 121.363 259.809 120.638 256.753 116.421L262.675 111.178Z" fill="#FFC6A0"/>
<path d="M257.653 28.6503C257.84 28.1013 258.053 27.5682 258.268 27.0782C259.6 23.9942 262.936 22.7642 266.125 22.8072C270.704 22.8692 275.207 25.2732 278.825 27.9142C280.616 29.2232 282.706 30.3543 284.925 30.2313C284.604 30.8969 284.13 31.477 283.541 31.9242C282.953 32.3714 282.267 32.6729 281.539 32.8042C282.486 33.7643 283.726 34.3811 285.063 34.5572L282.777 35.6573L284.96 37.9883C284.678 37.6883 281.638 38.0033 281.075 37.9573C279.584 37.8345 278.105 37.5862 276.655 37.2153C274.078 36.5035 271.663 35.2986 269.544 33.6673C268.434 35.1673 267.401 36.7732 266.216 38.2052C265.769 38.7452 262.126 41.3263 262.126 41.6313C262 43.2143 262.226 44.8702 262.103 46.4532C261.727 44.7054 261.036 43.0407 260.063 41.5403C259.089 40.0392 258.435 38.354 258.139 36.5893C257.959 34.7953 257.111 33.0682 257.139 31.2472C257.177 30.3604 257.35 29.4846 257.653 28.6503Z" fill="#0A2435"/>
<path d="M277.39 417.865L216.272 453.171L135.683 405.957L196.674 371.238L277.39 417.865Z" fill="#456DAD"/>
<path d="M277.39 414.852L216.378 450.58L135.678 403.344V385.109L196.547 350.628L277.385 397.056L277.39 414.852Z" fill="#EBF7FF"/>
<path d="M277.39 397.255L216.272 432.561L135.683 385.347L196.674 350.628L277.39 397.255Z" fill="#7A92CE"/>
<path d="M277.389 397.056V417.865L274.964 416.465V398.8L277.389 397.056Z" fill="#456DAD"/>
<path d="M141.468 395.965L196.679 427.859L269.479 385.209L214.379 353.846L141.468 395.965Z" fill="#0D8785"/>
<path d="M141.468 393.242L196.578 425.517L269.478 382.847V366.375L214.492 335.227L141.468 377.167V393.242Z" fill="#EBF7FF"/>
<path d="M141.468 377.346L196.678 409.237L269.478 366.587L214.378 335.224L141.468 377.346Z" fill="#0D8785"/>
<path d="M141.468 377.166V395.966L143.659 394.7V378.742L141.468 377.166Z" fill="#BC1B2E"/>
<path d="M175.416 443.753C175.416 443.753 176.963 443.946 177.252 444.543C177.553 446.666 177.693 448.809 177.671 450.953C175.298 453.262 172.647 455.265 169.78 456.917C165.967 458.874 162.671 459.725 161.197 458.439C159.723 457.153 160.636 455.672 163.774 453.122C166.912 450.572 169.94 443.746 169.941 443.752C169.942 443.758 175.416 443.753 175.416 443.753Z" fill="#0D8785"/>
<path d="M157.376 436.104C157.376 436.104 158.923 436.298 159.213 436.896C159.514 439.019 159.654 441.161 159.632 443.306C157.259 445.614 154.609 447.617 151.741 449.27C147.928 451.228 144.633 452.078 143.159 450.792C141.685 449.506 142.596 448.024 145.734 445.475C148.872 442.926 151.9 436.098 151.901 436.105C151.902 436.112 157.376 436.104 157.376 436.104Z" fill="#0D8785"/>
<path d="M215.724 367.935C215.844 375.185 214.908 386.701 211.166 389.27C205.466 393.185 177.791 399.383 177.791 399.383L178.337 444.406C178.337 444.406 174.368 448.339 168.187 444.406C168.187 444.406 160.774 392.36 161.672 388.706C162.57 385.052 193.101 375.738 193.101 375.738L215.724 367.935Z" fill="#171B23"/>
<path d="M197.367 363.969C197.487 371.219 196.702 379.559 192.81 381.894C188.596 384.423 159.434 392.007 159.434 392.007L159.979 437.03C159.979 437.03 156.011 440.963 149.831 437.03C149.831 437.03 142.418 384.984 143.315 381.33C144.212 377.676 174.744 368.362 174.744 368.362L197.367 363.969Z" fill="#171B23"/>
<path d="M158.514 353.513C158.514 353.513 153.887 356.799 154.674 359.33C155.461 361.861 161.674 355.962 161.674 355.962L158.514 353.513Z" fill="#FFC6A0"/>
<path d="M185.917 315.883C181.208 316.454 176.16 332.125 175.941 341.088L158.514 353.513C159.949 356.142 162.345 358.115 165.201 359.02L180.942 351.829L185.917 315.883Z" fill="#486D39"/>
<path d="M207.764 318.465C211.815 320.077 215.606 322.277 219.014 324.995L215.723 371.345C215.723 371.345 208.845 376.377 194.786 372.699C183.334 369.699 180.326 364.88 180.326 364.88C180.326 364.88 179.28 342.162 180.355 331.113C181.43 320.064 185.918 315.883 185.918 315.883C188.418 315.125 193.929 315.443 193.929 315.443L207.764 318.465Z" fill="#29441E"/>
<path d="M192.22 286.958C197.09 285.938 202.144 286.247 206.853 287.851C214.078 290.557 209.862 300.851 207.735 305.695C205.608 310.539 204.135 308.78 204.135 308.78L188.394 302.432C188.394 302.432 186.301 301.767 186.604 295.197C186.597 293.417 187.13 291.677 188.133 290.206C189.135 288.735 190.561 287.603 192.22 286.958Z" fill="#0A2435"/>
<path d="M205.447 315.895L205.763 305.249C206.129 305.222 206.485 305.115 206.805 304.934C207.125 304.754 207.401 304.505 207.613 304.205C207.826 303.905 207.969 303.562 208.032 303.2C208.096 302.838 208.079 302.467 207.982 302.113C207.522 299.18 204.777 301.113 204.294 301.972C204.294 301.972 203.676 291.872 198.326 290.9C192.976 289.928 187.788 291.077 187.651 293.683C187.514 296.289 187.341 305.397 187.651 308.784C187.961 312.171 190.611 313.554 195.5 313.418L195.166 318.895C195.166 318.895 197.618 320.694 204.466 319.022L205.447 315.895Z" fill="#FFC6A0"/>
<path d="M195.436 314.545C194.994 314.531 194.554 314.595 194.135 314.735C192.812 315.812 191.962 317.364 191.767 319.059C191.805 320.635 192.083 322.195 192.594 323.686L197.029 319.686L199.817 325.069C201.325 324.649 202.73 323.921 203.944 322.931C205.491 321.699 206.789 320.182 207.767 318.462C207.002 316.515 206.48 315.356 206.48 315.356C206.299 314.91 205.455 314.701 205.455 314.701C205.455 314.701 200.735 318.984 197.029 319.194C197.027 319.198 195.706 318.581 195.436 314.545Z" fill="#FCFEFB"/>
<path d="M147.277 365.129L182.043 385.329C181.984 385.289 181.937 385.233 181.907 385.168C181.877 385.103 181.864 385.031 181.871 384.96L147.105 364.76C147.098 364.832 147.111 364.903 147.141 364.968C147.171 365.033 147.218 365.089 147.277 365.129Z" fill="#011C63"/>
<path d="M181.87 384.213L147.104 364.013V364.765L181.87 384.965V384.213Z" fill="#011C63"/>
<path d="M208.033 368.828L173.267 348.628L147.321 363.608L182.087 383.808L208.033 368.828Z" fill="white"/>
<path d="M154.981 362.624C154.457 362.924 154.428 363.424 154.975 363.744L181.094 378.922C181.394 379.072 181.725 379.149 182.06 379.149C182.396 379.149 182.727 379.072 183.027 378.922L192.908 373.217C193.433 372.917 193.408 372.417 192.888 372.117L166.769 356.939C166.476 356.784 166.15 356.702 165.818 356.699C165.486 356.697 165.159 356.774 164.863 356.924L154.981 362.624Z" fill="#DFCBFA"/>
<path d="M180.562 384.968L169.782 365.929L135.016 345.729L145.795 364.768C145.817 364.82 145.855 364.864 145.904 364.893L180.67 385.093C180.622 385.063 180.584 385.02 180.562 384.968Z" fill="#A3BEE5"/>
<path d="M170.599 363.505L170.309 363.812C170.035 364.083 169.841 364.423 169.748 364.797C169.655 365.17 169.666 365.562 169.781 365.929L180.56 384.968C180.968 385.844 182.139 385.479 182.454 385.296L206.854 371.211C207.199 370.987 207.486 370.685 207.692 370.328C207.897 369.972 208.016 369.573 208.038 369.162V368.828L182.091 383.808L170.599 363.505Z" fill="#FCFEFB"/>
<path d="M170.599 363.505L135.833 343.305L135.543 343.612C135.269 343.882 135.074 344.223 134.981 344.597C134.888 344.971 134.9 345.363 135.015 345.73L169.781 365.93C169.666 365.563 169.655 365.171 169.748 364.797C169.841 364.424 170.035 364.083 170.309 363.813L170.599 363.505Z" fill="#FCFEFB"/>
<path d="M177.97 360.021C177.741 360.153 177.728 360.372 177.97 360.511L186.602 365.525C186.733 365.591 186.878 365.625 187.025 365.625C187.171 365.625 187.316 365.591 187.448 365.525L191.774 363.025C192.003 362.892 191.993 362.674 191.765 362.541L183.133 357.527C183.005 357.459 182.862 357.423 182.717 357.421C182.571 357.42 182.428 357.454 182.299 357.52L177.97 360.021Z" fill="#DFCBFA"/>
<path d="M219.014 324.996C222.692 329.187 229.086 349.42 228.802 352.705C228.518 355.99 208.585 373.377 208.585 373.377L202.874 368.313L216.987 350.67C216.987 350.67 211.532 337.998 212.632 332.15C212.932 330.485 213.687 328.935 214.813 327.672C215.939 326.409 217.394 325.483 219.014 324.996Z" fill="#486D39"/>
<path d="M202.874 368.312C202.874 368.312 194.534 369.292 193.827 369.93C193.12 370.568 194.7 372.249 194.7 372.249C194.7 372.249 191.346 376.518 190.282 377.723C189.218 378.928 195.089 379.234 198.341 378.691C201.593 378.148 205.64 377.445 208.585 373.378L202.874 368.312Z" fill="#FFC6A0"/>
<path d="M207.72 288.725C207.54 288.196 207.33 287.682 207.126 287.209C205.842 284.235 202.626 283.049 199.549 283.09C195.133 283.149 190.79 285.468 187.305 288.016C185.658 289.411 183.583 290.2 181.426 290.251C181.736 290.893 182.194 291.453 182.761 291.884C183.329 292.315 183.99 292.606 184.692 292.732C183.778 293.658 182.582 294.253 181.292 294.422L183.492 295.48L181.387 297.728C181.66 297.437 184.587 297.743 185.135 297.698C186.574 297.58 188 297.34 189.398 296.982C191.884 296.295 194.213 295.133 196.256 293.56C197.326 295.006 198.323 296.56 199.466 297.937C199.896 298.458 203.411 300.947 203.411 301.237C203.532 302.763 203.311 304.36 203.432 305.887C203.795 304.202 204.462 302.596 205.4 301.149C206.339 299.701 206.97 298.076 207.255 296.374C207.429 294.644 208.247 292.974 208.219 291.222C208.181 290.369 208.013 289.527 207.72 288.725Z" fill="#0A2435"/>
<path d="M23.7307 389.777C26.2242 389.611 28.7065 389.305 31.1657 388.86C35.7727 388.071 38.9517 387.846 39.5477 389.282C40.1257 390.676 40.2577 392.169 36.1417 394.982C32.0257 397.795 28.8417 398.092 25.5417 400.747C23.5345 402.387 21.0334 403.303 18.4417 403.347C15.9847 403.516 14.3267 402.574 13.7907 401.573C12.5467 399.248 13.8347 394.841 13.8347 394.841L23.7307 389.777Z" fill="#0D8785"/>
<path d="M43.0107 397.021C44.2232 398.125 45.7688 398.794 47.4036 398.922C49.7786 398.922 54.4086 398.862 55.5966 399.693C55.8561 399.851 56.0751 400.068 56.236 400.326C56.397 400.583 56.4955 400.875 56.5236 401.177C56.5238 401.844 56.3021 402.491 55.8936 403.017C55.0026 404.323 49.0076 406.282 44.4936 406.639C42.1885 406.738 39.8901 406.956 37.6076 407.292C35.4706 407.648 33.2477 407.817 31.9017 407.151C29.5757 406 29.4157 402.483 30.8397 400.168C32.2637 397.853 43.0107 397.021 43.0107 397.021Z" fill="#0D8785"/>
<path d="M18.3843 229.084L18.0163 229.939L18.5763 232.77L27.5993 237.311L28.1303 237.237L29.5753 237.06L31.8463 236.765V233.639C31.8281 232.847 32.0397 232.066 32.4557 231.392C32.8717 230.718 33.4742 230.178 34.1903 229.839C34.2228 229.822 34.2561 229.807 34.2903 229.794C34.8688 229.563 35.3914 229.211 35.8233 228.762L35.9563 228.629C37.6963 226.786 39.2433 222.643 38.8013 213.576C38.7374 211.617 38.3435 209.683 37.6363 207.855C36.3243 205.334 33.5364 203.668 27.7884 205.246C18.2054 207.9 14.0173 212.246 13.5313 216.008C13.0453 219.77 18.3843 229.084 18.3843 229.084Z" fill="#FFD1A4"/>
<path d="M31.8443 236.765V233.639C31.826 232.847 32.0377 232.067 32.4537 231.392C32.8697 230.718 33.4722 230.179 34.1883 229.839C33.7163 230.045 32.2622 230.739 30.3262 231.78C29.5502 232.195 29.5733 234.69 29.5733 237.063L31.8443 236.765Z" fill="#F2BA88"/>
<path d="M39.3857 248.598L53.1147 240.523L52.2218 247.684L44.1428 256.354L39.3857 248.598Z" fill="#FFD1A4"/>
<path d="M47.2291 253.341L64.4501 262.19C64.5806 262.258 64.7243 262.295 64.871 262.301C65.0176 262.307 65.1638 262.281 65.2992 262.224C65.4346 262.167 65.556 262.082 65.6548 261.973C65.7536 261.864 65.8274 261.735 65.8711 261.595L74.237 234.811C74.3824 234.344 74.3608 233.84 74.176 233.387C73.9912 232.933 73.6548 232.558 73.2241 232.325L57.2241 224.113C57.023 224.013 56.802 223.958 56.577 223.953C56.3521 223.948 56.1288 223.993 55.9234 224.084C55.7181 224.176 55.5356 224.313 55.3894 224.484C55.2432 224.655 55.1369 224.856 55.0781 225.073L46.665 252.005C46.5862 252.259 46.5995 252.532 46.7027 252.776C46.806 253.021 46.9925 253.221 47.2291 253.341Z" fill="#456DAD"/>
<path d="M48.1965 252.601L63.8764 260.701C63.9744 260.752 64.0825 260.781 64.1928 260.785C64.3031 260.79 64.413 260.77 64.5149 260.728C64.6168 260.685 64.7081 260.621 64.7825 260.539C64.8569 260.458 64.9126 260.361 64.9455 260.255L72.7974 235.181C73.1164 233.997 73.0605 233.481 71.8625 232.886L56.9374 225.174C56.8483 225.13 56.7503 225.105 56.6506 225.103C56.5508 225.1 56.4518 225.12 56.3606 225.161C56.2695 225.202 56.1886 225.262 56.1237 225.338C56.0588 225.414 56.0115 225.503 55.9854 225.599L47.8205 251.699C47.7665 251.87 47.7746 252.054 47.8434 252.219C47.9123 252.384 48.0373 252.52 48.1965 252.601Z" fill="white"/>
<g opacity="0.5">
<path opacity="0.5" d="M71.045 234.411L70.729 235.378L56.915 228.254L57.191 227.346C57.191 227.326 57.2111 227.306 57.2111 227.287L71.045 234.411Z" fill="#7A92CE"/>
<path opacity="0.5" d="M70.0388 237.569L69.7389 238.516L55.9248 231.416L56.2249 230.469L70.0388 237.569Z" fill="#7A92CE"/>
<path opacity="0.5" d="M69.0509 240.706L68.751 241.673L54.918 234.573L55.2339 233.606L69.0509 240.706Z" fill="#7A92CE"/>
<path opacity="0.5" d="M68.0647 243.863L67.7646 244.83L53.9307 237.706L54.2467 236.759L68.0647 243.863Z" fill="#7A92CE"/>
<path opacity="0.5" d="M67.0784 247.041L66.7784 247.989L52.9443 240.865L53.2444 239.918L67.0784 247.041Z" fill="#7A92CE"/>
<path opacity="0.5" d="M66.092 250.179L65.7921 251.126L51.958 244.042L52.2581 243.075L66.092 250.179Z" fill="#7A92CE"/>
<path opacity="0.5" d="M65.1056 253.356L64.8055 254.303L50.9727 247.179L51.2726 246.232L65.1056 253.356Z" fill="#7A92CE"/>
<path opacity="0.5" d="M64.1174 256.493L63.8174 257.46L49.9834 250.336L50.2834 249.369L64.1174 256.493Z" fill="#7A92CE"/>
</g>
<path d="M61.4258 257.09L64.5117 259.658L65.0928 260.143C65.0928 260.143 65.8007 257.184 67.0477 256.064C67.7793 255.577 68.586 255.212 69.4357 254.986C69.8439 254.877 70.2043 254.635 70.4607 254.299C71.0607 253.475 71.9507 251.667 71.4857 248.528C71.4389 248.073 71.3029 247.631 71.0857 247.228C71.0795 247.223 71.0756 247.216 71.0747 247.207C70.6937 246.552 70.2188 246.573 70.2188 246.573C70.2188 246.573 68.1367 248.053 67.5347 248.497C67.0347 248.867 66.4037 249.585 65.9177 249.046C65.6537 248.771 67.1758 246.847 67.5988 245.971C68.0218 245.095 67.2078 244.143 66.8488 244.481C65.4758 246.074 64.3469 247.862 63.4988 249.786C62.6308 252.047 61.4258 257.09 61.4258 257.09Z" fill="#FFD1A4"/>
<path d="M63.8037 257.458L64.5117 259.657L65.0927 260.143C65.0927 260.143 65.8007 257.184 67.0477 256.064C67.7796 255.577 68.5867 255.212 69.4368 254.986C69.845 254.877 70.2053 254.635 70.4617 254.299C71.0617 253.475 71.9517 251.667 71.4867 248.529C71.4399 248.074 71.304 247.632 71.0867 247.229C71.0805 247.224 71.0765 247.217 71.0757 247.208C71.0757 247.208 71.0547 247.747 70.1987 248.508C69.3413 249.186 68.4332 249.798 67.4827 250.338C66.5494 251.21 65.8328 252.288 65.3898 253.486C64.8038 254.88 63.8037 257.458 63.8037 257.458Z" fill="#F2BA88"/>
<path d="M47.1192 326.671C46.9272 331.02 46.3082 341.428 45.9692 347.135C45.8696 348.941 45.6527 350.738 45.3201 352.516C43.4771 361.833 43.3892 397.336 43.3892 397.336C43.3892 397.336 40.8552 402.954 37.3442 404.427C36.7175 404.697 36.0491 404.857 35.3682 404.901C34.5737 404.951 33.7764 404.866 33.0102 404.651C32.2846 404.446 31.6332 404.037 31.1339 403.473C30.6347 402.908 30.3088 402.212 30.1951 401.466C26.8771 380.086 28.6151 355.407 29.2351 348.359C28.8931 346.639 28.5092 344.827 28.1032 342.992L27.9692 344.542C25.5781 350.617 26.7582 378.261 26.7692 389.494C25.8992 392.281 26.5342 396.526 20.5472 399.793C20.4742 399.839 20.4001 399.867 20.3241 399.912C19.553 400.286 18.708 400.483 17.851 400.488C16.994 400.494 16.1467 400.307 15.3711 399.943C13.8371 398.955 13.4252 396.432 13.2482 395.242C9.2382 369.986 12.8062 340.985 12.8062 340.985C12.8062 340.985 11.2722 326.508 9.13419 314.83C5.95019 307.224 7.78019 302.521 7.78019 302.521L7.88016 302.579V302.521H29.3141L29.5672 308.151H29.6831L47.2442 307.932C47.5291 314.176 47.4874 320.431 47.1192 326.671Z" fill="#171B23"/>
<path d="M5.70492 258.778C8.53592 267.378 10.1279 281.497 8.41793 287.395C7.19168 292.081 6.28524 296.844 5.70492 301.652C7.31192 306.075 22.291 315.658 30.651 316.395C31.6743 316.481 32.7042 316.442 33.7179 316.277C41.0749 315.186 47.9749 308.655 47.9749 308.655C47.9749 308.655 46.3829 284.447 45.3949 268.966C44.7309 258.675 43.213 252.266 42.255 249.121C42.0287 248.332 41.7616 247.554 41.4549 246.792C40.5699 245.627 37.9309 243.652 34.5689 241.44C34.5432 241.435 34.5186 241.425 34.4959 241.411C32.2399 239.911 29.6749 238.311 27.0959 236.797H27.0809C23.6459 234.763 20.1809 232.86 17.4089 231.475C17.0849 231.313 16.7753 231.165 16.4799 231.032C15.1243 230.305 13.6962 229.722 12.219 229.292C8.28195 228.555 3.00395 230.634 1.41195 237.77C-0.180052 244.906 2.88892 250.168 5.70492 258.778Z" fill="#29441E"/>
<path d="M16.4226 234.658C17.8966 236.678 23.1845 239.598 25.6175 240.114C27.4491 240.431 29.3139 240.51 31.1656 240.349C32.3477 240.418 33.4935 240.783 34.4976 241.41C34.5205 241.424 34.5456 241.434 34.5716 241.439C34.5791 241.448 34.5894 241.453 34.6006 241.454L33.1556 239.254L31.4746 238.178C31.4746 238.178 29.0125 237.278 28.4665 237.027C28.0198 236.898 27.5599 236.819 27.0956 236.792H27.0806C25.6216 236.615 23.5276 236.467 23.2036 236.423C21.6788 235.582 20.2022 234.657 18.7806 233.651C18.6916 233.592 17.9407 232.351 17.4097 231.469C17.0857 231.307 16.7759 231.16 16.4806 231.027C16.0436 231.528 15.7981 232.168 15.7875 232.832C15.7769 233.497 16.0019 234.144 16.4226 234.658Z" fill="#DD434E"/>
<path d="M11.0122 216.343C11.8382 221.267 16.0122 229.007 18.1182 229.715C19.2399 230.103 20.4116 230.326 21.5972 230.379C22.399 230.417 23.1872 230.163 23.8162 229.664C24.4451 229.165 24.8721 228.456 25.0182 227.666C25.2716 226.12 25.7534 224.619 26.4481 223.214C27.9221 220.486 29.8531 219.056 30.8271 219.572C31.8001 220.072 31.6971 221.828 31.6971 221.828L32.3312 221.813C32.3312 221.813 32.3911 221.253 32.4791 220.501C32.5531 219.764 32.6261 218.82 32.6711 218.101C32.6605 216.26 33.2581 214.468 34.3711 213.001C35.3329 211.654 36.1252 210.193 36.7301 208.652C37.2492 207.425 37.4522 206.087 37.3202 204.76V204.745C36.9202 200.956 35.3792 199.404 33.9142 198.332C29.1442 194.841 19.1711 201.325 15.4851 204.421C13.5731 205.939 12.1399 207.977 11.3572 210.289V210.304C10.7555 212.26 10.6372 214.332 11.0122 216.343Z" fill="#0A2435"/>
<path d="M17.1081 230.795L18.0201 229.946C21.6099 233.871 26.543 236.305 31.8421 236.765C33.119 238.094 34.0667 239.704 34.6091 241.465L33.3531 240.653C32.6961 240.222 31.9558 239.933 31.1801 239.806C30.6871 239.729 29.594 239.674 29.594 239.674C24.671 239.607 19.7701 236.169 17.2081 234.046C16.9697 233.851 16.7759 233.607 16.6398 233.33C16.5037 233.054 16.4285 232.751 16.419 232.443C16.4095 232.135 16.466 231.829 16.5849 231.545C16.7038 231.26 16.8822 231.005 17.1081 230.795Z" fill="#F5F2F9"/>
<path d="M39.394 394.195C39.3071 394.355 39.2027 394.505 39.083 394.641C39.205 394.479 39.31 394.329 39.394 394.195Z" fill="#474747"/>
<path d="M38.9209 394.873C38.9859 394.802 39.0208 394.716 39.0818 394.641C38.9878 394.765 38.8818 394.894 38.7588 395.035C38.8167 394.985 38.8709 394.931 38.9209 394.873Z" fill="#474747"/>
<path d="M65.6132 258.526V258.547C65.4752 258.942 64.0741 263.46 63.2451 266.282C62.4361 269.005 59.7721 278.872 57.6211 283.569C57.5961 283.652 57.5626 283.731 57.5211 283.807C57.4025 284.024 57.3025 284.221 57.2212 284.398C57.1962 284.474 57.1625 284.547 57.1211 284.615C57.1211 284.635 57.1012 284.636 57.1012 284.656C57.0098 284.821 56.9305 284.992 56.8641 285.168C56.4543 285.962 55.8608 286.647 55.1331 287.165C54.4053 287.684 53.5644 288.021 52.6802 288.148H52.4631C49.5031 288.148 42.4182 275.419 40.3262 271.532C41.1952 270.999 42.2411 270.333 43.3661 269.5C45.7035 267.854 47.7397 265.818 49.3851 263.48C50.4311 265.828 52.5852 269.301 53.5292 271.531C53.5292 271.531 53.6481 271.231 53.8291 270.722C54.9774 267.965 56.3837 265.322 58.0292 262.828C59.6683 260.365 60.9942 257.707 61.9762 254.916C61.9762 255.055 62.0761 255.448 63.1401 255.586C63.5767 255.717 63.9581 255.987 64.2251 256.356C64.587 256.799 64.9166 257.267 65.2112 257.756C65.2577 257.811 65.2976 257.87 65.3302 257.933C65.4364 258.125 65.5308 258.323 65.6132 258.526Z" fill="#FFD1A4"/>
<path d="M65.6132 258.526V258.546C65.4752 258.941 64.0741 263.459 63.2451 266.281C62.4361 269.004 59.7721 278.871 57.6211 283.568C57.5962 283.651 57.5627 283.73 57.5211 283.806C57.4025 284.023 57.3025 284.22 57.2212 284.397C57.1961 284.473 57.1625 284.546 57.1211 284.615C57.1211 284.634 57.1012 284.633 57.1012 284.653C57.0098 284.818 56.9305 284.99 56.8641 285.167C56.4543 285.96 55.8608 286.645 55.1331 287.163C54.4053 287.682 53.5644 288.019 52.6802 288.146H52.4631C49.5031 288.146 42.4182 275.419 40.3262 271.531C41.1952 270.998 42.2411 270.331 43.3661 269.499C45.4571 273.347 51.5212 284.398 53.8052 284.398C54.8832 284.398 57.1401 277.254 58.7981 272.992C60.4561 268.73 64.2251 256.356 64.2251 256.356C64.587 256.799 64.9166 257.267 65.2112 257.756C65.2578 257.811 65.2978 257.871 65.3302 257.934C65.4364 258.126 65.5309 258.323 65.6132 258.526Z" fill="#F2BA88"/>
<path d="M50.8304 264.01C48.2654 267.838 43.5915 271.057 41.1245 272.596C40.3745 273.07 39.7625 273.405 39.3885 273.603C38.8755 272.794 31.1785 260.686 30.3695 256.474C30.2834 256.21 30.2165 255.939 30.1694 255.665C29.1484 250.078 30.8794 248.065 31.0964 247.811C31.1485 247.757 31.1949 247.697 31.2345 247.633C34.7075 243.469 40.3345 243.333 43.5885 249.468C45.0965 252.308 48.1644 257.995 50.8304 264.01Z" fill="#486D39"/>
<path opacity="0.21" d="M221.709 62.3312V125.292C221.709 128.856 217.4 128.177 214.881 124.216L207.422 112.49C206.712 111.35 205.742 110.395 204.593 109.701L120.772 61.7722C119.659 61.1122 118.716 60.199 118.021 59.1067C117.326 58.0144 116.898 56.7737 116.772 55.4852V2.32719C116.772 0.11819 118.563 -0.648762 120.772 0.614238L217.709 56.0442C218.823 56.7042 219.766 57.6173 220.461 58.7096C221.156 59.802 221.584 61.0427 221.709 62.3312Z" fill="#AFC2E0"/>
<path d="M215.534 68.5232V131.484C215.534 135.048 211.225 134.368 208.706 130.408L201.246 118.682C200.536 117.542 199.567 116.587 198.417 115.893L114.597 67.9642C113.483 67.3042 112.54 66.391 111.845 65.2987C111.15 64.2064 110.723 62.9657 110.597 61.6772V8.5162C110.597 6.3072 112.388 5.54019 114.597 6.80319L211.534 62.2332C212.648 62.8934 213.591 63.8071 214.286 64.9C214.981 65.9929 215.408 67.2342 215.534 68.5232Z" fill="#AFC2E0"/>
<g style="mix-blend-mode:overlay" opacity="0.25">
<path d="M211.534 62.233L114.597 6.80303C112.388 5.53903 110.597 6.30304 110.597 8.51604V9.83605C110.821 9.92644 111.039 10.0317 111.249 10.1511L208.186 65.581C209.299 66.241 210.242 67.1542 210.937 68.2465C211.632 69.3388 212.06 70.5795 212.186 71.868V133.506C213.976 134.222 215.534 133.623 215.534 131.48V68.5231C215.408 67.234 214.981 65.9927 214.286 64.8998C213.591 63.807 212.648 62.8933 211.534 62.233Z" fill="black"/>
</g>
<path d="M196.76 80.6292L149.825 53.7911C149.472 53.582 149.173 53.2925 148.952 52.9462C148.732 52.6 148.596 52.2066 148.557 51.7982C148.557 51.0982 149.125 50.8551 149.825 51.2551L196.76 78.0942C197.113 78.3033 197.412 78.5928 197.632 78.9391C197.852 79.2854 197.988 79.6787 198.028 80.0872C198.028 80.7872 197.46 81.0302 196.76 80.6292Z" fill="white"/>
<path d="M196.76 87.8703L149.825 61.0323C149.472 60.8232 149.173 60.5337 148.952 60.1875C148.732 59.8412 148.596 59.4478 148.557 59.0393C148.557 58.3393 149.125 58.0953 149.825 58.4963L196.76 85.3353C197.113 85.5445 197.412 85.834 197.632 86.1803C197.852 86.5265 197.988 86.9198 198.028 87.3283C198.028 88.0273 197.46 88.2703 196.76 87.8703Z" fill="white"/>
<path d="M197.114 95.3123L162.044 75.2593C161.79 75.1086 161.575 74.9002 161.416 74.6509C161.257 74.4016 161.16 74.1184 161.131 73.8243V73.1133C161.131 72.6133 161.54 72.4343 162.044 72.7223L197.114 92.7763C197.368 92.9269 197.583 93.1353 197.742 93.3847C197.901 93.634 197.998 93.9172 198.027 94.2113V94.9223C198.028 95.4253 197.619 95.6003 197.114 95.3123Z" fill="#DB2C39"/>
<path d="M382.859 99.6623L300.659 55.7832C299.987 55.409 299.416 54.8764 298.996 54.2317C298.576 53.5869 298.32 52.8495 298.249 52.0833V22.6123C298.249 21.2813 299.328 20.7782 300.659 21.4892L382.859 65.3683C383.531 65.7426 384.102 66.2752 384.522 66.9199C384.942 67.5646 385.198 68.3021 385.269 69.0683V98.5423C385.266 99.8693 384.187 100.372 382.859 99.6623Z" fill="#AFC2E0"/>
<g style="mix-blend-mode:overlay" opacity="0.25">
<path d="M382.859 65.3686L300.659 21.4895C299.327 20.7785 298.249 21.2826 298.249 22.6126V24.2216L380.242 67.9886C380.914 68.3628 381.485 68.8954 381.905 69.5401C382.325 70.1849 382.581 70.9224 382.652 71.6886V99.5536L382.862 99.6656C384.193 100.377 385.272 99.8726 385.272 98.5426V69.0656C385.201 68.2996 384.943 67.5626 384.523 66.9184C384.102 66.2742 383.531 65.7422 382.859 65.3686Z" fill="black"/>
</g>
<path d="M333.294 52.4693L304.587 37.1463C304.403 37.0441 304.248 36.8989 304.133 36.7231C304.019 36.5473 303.949 36.3462 303.93 36.1373C303.93 35.7743 304.224 35.6373 304.587 35.8313L333.294 51.1543C333.477 51.2563 333.632 51.4014 333.747 51.577C333.861 51.7526 333.931 51.9535 333.951 52.1623C333.951 52.5253 333.66 52.6633 333.294 52.4693Z" fill="white"/>
<path d="M333.294 56.9624L304.587 41.6394C304.403 41.5375 304.248 41.3924 304.134 41.2167C304.019 41.0411 303.949 40.8402 303.93 40.6315C303.93 40.2685 304.224 40.1314 304.587 40.3254L333.294 55.6484C333.477 55.7505 333.632 55.8956 333.747 56.0712C333.861 56.2468 333.931 56.4477 333.951 56.6564C333.951 57.0144 333.66 57.1554 333.294 56.9624Z" fill="white"/>
<path d="M333.294 61.4542L304.587 46.1312C304.403 46.0292 304.248 45.8841 304.134 45.7084C304.019 45.5328 303.949 45.3319 303.93 45.1231C303.93 44.7601 304.224 44.6231 304.587 44.8171L333.294 60.1401C333.477 60.2422 333.632 60.3874 333.747 60.563C333.861 60.7386 333.931 60.9394 333.951 61.1481C333.951 61.5101 333.66 61.6482 333.294 61.4542Z" fill="white"/>
<path d="M319.66 58.6693L304.41 50.5293C304.275 50.4543 304.161 50.3476 304.077 50.2185C303.993 50.0894 303.941 49.9418 303.927 49.7884V49.4403C303.927 49.1733 304.143 49.0724 304.41 49.2154L319.66 57.3553C319.794 57.4303 319.909 57.537 319.993 57.6661C320.077 57.7952 320.129 57.9429 320.143 58.0963V58.4444C320.146 58.7114 319.93 58.8123 319.66 58.6693Z" fill="#DB2C39"/>
</svg>
