<svg width="98" height="98" viewBox="0 0 98 98" fill="none" xmlns="http://www.w3.org/2000/svg">
<path d="M46.9851 18.293C44.4531 21.003 40.7131 21.623 35.9991 17.218C31.2851 12.813 29.9121 2.34198 29.9121 2.34198C29.9121 2.34198 40.4521 2.99998 45.1671 7.40498C49.8821 11.81 49.5171 15.583 46.9851 18.293Z" fill="#81C784"/>
<path d="M57.4293 25.795C60.0603 29.142 64.3583 30.153 70.4103 25.395C76.4623 20.637 79.3453 8.57101 79.3453 8.57101C79.3453 8.57101 66.9373 8.51901 60.8863 13.271C54.8353 18.023 54.7983 22.448 57.4293 25.795Z" fill="#81C784"/>
<path d="M40.7359 36.085C39.1049 39.079 35.6629 40.352 29.7429 37.127C23.8229 33.902 19.2969 24.407 19.2969 24.407C19.2969 24.407 29.7289 23.059 35.6489 26.284C41.5689 29.509 42.3669 33.091 40.7359 36.085Z" fill="#81C784"/>
<path d="M81.8557 96.23C85.4703 96.23 88.9369 94.7941 91.4928 92.2381C94.0488 89.6822 95.4847 86.2156 95.4847 82.601C95.4847 73.995 89.5017 69.816 81.4697 67.936C80.7243 64.7828 78.9364 61.9736 76.3956 59.9631C73.8548 57.9525 70.7097 56.8585 67.4697 56.858H64.4597C62.8724 54.0486 60.5548 51.7208 57.7523 50.1212C54.9498 48.5217 51.7669 47.7099 48.5407 47.772C45.419 47.7173 42.3447 48.5399 39.6674 50.1461C36.9902 51.7524 34.8175 54.0779 33.3967 56.858H29.6117C22.8057 56.858 17.1117 61.108 15.6117 67.458C7.57868 69.338 1.59668 73.995 1.59668 82.601C1.59668 86.2156 3.03259 89.6822 5.58852 92.2381C8.14445 94.7941 11.611 96.23 15.2257 96.23H81.8557Z" fill="#9C7B70"/>
<path d="M95.4836 82.601C95.4836 73.995 89.5006 69.816 81.4686 67.936C81.0142 66.0195 80.1717 64.2164 78.9932 62.6382C77.8147 61.06 76.3252 59.7401 74.6166 58.76C71.9976 67.1278 67.5756 74.8196 61.6622 81.2935C55.7488 87.7674 48.4877 92.866 40.3906 96.23H81.8556C85.4701 96.2297 88.9364 94.7937 91.4921 92.2378C94.0479 89.6819 95.4836 86.2155 95.4836 82.601Z" fill="#876559"/>
<path d="M48.1096 86.06C48.1096 86.06 40.6096 72.14 49.1806 63.573L63.1006 49.653L84.5165 71.069L70.5966 84.989C61.9846 93.6 48.1096 86.06 48.1096 86.06Z" fill="#E2DBD5"/>
<path d="M58.8229 75.352C58.401 74.9302 58.0663 74.4293 57.838 73.8781C57.6097 73.3269 57.4922 72.7361 57.4922 72.1395C57.4922 71.5429 57.6097 70.9521 57.838 70.4009C58.0663 69.8497 58.401 69.3489 58.8229 68.927L78.0969 49.653L84.5219 56.078L65.2429 75.352C64.821 75.7739 64.3202 76.1086 63.769 76.3369C63.2178 76.5652 62.627 76.6827 62.0304 76.6827C61.4338 76.6827 60.843 76.5652 60.2918 76.3369C59.7406 76.1086 59.2398 75.7739 58.8179 75.352H58.8229Z" fill="#D4CCC7"/>
<path d="M94.1489 40.0033C95.0009 40.8553 95.4795 42.0108 95.4795 43.2157C95.4795 44.4206 95.0009 45.5761 94.1489 46.4281L84.5118 56.0653L78.087 49.6405L87.7241 40.0033C88.5761 39.1514 89.7316 38.6727 90.9365 38.6727C92.1414 38.6727 93.2969 39.1514 94.1489 40.0033V40.0033Z" fill="#F09B73"/>
<path d="M90.0658 50.529C86.3084 51.2325 82.4234 50.5542 79.1268 48.619L78.0928 49.653L84.5178 56.0779L90.0658 50.529Z" fill="#E58B6C"/>
<path d="M90.1841 43.228C91.4383 43.228 92.4551 42.2112 92.4551 40.957C92.4551 39.7027 91.4383 38.686 90.1841 38.686C88.9298 38.686 87.9131 39.7027 87.9131 40.957C87.9131 42.2112 88.9298 43.228 90.1841 43.228Z" fill="#F2BBA5"/>
<path d="M90.9417 47.771C91.7779 47.771 92.4557 47.0931 92.4557 46.257C92.4557 45.4208 91.7779 44.743 90.9417 44.743C90.1056 44.743 89.4277 45.4208 89.4277 46.257C89.4277 47.0931 90.1056 47.771 90.9417 47.771Z" fill="#F2BBA5"/>
<path d="M75.0405 58.371C76.2948 58.371 77.3115 57.3542 77.3115 56.1C77.3115 54.8457 76.2948 53.829 75.0405 53.829C73.7863 53.829 72.7695 54.8457 72.7695 56.1C72.7695 57.3542 73.7863 58.371 75.0405 58.371Z" fill="#EFEBE8"/>
<path d="M75.7972 62.914C76.6334 62.914 77.3112 62.2361 77.3112 61.4C77.3112 60.5638 76.6334 59.886 75.7972 59.886C74.961 59.886 74.2832 60.5638 74.2832 61.4C74.2832 62.2361 74.961 62.914 75.7972 62.914Z" fill="#EFEBE8"/>
<path d="M72.923 67.669C68.4313 68.9613 63.7184 69.2966 59.089 68.653L58.816 68.926C57.964 69.778 57.4854 70.9336 57.4854 72.1385C57.4854 73.3434 57.964 74.499 58.816 75.351C59.668 76.203 60.8236 76.6817 62.0285 76.6817C63.2335 76.6817 64.389 76.203 65.241 75.351L72.923 67.669Z" fill="#C6BAB3"/>
<path d="M45.4795 78.28C45.9918 80.9827 46.8773 83.601 48.1105 86.06C48.1105 86.06 61.9855 93.6 70.5965 84.989L80.9465 74.639C69.7941 79.5254 57.392 80.7986 45.4795 78.28Z" fill="#D4CCC7"/>
<path d="M52.9245 79.607C53.3235 77.7083 52.9784 75.7288 51.9605 74.0771C50.9426 72.4254 49.3294 71.2275 47.454 70.7305C45.5785 70.2335 43.5839 70.4754 41.8815 71.4062C40.1792 72.3371 38.8992 73.8859 38.3055 75.733C37.6008 75.3297 36.8129 75.0937 36.0026 75.0432C35.1923 74.9928 34.3812 75.1291 33.6319 75.4418C32.8826 75.7545 32.2152 76.2352 31.6811 76.8467C31.147 77.4582 30.7606 78.1843 30.5516 78.9688C30.3426 79.7534 30.3167 80.5755 30.4758 81.3716C30.6349 82.1678 30.9748 82.9168 31.4693 83.5608C31.9637 84.2047 32.5996 84.7265 33.3276 85.0858C34.0557 85.4451 34.8566 85.6323 35.6685 85.633L52.3265 90.176C53.6803 90.1762 54.9828 89.6583 55.9668 88.7286C56.9509 87.799 57.5419 86.528 57.6186 85.1765C57.6954 83.8249 57.252 82.4952 56.3796 81.4601C55.5071 80.4251 54.2716 79.7631 52.9265 79.61L52.9245 79.607Z" fill="#A1887F"/>
<path d="M38.2179 27.941C34.9217 31.3419 30.544 33.4889 25.8369 34.013C26.9746 35.2419 28.2919 36.2915 29.7439 37.126C35.6639 40.351 39.1059 39.078 40.7369 36.084C42.0929 33.595 41.7669 30.703 38.2179 27.941Z" fill="#66BB6A"/>
<path d="M75.4861 18.789C72.5943 20.6385 69.2845 21.7325 65.86 21.9707C62.4356 22.2088 59.0061 21.5835 55.8861 20.152C55.7105 21.1479 55.7579 22.1704 56.0249 23.1458C56.2919 24.1212 56.7718 25.0253 57.4301 25.793C60.0611 29.14 64.3592 30.151 70.4112 25.393C72.5356 23.5601 74.2626 21.312 75.4861 18.787V18.789Z" fill="#66BB6A"/>
<path d="M47.8584 10.697C44.2847 13.9347 39.678 15.799 34.8584 15.958C35.2055 16.4072 35.5874 16.8285 36.0004 17.218C40.7144 21.618 44.4554 21.004 46.9864 18.293C47.9907 17.3248 48.627 16.0374 48.7861 14.6515C48.9452 13.2656 48.6172 11.8675 47.8584 10.697Z" fill="#66BB6A"/>
<path d="M70.4976 14.455C71.7518 14.455 72.7686 13.4382 72.7686 12.184C72.7686 10.9297 71.7518 9.91296 70.4976 9.91296C69.2433 9.91296 68.2266 10.9297 68.2266 12.184C68.2266 13.4382 69.2433 14.455 70.4976 14.455Z" fill="#C8E6C9"/>
<path d="M71.2552 18.9989C72.0914 18.9989 72.7692 18.3211 72.7692 17.4849C72.7692 16.6488 72.0914 15.9709 71.2552 15.9709C70.4191 15.9709 69.7412 16.6488 69.7412 17.4849C69.7412 18.3211 70.4191 18.9989 71.2552 18.9989Z" fill="#C8E6C9"/>
<path d="M37.1821 8.39796C38.4364 8.39796 39.4531 7.3812 39.4531 6.12696C39.4531 4.87272 38.4364 3.85596 37.1821 3.85596C35.9279 3.85596 34.9111 4.87272 34.9111 6.12696C34.9111 7.3812 35.9279 8.39796 37.1821 8.39796Z" fill="#C8E6C9"/>
<path d="M37.9408 12.941C38.7769 12.941 39.4548 12.2631 39.4548 11.427C39.4548 10.5908 38.7769 9.91296 37.9408 9.91296C37.1046 9.91296 36.4268 10.5908 36.4268 11.427C36.4268 12.2631 37.1046 12.941 37.9408 12.941Z" fill="#C8E6C9"/>
<path d="M25.2524 29.5989C26.5067 29.5989 27.5234 28.5822 27.5234 27.3279C27.5234 26.0737 26.5067 25.0569 25.2524 25.0569C23.9982 25.0569 22.9814 26.0737 22.9814 27.3279C22.9814 28.5822 23.9982 29.5989 25.2524 29.5989Z" fill="#C8E6C9"/>
<path d="M30.3685 30.422C31.2047 30.422 31.8825 29.7441 31.8825 28.908C31.8825 28.0718 31.2047 27.394 30.3685 27.394C29.5323 27.394 28.8545 28.0718 28.8545 28.908C28.8545 29.7441 29.5323 30.422 30.3685 30.422Z" fill="#C8E6C9"/>
<path d="M10.4235 80.146C12.0964 80.146 13.4525 78.7899 13.4525 77.117C13.4525 75.4441 12.0964 74.088 10.4235 74.088C8.75066 74.088 7.39453 75.4441 7.39453 77.117C7.39453 78.7899 8.75066 80.146 10.4235 80.146Z" fill="#BCAAA4"/>
<path d="M15.3794 84.274C16.4944 84.274 17.3984 83.37 17.3984 82.255C17.3984 81.1399 16.4944 80.236 15.3794 80.236C14.2643 80.236 13.3604 81.1399 13.3604 82.255C13.3604 83.37 14.2643 84.274 15.3794 84.274Z" fill="#BCAAA4"/>
<path d="M54.7917 80.181C51.2695 82.8964 46.9035 84.2846 42.4598 84.1017C38.0161 83.9188 33.7789 82.1767 30.4917 79.181C30.3194 79.9558 30.3232 80.7593 30.503 81.5324C30.6828 82.3055 31.0339 83.0284 31.5305 83.6476C32.027 84.2668 32.6563 84.7666 33.3719 85.1101C34.0874 85.4535 34.871 85.6319 35.6647 85.632L52.3227 90.175C53.5072 90.1746 54.6575 89.7774 55.5898 89.0469C56.5222 88.3163 57.183 87.2945 57.4667 86.1445C57.7505 84.9945 57.6408 83.7826 57.1552 82.7022C56.6696 81.6218 55.8361 80.7352 54.7877 80.184L54.7917 80.181Z" fill="#9C7B70"/>
<path d="M70.5964 55.007L64.1714 48.582C64.0308 48.4413 63.8638 48.3296 63.6801 48.2535C63.4963 48.1773 63.2993 48.1381 63.1004 48.1381C62.9014 48.1381 62.7045 48.1773 62.5207 48.2535C62.3369 48.3296 62.17 48.4413 62.0294 48.582C47.3744 63.282 47.8824 62.631 46.9924 63.748C46.8684 63.9035 46.7763 64.0818 46.7212 64.2729C46.6662 64.464 46.6494 64.6641 46.6717 64.8617C46.6939 65.0593 46.7549 65.2506 46.8511 65.4246C46.9473 65.5986 47.0769 65.752 47.2324 65.876C47.3879 65.9999 47.5662 66.0921 47.7573 66.1471C47.9484 66.2021 48.1485 66.219 48.3461 66.1967C48.5437 66.1744 48.735 66.1134 48.909 66.0172C49.083 65.921 49.2364 65.7915 49.3604 65.636C50.0874 64.723 49.7004 65.229 63.0994 51.795L68.4534 57.149L65.2844 60.318C65.0734 60.5301 64.93 60.7999 64.872 61.0934C64.8141 61.3868 64.8442 61.6909 64.9587 61.9673C65.0732 62.2436 65.267 62.4799 65.5155 62.6464C65.764 62.8129 66.0562 62.9022 66.3554 62.903C67.4864 62.903 66.9224 62.728 78.0914 51.795L82.3744 56.078L64.1744 74.278C63.6445 74.8057 62.9383 75.1188 62.1914 75.1573C61.4446 75.1957 60.7099 74.9568 60.1287 74.4863C59.5474 74.0158 59.1606 73.3471 59.0426 72.6086C58.9246 71.8702 59.0837 71.1142 59.4894 70.486C59.7086 70.1494 59.7851 69.7396 59.7021 69.3466C59.6191 68.9536 59.3834 68.6097 59.0469 68.3905C58.7103 68.1713 58.3005 68.0947 57.9075 68.1777C57.5145 68.2607 57.1706 68.4964 56.9514 68.833C56.1379 70.0886 55.8177 71.6008 56.0524 73.0784C56.287 74.556 57.06 75.8945 58.2224 76.8363C59.3849 77.7782 60.8546 78.2567 62.3487 78.1799C63.8429 78.103 65.2557 77.4761 66.3154 76.42L77.0224 65.712L82.3764 71.066L69.5264 83.916C67.6778 85.7667 65.2881 86.981 62.7034 87.383C62.5072 87.4158 62.3195 87.4869 62.1509 87.5923C61.9822 87.6977 61.836 87.8353 61.7205 87.9972C61.6051 88.1591 61.5226 88.3422 61.4779 88.5359C61.4332 88.7297 61.427 88.9304 61.4599 89.1265C61.4927 89.3226 61.5638 89.5103 61.6692 89.679C61.7746 89.8476 61.9122 89.9939 62.0741 90.1093C62.236 90.2248 62.419 90.3072 62.6128 90.352C62.8066 90.3967 63.0072 90.4028 63.2034 90.37C66.4111 89.8674 69.3755 88.3568 71.6674 86.057L85.5874 72.137C85.7281 71.9964 85.8397 71.8294 85.9159 71.6456C85.9921 71.4619 86.0313 71.2649 86.0313 71.066C86.0313 70.8671 85.9921 70.6701 85.9159 70.4863C85.8397 70.3025 85.7281 70.1356 85.5874 69.995L79.1624 63.57L95.2244 47.508C96.3604 46.3721 96.9987 44.8314 96.9988 43.2248C96.9989 41.6183 96.3608 40.0775 95.2249 38.9415C94.089 37.8054 92.5482 37.1671 90.9417 37.1671C89.3352 37.167 87.7944 37.8051 86.6584 38.941L70.5964 55.007ZM88.7964 41.086C89.3647 40.5171 90.1358 40.1973 90.9399 40.1969C91.7441 40.1965 92.5155 40.5156 93.0844 41.084C93.6533 41.6523 93.9731 42.4234 93.9735 43.2276C93.9738 44.0317 93.6547 44.8031 93.0864 45.372L84.5204 53.938L80.2374 49.655L88.7964 41.086Z" fill="#28431D"/>
<path d="M13.2282 69.715C14.0342 69.438 14.8922 69.19 15.7782 68.977C19.4102 69.077 21.2842 72.177 21.2842 73.515C21.2847 73.9162 21.4444 74.3007 21.7283 74.5842C22.0122 74.8677 22.397 75.027 22.7982 75.027C26.0612 75.027 23.7982 67.558 17.5982 66.162C21.0192 57.385 31.0032 58.424 31.2122 58.369C30.6824 60.3454 30.3995 62.3799 30.3702 64.426C30.3773 64.8252 30.5388 65.2062 30.8206 65.489C31.1025 65.7718 31.483 65.9345 31.8822 65.943C32.0813 65.9432 32.2786 65.9042 32.4626 65.8281C32.6467 65.752 32.8139 65.6404 32.9547 65.4995C33.0956 65.3587 33.2072 65.1915 33.2833 65.0074C33.3594 64.8234 33.3984 64.6261 33.3982 64.427C33.4141 62.0737 33.8692 59.7441 34.7402 57.558C39.2332 49.447 47.7402 47.78 54.7052 50.372C55.0789 50.5003 55.488 50.4776 55.8453 50.3086C56.2025 50.1396 56.4795 49.8377 56.6173 49.4673C56.7551 49.0969 56.7427 48.6874 56.5827 48.326C56.4228 47.9646 56.128 47.68 55.7612 47.533C53.9277 46.855 52.0065 46.4435 50.0562 46.311V33.364L57.1762 27.77C61.3682 31.841 66.7482 30.201 71.3472 26.587C77.7402 21.563 80.6952 9.43696 80.8182 8.92396C80.8712 8.70193 80.8734 8.47076 80.8245 8.24776C80.7757 8.02476 80.677 7.81571 80.5359 7.63623C80.3948 7.45676 80.2149 7.31152 80.0098 7.21138C79.8046 7.11124 79.5795 7.05879 79.3512 7.05796C78.8252 7.05796 66.3422 7.05796 59.9512 12.085C55.4742 15.604 52.5462 20.35 55.3322 25.367L50.0572 29.513C50.0794 26.014 49.4216 22.544 48.1202 19.296C51.2282 15.944 51.4842 11.232 46.2022 6.29596C41.1472 1.57596 30.4592 0.858964 30.0072 0.826964C29.7838 0.812343 29.56 0.847424 29.3519 0.929682C29.1437 1.01194 28.9564 1.13933 28.8033 1.30267C28.6503 1.46602 28.5354 1.66126 28.4669 1.87435C28.3984 2.08743 28.378 2.31305 28.4072 2.53496C28.4662 2.98396 29.9072 13.599 34.9612 18.32C38.0292 21.186 41.8462 23.048 45.6002 21.202C47.7282 27.068 46.7902 31.102 47.0232 37.647L42.6912 35.288C43.4312 32.77 43.1832 28.662 36.3712 24.95C30.0922 21.53 19.5462 22.843 19.1002 22.901C18.8628 22.9314 18.6361 23.0177 18.4385 23.1528C18.241 23.2878 18.0782 23.4677 17.9637 23.6778C17.8491 23.8879 17.786 24.1222 17.7795 24.3614C17.7729 24.6006 17.8232 24.8379 17.9262 25.054C18.1192 25.46 22.7352 35.032 29.0142 38.454C33.3282 40.804 38.2052 41.779 41.2822 37.972L47.0212 41.097V46.311C44.0463 46.5004 41.1648 47.4243 38.6344 49C36.1041 50.5756 34.0037 52.7539 32.5212 55.34C30.9572 55.514 25.2012 54.42 19.7062 58.564C17.1561 60.4718 15.2891 63.151 14.3822 66.204C13.6452 66.399 12.9292 66.615 12.2432 66.851C12.0551 66.9157 11.8817 67.0169 11.7327 67.1486C11.5837 67.2804 11.4622 67.4402 11.375 67.619C11.2878 67.7977 11.2367 67.9919 11.2245 68.1904C11.2124 68.389 11.2394 68.5879 11.3042 68.776C11.3689 68.964 11.4701 69.1375 11.6018 69.2864C11.7336 69.4354 11.8934 69.5569 12.0722 69.6441C12.2509 69.7313 12.4451 69.7825 12.6436 69.7946C12.8422 69.8068 13.0411 69.7797 13.2292 69.715H13.2282ZM61.8212 14.467C65.9902 11.19 73.6892 10.367 77.3302 10.157C76.2702 13.645 73.6522 20.924 69.4742 24.206C66.3742 26.639 62.5842 28.435 59.5872 25.875L70.6762 17.162C70.992 16.9139 71.1964 16.5504 71.2443 16.1516C71.2922 15.7528 71.1798 15.3513 70.9317 15.0355C70.6836 14.7196 70.3201 14.5152 69.9213 14.4673C69.5225 14.4194 69.121 14.5319 68.8052 14.78L57.7552 23.462C56.1772 20.003 58.8432 16.806 61.8202 14.462L61.8212 14.467ZM46.6542 16.246C45.0535 13.3875 42.9419 10.8471 40.4242 8.75096C40.1156 8.49344 39.7173 8.36904 39.317 8.40515C38.9168 8.44125 38.5472 8.63488 38.2897 8.94346C38.0321 9.25204 37.9077 9.65029 37.9438 10.0506C37.9799 10.4509 38.1736 10.8204 38.4822 11.078C40.9208 13.1093 42.9271 15.6093 44.3822 18.43C41.8462 19.77 39.1202 18.069 37.0252 16.112C33.9162 13.212 32.3592 7.15196 31.7392 4.05596C34.8702 4.46396 41.0162 5.60696 44.1252 8.51096C46.4782 10.711 48.3252 13.488 46.6462 16.245L46.6542 16.246ZM39.9302 33.786L32.2302 29.592C32.0555 29.4969 31.8638 29.4371 31.6661 29.4161C31.4683 29.3951 31.2684 29.4133 31.0777 29.4696C30.8869 29.5258 30.7091 29.6191 30.5545 29.7441C30.3998 29.8691 30.2712 30.0233 30.1762 30.198C30.0811 30.3726 30.0213 30.5643 30.0003 30.762C29.9793 30.9598 29.9975 31.1597 30.0538 31.3505C30.11 31.5412 30.2033 31.719 30.3283 31.8737C30.4533 32.0283 30.6075 32.1569 30.7822 32.252L38.5572 36.486C36.9042 38.052 34.1922 37.824 30.4692 35.796C26.6282 33.704 23.3232 28.562 21.7132 25.72C24.9742 25.532 31.0862 25.52 34.9272 27.613C38.5122 29.565 40.1862 31.635 39.9272 33.785L39.9302 33.786Z" fill="#28431D"/>
<path d="M92.5148 71.631C92.3736 71.491 92.2061 71.3802 92.0221 71.3049C91.838 71.2296 91.6409 71.1913 91.4421 71.1922C91.2432 71.1931 91.0465 71.2331 90.8631 71.31C90.6797 71.387 90.5133 71.4993 90.3733 71.6405C90.2333 71.7817 90.1225 71.9491 90.0472 72.1332C89.9719 72.3173 89.9336 72.5143 89.9345 72.7132C89.9354 72.912 89.9755 73.1088 90.0524 73.2922C90.1293 73.4755 90.2416 73.642 90.3828 73.782C98.1438 81.517 92.6048 94.715 81.8558 94.715H15.2258C7.3808 94.715 1.2798 87.288 3.5918 78.815C3.64831 78.6219 3.66581 78.4195 3.64326 78.2196C3.62071 78.0196 3.55856 77.8262 3.46045 77.6506C3.36234 77.4749 3.23023 77.3206 3.07183 77.1965C2.91343 77.0725 2.73191 76.9813 2.53787 76.9281C2.34382 76.875 2.14114 76.8611 1.94165 76.8871C1.74216 76.9132 1.54985 76.9787 1.37595 77.0799C1.20206 77.181 1.05005 77.3158 0.92881 77.4764C0.807568 77.6369 0.719518 77.82 0.669798 78.015C-0.0193551 80.2936 -0.1673 82.7016 0.23773 85.0474C0.64276 87.3932 1.58959 89.6122 3.00291 91.5278C4.41623 93.4434 6.25705 95.0028 8.37895 96.0819C10.5009 97.161 12.8453 97.7301 15.2258 97.744H81.8558C85.8706 97.7395 89.7197 96.1426 92.5585 93.3037C95.3974 90.4648 96.9943 86.6158 96.9988 82.601C97.0725 80.559 96.7107 78.5247 95.9376 76.6333C95.1645 74.7419 93.9977 73.0367 92.5148 71.631Z" fill="#28431D"/>
<path d="M52.3265 88.658C52.1277 88.658 51.9308 88.6971 51.7471 88.7732C51.5634 88.8493 51.3965 88.9608 51.2559 89.1014C51.1153 89.242 51.0038 89.4089 50.9277 89.5926C50.8516 89.7763 50.8125 89.9731 50.8125 90.172C50.8125 93.513 59.1415 91.2619 59.1415 84.8719C59.1431 83.4606 58.706 82.0837 57.8906 80.9317C57.0753 79.7797 55.922 78.9097 54.5905 78.4419C54.9995 68.8219 42.0185 65.2969 37.5015 73.7649C36.4886 73.4835 35.4243 73.44 34.3918 73.6379C33.3593 73.8357 32.3864 74.2696 31.5493 74.9055C30.7122 75.5415 30.0334 76.3624 29.5659 77.304C29.0984 78.2457 28.855 79.2826 28.8545 80.3339C28.8545 86.7639 37.1835 88.941 37.1835 85.634C37.1835 85.2324 37.024 84.8473 36.7401 84.5634C36.4561 84.2795 36.071 84.12 35.6695 84.12C35.0891 84.1202 34.5165 83.9871 33.9958 83.7308C33.475 83.4745 33.0202 83.102 32.6664 82.6419C32.3126 82.1819 32.0693 81.6467 31.9553 81.0776C31.8413 80.5085 31.8597 79.9209 32.009 79.36C32.1583 78.7992 32.4345 78.2802 32.8163 77.8431C33.1982 77.4061 33.6753 77.0626 34.211 76.8393C34.7467 76.6161 35.3266 76.5189 35.9058 76.5554C36.485 76.592 37.0481 76.7612 37.5515 77.0499C37.7472 77.1632 37.9659 77.2312 38.1913 77.2489C38.4168 77.2666 38.6433 77.2336 38.8544 77.1522C39.0654 77.0709 39.2555 76.9433 39.4107 76.7789C39.566 76.6144 39.6824 76.4173 39.7515 76.202C40.2242 74.7215 41.2478 73.4795 42.6107 72.7326C43.9735 71.9858 45.5713 71.7914 47.0734 72.1895C48.5756 72.5877 49.8673 73.548 50.6812 74.8719C51.4952 76.1957 51.7692 77.7818 51.4465 79.302C51.4036 79.5082 51.4042 79.7212 51.4482 79.9272C51.4923 80.1333 51.5789 80.3278 51.7025 80.4985C51.8261 80.6691 51.984 80.8121 52.166 80.9183C52.348 81.0244 52.5501 81.0914 52.7595 81.115C53.7191 81.2258 54.6001 81.6992 55.222 82.4383C55.844 83.1775 56.1599 84.1264 56.1051 85.0908C56.0502 86.0552 55.6288 86.9623 54.9271 87.6262C54.2254 88.29 53.2965 88.6606 52.3305 88.6619L52.3265 88.658Z" fill="#28431D"/>
<path d="M6.139 73.5149C6.97516 73.5149 7.653 72.8371 7.653 72.0009C7.653 71.1648 6.97516 70.4869 6.139 70.4869C5.30284 70.4869 4.625 71.1648 4.625 72.0009C4.625 72.8371 5.30284 73.5149 6.139 73.5149Z" fill="#28431D"/>
<path d="M62.1693 67.457C63.0054 67.457 63.6833 66.7791 63.6833 65.943C63.6833 65.1068 63.0054 64.429 62.1693 64.429C61.3331 64.429 60.6553 65.1068 60.6553 65.943C60.6553 66.7791 61.3331 67.457 62.1693 67.457Z" fill="#28431D"/>
</svg>
