<svg width="76" height="75" viewBox="0 0 76 75" fill="none" xmlns="http://www.w3.org/2000/svg">
<path d="M37.5635 75C58.2742 75 75.0635 58.2107 75.0635 37.5C75.0635 16.7893 58.2742 0 37.5635 0C16.8528 0 0.0634766 16.7893 0.0634766 37.5C0.0634766 58.2107 16.8528 75 37.5635 75Z" fill="white"/>
<path d="M37.5635 74.5C57.998 74.5 74.5635 57.9345 74.5635 37.5C74.5635 17.0655 57.998 0.5 37.5635 0.5C17.1289 0.5 0.563477 17.0655 0.563477 37.5C0.563477 57.9345 17.1289 74.5 37.5635 74.5Z" stroke="#A9B3A4"/>
<path d="M28.5035 47H44.5235V44.552H32.1035L39.3035 37.388C41.8595 34.832 43.9835 32.132 43.9835 28.928C43.9835 23.996 40.1315 21.368 36.3875 21.368C33.1835 21.368 30.2315 22.916 28.6115 26.12L30.7355 27.38C31.9595 24.896 33.9395 23.816 36.3875 23.816C38.9795 23.816 41.4635 25.508 41.4635 28.928C41.4635 31.268 39.6995 33.464 37.5755 35.588L28.5035 44.732V47Z" fill="#1D1963"/>
</svg>
