<svg width="250" height="250" viewBox="0 0 343 370" fill="none" xmlns="http://www.w3.org/2000/svg">
<path opacity="0.05" d="M310.446 177.282C313.679 91.9076 330.22 49.2835 197.169 73.3601C64.1192 97.4367 54.2602 19.2181 216.535 -66.0625C378.809 -151.343 428.094 62.9419 423.081 131.471C418.068 200 307.213 262.655 310.446 177.282Z" fill="#2B76FF"/>
<path d="M72.2804 86.8849C76.8467 84.2265 78.3934 78.3698 75.735 73.8036C73.0767 69.2373 67.22 67.6906 62.6537 70.349C58.0874 73.0073 56.5408 78.864 59.1991 83.4303C61.8574 87.9965 67.7141 89.5432 72.2804 86.8849Z" fill="#ABD840"/>
<path d="M311.249 258.774C315.162 255.224 315.456 249.175 311.907 245.262C308.357 241.349 302.307 241.054 298.394 244.604C294.482 248.154 294.187 254.203 297.737 258.116C301.286 262.029 307.336 262.324 311.249 258.774Z" fill="#29441E"/>
<path d="M230.641 117.994C233.684 115.233 233.914 110.528 231.153 107.484C228.392 104.441 223.687 104.212 220.643 106.973C217.6 109.734 217.371 114.439 220.132 117.482C222.893 120.525 227.598 120.755 230.641 117.994Z" fill="#CBDDFF"/>
</svg>
