<?xml version="1.0" encoding="UTF-8" standalone="no"?>
<svg
   xmlns:dc="http://purl.org/dc/elements/1.1/"
   xmlns:cc="http://creativecommons.org/ns#"
   xmlns:rdf="http://www.w3.org/1999/02/22-rdf-syntax-ns#"
   xmlns:svg="http://www.w3.org/2000/svg"
   xmlns="http://www.w3.org/2000/svg"
   xmlns:sodipodi="http://sodipodi.sourceforge.net/DTD/sodipodi-0.dtd"
   xmlns:inkscape="http://www.inkscape.org/namespaces/inkscape"
   width="600"
   height="160"
   viewBox="0 0 158.74999 42.333334"
   version="1.1"
   id="svg9449"
   sodipodi:docname="logo-acacia-horiz.svg"
   inkscape:version="1.0.2 (1.0.2+r75+1)">
  <defs
     id="defs9443" />
  <sodipodi:namedview
     id="base"
     pagecolor="#ffffff"
     bordercolor="#666666"
     borderopacity="1.0"
     inkscape:pageopacity="0.0"
     inkscape:pageshadow="2"
     inkscape:zoom="0.98994949"
     inkscape:cx="405.1743"
     inkscape:cy="174.75854"
     inkscape:document-units="px"
     inkscape:current-layer="g8468"
     inkscape:document-rotation="0"
     showgrid="false"
     units="px"
     inkscape:window-width="1920"
     inkscape:window-height="1016"
     inkscape:window-x="0"
     inkscape:window-y="27"
     inkscape:window-maximized="1" />
  <metadata
     id="metadata9446">
    <rdf:RDF>
      <cc:Work
         rdf:about="">
        <dc:format>image/svg+xml</dc:format>
        <dc:type
           rdf:resource="http://purl.org/dc/dcmitype/StillImage" />
        <dc:title></dc:title>
      </cc:Work>
    </rdf:RDF>
  </metadata>
  <g
     inkscape:label="Layer 1"
     inkscape:groupmode="layer"
     id="layer1">
    <g
       id="g8468"
       transform="matrix(0.85607892,0,0,-0.85607892,-617.31524,113.94326)">
      <g
         id="g8474"
         transform="matrix(0.97939063,0,0,0.97939063,7.1558903,1.9747112)">
        <path
           d="m 743.324,114.0384 0.021,-0.006 -0.013,-0.0173 -0.008,0.0236 z m -1.5746,3.6073 c 0.0261,-0.0422 0.0442,-0.013 0.006,-0.0924 z m 3.3318,1.8666 c 0.0343,-0.0538 0.0258,-0.004 0,-0.0552 -0.0263,0.0442 -0.0363,0.003 0,0.0552 z m -2.647,0.1611 c 0,0.0524 0.0284,0.006 0.0148,0 -3e-4,0 -0.0148,-0.0621 -0.0148,0 z m 17.4133,0.1003 0.142,0.0573 c 0.0317,0.0107 0.0334,0.003 0.0584,0.0104 l 0.2228,0.0763 c 0.2001,0.087 0.2919,0.0425 0.4416,0.1607 0.0967,-0.1176 0.277,-0.1598 0.3614,-0.248 -0.2052,-0.1114 -0.2814,-0.07 -0.4118,-0.1046 -0.2934,-0.078 -0.2503,0.0167 -0.4734,0.0193 -0.1318,0.001 -0.22,-0.0202 -0.341,0.0286 z m -26.064,0.2064 c 0.0595,0.0368 0.2117,0.0277 0.2979,0.0479 0.0592,0.0139 0.0791,0.0292 0.1395,0.0445 0.0949,0.0238 0.0564,0.0255 0.1371,0.051 0.118,-0.1454 0.3722,-0.1729 0.4476,-0.1976 0.0678,-0.0221 -0.0144,-0.005 0.0754,-0.0402 0.1202,-0.023 0.1616,0.053 0.2053,-0.0709 l -0.5477,-0.0235 c -0.1604,0 -0.4223,0.0467 -0.5893,0.0986 -0.0298,0.009 -0.0519,0.0199 -0.0833,0.0315 -0.0655,0.0246 -0.0468,0.007 -0.0825,0.0587 z m 1.1202,0.7072 c 0.0817,0.0388 0.0383,0.0116 0.1143,0.0235 0.1289,0.0199 0.006,0.005 0.1139,0.0471 0.1534,0 0.1534,0.0227 0.2781,0.0431 0.1128,0.0184 0.1715,-0.008 0.2934,0.0266 0.2809,0.0811 0.2358,0.1769 0.3929,0.2781 0.0912,0.0329 0.6885,-0.0655 0.8841,-0.0649 0.5108,0.002 0.2789,0.004 0.4371,-0.114 l 0.4053,-0.3041 c -0.3036,-0.0346 -0.5153,0.0346 -0.7208,-0.0374 -0.0697,-0.0244 -0.0391,-0.006 -0.0989,-0.0159 -0.1304,-0.0207 -0.0145,-0.0102 -0.0987,-0.0394 -0.0502,-0.0176 -0.0402,0.002 -0.0933,-0.0218 l -0.5382,-0.2217 c -0.0925,-0.0388 -0.001,-0.0119 -0.0842,-0.0544 -0.1817,-0.0933 -0.6109,-0.1823 -0.8286,-0.1815 -0.1151,3e-4 -0.7764,-0.049 -0.8405,0.1611 0.495,0.0396 0.1741,-0.0205 0.5627,0.1258 0.0451,0.2563 -0.0102,0.2299 -0.1786,0.3498 z m -4.3129,0.1415 0.0456,-0.0111 z m 26.7426,0.3084 c 0.1812,-0.01 0.2103,-0.0729 0.3592,-0.1279 0.5122,-0.1893 0.7336,-0.1655 1.2858,-0.2041 0.1247,-0.009 0.481,-0.1394 0.593,-0.1417 0.1012,-0.002 0.1275,-0.0213 0.2284,-0.0232 l 0.4023,-0.0797 c 0.1066,-0.0445 0.2421,-0.1165 0.301,-0.2115 -0.2659,-0.1284 -0.1981,-0.0853 -0.4283,-0.1349 l -0.4311,-0.1675 c -0.2268,-0.1075 -0.1863,-0.007 -0.2776,-0.1179 -0.0932,0.119 -0.0805,-0.0309 -0.5363,0.157 -0.4002,0.1653 -0.3163,0.0774 -0.6678,0.324 l -0.3609,0.2166 c -0.0895,0.0592 -0.0493,0.008 -0.2469,0.1459 -0.0487,0.0341 -0.0779,0.0545 -0.1275,0.0803 l -0.0304,0.0156 c -0.1298,0.0683 -0.123,0.0155 -0.3084,0.0374 0.0227,0.07 0.0496,0.0697 0.1083,0.1139 0.0363,0.0275 0.0885,0.0797 0.1372,0.1177 z m -21.1082,0.1712 c 0.0956,0.1057 0.0856,0.047 0.0973,0.2001 0.0603,0.005 0.1601,0.0167 0.2182,-0.002 0.08,-0.026 -0.0329,-0.0124 0.0768,-0.0382 0.101,-0.0238 0.1628,-0.0318 0.2764,-0.1154 0.0199,-0.0145 0.0516,-0.0411 0.0649,-0.0513 l 0.0403,-0.0289 c 0.0289,-0.0295 0.008,0.008 0.0229,-0.0389 -0.1919,-0.0153 -0.655,-0.0428 -0.7968,0.0749 z m 18.6228,-0.6449 c 0.006,0.017 0.0873,0.174 0.1046,0.1984 0.1253,0.1741 0.0833,0.1539 0.1644,0.2781 0.0933,0.1417 0.1902,0.4187 0.2092,0.5856 0.009,0.0803 9e-4,0.22 3e-4,0.3062 -9e-4,0.1834 0.0436,0.1179 0.0473,0.2576 0.008,0.296 0.0445,0.0533 0.0445,0.2841 0.0754,-0.0213 0.154,-0.0882 0.1763,-0.1483 0.1435,-0.3841 0.0267,-0.2653 0.5123,-0.4606 l 0.3668,-0.1162 c 0.1318,-0.0332 0.4036,-0.2313 0.441,-0.275 0.0301,-0.0351 0.0156,-0.0127 0.0346,-0.0629 -0.0966,-0.0802 -0.1114,-0.0836 -0.225,-0.1449 -0.3124,-0.1689 -0.0777,-0.0708 -0.4961,-0.242 -0.0839,-0.0343 -0.1709,-0.076 -0.2574,-0.1112 l -0.4439,-0.1071 c -0.184,-0.0397 -0.5426,-0.2387 -0.6789,-0.2418 z m -22.4087,1.4383 0.006,0.0215 0.0168,-0.0136 -0.0227,-0.008 z m 0.6409,0.0215 c -0.1228,-0.0697 -0.1324,0.0114 -0.3631,0.0298 l 0.0238,0.0164 c 5e-4,3e-4 0.0468,0.0188 0.0476,0.019 0.0337,0.008 0.0689,0.0111 0.1066,0.009 0.2208,-0.013 0.1743,-0.049 0.1851,-0.074 z m 0.6143,0.2852 c 0.2219,0.0556 0.1037,0.1797 0.3622,0.0442 0.1378,-0.072 0.2656,-0.1097 0.341,-0.2409 -0.1335,-0.0644 -0.2797,-0.0768 -0.4464,-0.0567 -0.0607,0.0618 -0.0638,0.0791 -0.1109,0.1448 -0.0671,0.0933 -0.0714,0.0596 -0.1459,0.1086 z m 21.1972,0.3988 c 0.1295,-0.1763 0.1811,-0.1034 0.3234,-0.1848 -0.0672,-0.2554 -0.0936,-0.3002 -0.0936,-0.5913 -0.0371,-0.1009 -0.0187,0.004 -0.043,-0.0969 l -0.2302,-0.6106 c -0.0173,-0.0357 -0.0252,-0.0536 -0.0502,-0.0899 -0.0292,-0.0431 -0.0825,-0.1077 -0.1207,-0.1584 -0.0445,-0.059 -0.0678,-0.106 -0.1219,-0.1568 -0.0766,-0.0728 -0.0644,-0.0572 -0.1307,-0.148 -0.0369,-0.0498 -0.0995,-0.1224 -0.129,-0.1732 -0.0949,-0.1638 -0.1284,-0.1255 -0.36,-0.1938 -0.1241,-0.0369 -0.9085,-0.0701 -1.0275,-0.0701 -0.0868,0 -0.1798,0.0102 -0.2606,-0.0138 -0.1261,-0.0377 -0.1201,-0.0332 -0.2644,-0.0332 -0.0904,-0.0357 -0.007,-0.0196 -0.0746,-0.0408 -0.0326,-0.01 -0.0652,-0.006 -0.1026,-0.0119 l -0.2696,-0.0752 c -0.138,-0.0436 -0.2766,-0.1238 -0.3982,-0.2015 -0.0499,-0.032 -0.0335,-0.0139 -0.0763,-0.0391 l -0.4807,-0.3521 c -0.0984,-0.0864 -0.2946,-0.1616 -0.4099,-0.3073 -0.1602,-0.2023 -0.08,-0.1071 -0.273,-0.2131 l -0.2812,-0.2047 c -0.1293,-0.0884 -0.1511,-0.1307 -0.2469,-0.2165 -0.2384,-0.2135 -0.3047,-0.3515 -0.4535,-0.616 l -0.2625,-0.6951 c -0.072,-0.2953 -0.1069,-0.3696 -0.2588,-0.6052 l -0.3935,-0.5601 c -0.0887,-0.0955 -0.1998,-0.2174 -0.2633,-0.341 l -0.1466,-0.2021 c -0.053,-0.0876 -0.0173,-0.0831 -0.0697,-0.1639 l -0.5032,-0.7061 c -0.0484,-0.0657 -0.0785,-0.1471 -0.1391,-0.21 -0.0556,-0.0578 -0.0204,-0.015 -0.0593,-0.0802 -0.0638,-0.1066 -0.1326,-0.1602 -0.2049,-0.2835 l -0.3025,-0.3946 c -0.0465,-0.0476 -0.064,-0.1097 -0.1023,-0.1536 -0.0318,-0.0363 -0.078,-0.0675 -0.1171,-0.1148 l -0.4447,-0.5307 c -0.0729,-0.102 -0.2829,-0.2352 -0.3807,-0.3379 -0.0709,-0.0742 -0.0692,-0.0547 -0.1307,-0.1006 -0.0947,-0.0706 -0.2118,-0.1035 -0.3229,-0.1616 -0.0689,-0.036 -0.0666,-0.072 -0.1567,-0.0975 -0.003,0.004 -0.009,0.0165 -0.0105,0.0125 l -0.2339,0.3719 c -0.0164,0.0578 0.003,0.0587 -0.0204,0.1205 l -0.1689,0.3438 c -0.0505,0.0661 -0.0185,0.0842 -0.091,0.1653 -0.0885,0.0989 -0.1384,0.3044 -0.1933,0.4368 l -0.114,0.2835 c -0.1242,0.2474 -0.1463,0.595 -0.0488,0.8736 0.042,0.1208 0.4635,0.5837 0.5797,0.7214 0.1806,0.2143 0.2036,0.1664 0.3994,0.4833 0.0485,0.0791 0.0233,0.0264 0.0644,0.0749 0.0289,0.034 0.0655,0.1131 0.0972,0.1587 l 0.1766,0.3365 c 0.0232,0.0646 0.0473,0.1264 0.0703,0.1868 0.0411,0.108 0.0632,0.2574 0.1522,0.3614 l 0.1534,0.2188 c 0.1199,0.1293 0.038,0.004 0.1845,0.2336 0.0411,0.0646 0.0729,0.0683 0.114,0.1417 l 0.2948,0.4734 c 0.0269,0.042 0.0819,0.1165 0.1006,0.1554 l 0.2194,0.5516 c 0.0193,0.0717 0.0272,0.1695 0.042,0.216 l 0.2707,0.4983 c 0.0941,0.1718 0.3594,0.4845 0.5119,0.5318 0.0734,0.023 0.1193,0.0269 0.195,0.0581 l 0.25,0.1188 c 0.0275,0.009 0.0267,0.003 0.055,0.0139 l 0.5208,0.1692 c 0.3662,0.1355 0.9323,0.085 1.3354,0.0822 0.1675,-0.001 0.1031,-0.003 0.2157,0.0363 0.0552,0.0193 0.051,0.004 0.102,0.0127 0.165,0.0292 0.1491,0.1021 0.4076,0.0409 0.0411,-0.01 0.0613,-0.0301 0.0998,-0.0389 0.1418,-0.0317 0.146,0.0128 0.2242,0.0434 0.2087,0.0397 0.4661,0.0811 0.6605,0.1431 0.195,0.0621 0.3969,0.1599 0.612,0.2163 0.2772,0.0726 0.3909,-0.0278 0.3954,0.2988 0.0922,-0.0437 0.235,-0.0456 0.3405,-0.0451 l 0.5488,-0.0456 c 0.1136,-0.004 0.2083,-0.0987 0.5692,-0.0488 0.1358,0.0386 0.1837,0.178 0.2798,0.277 0.0793,0.01 0.1445,0.002 0.2236,0.004 0.1052,0.004 0.091,0.0269 0.1891,0.0641 0.013,0.0411 0.0159,0.0581 0.0297,0.0876 0.0321,0.0666 0.0488,-0.0613 -0.0147,0.2979 l -0.1363,0.3543 c -0.029,0.0491 -0.0562,0.0544 -0.101,0.0845 l -0.2174,0.1094 c 0.0474,0.0403 0.0675,0.0524 0.0913,0.114 -0.0692,0.0941 -0.2534,0.2086 -0.3546,0.2698 l -0.1474,0.0879 c 0.0547,0.0453 0.0808,0.1015 0.1352,0.1117 0.076,0 0.1749,-0.0131 0.2404,0.0107 0.0575,0.021 -0.008,0.0258 0.1015,0.0369 0.0703,0.007 0.0479,-0.0113 0.1221,0.0156 0.1789,0.0649 0.0706,-0.004 0.2186,0.008 0.1012,0.008 0.0881,0.0542 0.2262,0.0431 0.008,-0.3121 -0.0618,-0.1678 -0.1349,-0.4459 z m -17.0708,0.4499 c 0.0884,-0.1193 0.2956,-0.0706 0.4373,-0.0706 0.0975,-0.0385 -0.004,-0.0193 0.0936,-0.0448 l 0.3739,-0.1088 c 0.3092,-0.1174 0.1672,-0.0604 0.3761,-0.2481 l 0.2197,-0.2443 c 0.0493,-0.0587 0.032,0.003 0.0819,-0.0805 0.078,-0.131 0.1608,-0.3044 0.2379,-0.4144 0.0388,-0.0556 0.0762,-0.1287 0.1184,-0.184 l 0.4153,-0.5613 c 0.0556,-0.0858 0.0675,-0.0887 0.0924,-0.2111 l 0.0828,-0.2447 c 0.0533,-0.1224 0.2506,-0.3328 0.2585,-0.3931 l 0.0868,-0.9241 c 0.064,-0.1596 0.0572,-0.4028 0.1048,-0.5755 0.0207,-0.0745 0.0205,-0.0348 0.036,-0.1275 0.0185,-0.1083 0.023,-0.0513 0.044,-0.1437 l 0.284,-0.9088 c 0.1094,-0.2396 0.1522,-0.4856 0.4079,-0.781 0.1741,-0.2007 0.2279,-0.3758 0.2696,-0.4289 0.2115,-0.2687 0.085,-0.223 0.1397,-0.4923 0.008,-0.0397 0.0304,-0.0621 0.038,-0.1018 0.0357,-0.1797 -0.0218,-0.2381 0.1369,-0.6367 l 0.0746,-0.2296 c 0.0201,-0.0895 0.0198,-0.0326 0.0383,-0.102 0.051,-0.193 0.0793,-0.582 0.0963,-0.6783 l 0.0604,-0.15 c 0.017,-0.0419 0.003,0.009 0.0286,-0.0646 0.0786,-0.224 0.2685,-0.3787 0.4173,-0.559 l 0.3064,-0.3439 c 0.0349,-0.0479 0.0689,-0.0688 0.0958,-0.1133 l 0.2433,-0.4088 c 0.0677,-0.1106 0.2199,-0.2968 0.2403,-0.4119 -5e-4,-0.1922 0.099,-0.2934 0.1137,-0.4498 0.008,-0.0859 -0.0181,-0.1579 -0.0488,-0.2302 -0.0187,-0.0437 -0.0238,-0.0607 -0.0419,-0.0981 -0.1111,-0.2307 -0.1432,-0.3203 -0.3078,-0.5306 l -0.2172,-0.2237 c -0.2253,-0.2565 -0.3827,-0.4456 -0.5366,-0.7424 l -0.3991,-0.6015 c 0,0.0726 0.005,0.1661 6e-4,0.2364 -0.005,0.0825 -0.0338,0.1208 -0.0451,0.2126 -0.0184,0.1522 -0.0935,0.2495 -0.0927,0.4232 10e-4,0.1576 0.0113,0.3668 6e-4,0.5193 -0.017,0.2416 -0.0845,0.4799 -0.1676,0.6991 -0.1173,0.3087 -0.367,0.6463 -0.4152,0.7497 -0.0292,0.0627 -0.0431,0.1256 -0.0584,0.1993 -0.0238,0.1151 -0.044,0.0391 -0.0437,0.214 -0.0414,0.1123 -0.0482,0.0267 -0.0459,0.212 0.001,0.1041 0.0122,0.1418 -0.0224,0.2362 -0.0368,0.1003 -0.0281,0.3591 -0.0499,0.4909 l -0.0434,0.2143 c -0.0255,0.1185 -0.0153,-0.0198 -0.0413,0.099 l -0.0539,0.2035 c -0.0386,0.1803 -0.1049,0.3339 -0.1664,0.5116 l -0.1664,0.347 c -0.0862,0.1519 -0.2979,0.5675 -0.398,0.6732 l -0.5989,0.7251 c -0.0562,0.0567 -0.0632,0.1027 -0.1032,0.1531 -0.1366,0.1718 -0.0335,-0.0487 -0.3413,0.4725 l -0.2282,0.4714 c -0.002,0.005 -0.005,0.0114 -0.007,0.0162 l -0.0845,0.2429 c -0.0181,0.091 -0.0337,0.1143 -0.0476,0.2101 -0.0113,0.0757 -0.0263,0.1647 -0.0416,0.2401 -0.0437,0.2199 -0.0168,0.5417 -0.0777,0.7214 -0.0258,0.0762 -0.0357,0.3024 -0.0873,0.4286 -0.0593,0.1448 -0.097,0.3067 -0.1641,0.4433 -0.0103,0.021 -0.0108,0.025 -0.0222,0.0479 -0.0235,0.0474 -0.0221,0.034 -0.0382,0.1018 -0.0343,0.1443 -0.2775,0.5862 -0.3583,0.6908 -0.0482,0.0621 -0.0763,0.0842 -0.1216,0.1335 -0.055,0.0595 -0.0533,0.1103 -0.1143,0.165 -0.2052,0.1851 -0.324,0.3481 -0.5692,0.4966 -0.0533,0.0326 -0.108,0.0652 -0.1491,0.1052 -0.083,0.0808 -0.4053,0.2378 -0.5286,0.3024 l -0.1497,0.0579 c -0.2089,0.0433 -0.4141,0.1556 -0.6335,0.1703 -0.1506,0.0105 -0.2347,0.1049 -0.3544,0.1766 -0.1241,0.0743 -0.2653,0.095 -0.3914,0.1375 l -0.3787,0.1511 c -0.148,0.0618 -0.2251,0.0162 -0.334,0.1891 0.1557,0.0175 0.2291,-0.0488 0.432,0.0292 0.0885,0.034 0.1236,0.0289 0.203,0.0499 l 0.1848,0.0683 c 0.2387,0.1054 0.4949,0.1627 0.7297,0.2834 l 0.5332,0.2274 c 0.0666,0.0295 -0.0326,0.005 0.083,0.0317 0.095,0.0221 0.0442,0.0162 0.1021,0.0363 0.1831,0.0629 0.0547,-0.0264 0.3653,0.1412 0.3255,0.1757 0.3014,0.1879 0.5021,-0.0485 0.0796,-0.0941 0.1204,-0.0833 0.1737,-0.1505 -0.0385,-0.097 -0.0201,-0.0139 -0.0742,-0.0964 z m 16.5021,0.1179 c 0.0204,0.021 0.0754,-0.0286 0.0278,-0.0133 -6e-4,3e-4 -0.059,-0.019 -0.0278,0.0133 z m -1.5477,-0.161 c 0.0201,0.0663 0.049,0.07 0.087,0.1613 0.0204,0.0488 0.0499,0.1468 0.0746,0.1823 0.1046,0.0105 0.1185,-0.0423 0.2676,-0.0417 0.2897,10e-4 0.826,0.0561 0.9609,-0.021 -0.0309,-0.081 -0.009,-0.0399 -0.1168,-0.0958 l -0.2491,-0.1669 c -0.0837,-0.0644 -0.0621,-0.0531 -0.1695,-0.0321 -0.2305,0.0454 -0.5996,-0.006 -0.8547,0.0139 z m -13.8555,0.4439 c 0.1897,0 0.3405,-0.1236 0.4337,-0.1414 0.1608,0 0.3204,-0.0457 0.4641,0.0431 l 0.161,-0.3405 c 0.0553,-0.1567 0.0935,-0.2123 0.127,-0.3872 0.0258,-0.1327 0.0368,-0.0145 0.0456,-0.2123 0.008,-0.1749 0.0454,-0.009 0.0479,-0.2098 0.002,-0.18 -0.001,-0.3634 -0.001,-0.5437 -0.1111,0.082 -0.661,1.1747 -0.9805,1.3445 -0.1055,0.0561 -0.1599,0.1157 -0.2353,0.1576 -0.1003,0.0561 -0.1771,0.068 -0.309,0.0836 0.046,0.0386 0.0695,0.0341 0.1279,0.0936 0.0584,0.0592 0.0561,0.0876 0.119,0.1125 z m 2.8296,-6.0123 c -0.0933,0.0369 -0.0819,0.1205 -0.1775,0.288 l -0.3254,0.8428 c -0.0167,0.0844 -0.0113,0.1618 -0.0227,0.2358 l -0.0856,0.3833 c -0.0116,0.0686 -0.0226,0.1394 -0.0275,0.2072 -0.008,0.1258 -0.0399,0.1097 -0.0464,0.2114 -0.0122,0.1979 0.0306,0.008 -0.0346,0.2002 -0.0241,0.0708 0.002,0.1406 -0.019,0.216 -0.0604,0.2174 -0.006,0.1391 -0.0641,0.2874 -0.028,0.0726 -0.0105,0.0436 -0.0232,0.1173 l -0.2081,0.6103 c -0.093,0.2895 -0.0238,0.097 -0.0694,0.3056 -0.0136,0.0624 -0.0397,0.1185 -0.0519,0.182 l -0.106,1.093 -0.2588,0.5814 c -0.0159,0.0236 -0.0332,0.0227 -0.0584,0.0576 -0.0343,0.0473 -0.063,0.1267 -0.0641,0.193 0.1094,0.1006 0.0953,0.0491 0.2143,0.1321 l 0.7019,0.3594 c 0.0921,0.0162 0.2262,-0.002 0.3112,-0.0246 0.2506,-0.0678 0.2529,-0.1157 0.5981,-0.114 0.1233,6e-4 0.2047,0.0244 0.3422,0.0244 0,-0.4606 0.0705,-0.8175 0.2205,-1.2104 0.015,-0.04 0.004,-0.0292 0.0221,-0.0714 l 0.2384,-0.6262 c 0.0683,-0.2259 0.1114,-0.2653 0.1352,-0.5442 0.009,-0.1015 0.0148,-0.0485 0.0369,-0.1268 0.0493,-0.176 -0.003,-0.8804 -0.0754,-1.0593 -0.0479,-0.1196 -0.2778,-0.6256 -0.3912,-0.6488 0.0357,0.1182 0.0434,-0.0258 0.0397,0.2299 l -0.328,-0.6239 c -0.0247,-0.0434 -0.0595,-0.0797 -0.0746,-0.1117 l -0.1584,-0.3314 c -0.2234,-0.5885 -0.1029,-0.5488 -0.1619,-0.8937 -0.0246,-0.1443 -0.0283,-0.2183 -0.0283,-0.3717 z m 10.8244,5.5797 c -0.148,-0.0566 -0.2322,-0.0388 -0.3958,-0.0388 -0.1026,-0.0405 0.0103,-0.0249 -0.1102,-0.0513 -0.0122,-0.123 -0.0261,-0.0666 -0.008,-0.1806 -0.2208,-0.0178 -0.4062,0.1302 -0.5944,0.2265 l -0.1366,0.0709 c -0.2052,0.1182 -0.5925,0.0164 -0.4076,-0.248 l -0.3393,-0.0545 c -0.0811,-0.0133 -0.1525,-0.0825 -0.3436,-0.0462 -0.129,0.0247 -0.2271,0.2152 -0.3464,0.279 -0.0808,0.043 -0.0989,0.0139 -0.1556,0.0748 l -0.1908,-0.006 c -0.0286,-0.0751 -0.0887,-0.1485 0.0303,-0.2778 0.0567,-0.0617 0.1268,-0.1454 0.1398,-0.2369 -0.2191,-0.1253 -0.3424,0.1638 -0.5726,0.1199 -0.1191,-0.0471 -0.1046,-0.2024 -0.1582,-0.3079 -0.0564,-0.1105 -0.1542,-0.0337 -0.2069,-0.2579 0.0612,-0.0258 0.0238,0 0.0519,-0.0644 l 0.1553,-0.2168 c 0.1559,-0.1403 0.2988,-0.1724 0.4711,-0.2676 l 0.3422,-0.1653 c 0.0337,-0.0139 0.0484,-0.0195 0.0793,-0.0357 l 0.0868,-0.0519 c 0,-0.1887 -0.1216,-0.2503 -0.2092,-0.4008 0.0626,-0.1162 -0.0133,-0.0535 0.0913,-0.11 -0.0942,-0.072 -0.4958,-0.0377 -0.5874,0.01 0.0978,0.011 0.2047,-0.0125 0.2758,0.0295 -0.0448,0.0266 -1.0593,0.0569 -1.1803,0.0127 -0.1409,-0.0516 -0.2146,-0.0181 -0.3498,-0.0626 -0.2325,-0.0768 -0.4235,-0.0593 -0.6171,-0.2112 -0.0766,-0.0601 -0.1826,-0.0768 -0.2642,-0.1514 -0.0366,-0.0331 -0.0692,-0.0796 -0.1026,-0.1063 -0.0536,-0.0425 -0.1579,-0.1165 -0.2038,-0.1902 -0.0156,-0.0252 -0.0227,-0.0519 -0.0295,-0.064 l -0.197,-0.3388 c -0.1814,-0.3696 -0.3317,-0.881 -0.4969,-1.1843 l -0.0805,-0.1287 c -0.0817,-0.0845 -0.1463,-0.203 -0.2155,-0.2959 l -0.0567,-0.0635 c -0.0717,0.1355 -0.0337,0.4612 -0.0969,0.6545 l -0.1074,0.455 c -0.005,0.062 -0.007,0.1499 0.0104,0.2029 0.0352,0.1052 0.1313,0.1916 0.1491,0.294 0.012,0.0691 0.021,0.1357 0.0335,0.2009 0.0221,0.1165 0.0247,0.2895 0.0556,0.3909 0.0385,0.1262 0.003,0.0927 0.0606,0.2673 0.0167,0.0508 0.003,0.055 0.0176,0.0998 0.004,0.0125 0.1403,0.2594 0.1587,0.2838 0.0494,0.0646 0.1384,0.1661 0.1939,0.2242 0.2506,0.2628 0.4402,0.373 0.5738,0.7512 0.0294,0.0839 0.0354,0.0884 0.0643,0.1457 0.0703,0.1394 0.1723,0.4116 0.3421,0.5425 0.1761,0.1355 0.1778,0.3033 0.1962,0.3631 0.0215,0.0698 0.005,-0.015 0.0391,0.0777 0.0148,0.0839 -0.003,0.0692 0.0315,0.1559 0.0193,0.0474 0.005,0.0301 0.0195,0.074 0.0743,0.2324 0.2319,0.2472 0.3782,0.3872 l 0.0768,0.1094 c 0.0488,0.0893 0.0391,0.1744 0.11,0.2912 0.0737,-0.0896 0.2007,-0.0536 0.3041,-0.0905 0.0805,-0.0286 0.1489,-0.019 0.2353,-0.0397 0.0227,-0.005 0.0808,-0.0306 0.1035,-0.0348 l 0.7639,-0.0428 c 0.184,0.045 0.2574,0.0859 0.4643,0.0859 0.0794,-0.0312 0.0119,-0.0102 0.0757,-0.0397 l 0.2534,-0.1154 c 0.0547,-0.019 0.1344,-0.0278 0.1815,-0.0485 l 0.3557,-0.1272 c 0.0731,-0.0159 0.1488,-0.0295 0.2293,-0.0233 0.1528,0.0116 0.2787,0.1004 0.4334,0.0712 0.072,-0.0281 0.0947,-0.0851 0.1619,-0.1157 0.0343,-0.0159 0.0856,-0.0198 0.1103,-0.0275 0.0949,-0.0283 -0.002,-0.008 0.0929,-0.0453 0.0973,0 0.1988,-0.0295 0.2685,-0.0199 0.006,0.001 0.1145,0.021 0.1176,0.0216 0.1219,0.032 0.3422,0.2695 0.5664,0.0864 -0.0145,-0.1732 -0.1077,-0.2979 -0.1916,-0.4737 z m -14.751,0.6058 c 0.2895,0.1287 0.3334,0.0488 0.4811,0.0153 l 0.2457,-0.0759 c 0.1012,-0.0429 0.0627,0.01 0.0737,-0.0891 -0.1499,-0.003 -0.1326,-0.0694 -0.2341,-0.1355 -0.0422,-0.009 -0.2648,0.0777 -0.305,0.0973 -0.0598,0.0295 -0.1658,0.0283 -0.2614,0.1879 z m 7.6292,0.7404 c 0.0524,0.006 0.248,-0.0125 0.309,-0.0227 0.1607,-0.026 0.1644,0.007 0.324,0.005 0.195,-0.002 0.4926,0.0289 0.6621,0.0703 0,-0.1695 0.0162,-0.3393 0.0409,-0.4997 0.0235,-0.1528 -0.007,-0.3767 0.004,-0.538 0.0159,-0.2228 0.0734,-0.6656 -0.0309,-0.8632 l -0.1967,-0.339 c -0.0125,-0.0181 -0.0519,-0.0527 -0.0689,-0.0703 l -0.7013,-0.8943 c -0.0116,0.1357 0.087,0.3705 -0.0737,0.6587 -0.0572,0.1032 -0.0249,0.093 -0.1032,0.1763 -0.045,0.048 -0.0686,0.0893 -0.1094,0.1466 -0.1536,0.2169 -0.3135,0.4972 -0.2225,0.7858 l 0.0533,0.2043 c 0.0244,0.0805 0.0224,-0.03 0.0394,0.0805 0.009,0.0576 -0.0437,0.1594 -0.0686,0.2098 -0.008,0.0153 -0.0326,0.0593 -0.0465,0.0933 -0.1009,0.2449 -0.004,0.4277 0.1006,0.6281 l 0.0882,0.1681 z m -2.128,-10.5332 c -0.3571,0.0893 -0.422,0.864 -0.4606,0.962 -0.0351,0.089 -0.01,0.101 -0.0196,0.1922 -0.005,0.0525 -0.0328,0.099 -0.0408,0.1466 -0.0105,0.0623 0.006,0.1548 -0.005,0.2069 -0.0224,0.1108 -0.0351,-0.0266 -0.0445,0.1664 -0.007,0.1412 -0.0176,0.057 -0.0448,0.1658 -0.0329,0.1333 -0.0414,0.1817 -0.1003,0.2971 -0.0185,0.0354 -0.0105,0.0298 -0.0289,0.0646 -0.001,0.003 -0.0428,0.0649 -0.0463,0.07 -0.0317,0.0533 -0.007,0.001 -0.0289,0.0647 l -0.1366,0.5896 c -0.015,0.127 -0.0119,0.0714 -0.0391,0.1718 l -0.0553,0.3435 c -0.002,0.0618 -0.005,0.3807 0.007,0.4193 0.0249,0.081 0.036,-0.0304 0.0397,0.1474 l 0.1635,0.7741 c 0.1004,0.2659 -0.0496,-0.0122 0.1738,0.3626 0.0754,0.1264 0.1868,0.2559 0.2361,0.3693 0.0349,0.0802 0.009,0.0666 0.0641,0.146 l 0.1465,0.2492 c 0.0406,0.0663 0.0392,0.051 0.0763,0.1335 l 0.1052,0.2919 c 0.0272,0.0743 0.007,-0.015 0.0311,0.0621 l 0.0531,0.2756 c 0.0147,0.2412 0.0649,0.2398 0.013,0.5329 -0.0133,0.0759 -0.005,0.1335 -0.017,0.1941 l -0.1352,0.4734 c -0.0666,0.2682 -0.1911,0.4822 -0.2951,0.7328 l -0.1437,0.3702 c -0.002,0.005 -0.005,0.011 -0.008,0.0156 l -0.2817,1.0528 c 0.0124,0.07 0.1627,0.1343 0.2216,0.1956 l 0.1891,0.2525 c 0.0519,0.0893 0.1616,0.1673 0.239,0.201 0.3979,0.1732 0.1785,-0.032 0.6369,0.2381 0.0694,0.0408 0.2344,0.1247 0.3336,0.1267 l 0.0644,-0.0513 c 0.01,-0.1329 0.1324,-0.4873 0.1862,-0.6092 l 0.1038,-0.1757 c 0.0388,-0.0695 -0.0156,-6e-4 0.0445,-0.072 0.121,-0.1432 0.2806,-0.4649 0.3271,-0.6525 0.0246,-0.0995 -0.009,-0.4173 0.0777,-0.7212 l 0.4473,-0.9329 -0.1789,-0.5337 c -0.0882,-0.4394 -0.091,-0.4955 -0.091,-0.9907 0,-0.0933 0.007,-0.2183 9e-4,-0.3073 -0.008,-0.1168 -0.0468,-0.0924 -0.0465,-0.2585 -0.0363,-0.0984 -0.0165,0.002 -0.0428,-0.0973 -0.1832,-0.6967 -0.0638,-0.4084 -0.0485,-0.7517 l 0.032,-0.1318 c 0.0255,-0.0646 0.008,-0.0581 0.0133,-0.1279 0.01,-0.1227 0.0222,-0.0408 0.0417,-0.1218 0.0108,-0.0451 -10e-4,-0.0933 0.005,-0.1364 0.0204,-0.1372 0.0607,-0.0232 0.0462,-0.4266 l -0.0981,-0.3699 c -0.0255,-0.0615 -0.0275,-0.0848 -0.0473,-0.1398 l -0.0941,-0.2562 c -0.0581,-0.2668 0.006,-0.0992 -0.112,-0.4034 -0.0683,-0.1763 -0.0278,-0.1596 -0.1649,-0.3716 -0.0879,-0.1352 -0.4182,-0.3569 -0.5349,-0.5086 -0.1185,-0.1536 -0.2951,-0.2916 -0.3873,-0.4722 -0.0567,-0.1111 -0.432,-0.4158 -0.4348,-0.8002 -10e-4,-0.1109 -0.0119,-0.2319 0.0235,-0.3314 0.0224,-0.0629 0.0672,-0.2395 0.0686,-0.3061 z m 4.3586,9.9499 0.007,-0.007 c -6e-4,5e-4 -0.009,0.004 -0.007,0.007 z m -0.7532,0.6363 c 0.3022,0.007 0.5035,0.108 0.8104,-0.2233 0.003,-0.003 0.008,-0.008 0.0117,-0.0119 0.0226,-0.0258 0.0181,-0.0185 0.0414,-0.0556 -0.0709,-0.1055 -0.1449,-0.2052 -0.2058,-0.2942 -0.0604,-0.0882 -0.1996,-0.1596 -0.2557,-0.2781 -0.0247,-0.0519 -0.003,-0.038 -0.0278,-0.089 -0.0113,-0.0238 -0.0822,-0.093 -0.1188,-0.2781 -0.049,-0.2489 0.036,-0.1225 -0.1227,-0.3682 l -0.0184,-0.0284 c 0,0.2832 0.0107,0.5675 -0.0366,0.8345 -0.0369,0.207 0.0354,0.0871 -0.0459,0.3771 -0.0363,0.1289 0.0192,0.2877 -0.0318,0.4152 z m -2.6013,0.4952 c 0.3347,-0.0306 0.4762,-0.2315 0.7208,-0.3163 0.0635,-0.0218 0.0729,-0.038 0.1145,-0.0703 l 0.1231,-0.0612 c -0.0219,-0.0601 -0.0567,-0.0811 -0.095,-0.161 -0.0295,-0.0616 -0.0485,-0.1123 -0.0797,-0.1772 l -0.0771,-0.18 c -0.0459,-0.1043 0.0142,-0.1483 -0.0904,-0.1894 l -0.0689,0.1177 c -0.3174,0.4323 -0.1916,0.0944 -0.4396,0.6775 -0.0474,0.1114 -0.1072,0.2599 -0.1077,0.3602 z m -11.8888,-3.018 c 0.0278,-0.1052 0.0402,-0.0235 0.0416,-0.1372 -0.1465,-0.0119 -0.288,0.023 -0.4169,-0.0408 -0.0754,-0.0374 -0.0698,-0.072 -0.1506,-0.0819 -0.0634,-0.008 -0.1357,0.0175 -0.1998,0.0309 -0.2134,0.0439 -0.2469,-0.0854 -0.2869,-0.1395 -0.1255,-0.1707 -0.1323,-0.0309 -0.1553,-0.3348 -0.1037,0.004 -0.0805,0.0774 -0.269,0.1619 -0.1012,0.0456 0.002,0.0306 -0.1168,0.0485 -0.0941,-0.1253 -0.0153,-0.2056 0.0587,-0.2971 0.1253,-0.1559 0.0357,-0.0811 0.2151,-0.2177 l -0.1805,-0.007 c -0.0375,0.0408 -0.1335,0.0589 -0.2878,0.1752 -0.1235,0.0929 -0.3021,0.1774 -0.4424,0.0377 0,-0.167 0.011,-0.1523 0.1482,-0.2946 0.1845,-0.1916 0.1636,-0.0711 0.1939,-0.1768 -0.0655,0.0311 -0.3382,0.0609 -0.3878,0 -0.1074,-0.1324 0.0476,-0.2583 0.1644,-0.3017 0.0814,-0.0303 0.0349,-0.0167 0.0777,-0.0374 0.0524,-0.0252 0.0899,-0.0235 0.1497,-0.0618 -0.0811,-0.1088 -0.0454,-0.1601 0.0861,-0.3078 0.0862,-0.097 0.2481,-0.1018 0.3799,-0.1261 0.2443,-0.0451 0.7058,0.0119 0.8203,-0.004 0.1148,-0.0162 0.059,-0.008 0.0788,-0.057 -0.0337,-0.0825 -0.0277,-0.0473 -0.1579,-0.0725 -0.0589,-0.0114 -0.1525,-0.0377 -0.2089,-0.0437 -0.2661,-0.0281 -0.2191,0.009 -0.1998,-0.2568 0.007,-0.004 0.0536,-0.057 0.1808,-0.0729 0.2869,-0.0357 1.0146,-0.0643 1.2887,0.0321 l 0.4512,0.2409 c 0.0565,0.0496 -0.0104,-0.0102 0.0329,0.0366 l 0.1262,0.0819 c 0.1102,0.0363 0.1808,0.0763 0.2681,0.0323 l 0.5502,-0.2097 c 0.0443,-0.009 0.0922,0.002 0.1324,-0.005 0.1383,-0.0221 0.1347,-0.0672 0.5029,-0.0465 0.0782,0.009 0.0479,-0.002 0.0893,0.0491 0.286,-0.009 0.7565,0.1831 0.9141,0.1873 0.1103,0.003 0.0618,-0.0133 0.1557,0.0275 0.0697,0.0301 0.0853,0.0196 0.1661,0.0173 l 0.0374,0.0536 c 0.1565,-0.008 0.4722,0.0601 0.5751,0.1857 l 0.1633,-0.003 c 0.0607,0.0729 0.1772,0.0459 0.273,0.0471 0.1896,0.002 0.0916,0.0306 0.3197,0.002 0.0508,-0.006 0.1307,-10e-4 0.1832,6e-4 0.0918,-0.1122 0.2313,-0.1188 0.3744,-0.3441 0.0774,-0.1216 0.1256,-0.2656 0.1863,-0.3969 0.0269,-0.0578 0.002,0.0253 0.024,-0.0459 0.0559,-0.1803 0.0664,-0.4963 0.1134,-0.6375 0.0301,-0.0901 0.0777,-0.2965 0.0743,-0.4184 l 0.0465,-0.1885 c 0.0867,-0.0765 0.0252,-0.0799 0.0655,-0.2143 l 0.3747,-1.0984 c 0.006,-0.0199 0.0309,-0.0774 0.0403,-0.0995 l 0.443,-0.792 c 0.017,-0.0284 0.006,-0.01 0.0216,-0.0488 0.0416,-0.1054 0.119,-0.163 0.1831,-0.2588 l 0.4158,-0.631 c 0.002,-0.004 0.0153,-0.0263 0.017,-0.0297 0.0122,-0.0219 0.0116,-0.0233 0.025,-0.0448 l 0.0717,-0.1148 c 0.002,-0.004 0.006,-0.01 0.009,-0.0142 l 0.28,-0.5357 c 0.0216,-0.0514 -10e-4,0.002 0.025,-0.0448 0.004,-0.007 0.0201,-0.0338 0.0258,-0.0443 0.0379,-0.0708 0.0181,-0.0172 0.0394,-0.1009 l 0.2695,-1.207 c 3e-4,-0.2245 0.0117,-0.1238 0.0403,-0.2412 0.009,-0.0383 0.003,-0.0881 0.009,-0.1324 l 0.3861,-1.2279 c 0.0297,-0.1205 0.008,0.0195 0.0402,-0.0995 0.006,-0.0244 3e-4,-0.0304 0.0102,-0.0604 l 0.057,-0.1769 c 0.0811,-0.2134 0.087,-0.6993 0.0944,-0.94 0.003,-0.1136 0.0405,-0.1338 0.047,-0.2341 0.006,-0.0947 -0.01,-0.2132 9e-4,-0.3056 0.0283,-0.2494 0,-0.309 -6e-4,-0.5445 -3e-4,-0.1517 -0.0394,-0.1185 -0.047,-0.2344 -0.008,-0.1296 -0.009,-0.1559 -0.0318,-0.2736 -0.0394,-0.2035 -0.0207,-0.3492 -0.0351,-0.553 -0.0105,-0.1483 -0.0465,-0.0389 -0.0465,-0.5417 0,-0.186 0.0255,-0.7081 -6e-4,-0.8717 -0.0181,-0.1156 -0.0465,-0.0524 -0.0451,-0.2599 0.002,-0.3529 0.0304,-2.1546 -0.004,-2.3539 l -0.1772,-0.9958 c -0.0836,-0.0729 -0.0184,-0.006 -0.0627,-0.1006 -0.026,-0.0559 -2e-4,0.0192 -0.0232,-0.0465 -0.1233,-0.3535 -0.2605,-0.5505 -0.4615,-0.8436 -0.0368,-0.0536 -0.0227,-0.053 -0.0759,-0.11 -0.048,-0.0516 -0.0341,-0.0374 -0.0698,-0.0933 -0.0467,-0.0728 -0.0847,-0.0671 -0.1423,-0.1357 -0.003,-0.004 -0.007,-0.009 -0.0105,-0.0128 -0.005,-0.005 -0.0181,-0.019 -0.0226,-0.0238 l -0.2302,-0.1865 c -0.004,-0.003 -0.009,-0.008 -0.0125,-0.0105 l -0.2625,-0.1769 c -0.0459,-0.0213 -0.0244,-0.0145 -0.0433,-0.0261 -0.004,-0.002 -0.009,-0.007 -0.0134,-0.01 -0.004,-0.003 -0.01,-0.006 -0.0141,-0.009 -0.1491,-0.0921 -0.3039,-0.1344 -0.4595,-0.2089 l -0.0445,-0.0247 c -0.7353,-0.2829 -1.9063,0.025 -2.1036,-0.2077 -0.007,-0.009 -0.0315,-0.0411 -0.0406,-0.0528 -0.0552,-0.0725 -0.0229,-0.0521 -0.0921,-0.0932 -0.0629,-0.0374 -0.0468,-0.0142 -0.0967,-0.0652 l -1.1681,-1.1038 c -0.0802,-0.0638 -0.1083,-0.1307 -0.1619,-0.1863 l -0.1409,-0.1139 c -0.0201,-0.0213 -0.0255,-0.0255 -0.0456,-0.0471 l -0.1352,-0.1196 c -0.0201,-0.015 -0.0301,-0.0269 -0.0476,-0.0451 l -0.2276,-0.2364 c -0.005,-0.0051 -0.0179,-0.019 -0.0227,-0.0238 l -0.091,-0.0947 c -0.0354,-0.032 -0.0598,-0.0346 -0.0953,-0.0666 l -0.0861,-0.0995 -2.2113,0.0017 c 0.0326,-0.1006 0.0504,-0.2083 0.0504,-0.3206 0,-0.0924 -0.0122,-0.1817 -0.0346,-0.2667 l 1.2124,-0.002 v -2.0514 c -0.0125,-0.0709 -0.2976,-0.2671 -0.4258,-0.377 0.1588,-0.1165 0.2827,-0.281 0.3515,-0.4729 l 0.2044,0.1732 c 0.1035,0.0613 0.1585,0.1477 0.2605,0.2027 l 0.1817,0.1423 c 0.1004,0.0933 0.044,0.3977 0.044,0.544 0,0.6131 0,1.226 0,1.8391 l 0.6182,-3e-4 c 0.0351,0.042 0.0672,0.0644 0.1003,0.1066 l 0.3079,0.3183 c 0.0745,0.0766 0.1037,0.0771 0.2171,0.2004 l 0.3096,0.3167 c 0.0859,0.0575 0.0391,-0.0057 0.1244,0.0836 l 0.4241,0.4104 c 0.0586,0.0491 0.0558,0.0633 0.0997,0.1095 0.0443,0.0465 0.0794,0.0592 0.1307,0.1006 0.0992,0.0796 0.1083,0.1448 0.2084,0.2089 0.1661,0.1063 0.4924,0.5692 0.6987,0.5749 0.2308,0.007 1.5265,0.0289 1.6506,-0.017 10e-4,-0.1012 -0.1684,-0.1644 -0.2165,-0.2384 -0.0692,-0.1058 -0.1494,-0.1642 -0.237,-0.2503 l -0.2483,-0.2387 c -0.0502,-0.0482 -0.0267,-0.0173 -0.0655,-0.0502 -0.057,-0.0482 -0.1012,-0.1593 -0.1792,-0.216 -0.0802,-0.0584 -0.0564,-0.0323 -0.1216,-0.11 l -1.0956,-1.1548 c -0.123,-0.1281 -0.2225,-0.1973 -0.3092,-0.3172 -0.0165,-0.023 -0.0298,-0.0357 -0.0547,-0.0612 l -0.2634,-0.2469 c -0.0317,-0.0349 -0.081,-0.1075 -0.1128,-0.1426 l -0.172,-0.176 c -0.1732,-0.2078 -0.4286,-0.4524 -0.6163,-0.6364 -0.0539,-0.053 -0.167,-0.1324 -0.1885,-0.2058 l -0.005,-5.3558 c 0.0935,0.0306 0.1928,0.0474 0.2959,0.0474 0.1134,0 0.222,-0.0202 0.3232,-0.0567 l -0.003,5.1599 c 0.0249,0.0212 0.0348,0.0238 0.0652,0.0487 0.0649,0.0539 0.0173,0.0063 0.049,0.0672 0.0354,0.0675 -0.0193,0.0068 0.0485,0.0677 0.0136,0.0122 0.0567,0.0437 0.0646,0.0514 0.0346,0.0326 0.0652,0.0875 0.1032,0.1289 0.1471,0.1593 0.3362,0.2849 0.4643,0.4635 l 0.2789,0.3013 c 0.0352,0.0374 0.0213,0.0165 0.0655,0.0502 0.2194,0.1689 0.3954,0.4669 0.6262,0.6497 0.0771,0.0612 0.006,0.0264 0.083,0.0556 V 91.822 c 0.0941,0.0312 0.1945,0.0482 0.2985,0.0482 0.0944,0 0.1857,-0.0139 0.2721,-0.0397 v 6.5274 c 0.0213,0.0578 0.0828,0.1066 0.1256,0.1531 0.0281,0.0306 0.0374,0.0453 0.0658,0.0734 0.0295,0.0295 0.0624,0.0487 0.0901,0.072 0.0734,0.0621 0.004,0.0037 0.0613,0.0782 0.0224,0.0289 0.0504,0.0542 0.0802,0.0822 0.0587,0.0556 0.1003,0.104 0.1477,0.1537 0.1023,0.1077 0.195,0.2055 0.2916,0.3118 0.0412,0.045 0.1004,0.091 0.154,0.1474 0.0399,0.0416 0.1321,0.1046 0.1615,0.1397 0.057,0.0683 0.0669,0.1038 0.1336,0.1684 0.0725,0.0706 0.2539,0.2041 0.318,0.2843 0.0411,0.0513 0.0865,0.1335 0.1244,0.1783 l 0.3119,0.2908 c 0.0793,0.078 0.2157,0.2594 0.3075,0.2951 0.1366,0 0.0641,0.003 0.1483,0.0355 0.0507,0.0192 0.0708,0.0127 0.1417,0.0422 0.106,0.0442 0.1925,0.0473 0.292,0.0992 0.038,0.0199 0.0822,0.0405 0.125,0.0595 0.5573,0.2464 0.3058,0.277 0.6392,-0.0949 0.0788,-0.0882 0.1797,-0.1704 0.2526,-0.2843 -0.0346,-0.127 -0.1619,-0.1636 -0.2475,-0.2396 -0.0604,-0.0538 -0.0635,-0.0686 -0.1128,-0.1193 -0.0539,-0.0558 -0.091,-0.0485 -0.1497,-0.1046 -0.1423,-0.1361 -0.0734,-0.0969 -0.2537,-0.2327 -0.1712,-0.129 -0.3985,-0.3841 -0.5108,-0.4629 -0.0822,-0.0579 -0.1908,-0.1185 -0.2786,-0.207 l -0.1732,-0.1746 c -0.0358,-0.0286 -0.0284,-0.0034 -0.0845,-0.0541 -0.0576,-0.0522 -0.0559,-0.0765 -0.1236,-0.1321 -0.4224,-0.347 -0.4176,-0.1891 -0.4176,-0.8181 v -8.9833 c 0,-0.6298 -0.0189,-1.2931 -5e-4,-1.9216 0.0961,0.0326 0.1987,0.0502 0.3053,0.0502 0.1091,0 0.2143,-0.0184 0.3124,-0.0527 0.0243,0.5873 -9e-4,1.241 -9e-4,1.83 l -6e-4,9.1486 c -8e-4,0.2352 0.0375,0.1893 0.1795,0.3098 l 0.3705,0.3246 c 0.0292,0.0303 0.0975,0.1099 0.1255,0.1298 0.0774,0.055 0.1939,0.1324 0.2611,0.2015 l 0.8833,0.7849 c 0.0952,0.0987 0.0785,0.0346 0.142,0.0891 0.0802,0.0683 0.1599,0.2228 0.2616,0.1944 0.0309,-0.1052 0.027,-1.595 0.008,-1.7694 l -0.239,-0.1771 c -0.0567,-0.0525 0.007,-0.027 -0.0819,-0.0808 l -0.5,-0.4028 c -0.0811,-0.0791 -0.0933,-0.0355 -0.178,-0.1228 -0.0499,-0.0516 -0.0834,-0.1125 -0.1511,-0.1502 -0.0757,-0.0422 -0.1197,-0.0663 -0.1608,-0.1403 l -0.007,-8.305 c 0.098,0.0343 0.2032,0.053 0.3126,0.053 0.108,0 0.2118,-0.0181 0.3087,-0.0516 l -0.005,5.2929 c 0.04,-0.0431 0.0584,-0.0598 0.1179,-0.0907 0.1429,-0.074 0.2387,-0.1834 0.3839,-0.2636 0.1295,-0.0715 0.1621,-0.1307 0.2469,-0.1928 l 0.2656,-0.1735 c 0.0819,-0.0618 0.1457,-0.0578 0.2664,-0.1726 0.0817,-0.0774 0.1738,-0.1063 0.2591,-0.1806 l 0.2667,-0.1723 c 0.0859,-0.0437 0.0148,-0.0403 0.1069,-0.1018 0.0607,-0.0405 0.0936,-0.0487 0.1176,-0.1139 v -5.8553 c 0.0961,0.0323 0.1985,0.0502 0.3051,0.0502 0.1108,0 0.2177,-0.0193 0.3169,-0.0544 l -0.006,6.1188 c -0.0204,0.0771 -0.0556,0.114 -0.1196,0.1593 l -0.851,0.5826 c -0.0697,0.0414 -0.0893,0.0788 -0.1562,0.1216 -0.0623,0.0399 -0.136,0.0604 -0.1913,0.1088 -0.231,0.2024 -0.2208,0.1418 -0.4042,0.2894 l -0.252,0.188 c -0.0913,0.0779 -0.1636,0.1046 -0.258,0.1576 l -0.2423,0.1978 c -0.0417,0.0236 -0.1594,0.0607 -0.1724,0.1282 v 2.0452 c 0.1313,0.0963 0.6112,0.4566 0.7013,0.57 0.01,-0.2509 -0.0142,-0.1655 0.1432,-0.328 0.0918,-0.0943 0.1774,-0.1326 0.276,-0.2332 l 0.4196,-0.3683 c 0.0921,-0.0754 0.1581,-0.2128 0.3044,-0.2279 0.038,-0.108 0.0876,-0.1573 0.1789,-0.216 0.0958,-0.0618 0.1216,-0.1326 0.2214,-0.1956 0.108,-0.0677 0.1295,-0.0805 0.2049,-0.189 l 0.4445,-0.3657 c 0.0538,-0.0454 0.0612,-0.0522 0.1012,-0.1077 0.0754,-0.1043 0.0232,-0.0133 0.1196,-0.0887 0.055,-0.0426 0.1361,-0.1554 0.1953,-0.199 l 0.43,-0.381 c 0.3008,-0.3314 0.2529,0.1766 0.2529,-0.9885 0,-1.2838 0.0229,-7.6923 0.002,-8.2196 0.0913,0.0292 0.1885,0.0451 0.2892,0.0451 0.1159,0 0.2273,-0.021 0.3305,-0.0592 l -0.006,8.4461 c 0.1636,-0.0638 0.4011,-0.4173 0.5893,-0.4519 0.0227,-0.1273 0.3782,-0.3948 0.5018,-0.4719 0.0638,-0.04 0.0541,-0.0485 0.0881,-0.1211 0.0511,-0.1088 0.1661,-0.1182 0.2186,-0.1987 0.0332,-0.0652 0.0377,-3.6544 0.004,-4.2766 0.0952,0.032 0.197,0.0493 0.3024,0.0493 0.1069,0 0.2098,-0.0176 0.3059,-0.0505 -0.0658,0.5695 0.072,4.0017 -0.0287,4.5743 -0.1235,0.0465 -0.0961,0.0394 -0.1729,0.1278 -0.0212,0.0247 -0.0456,0.0468 -0.0703,0.0689 -0.2497,0.2245 -0.5034,0.4329 -0.7336,0.6801 -0.0626,0.0671 -0.2483,0.1981 -0.3433,0.2823 -0.0201,0.0179 -0.0453,0.0448 -0.0694,0.0694 -0.0289,0.0295 -0.0513,0.0414 -0.0839,0.0783 -0.1069,0.1205 -0.131,0.1017 -0.2506,0.2129 l -0.5822,0.5298 c -0.0604,0.0515 -0.1111,0.0683 -0.1707,0.1306 -0.0714,0.0746 -0.0751,0.1058 -0.1632,0.161 -0.0471,0.0295 -0.0363,0.023 -0.0783,0.061 l -0.4036,0.3846 c -0.1352,0.1095 -0.3116,0.2186 -0.4329,0.3544 -0.2038,0.2284 -0.0229,0.0059 -0.2404,0.2231 -0.1068,0.1071 -0.2347,0.1737 -0.337,0.2882 l -0.1653,0.1594 c -0.0969,0.1017 -0.2341,0.1746 -0.3427,0.2826 l -0.4887,0.4382 c -0.0482,0.0422 -0.1519,0.1111 -0.1613,0.1633 v 4.079 c 0.1333,-0.0328 0.2058,-0.1732 0.3198,-0.2352 0.1199,-0.0655 0.1942,-0.1919 0.3115,-0.2441 0.0434,-0.0196 0.0454,-0.0102 0.0703,-0.0218 l 0.1675,-0.1097 -0.002,-2.3307 c 0.0647,-0.0598 0.1591,-0.0989 0.2044,-0.1479 0.0763,-0.0831 0.2911,-0.2835 0.3957,-0.3459 0.1713,-0.1015 0.222,-0.2092 0.3555,-0.2928 0.032,-0.0198 0.0176,-0.0042 0.0547,-0.0377 0.095,-0.0853 0.2154,-0.1516 0.3013,-0.2545 0.1191,-0.1421 0.3572,-0.281 0.497,-0.4062 l 0.0932,-0.0919 c 0.0794,-0.089 0.0374,-0.0258 0.1106,-0.0748 l 0.1885,-0.1826 c 0.0844,-0.0725 0.0348,0.0026 0.1216,-0.0629 0.0649,-0.049 0.1202,-0.1443 0.1777,-0.1933 l 1.1092,-0.9054 c 0.0315,-0.0275 0.0675,-0.059 0.0981,-0.0873 0.0201,-0.0184 0.0139,-0.0182 0.0456,-0.0468 0.0468,-0.0428 0.0241,-0.0179 0.0533,-0.0397 l 0.2055,-0.1647 c 0.0425,-0.0377 0.0618,-0.0547 0.0953,-0.0901 0.1397,-0.1474 0.3778,-0.271 0.5128,-0.4136 0.0532,-0.0567 0.0204,-0.0408 0.0958,-0.0896 0.0717,-0.0462 0.0439,-0.0416 0.0989,-0.0861 0.1293,-0.1046 0.2886,-0.2175 0.4045,-0.3368 l 0.417,-0.3234 c 0.074,-0.0542 0.1153,-0.1375 0.1865,-0.1846 0.0981,-0.0649 0.1253,-0.0694 0.2132,-0.157 0.1763,-0.1755 0.0654,-0.036 0.2956,-0.2605 0.0456,-0.0445 0.0593,-0.0431 0.1055,-0.0797 l -0.002,-7.6175 c 0.0986,0.0343 0.2041,0.053 0.3138,0.053 0.1074,0 0.2109,-0.0178 0.3075,-0.051 l -0.005,7.8673 -0.9019,0.7475 c -0.0375,0.0331 -0.0196,0.0215 -0.0457,0.047 l -0.1848,0.1395 c -0.0947,0.047 -0.1454,0.1797 -0.2523,0.2341 -0.1003,0.051 -0.0745,0.0595 -0.1607,0.1409 -0.0726,0.0683 -0.1142,0.055 -0.1908,0.1327 l -0.6803,0.57 c -0.093,0.0904 -0.3078,0.2353 -0.3674,0.328 h 1.9338 c 0.0485,-0.0156 0.2665,-0.2792 0.3521,-0.3495 0.0955,-0.0783 0.0797,-0.0261 0.0913,-0.1415 0.0921,-0.0176 0.1145,-0.0561 0.1632,-0.1377 0.0667,-0.1114 0.4403,-0.4258 0.5738,-0.5627 l 0.5488,-0.5885 c 0.0813,-0.1052 0.1658,-0.1429 0.2508,-0.2356 0.0808,-0.0881 0.1693,-0.1445 0.2438,-0.2435 0.0663,-0.0884 0.1091,-0.1114 0.1554,-0.1695 l 0.3194,-0.3302 c 0.0644,-0.0629 0.0944,-0.1094 0.1537,-0.1712 0.053,-0.0547 0.1133,-0.0851 0.1462,-0.1273 0.0927,0.1786 0.2361,0.3249 0.4102,0.4184 -0.0969,0.1097 -0.2551,0.2597 -0.3226,0.328 -0.0915,0.093 -0.2355,0.2052 -0.3172,0.3087 -0.1497,0.1893 -0.364,0.3404 -0.5082,0.5357 -0.108,0.1463 -0.2781,0.2908 -0.4113,0.4238 -0.0533,0.053 -0.0675,0.0428 -0.1083,0.0768 -0.0445,0.0371 -0.0414,0.0774 -0.0808,0.129 -0.072,0.0941 -0.1531,0.1125 -0.2214,0.1956 -0.0984,0.1196 -0.2171,0.193 -0.2993,0.3274 l -0.7317,0.7291 c -0.079,0.0632 -0.1292,0.1624 -0.2194,0.1978 h -2.8298 c -0.0683,0.0094 -0.2276,0.1468 -0.2798,0.2058 l -0.2843,0.2486 c -0.1023,0.1052 -0.2577,0.1942 -0.3801,0.2908 -0.0618,0.0488 -0.1128,0.1208 -0.1777,0.1701 -0.0822,0.0624 -0.1199,0.074 -0.1956,0.1517 -0.0715,0.0734 -0.1063,0.1003 -0.1965,0.1508 -0.0745,0.0416 -0.1085,0.1077 -0.1618,0.1627 -0.0712,0.0737 -0.1012,0.0408 -0.2007,0.1463 -0.1236,0.1303 -0.1653,0.1145 -0.3699,0.3251 -0.0562,0.0575 -0.0414,0.0286 -0.0993,0.0626 -0.0309,0.0182 -0.0538,0.0451 -0.0841,0.078 -0.0882,0.0938 -0.2053,0.1253 -0.2835,0.2256 -0.0476,0.061 -0.002,0.0471 -0.0885,0.0975 -0.0728,0.0426 -0.1561,0.0754 -0.1873,0.1599 v 1.745 c 0.053,-0.0363 0.2764,-0.1088 0.3518,-0.1318 0.0442,-0.0133 0.0507,-0.006 0.0932,-0.0213 0.0808,-0.0297 0.186,-0.0841 0.2872,-0.0807 0.0632,-0.0791 0.2423,-0.1902 0.3393,-0.2625 l 0.0258,-0.0207 c 0.0246,-0.017 0.0334,-0.0193 0.0589,-0.0332 0.0511,-0.0278 0.1619,-0.1171 0.2115,-0.1587 l 0.3784,-0.2693 c 0.0272,-0.0207 0.0355,-0.0204 0.059,-0.0332 0.0609,-0.0332 0.0507,-0.0377 0.0975,-0.0879 0.0487,-0.0524 0.1267,-0.0833 0.1834,-0.1167 l 0.0933,-0.0689 c 0.011,-0.0102 0.0447,-0.0437 0.0473,-0.0454 0.0439,-0.032 0.1882,-0.1083 0.2287,-0.1409 l 0.2098,-0.1607 c 0.0924,-0.0561 0.1369,-0.0811 0.2239,-0.146 0.0414,-0.0309 0.009,-3e-4 0.0542,-0.0382 l 0.2591,-0.2039 c 0.0442,-0.0283 0.0584,-0.0629 0.0964,-0.089 0.0629,-0.043 0.1451,-0.0822 0.2242,-0.1454 0.0666,-0.0536 0.0221,-0.0306 0.1077,-0.0774 0.0575,-0.0314 0.008,0.0057 0.0553,-0.0371 l 0.2755,-0.1871 c 0.0751,-0.032 0.1182,-0.1199 0.1964,-0.174 0.1007,-0.0372 1.4434,-0.006 1.6611,-0.0051 0.3938,0.0014 0.3192,-0.1333 0.5562,-0.2974 l 0.3523,-0.273 c 0.053,-0.0394 0.0786,-0.0728 0.118,-0.1136 0.0734,-0.0757 0.1491,-0.1024 0.2375,-0.1792 l 0.6965,-0.5771 c 0.0986,-0.053 0.1088,-0.1298 0.2126,-0.2047 0.066,-0.0476 0.0708,-0.0193 0.1326,-0.0754 l 0.341,-0.3075 c 0.0817,-0.0848 0.2022,-0.1449 0.2966,-0.2359 l 0.1819,-0.1423 c 0.1324,-0.1431 0.8759,-0.7486 1.0352,-0.8637 l 0.4729,-0.3838 c 0.0331,-0.036 0.0714,-0.0771 0.1173,-0.1145 0.0593,-0.0482 0.0695,-0.053 0.1196,-0.0885 0.0511,-0.0363 0.0562,-0.0742 0.1004,-0.1088 l 0.5845,-0.4805 c 0.0374,-0.021 0.0292,0.0011 0.0799,-0.0351 l 0.3872,-0.3544 c 0.0865,-0.0762 0.0995,-0.0479 0.2968,-0.2358 l 0.3005,-0.2554 -0.002,-3.8594 c 0.0941,0.0312 0.1942,0.0479 0.2985,0.0479 0.0941,0 0.1851,-0.0136 0.2713,-0.0394 -0.0692,0.6636 0.0612,4.0096 -0.005,4.1497 -0.066,0.0669 -0.0779,0.0912 -0.1618,0.1394 -0.108,0.0621 -0.0907,0.0734 -0.1687,0.1556 -0.072,0.0757 -0.1151,0.0737 -0.1879,0.1361 l -0.6029,0.5088 c -0.0377,0.0332 -0.0519,0.0556 -0.0825,0.08 -0.0459,0.0365 -0.0573,0.017 -0.106,0.0555 -0.0908,0.0715 -0.0692,0.1177 -0.2433,0.2203 -0.0272,0.0158 -0.1459,0.119 -0.1757,0.1482 -0.0462,0.0451 -0.0332,0.0431 -0.089,0.0732 -0.0984,0.053 -0.0286,-6e-4 -0.0896,0.0725 -0.0354,0.0423 -0.0445,0.0454 -0.083,0.0791 -0.1293,0.1131 -0.3433,0.2347 -0.4476,0.3628 -0.0533,0.0652 -0.0862,0.0868 -0.1763,0.148 -0.065,0.0442 -0.1361,0.0814 -0.1645,0.1605 l 1.9341,-3e-4 c 0.0573,-0.0644 0.1868,-0.1783 0.2208,-0.2257 l 0.2206,-0.2199 c 0.1032,-0.0973 0.2117,-0.2588 0.3124,-0.3374 0.0654,-0.0513 0.0703,-0.03 0.1303,-0.1012 0.1168,-0.1391 0.2118,-0.2026 0.3102,-0.3398 0.0572,-0.08 0.3291,-0.2829 0.4473,-0.4573 0.0402,-0.0592 0.0518,-0.0663 0.0881,-0.0873 0.0987,0.1849 0.2517,0.3342 0.4368,0.4249 -0.0416,0.0341 -0.0995,0.0893 -0.187,0.1764 l -0.2447,0.2426 c -0.0558,0.0547 -0.0629,0.0553 -0.1151,0.1168 l -0.3702,0.3722 c -0.0382,0.0397 -0.1029,0.0811 -0.1213,0.11 -0.1083,0.1712 -0.1635,0.1763 -0.29,0.3138 -0.0329,0.036 -0.0334,0.0473 -0.0626,0.0765 -0.1004,0.0998 -0.1463,0.1097 -0.2472,0.2401 l -0.2546,0.2554 -2.8921,0.0059 c -0.1154,0.0159 -0.6324,0.5211 -0.7946,0.641 l -0.2432,0.1967 c -0.1344,0.1318 -0.4371,0.3379 -0.5709,0.4711 l -0.8688,0.7294 c -0.0289,0.0198 -0.0587,0.0229 -0.0992,0.0544 0.1703,0.07 2.893,0.0295 3.3069,0.0295 1.1103,0 2.2218,-0.0034 3.3315,0 0.0675,-0.0207 0.4748,-0.4502 0.6231,-0.5587 0.1131,-0.0828 0.1074,-0.1432 0.1868,-0.2078 0.1188,-0.0967 0.3197,-0.2515 0.4218,-0.366 0.0703,-0.0791 0.1,-0.1227 0.1916,-0.2027 0.0677,-0.0589 0.1434,-0.1295 0.214,-0.2032 0.1417,-0.1488 0.3748,-0.3427 0.4927,-0.4813 0.0623,-0.0732 0.0499,-0.0355 0.119,-0.0893 0.078,-0.061 0.1386,-0.1497 0.2038,-0.2137 0.1319,-0.1296 0.2937,-0.2503 0.4051,-0.383 0.089,-0.1057 0.1142,-0.1094 0.2021,-0.1922 0.0737,-0.07 0.1043,-0.1315 0.1905,-0.1823 0.0868,0.1792 0.2231,0.328 0.3909,0.4269 -0.1922,0.2367 -0.455,0.4065 -0.6505,0.6271 -0.0769,0.087 -0.252,0.271 -0.3365,0.3361 -0.1894,0.146 -0.3419,0.3351 -0.5202,0.4998 -0.1264,0.1165 -0.25,0.2052 -0.3645,0.3308 -0.0646,0.0712 -0.1052,0.1114 -0.1763,0.1718 -0.2206,0.1865 -0.4612,0.4941 -0.7013,0.6551 0.0998,0.0751 1.444,0.0326 1.6636,0.0326 1.0888,0 1.493,0.0085 1.6492,-0.0139 -0.0314,0.0992 -0.0487,0.2052 -0.0487,0.3155 0,0.108 0.0167,0.212 0.047,0.3095 l -13.4679,0.002 c -0.0403,0.0269 -0.0859,0.0567 -0.1228,0.0853 l -0.1284,0.1029 c -0.0448,0.044 -0.2134,0.1585 -0.2574,0.182 l -0.5283,0.3501 c -0.1696,0.1165 -0.3138,0.2885 -0.4916,0.388 -0.0405,0.0227 -0.0983,0.0525 -0.1329,0.0752 -0.036,0.0235 -0.0199,0.0164 -0.0615,0.0544 l -0.3399,0.2378 c -0.0391,0.0244 -0.0626,0.0689 -0.1089,0.0998 -0.0609,0.0411 -0.0765,0.0334 -0.144,0.087 -0.0144,0.0114 -0.0532,0.0391 -0.0535,0.0391 l -0.1942,0.1528 c -0.0995,0.0596 -0.1718,0.1403 -0.2429,0.197 -0.0494,0.0394 -0.0839,0.0253 -0.1437,0.0873 -0.0463,0.0479 -0.0567,0.0924 -0.1134,0.1188 -0.2483,0.1145 -0.4519,0.3872 -0.6106,0.4774 l -0.3765,0.318 c -0.1187,0.1502 -0.1148,0.1069 -0.2228,0.218 -0.1536,0.1579 -0.2908,0.2934 -0.4138,0.4683 -0.1194,0.1692 -0.269,0.3427 -0.3753,0.5318 -0.0737,0.1306 -0.1043,0.125 -0.1596,0.2831 -0.0269,0.0769 -0.127,0.2257 -0.1565,0.2863 -0.003,0.006 -0.0108,0.0261 -0.0139,0.0329 -0.0964,0.2018 -0.3217,0.7898 -0.3362,0.9729 -0.0212,0.2718 -0.0963,0.5768 -0.0269,0.8549 0.0403,0.1613 0.0258,0.2024 0.0961,0.3489 0.034,0.0709 0.0958,0.2033 0.1596,0.2829 0.0462,0.0576 0.0496,0.0652 0.0828,0.1265 l 0.0805,0.153 c 0.0535,0.0961 0.1162,0.2333 0.1068,0.353 -0.1417,0.008 -0.0377,-0.008 -0.1505,-0.0879 -0.002,0.0952 0.0794,0.2497 0.0865,0.3506 0.01,0.1437 0.0632,0.2685 -0.0287,0.375 -0.0895,-0.0479 -0.0362,0.008 -0.0799,-0.0739 -0.0326,-0.061 -0.0272,-0.0669 -0.0286,-0.1355 -0.01,-0.0533 -0.2943,-0.4116 -0.3359,-0.5018 l -0.3943,-0.7242 c -3e-4,0.2157 0.1335,0.8923 0.1581,1.133 0.009,0.0907 -0.0147,0.1057 0.0199,0.1916 0.0408,0.1012 0.0272,0.0916 0.0272,0.2078 0.0176,0.1667 0.0281,-0.025 0.0456,0.1414 0,0.0565 -0.005,0.1069 0.009,0.1562 0.0666,0.2367 0.0133,0.1639 0.0598,0.292 l 0.0675,0.4723 c 0.004,0.1394 0.0505,0.1493 0.0445,0.331 l 0.0465,0.1888 c 0.0748,0.0652 0.0434,0.0287 0.0493,0.1605 0.0882,0.0419 0.148,0.1485 0.1996,0.2418 0.0368,0.066 -0.0108,0.003 0.0484,0.0677 l 0.0967,0.1361 c 0.1038,0.1749 0.2276,0.2985 0.379,0.4337 l 0.6211,0.5136 c 0.1587,0.0989 0.2681,0.2449 0.4646,0.345 0.0728,0.0371 0.1099,0.1006 0.1777,0.1465 l 0.4204,0.2965 c 0.005,0.003 0.01,0.006 0.0144,0.008 0.0961,0.0525 0.1562,0.1151 0.2149,0.2027 l 0.2242,0.2398 c 0.0672,0.0786 0.1386,0.1764 0.2098,0.2313 0.1273,0.0987 0.163,0.1863 0.2282,0.2359 0.2523,0.1919 0.4141,0.5139 0.64,0.7293 0.07,0.0669 0.0848,0.1409 0.1497,0.199 l 0.0536,0.0627 c 0.1754,0.2491 0.2446,0.4833 0.3716,0.6534 l 0.0839,0.1491 c 0.0675,0.104 0.1845,0.2401 0.2319,0.35 0.032,0.0749 0.004,0.0888 0.0677,0.1656 0.0562,0.0672 0.0511,0.0615 0.0899,0.1431 l 0.3339,0.5746 c 0.0652,0.0924 0.0176,0.0712 0.0695,0.1639 l 0.5485,0.8243 c 0.0314,0.0788 0.1006,0.1431 0.1423,0.2069 l 0.091,0.1417 c 0.013,0.017 0.0371,0.0284 0.0595,0.0562 l 0.3418,0.5901 c 0.1259,0.1792 0.2072,0.3878 0.3612,0.5463 0.0669,0.0686 0.0405,0.0567 0.0904,0.1423 0.0349,0.0598 0.0771,0.0754 0.1151,0.1168 l 0.4337,0.4716 c 0.1179,0.1528 0.2806,0.1908 0.4643,0.3456 l 0.1936,0.1533 c 0.0828,0.0718 0.3626,0.1231 0.4878,0.1798 l 0.0766,0.0385 c 0.053,0.0218 0.0445,0.005 0.0949,0.0199 0.2322,0.0666 0.3816,0.0473 0.6035,0.0839 0.1327,0.0218 0.3209,-0.0145 0.4479,0.009 l 0.519,0.1477 c 0.2243,0.0698 0.4476,0.1471 0.652,0.2696 l 0.4983,0.2866 c 0.5491,0.2092 0.766,0.176 0.8363,0.197 0.1048,0.0315 0.045,0.0394 0.1907,0.0388 0.0802,-3e-4 0.3731,0.01 0.4298,-0.005 0.0654,-0.0176 0.009,-0.0184 0.0776,-0.0377 0.0403,-0.011 0.0556,-0.002 0.0998,-0.0147 0.2205,-0.0627 0.3952,-0.152 0.6004,-0.2285 l 0.1094,-0.0519 c 0.005,-0.002 0.0108,-0.005 0.0153,-0.008 0.004,-0.003 0.01,-0.007 0.0142,-0.009 l 0.688,-0.3268 c 0.1831,-0.0805 0.1292,-0.009 0.4042,-0.1718 0.0261,-0.0153 0.0493,-0.0272 0.0771,-0.0383 l 1.1798,-0.4311 c 0.009,-0.002 0.2579,-0.0876 0.3736,-0.053 0.0374,0.1057 -0.0267,0.0788 -0.0491,0.1462 0.0621,0.003 0.1375,-0.002 0.1973,0.007 0.1868,0.0303 0.3504,0.0368 0.5241,0.142 l 0.5074,0.277 c 0.0633,0.0337 0.01,-0.0202 0.0684,0.0518 l 0.0399,-0.0558 c 0.1707,0.008 0.1052,-0.015 0.2149,-0.0388 0.0564,-0.0122 0.2035,-0.003 0.2721,-0.006 0.1097,0.1358 0.277,0.1355 0.2699,0.3577 0.0859,0.0735 0.1445,0.1531 0.2982,0.1636 0.1511,0.01 0.068,-0.006 0.1882,0.0411 0.29,0.1145 0.0343,0.3288 0.3569,0.4805 l 0.6664,0.3013 c 0.1415,0.0456 -0.0833,-0.0363 0.0369,0.009 0.3985,0.1517 0.0952,0.3952 0.2128,0.5344 l 0.1338,0.074 c 0.1661,0.0876 0.2707,0.0527 0.4816,0.2097 l 0.4343,0.3291 c 0.2415,0.2719 0.6392,0.4791 0.3861,0.7773 l -0.0326,0.0371 c -0.0873,0.095 -0.2376,0.1741 -0.3662,0.0715 -0.0216,-0.0173 -0.1129,-0.11 -0.1389,-0.1395 -0.0893,-0.1015 -0.1815,-0.1412 -0.2909,-0.1947 -0.1253,-0.0613 -0.233,0.008 -0.3396,-0.0256 -0.1091,-0.0345 -0.0867,-0.0941 -0.2472,-0.1031 -0.0572,0.0768 -0.0467,0.0969 -0.1397,0.1386 -0.0264,0.0116 -0.0227,0.008 -0.0488,0.0204 -0.045,0.0215 0.0156,0.002 -0.045,0.0241 -0.129,0.0479 -0.1602,0.0295 -0.1168,0.2537 0.0207,0.1071 0.0343,0.0975 0.0555,0.1783 -0.0229,0.0626 -0.1034,0.1797 -0.1734,0.2216 -0.1225,0.0735 -0.2243,0.0641 -0.2829,0.1361 -0.0961,-0.0765 -0.1282,-0.076 -0.1874,-0.2112 -0.0641,-0.1465 -0.0431,-0.3092 -0.1735,-0.4101 -0.1,-0.0774 -0.32,-0.1551 -0.4337,-0.1568 l 0.1443,0.3475 c -0.1222,0.095 -0.1111,0.0454 -0.1979,0.0967 0.0392,0.0343 0.0587,0.0584 0.0973,0.0921 -0.007,0.1415 -0.1151,0.3073 -0.2574,0.3291 -0.1126,0.0176 -0.4037,-0.0788 -0.5054,-0.0521 -0.007,0.0691 0.049,0.0995 0.0552,0.2222 l -0.2055,0.157 c 0.1211,0.0136 0.2472,-0.0141 0.3405,0.0295 0.083,0.0391 0.3693,0.0462 0.5825,0.1525 0.0564,0.0284 0.0669,0.0323 0.1281,0.0564 0.0488,0.019 0.0156,-5e-4 0.0615,0.0309 0.0323,0.0219 0.0408,0.0355 0.0494,0.0431 v 0.0944 c -0.004,0.004 -0.01,0.0156 -0.012,0.0113 -0.002,-0.004 -0.009,0.009 -0.0121,0.0108 -0.0139,0.009 -0.029,0.019 -0.0434,0.0258 -0.104,0.0516 -0.212,0.0488 -0.2962,0.1185 -0.0624,0.0516 -0.0888,0.085 -0.1891,0.0527 -0.0859,-0.0278 -0.0986,-0.0887 -0.2092,-0.0402 -0.0536,0.0235 0.0343,0.0278 -0.1035,0.0351 l -0.2744,-0.003 c -0.1116,-0.025 0.021,-0.034 -0.0946,-0.0462 -0.0675,-0.007 -0.1248,0.0606 -0.1866,0.0881 -0.0785,0.0349 -0.1525,0.0187 -0.2296,0.0454 -0.047,0.1454 0.0788,0.1355 0.0788,0.2673 -2e-4,0.0955 -0.015,0.0527 -0.0238,0.072 l -0.1216,0.1579 c -0.0728,0.0737 -0.4405,0.2543 -0.4583,0.2809 -0.1015,0.15 0.2276,0.597 -0.171,0.6721 -0.0124,0.1641 -0.2111,0.5182 -0.2092,0.5621 0.0321,0.0865 0.0119,0.0111 0.0392,0.0774 l 0.1167,0.237 c -0.1131,0.2608 -0.1919,0.3812 -0.3648,0.6012 -0.0853,0.1088 -0.1616,0.0643 -0.2078,0.1431 -0.0479,-0.0649 0.003,-0.0192 -0.0623,-0.045 -0.1783,3e-4 -0.0417,-0.0261 -0.2041,-0.0485 -0.0817,-0.0113 -0.1395,-0.0261 -0.2276,-0.0162 0.1808,0.3892 0.0246,0.5074 -0.3195,0.5854 -0.1086,0.0247 0.002,0.013 -0.0774,0.0383 -0.0425,0.0133 -0.0578,5e-4 -0.1003,0.0139 l -0.1523,0.055 c -0.1329,0.0243 -0.2412,-0.007 -0.3778,0.009 -0.1613,0.0184 -0.2018,0.0964 -0.3345,-0.0575 -0.1125,-0.131 -0.0663,-0.1942 -0.2648,-0.2452 -0.0459,-0.0117 -0.2111,-0.004 -0.2695,-0.004 -0.0204,-0.0527 0.015,-0.0343 -0.0454,-0.0482 -0.0269,-0.006 -0.0615,0.003 -0.0876,0.005 -0.005,0.0899 0.0757,0.2546 0.1069,0.3294 0.0507,0.1213 0.0692,0.2438 0.003,0.3501 -0.1559,0.0743 -0.1712,-0.0383 -0.2679,-0.1004 l -0.1726,-0.0575 c -0.1639,-0.0748 -0.3844,-0.1389 -0.5616,-0.1188 0.0151,0.0335 0.007,0.0213 0.0156,0.0462 0.0281,0.0777 0.0695,0.1109 0.0358,0.2152 -0.1976,0.0683 -0.3198,-0.003 -0.4604,-0.0278 -0.0156,0.2081 0.0403,0.2752 -0.1188,0.4195 -0.3608,0.3277 -0.2273,0.1197 -0.2729,0.3782 -0.0298,0.0816 -0.133,0.1669 -0.2016,0.2041 0.057,0.1403 0.0777,0.3801 0.059,0.5442 -0.2841,0.2302 0.0584,0.1942 -0.5173,0.1959 0.0589,0.0811 0.0277,0.0128 0.102,0.0802 0.0726,0.0658 0.1344,0.2446 -0.0128,0.2724 -0.1184,0 -0.5119,-0.0255 -0.5782,-0.008 -0.006,0.0601 0.0391,0.0935 0.0788,0.1236 0.1034,0.0785 0.0337,0.0266 0.1077,0.1358 -0.0797,0.0898 -0.1344,0.1145 -0.2523,0.0606 -0.068,-0.0311 -0.0658,-0.0476 -0.1505,-0.0484 0.005,0.136 0.009,0.0105 0.0354,0.0963 0.0148,0.0479 0.006,0.1066 0.002,0.1548 -0.2942,0.023 -0.5944,0.1658 -0.7223,0.1417 -0.1258,-0.0238 -0.0904,-0.0422 -0.2557,-0.0425 -0.1088,-3e-4 -0.1431,-0.01 -0.2168,-0.0825 -0.0553,-0.0547 -0.0822,-0.1233 -0.1386,-0.1632 -0.1004,-0.0709 -0.4227,-0.0525 -0.5318,-0.008 0.0754,0.0641 0.1984,0.0922 0.2432,0.1885 0.0295,0.2603 -0.0181,0.205 -0.0626,0.3949 -0.1613,0 -0.3257,-0.0422 -0.4567,-0.1176 l -0.1573,-0.0734 c -0.1806,-0.0672 -0.1486,-0.0445 -0.3634,-0.0443 0.0164,0.1078 0.0502,0.1253 0.1142,0.2118 l -0.0802,0.0394 c -0.005,0.002 -0.009,0.007 -0.0139,0.009 -0.0652,0.032 -0.0496,0.0232 -0.1375,0.0229 -0.0975,-6e-4 -0.1976,-0.005 -0.2934,0.003 0.005,0.1276 -0.003,-0.002 0.0437,0.116 -0.0865,0.1182 -0.1372,0.248 -0.2738,0.3302 -0.0471,-0.0133 -0.076,-0.0272 -0.1211,-0.0442 -0.0708,-0.0267 -0.0459,-0.0193 -0.1057,-0.0556 -0.1097,-0.066 -0.1307,-0.0501 -0.2529,-0.0689 -0.1284,-0.0195 -0.0978,-0.0467 -0.2752,-0.0456 -0.1125,6e-4 -0.2279,-0.005 -0.3385,0.004 -0.013,0.1312 -0.0496,0.108 -0.0496,0.2554 -0.0238,0.0655 -0.0164,0.0351 -0.0663,0.0964 -0.1236,-0.007 -0.1293,-0.0618 -0.2721,-0.0769 -0.0173,-0.0447 -0.0315,-0.066 -0.0525,-0.1105 -0.0975,-0.2067 -0.3376,-0.0199 -0.54,-0.1259 -0.1153,-0.0603 -0.2775,-0.1312 -0.4172,-0.1389 -0.0454,0.0553 -0.051,0.0712 -0.114,0.0947 -0.0822,0.0303 -8e-4,-0.0102 -0.081,0.0343 -0.1795,0.0995 -0.0964,0.1681 -0.224,0.2869 -0.072,0.0669 -0.1896,0.1091 -0.3019,0.0737 -0.0479,-0.015 -0.3594,-0.3561 -0.4031,-0.4128 -0.085,0.0443 -0.0822,0.1012 -0.1749,0.1375 -0.1757,0.0332 -0.0892,-0.0382 -0.2718,0.0729 l -0.2914,-0.0802 c -0.4039,-0.1392 -0.0814,0.0705 -0.3994,0.121 -0.123,0.0196 -0.2061,-0.0306 -0.3589,-0.0133 0.161,0.3109 0.5162,0.307 0.1236,0.7132 -0.01,0.01 -0.0334,0.0343 -0.0343,0.0351 h -0.2511 c 0,0 -0.0258,-0.0266 -0.0343,-0.0351 -0.0219,-0.0224 -0.0219,-0.0199 -0.0462,-0.0465 -0.1327,-0.1446 -0.2404,-0.4085 -0.2611,-0.6027 -0.0139,-0.1323 -0.0286,-0.1349 -0.1295,-0.2075 l -0.0686,0.0964 c -0.0774,-0.008 -0.0868,-0.0227 -0.1293,-0.0459 l -0.2401,-0.1052 c -0.0575,-0.032 -0.0692,-0.0479 -0.1196,-0.0691 -0.131,0.1017 -0.161,0.227 -0.4774,0.1669 -0.0788,-0.0312 -0.0124,-0.0156 -0.1097,-0.0518 -0.2472,-0.0922 -0.161,-0.4204 -0.8711,-0.4201 -0.2219,0 -0.4731,-0.0213 -0.6653,0.0677 -0.2361,0.1094 -0.2962,0.1542 -0.4929,-0.0499 -0.003,-0.0255 -0.0224,-0.1287 -0.0227,-0.1386 -0.002,-0.0632 0.0182,-0.0371 0.0128,-0.1341 -0.2001,-0.0161 -0.2288,0.009 -0.368,0.0831 l -0.1516,0.0791 c -0.1749,0.0867 -0.349,-0.003 -0.4218,-0.1797 -0.0142,-0.0349 -0.0575,-0.309 -0.0587,-0.364 l -0.1349,-0.2376 c -0.003,-0.004 -0.008,-0.009 -0.0114,-0.0119 -0.0518,-0.0462 -0.1238,-0.0323 -0.1902,-0.0314 -0.0578,0.087 -0.0326,0.1085 -0.1329,0.1496 -0.1321,0.0536 -0.1556,0.0162 -0.2597,0.0383 -0.0966,0.021 -0.0238,0.1004 -0.2077,0 -0.0922,-0.0504 -0.0638,-0.1029 -0.1109,-0.1919 -0.1346,0.0204 -0.1037,0.1142 -0.1148,0.2157 -0.0116,0.1069 -0.0711,0.188 -0.1587,0.2602 -0.0913,0.0749 -0.2118,0.1506 -0.3467,0.1885 -0.178,-0.108 -0.1831,-0.189 -0.1587,-0.4042 0.0161,-0.1428 0.064,0.005 0.0408,-0.2089 -0.0998,0.1381 -0.1928,0.1868 -0.3198,0.2273 -0.1091,0.0352 -0.2143,-8e-4 -0.3072,-0.0703 -0.009,-0.0983 0.0479,-0.1717 0.1199,-0.2412 0.0691,-0.0663 0.1341,-0.1128 0.1896,-0.2089 -0.2747,-0.4031 -0.003,-0.6038 -0.023,-0.8603 -0.1445,-0.008 -0.024,-0.001 -0.1346,0.0453 -0.1086,-0.0847 -0.0859,-0.0215 -0.197,-0.0796 -0.1474,-0.0768 -0.0408,-0.0527 -0.2307,-0.068 -0.0154,-0.0865 -0.0236,-0.1052 -0.0309,-0.2041 -0.1551,-0.0122 -0.2311,-0.0621 -0.3393,0.0657 -0.1475,0.1735 -0.2299,0.3147 -0.4593,0.1936 -0.2194,-0.1159 -0.2471,-0.2049 -0.4147,-0.3773 -0.1017,0.0531 -0.2182,0.1262 -0.2902,0.1832 -0.1307,0.1034 -0.1815,0.1199 -0.3371,0.0918 -0.009,-0.0918 0.006,-0.0618 -0.0533,-0.1139 0.0584,-0.0786 0.0488,-0.1154 0.1134,-0.1934 0.0811,-0.0978 0.1194,-0.0672 0.1605,-0.1522 -0.1021,-0.0847 -0.2044,-0.0553 -0.3385,-0.0553 -0.004,0.22 -0.1658,0.538 -0.3881,0.2832 -0.1613,-0.1851 -0.2571,-0.0913 -0.3821,-0.2418 -0.1258,-0.1516 0.0425,-0.2035 -0.4164,-0.2066 -0.1913,-9e-4 -0.1366,0.0292 -0.2735,0.0476 -0.0882,0.0116 -0.1693,0.0198 -0.2305,0.0686 -0.0677,0.0539 -0.1397,0.0935 -0.2282,0.0984 -0.0745,-0.0913 -0.1258,-0.167 -0.2718,-0.1673 -0.0663,0.0139 -0.0624,0.0913 -0.0882,0.1684 -0.1046,0.3155 -0.2489,0.1732 -0.3852,0.0615 l -0.007,-0.273 c -0.4158,-0.0326 -0.2628,0.0236 -0.5187,0.1899 -0.0528,0.0341 -0.108,0.0579 -0.163,0.091 -0.2866,-0.0807 -0.2106,-0.1763 -0.2101,-0.3792 3e-4,-0.1673 -0.0456,-0.2809 -0.2253,-0.2603 -0.1293,0.0372 -0.1778,0.1588 -0.2719,0.2387 -0.1462,-0.008 -0.3495,-0.2015 -0.39,-0.3557 -3e-4,-0.1953 0.0147,-0.1052 0.0646,-0.2401 0.0825,-0.2234 -0.1154,-0.214 0.1287,-0.4091 0.0502,-0.0399 0.0899,-0.0893 0.1556,-0.1221 0.1276,-0.0644 0.2866,-0.0607 0.3356,-0.1953 0,-0.1642 -0.0275,-0.1007 0.004,-0.279 0.1125,-0.0422 0.1559,-0.0805 0.1559,-0.1927 -0.1023,-0.0482 -0.2149,-0.057 -0.3294,-0.0338 -0.1803,0.0369 -0.1831,0.0993 -0.2868,0.1282 h -0.3195 c -0.1043,-0.0411 0.0125,-0.0219 -0.1137,-0.0477 -0.0949,-0.0192 -0.0493,-0.007 -0.1369,-0.047 l -0.4926,-0.1982 c -0.1517,-0.0663 -0.1185,-0.0175 -0.2172,-0.153 l 0.051,-0.2319 c -0.0819,-0.006 -0.1547,0.0176 -0.2542,0.0176 -0.08,-0.0227 -0.1352,-0.0737 -0.1599,-0.1415 0.038,-0.1434 0.1103,-0.1573 0.1865,-0.2593 -0.2225,-0.1803 -0.7945,0.1046 -0.7035,-0.3456 0.006,-0.03 0.0207,-0.0689 0.0297,-0.0873 0.0156,-0.0323 0.0482,-0.004 0.0315,-0.1063 -0.0258,-0.1587 -0.1191,0.0352 0.066,-0.3271 -0.115,0.0136 -0.2103,0.1284 -0.3344,0.0351 -3e-4,-0.0515 -0.007,-0.0138 0.008,-0.0507 0.0558,-0.138 0.1888,-0.273 0.212,-0.4195 0.0284,-0.1806 -0.0711,-0.1179 -0.0887,-0.2551 -0.0139,-0.1061 0.0286,-0.2319 0.0397,-0.3235 -0.1301,-0.1068 -0.1015,-0.265 -0.131,-0.4306 -0.01,-0.0544 -0.0927,-0.1 -0.1408,-0.1652 0.0878,-0.1185 0.2151,-0.2135 0.2571,-0.3555 l -0.1202,-0.087 c 0.0147,-0.1134 0.0164,-0.1145 0.1142,-0.1508 0.008,-0.112 0.0306,-0.1108 0.0644,-0.2163 0.1289,-0.0442 0.2117,-0.1188 0.3084,-0.2041 -0.0808,-0.1086 -0.0664,-0.1383 -0.0457,-0.2554 l 0.1525,-0.0813 c 0.1426,0.007 0.3113,-0.0182 0.4371,0.03 0.0842,0.0326 0.1041,0.0198 0.1925,0.0371 0.1069,0.0207 0.0921,0.0346 0.1726,0.0573 0.1038,-0.0408 -0.0119,-0.0221 0.1131,-0.0479 0.2495,-0.0519 0.4918,-0.0581 0.7453,-0.0136 0.1335,0.0232 0.1451,0.0615 0.2826,0.0615"
           style="fill:#29441e;fill-opacity:1;fill-rule:evenodd;stroke:none"
           id="path8476" />
        <path
           d="m 731.7468,98.9314 c 0.5014,0 0.9079,-0.4198 0.9079,-0.9377 0,-0.5182 -0.4065,-0.938 -0.9079,-0.938 -0.5012,0 -0.9077,0.4198 -0.9077,0.938 0,0.5179 0.4065,0.9377 0.9077,0.9377 z m 0,-0.599 c 0.1811,0 0.3282,-0.1516 0.3282,-0.3387 0,-0.1874 -0.1471,-0.339 -0.3282,-0.339 -0.1812,0 -0.328,0.1516 -0.328,0.339 0,0.1871 0.1468,0.3387 0.328,0.3387"
           style="fill:#adc73f;fill-opacity:1;fill-rule:evenodd;stroke:none"
           id="path8478" />
        <path
           d="m 732.8529,95.5123 c 0.5014,0 0.9079,-0.4199 0.9079,-0.938 0,-0.5179 -0.4065,-0.9377 -0.9079,-0.9377 -0.5012,0 -0.9077,0.4198 -0.9077,0.9377 0,0.5181 0.4065,0.938 0.9077,0.938 z m 0,-0.599 c 0.1811,0 0.3282,-0.1517 0.3282,-0.339 0,-0.1871 -0.1471,-0.3388 -0.3282,-0.3388 -0.1812,0 -0.328,0.1517 -0.328,0.3388 0,0.1873 0.1468,0.339 0.328,0.339"
           style="fill:#adc73f;fill-opacity:1;fill-rule:evenodd;stroke:none"
           id="path8480" />
        <path
           d="m 735.6699,90.9581 c 0.5012,0 0.9077,-0.4198 0.9077,-0.938 0,-0.5179 -0.4065,-0.9377 -0.9077,-0.9377 -0.5014,0 -0.9076,0.4198 -0.9076,0.9377 0,0.5182 0.4062,0.938 0.9076,0.938 z m 0,-0.599 c 0.1812,0 0.328,-0.1516 0.328,-0.339 0,-0.1871 -0.1468,-0.3387 -0.328,-0.3387 -0.1811,0 -0.3279,0.1516 -0.3279,0.3387 0,0.1874 0.1468,0.339 0.3279,0.339"
           style="fill:#adc73f;fill-opacity:1;fill-rule:evenodd;stroke:none"
           id="path8482" />
        <path
           d="m 738.1332,91.9355 c 0.5012,0 0.9077,-0.4201 0.9077,-0.938 0,-0.5179 -0.4065,-0.9377 -0.9077,-0.9377 -0.5014,0 -0.9076,0.4198 -0.9076,0.9377 0,0.5179 0.4062,0.938 0.9076,0.938 z m 0,-0.599 c 0.1812,0 0.328,-0.1519 0.328,-0.339 0,-0.1871 -0.1468,-0.3387 -0.328,-0.3387 -0.1811,0 -0.3279,0.1516 -0.3279,0.3387 0,0.1871 0.1468,0.339 0.3279,0.339"
           style="fill:#adc73f;fill-opacity:1;fill-rule:evenodd;stroke:none"
           id="path8484" />
        <path
           d="m 740.317,87.4066 c 0.5015,0 0.9077,-0.4198 0.9077,-0.938 0,-0.5179 -0.4062,-0.9377 -0.9077,-0.9377 -0.5011,0 -0.9076,0.4198 -0.9076,0.9377 0,0.5182 0.4065,0.938 0.9076,0.938 z m 0,-0.599 c 0.1812,0 0.328,-0.1516 0.328,-0.339 0,-0.1871 -0.1468,-0.3387 -0.328,-0.3387 -0.1811,0 -0.3279,0.1516 -0.3279,0.3387 0,0.1874 0.1468,0.339 0.3279,0.339"
           style="fill:#adc73f;fill-opacity:1;fill-rule:evenodd;stroke:none"
           id="path8486" />
        <path
           d="m 741.8537,89.2361 c 0.5012,0 0.9077,-0.4198 0.9077,-0.938 0,-0.5179 -0.4065,-0.9377 -0.9077,-0.9377 -0.5014,0 -0.9077,0.4198 -0.9077,0.9377 0,0.5182 0.4063,0.938 0.9077,0.938 z m 0,-0.599 c 0.1811,0 0.328,-0.1517 0.328,-0.339 0,-0.1871 -0.1469,-0.3388 -0.328,-0.3388 -0.1811,0 -0.328,0.1517 -0.328,0.3388 0,0.1873 0.1469,0.339 0.328,0.339"
           style="fill:#adc73f;fill-opacity:1;fill-rule:evenodd;stroke:none"
           id="path8488" />
        <path
           d="m 744.4998,87.1869 c 0.5012,0 0.9077,-0.4198 0.9077,-0.938 0,-0.5179 -0.4065,-0.9377 -0.9077,-0.9377 -0.5014,0 -0.9076,0.4198 -0.9076,0.9377 0,0.5182 0.4062,0.938 0.9076,0.938 z m 0,-0.599 c 0.1812,0 0.328,-0.1516 0.328,-0.339 0,-0.1871 -0.1468,-0.3387 -0.328,-0.3387 -0.1811,0 -0.3279,0.1516 -0.3279,0.3387 0,0.1874 0.1468,0.339 0.3279,0.339"
           style="fill:#adc73f;fill-opacity:1;fill-rule:evenodd;stroke:none"
           id="path8490" />
        <path
           d="m 746.4722,85.7367 c 0.5012,0 0.9076,-0.4201 0.9076,-0.938 0,-0.5179 -0.4064,-0.9377 -0.9076,-0.9377 -0.5015,0 -0.9077,0.4198 -0.9077,0.9377 0,0.5179 0.4062,0.938 0.9077,0.938 z m 0,-0.599 c 0.1811,0 0.328,-0.1519 0.328,-0.339 0,-0.1871 -0.1469,-0.3387 -0.328,-0.3387 -0.1811,0 -0.328,0.1516 -0.328,0.3387 0,0.1871 0.1469,0.339 0.328,0.339"
           style="fill:#adc73f;fill-opacity:1;fill-rule:evenodd;stroke:none"
           id="path8492" />
        <path
           d="m 748.4984,88.6051 c 0.5012,0 0.9076,-0.4198 0.9076,-0.938 0,-0.5179 -0.4064,-0.9377 -0.9076,-0.9377 -0.5015,0 -0.9077,0.4198 -0.9077,0.9377 0,0.5182 0.4062,0.938 0.9077,0.938 z m 0,-0.599 c 0.1811,0 0.328,-0.1516 0.328,-0.339 0,-0.1871 -0.1469,-0.3388 -0.328,-0.3388 -0.1811,0 -0.328,0.1517 -0.328,0.3388 0,0.1874 0.1469,0.339 0.328,0.339"
           style="fill:#adc73f;fill-opacity:1;fill-rule:evenodd;stroke:none"
           id="path8494" />
        <path
           d="m 751.0723,86.0519 c 0.5011,0 0.9076,-0.4198 0.9076,-0.9377 0,-0.5182 -0.4065,-0.938 -0.9076,-0.938 -0.5015,0 -0.908,0.4198 -0.908,0.938 0,0.5179 0.4065,0.9377 0.908,0.9377 z m 0,-0.599 c 0.1811,0 0.3279,-0.1516 0.3279,-0.3387 0,-0.1874 -0.1468,-0.339 -0.3279,-0.339 -0.1812,0 -0.328,0.1516 -0.328,0.339 0,0.1871 0.1468,0.3387 0.328,0.3387"
           style="fill:#adc73f;fill-opacity:1;fill-rule:evenodd;stroke:none"
           id="path8496" />
        <path
           d="m 757.6444,89.2043 c 0.5011,0 0.9076,-0.4198 0.9076,-0.9377 0,-0.5179 -0.4065,-0.938 -0.9076,-0.938 -0.5015,0 -0.9077,0.4201 -0.9077,0.938 0,0.5179 0.4062,0.9377 0.9077,0.9377 z m 0,-0.5989 c 0.1811,0 0.3279,-0.1517 0.3279,-0.3388 0,-0.1871 -0.1468,-0.339 -0.3279,-0.339 -0.1812,0 -0.328,0.1519 -0.328,0.339 0,0.1871 0.1468,0.3388 0.328,0.3388"
           style="fill:#adc73f;fill-opacity:1;fill-rule:evenodd;stroke:none"
           id="path8498" />
        <path
           d="m 763.4636,99.4995 c 0.5012,0 0.9077,-0.4198 0.9077,-0.938 0,-0.5179 -0.4065,-0.9377 -0.9077,-0.9377 -0.5014,0 -0.9076,0.4198 -0.9076,0.9377 0,0.5182 0.4062,0.938 0.9076,0.938 z m 0,-0.599 c 0.1812,0 0.328,-0.1516 0.328,-0.339 0,-0.1871 -0.1468,-0.3388 -0.328,-0.3388 -0.1811,0 -0.3279,0.1517 -0.3279,0.3388 0,0.1874 0.1468,0.339 0.3279,0.339"
           style="fill:#adc73f;fill-opacity:1;fill-rule:evenodd;stroke:none"
           id="path8500" />
        <path
           d="m 762.556,95.7883 c 0.5011,0 0.9076,-0.42 0.9076,-0.9379 0,-0.5179 -0.4065,-0.9377 -0.9076,-0.9377 -0.5015,0 -0.9077,0.4198 -0.9077,0.9377 0,0.5179 0.4062,0.9379 0.9077,0.9379 z m 0,-0.5989 c 0.1811,0 0.3279,-0.152 0.3279,-0.339 0,-0.1871 -0.1468,-0.3388 -0.3279,-0.3388 -0.1812,0 -0.328,0.1517 -0.328,0.3388 0,0.187 0.1468,0.339 0.328,0.339"
           style="fill:#adc73f;fill-opacity:1;fill-rule:evenodd;stroke:none"
           id="path8502" />
        <path
           d="m 759.5495,94.3943 c 0.5015,0 0.9077,-0.4198 0.9077,-0.9377 0,-0.5179 -0.4062,-0.938 -0.9077,-0.938 -0.5011,0 -0.9076,0.4201 -0.9076,0.938 0,0.5179 0.4065,0.9377 0.9076,0.9377 z m 0,-0.599 c 0.1812,0 0.328,-0.1516 0.328,-0.3387 0,-0.1871 -0.1468,-0.3391 -0.328,-0.3391 -0.1811,0 -0.3279,0.152 -0.3279,0.3391 0,0.1871 0.1468,0.3387 0.3279,0.3387"
           style="fill:#adc73f;fill-opacity:1;fill-rule:evenodd;stroke:none"
           id="path8504" />
        <path
           d="m 754.2876,93.6524 c 0.5012,0 0.9076,-0.4198 0.9076,-0.9379 0,-0.5179 -0.4064,-0.9377 -0.9076,-0.9377 -0.5015,0 -0.9077,0.4198 -0.9077,0.9377 0,0.5181 0.4062,0.9379 0.9077,0.9379 z m 0,-0.5989 c 0.1811,0 0.328,-0.1517 0.328,-0.339 0,-0.1871 -0.1469,-0.3388 -0.328,-0.3388 -0.1811,0 -0.328,0.1517 -0.328,0.3388 0,0.1873 0.1469,0.339 0.328,0.339"
           style="fill:#adc73f;fill-opacity:1;fill-rule:evenodd;stroke:none"
           id="path8506" />
      </g>
      <text
         xml:space="preserve"
         style="font-style:normal;font-weight:normal;font-size:29.7233px;line-height:1.25;font-family:sans-serif;letter-spacing:-3.71034px;fill:#29441e;fill-opacity:1;stroke:none;stroke-width:0.743078"
         x="761.91351"
         y="-92.705017"
         id="text875"
         transform="scale(1,-1)"><tspan
           id="tspan873"
           x="761.91351"
           y="-92.705017"
           style="font-style:normal;font-variant:normal;font-weight:bold;font-stretch:normal;font-family:sans-serif;-inkscape-font-specification:'sans-serif Bold';fill:#29441e;fill-opacity:1;stroke-width:0.743078"
           dx="0"
           sodipodi:role="line">acacia.eco</tspan></text>
    </g>
  </g>
</svg>
