<svg width="525" height="453" viewBox="0 0 525 453" fill="none" xmlns="http://www.w3.org/2000/svg">
<path d="M270.589 40.5249C270.407 40.5245 270.229 40.4762 270.072 40.3849C269.915 40.2937 269.784 40.1627 269.694 40.005C269.603 39.8474 269.556 39.6688 269.557 39.4871C269.557 39.3053 269.606 39.127 269.697 38.9699C275.412 29.1748 274.242 22.22 274.228 22.151C274.178 21.8813 274.238 21.6027 274.393 21.3766C274.548 21.1506 274.787 20.9954 275.057 20.9453C275.326 20.8953 275.605 20.9544 275.831 21.1097C276.057 21.265 276.212 21.5038 276.262 21.7735C276.32 22.0838 277.619 29.4952 271.483 40.0112C271.392 40.1675 271.261 40.2973 271.105 40.3874C270.948 40.4776 270.77 40.525 270.589 40.5249Z" fill="#DE5FA1"/>
<path d="M261.943 18.1941C261.943 18.1941 266.833 14.179 268.463 13.946C270.092 13.7131 277.775 14.2351 278.939 16.071C280.103 17.9068 277.542 23.4925 276.611 23.7255C275.679 23.9584 268.693 23.7255 268.693 23.7255L261.941 24.8901L261.943 18.1941Z" fill="#FBAF9D"/>
<path d="M204.177 38.111C204.177 38.111 186.996 48.1206 186.49 67.5874C185.985 87.0542 200.892 101.962 200.892 101.962L241.321 90.4266L240.308 60.987C240.308 60.987 237.96 34.4347 264.735 26.0529C265.998 19.7352 262.372 16.2744 262.372 16.2744C262.372 16.2744 224.897 22.2358 219.59 45.0446C213.527 41.3196 204.177 38.111 204.177 38.111Z" fill="#4386C4"/>
<g style="mix-blend-mode:multiply" opacity="0.3">
<path d="M200.943 68.9553C200.943 68.9553 203.437 90.8766 218.487 101.537C225.623 94.2693 229.68 91.476 229.68 91.476C229.68 91.476 210.434 86.8662 200.943 68.9553Z" fill="#4386C4"/>
</g>
<g style="mix-blend-mode:multiply" opacity="0.3">
<path d="M199.158 41.9088C199.158 41.9088 201.644 53.5259 215.845 52.1283C230.045 50.7308 235.7 37.0882 233.153 27.3796C226.88 28.8463 203.658 34.4836 199.158 41.9088Z" fill="#4386C4"/>
</g>
<path d="M214.411 1.29863C195.884 -3.42167 189.767 16.2744 192.096 37.6939C193.029 46.2847 197.747 52.6447 201.791 56.5226L202.804 52.2452L203.909 58.4137C205.027 59.3576 206.213 60.2191 207.456 60.9916L204.199 31.0816H226.295L227.02 59.1217L230.363 56.3707L231.21 51.098L232.357 54.7292L236.77 51.098C236.77 51.098 238.195 42.3516 238.195 26.2931C238.195 10.2347 232.617 -4.53109 214.411 1.29863Z" fill="#4D1D5A"/>
<path d="M213.697 18.1941C213.697 18.1941 210.213 28.0637 200.413 27.2112C199.934 33.0115 202.333 39.0474 204.765 42.696C207.994 47.5388 223.256 47.7377 226.631 40.8796C229.366 35.3242 229.635 25.844 229.635 25.844C229.635 25.844 218.286 28.1641 213.697 18.1941Z" fill="#FBAF9D"/>
<path d="M201.415 28.0598C201.415 28.0598 198.755 25.1137 197.52 27.8702C196.284 30.6267 199.61 35.4713 201.7 33.0011" fill="#FBAF9D"/>
<path d="M228.973 26.6928C228.973 26.6928 230.383 24.1904 231.808 25.843C233.234 27.4956 233.058 33.8529 228.973 32.0511" fill="#FBAF9D"/>
<path d="M258.315 29.429L280.39 36.9463C280.39 36.9463 275.374 53.257 271.531 55.8404C268.281 58.0261 253.692 53.6188 252.657 47.9631C252.017 44.4618 258.315 29.429 258.315 29.429Z" fill="#DE5FA1"/>
<path d="M273.157 45.6208L288.233 38.4322C288.233 38.4322 289.161 42.4408 291.016 41.3645C292.871 40.2883 291.476 33.8325 289.857 33.5811C288.237 33.3298 271.535 34.7219 271.535 34.7219" fill="#DE5FA1"/>
<path d="M265.006 34.7155C264.859 34.7153 264.713 34.6837 264.579 34.6229C264.445 34.562 264.325 34.4734 264.228 34.3628C264.131 34.2521 264.059 34.1221 264.016 33.9813C263.973 33.8405 263.96 33.6922 263.979 33.5462C265.821 19.6772 272.106 18.4591 272.818 18.3652C273.086 18.3373 273.354 18.4151 273.566 18.5821C273.778 18.7492 273.916 18.9922 273.951 19.2595C273.986 19.5269 273.916 19.7973 273.754 20.0134C273.593 20.2295 273.354 20.3741 273.087 20.4165C268.688 20.9937 266.502 30.2861 266.031 33.8178C265.998 34.0663 265.876 34.2942 265.687 34.4593C265.499 34.6244 265.256 34.7155 265.006 34.7155Z" fill="#DE5FA1"/>
<path d="M290.321 44.6663C290.321 44.6663 277.723 66.5314 290.321 67.7587C302.037 68.9003 293.061 47.3132 290.321 44.6663Z" fill="#93CFFF"/>
<path d="M222.168 31.3818C222.168 31.6445 222.09 31.9014 221.944 32.1199C221.798 32.3383 221.59 32.5086 221.348 32.6092C221.105 32.7097 220.838 32.736 220.58 32.6848C220.322 32.6335 220.086 32.507 219.9 32.3212C219.714 32.1354 219.588 31.8987 219.536 31.6409C219.485 31.3832 219.511 31.1161 219.612 30.8733C219.712 30.6306 219.883 30.4231 220.101 30.2771C220.32 30.1311 220.577 30.0532 220.839 30.0532C221.192 30.0532 221.53 30.1932 221.779 30.4423C222.028 30.6915 222.168 31.0294 222.168 31.3818Z" fill="#4D1D5A"/>
<path d="M209.529 32.7093C210.262 32.7093 210.857 32.1145 210.857 31.3808C210.857 30.6471 210.262 30.0522 209.529 30.0522C208.795 30.0522 208.2 30.6471 208.2 31.3808C208.2 32.1145 208.795 32.7093 209.529 32.7093Z" fill="#4D1D5A"/>
<path d="M206.634 29.4289C207.989 28.4303 209.654 27.9445 211.334 28.058C210.453 25.7085 206.684 26.3447 206.634 29.4289Z" fill="#4D1D5A"/>
<path d="M224.56 29.4289C223.205 28.4303 221.54 27.9445 219.86 28.058C220.741 25.7085 224.509 26.3447 224.56 29.4289Z" fill="#4D1D5A"/>
<path d="M215.15 28.825C216.196 28.8701 215.394 33.2811 215.394 33.2811C215.394 33.2811 216.472 33.2314 216.422 34.2119C216.372 35.1924 213.975 34.9484 213.828 34.1134C213.68 33.2783 212.848 28.7283 215.15 28.825Z" fill="#FB8076"/>
<path d="M208.109 33.7892C208.109 34.1045 208.016 34.4128 207.84 34.675C207.665 34.9372 207.416 35.1416 207.125 35.2623C206.834 35.3831 206.513 35.4147 206.204 35.3532C205.894 35.2918 205.61 35.14 205.387 34.9171C205.164 34.6942 205.012 34.4101 204.951 34.1008C204.889 33.7916 204.92 33.471 205.041 33.1796C205.162 32.8882 205.366 32.6391 205.628 32.4638C205.89 32.2884 206.198 32.1948 206.514 32.1946C206.937 32.1946 207.342 32.3626 207.642 32.6616C207.941 32.9606 208.109 33.3662 208.109 33.7892Z" fill="#FB80B3"/>
<path d="M225.398 33.7892C225.398 34.1045 225.305 34.4128 225.13 34.675C224.954 34.9372 224.705 35.1416 224.414 35.2623C224.123 35.3831 223.802 35.4147 223.493 35.3532C223.184 35.2918 222.899 35.14 222.676 34.9171C222.453 34.6942 222.301 34.4101 222.24 34.1008C222.178 33.7916 222.21 33.471 222.33 33.1796C222.451 32.8882 222.655 32.6391 222.917 32.4638C223.179 32.2884 223.487 32.1948 223.803 32.1946C224.226 32.1946 224.631 32.3626 224.931 32.6616C225.23 32.9606 225.398 33.3662 225.398 33.7892Z" fill="#FB80B3"/>
<path d="M211.139 35.3848C213.216 36.5967 215.685 36.9442 218.016 36.3524C216.231 39.8132 211.136 38.8309 211.139 35.3848Z" fill="white"/>
<path d="M289.936 63.5455C289.794 63.7276 289.697 63.9403 289.652 64.1666C289.607 64.393 289.615 64.6267 289.676 64.8492C289.815 65.0936 290.022 65.2918 290.273 65.4187C290.523 65.5456 290.806 65.5958 291.085 65.5627C291.703 65.5315 292.306 65.3653 292.853 65.0757C293.417 64.8193 293.907 64.4236 294.276 63.9258C294.996 62.8679 294.513 61.0164 292.981 61.1932C291.911 61.3175 290.486 62.6865 289.936 63.5455Z" fill="white"/>
<path d="M338.729 113.485C338.534 112.945 319.507 59.2229 346.333 27.4016L347.123 28.0673C320.685 59.4255 339.509 112.595 339.702 113.128L338.729 113.485Z" fill="#F7C05B"/>
<path d="M342.452 33.5801C342.452 33.5801 341.714 21.4539 357.586 13.6641C356.772 17.9269 354.982 21.9434 352.357 25.3987C349.731 28.8541 346.341 31.6544 342.452 33.5801Z" fill="#F7C05B"/>
<path d="M337.028 44.6062C337.028 44.6062 326.865 36.7998 330.9 18.2224C336.126 25.9606 338.309 35.3569 337.028 44.6062Z" fill="#F7C05B"/>
<path d="M336.807 46.4354C336.807 46.4354 348.591 48.4462 358.331 36.4709C342.86 36.6698 336.807 46.4354 336.807 46.4354Z" fill="#F7C05B"/>
<path d="M332.782 64.4245C332.782 64.4245 340.188 44.8592 365.857 39.4917C356.684 61.2105 332.782 64.4245 332.782 64.4245Z" fill="#F7C05B"/>
<path d="M332.502 69.1366C332.502 69.1366 306.61 67.4978 304.528 37.3733C324.044 44.5205 332.502 69.1366 332.502 69.1366Z" fill="#F7C05B"/>
<path d="M333.867 56.2353C333.867 56.2353 316.774 51.8778 316.402 30.9167C327.262 35.5045 333.867 56.2353 333.867 56.2353Z" fill="#F7C05B"/>
<path d="M332.903 82.8905C332.903 82.8905 338.278 62.6633 359.562 56.4524C353.712 77.7219 332.903 82.8905 332.903 82.8905Z" fill="#F7C05B"/>
<path d="M333.633 89.2855C333.633 89.2855 330.531 68.5372 300.877 64.9465C310.661 86.1433 333.633 89.2855 333.633 89.2855Z" fill="#F7C05B"/>
<path d="M335.748 100.871C335.748 100.871 341.128 75.3071 364.742 70.9182C358.686 93.6285 335.748 100.871 335.748 100.871Z" fill="#F7C05B"/>
<path d="M170.895 157.24C170.895 157.24 120.468 156.319 129.178 93.0605C180.522 105.441 170.895 157.24 170.895 157.24Z" fill="#DE5FA1"/>
<g style="mix-blend-mode:multiply" opacity="0.3">
<path d="M166.72 152.429C166.72 152.429 141.412 125.158 132.854 101.086C151.791 120.203 166.72 152.429 166.72 152.429Z" fill="#4386C4"/>
</g>
<path d="M353.354 159.202C353.354 159.202 317.338 106.152 379.479 56.4543C413.366 121.094 353.354 159.202 353.354 159.202Z" fill="#75CD82"/>
<g style="mix-blend-mode:multiply" opacity="0.3">
<path d="M354.557 150.478C354.557 150.478 359.863 99.3386 377.089 68.53C374.459 105.618 354.557 150.478 354.557 150.478Z" fill="#4386C4"/>
</g>
<path d="M168.905 138.955C168.905 138.955 140.088 106.548 171.613 69.5889C197.853 106.003 168.905 138.955 168.905 138.955Z" fill="#F7C05B"/>
<g style="mix-blend-mode:multiply" opacity="0.3">
<path d="M171.611 74.6875C171.611 74.6875 163.806 103.453 168.849 129.596C174.548 106.185 171.611 74.6875 171.611 74.6875Z" fill="#C886C4"/>
</g>
<path d="M371.482 140.556C371.482 140.556 375.199 107.195 412.788 106.184C405.433 140.14 371.482 140.556 371.482 140.556Z" fill="#F7C05B"/>
<g style="mix-blend-mode:multiply" opacity="0.3">
<path d="M409.855 108.823C409.855 108.823 389.264 119.234 376.84 135.679C393.257 126.828 409.855 108.823 409.855 108.823Z" fill="#C886C4"/>
</g>
<path d="M272.95 372.734C353.058 372.734 417.999 307.794 417.999 227.685C417.999 147.577 353.058 82.6365 272.95 82.6365C192.842 82.6365 127.901 147.577 127.901 227.685C127.901 307.794 192.842 372.734 272.95 372.734Z" fill="#4355AE"/>
<path d="M386.326 340.694C448.157 278.862 448.157 178.613 386.326 116.782C324.494 54.9503 224.245 54.9503 162.414 116.782C100.582 178.613 100.582 278.862 162.414 340.694C224.245 402.525 324.494 402.525 386.326 340.694Z" fill="#29441E"/>
<g style="mix-blend-mode:multiply" opacity="0.3">
<path d="M417.613 194.004C398.841 198.31 379.037 198.767 361.25 206.141C353.268 209.449 345.4 214.628 342.155 222.635C340.204 227.451 340.13 232.781 339.343 237.919C337.877 246.92 334.23 255.425 328.72 262.693C323.211 269.96 316.006 275.768 307.735 279.61C295.95 284.943 282.718 285.944 269.793 286.412C260.111 286.763 250.25 286.838 240.947 284.129C218.326 277.544 203.722 256.397 186.022 240.847C175.048 231.215 162.515 223.523 148.959 218.099C136.857 213.263 122.825 210.384 111.037 215.944C119.864 220.013 130.061 220.039 139.118 223.558C157.092 230.538 167.006 249.366 175.693 266.58C184.381 283.794 195.172 302.406 213.6 308.081C231.293 313.529 249.862 305.201 267.487 299.536C281.497 295.035 295.981 292.169 310.65 290.995C323.908 289.935 337.766 290.148 349.731 284.331C363.549 277.61 372.448 264.068 382.742 252.66C393.035 241.251 407.627 230.956 422.635 234.249C434.236 236.794 443.713 247.112 455.584 246.862C465.138 246.663 473.405 239.196 477.088 230.377C480.771 221.559 480.664 211.638 479.699 202.129C478.74 192.679 472.913 161.379 457.123 172.143C450.762 176.478 446.269 182.416 439.212 186.165C432.386 189.712 425.125 192.347 417.613 194.004Z" fill="#4386C4"/>
</g>
<path d="M384.781 194.567C384.117 196.759 383.66 199.01 383.417 201.288C383.404 201.511 383.361 201.73 383.288 201.941C382.912 202.886 381.433 202.905 380.736 202.163C380.428 201.758 380.211 201.29 380.102 200.793C379.992 200.295 379.992 199.78 380.102 199.283C380.328 198.29 380.434 197.275 380.418 196.257C380.197 194.246 378.449 192.73 377.872 190.791C377.744 190.466 377.697 190.114 377.736 189.767C377.774 189.419 377.896 189.086 378.091 188.796C378.506 188.397 379.04 188.146 379.612 188.082C380.974 187.79 386.977 186.3 387.671 188.025C387.984 188.806 386.935 190.084 386.579 190.695C385.823 191.907 385.219 193.207 384.781 194.567Z" fill="#2EAC6A"/>
<path d="M373.614 187.568C373.522 189.35 373.882 191.125 373.924 192.908C374.012 193.654 373.825 194.407 373.397 195.025C372.827 195.55 372.096 195.866 371.323 195.922L369.593 196.241C369.396 196.297 369.187 196.294 368.992 196.233C368.805 196.13 368.657 195.969 368.572 195.773C367.803 194.358 367.582 192.71 367.95 191.142C368.25 189.883 368.922 188.729 369.128 187.452C369.171 186.645 369.285 185.844 369.47 185.058C369.922 183.769 372.192 181.928 373.656 182.59C375.414 183.382 373.683 186.254 373.614 187.568Z" fill="#2EAC6A"/>
<g style="mix-blend-mode:multiply" opacity="0.3">
<path d="M91.4189 263.136C109.774 257.487 130.002 263.425 146.243 273.671C162.485 283.918 175.739 298.144 189.926 311.087C204.112 324.03 220.015 336.114 238.705 340.527C261.354 345.875 285.059 339.29 306.799 330.972C339.207 318.576 370.887 302.018 405.468 299.209C420.719 297.98 436.066 299.488 450.786 303.662C452.222 304.071 453.843 304.675 454.337 306.087C454.759 307.283 454.179 308.586 453.601 309.718C439.992 336.204 418.5 358.217 393.646 374.617C346.1 405.991 284.999 416.79 230.101 401.588C175.203 386.387 127.792 344.842 107.417 291.646" fill="#4386C4"/>
</g>
<g style="mix-blend-mode:multiply" opacity="0.3">
<path d="M125.109 98.5441C127.698 119.255 145.4 135.94 165.425 141.816C185.451 147.692 207.185 144.312 226.827 137.254C246.469 130.196 264.626 119.629 283.463 110.646C323.086 91.743 368.925 79.7825 410.826 92.8773C417.594 94.9948 424.524 98.0128 428.646 103.783C432.855 109.675 433.397 117.39 433.108 124.624C432.682 135.294 430.55 146.398 423.859 154.72C417.478 162.657 407.486 167.184 397.364 168.31C387.242 169.436 376.98 167.417 367.366 164.056C355.154 159.787 343.389 153.284 330.471 152.579C319.089 151.961 307.882 155.986 297.997 161.666C283.513 169.985 271.351 181.775 257.524 191.146C243.698 200.516 226.996 207.589 210.57 204.551C190.357 200.812 176.125 183.232 158.948 171.939C127.088 150.995 81.6816 153.455 52.2715 177.719C74.437 141.98 106.637 113.561 144.854 96.0076" fill="#4386C4"/>
</g>
<path d="M345.539 151.986C345.762 155.752 347.861 159.175 350.418 161.952C352.524 164.395 355.221 166.258 358.251 167.362C359.547 167.831 360.942 167.961 362.302 167.739C363.384 167.485 364.409 167.028 365.321 166.393C369.841 163.463 372.861 158.77 375.743 154.22C376.31 153.505 376.628 152.625 376.649 151.713C376.538 151.173 376.297 150.669 375.947 150.243C375.597 149.817 375.149 149.483 374.641 149.27C373.623 148.851 372.652 148.326 371.744 147.705C371.154 147.157 370.65 146.524 370.246 145.828L366.516 140.076C366.253 139.585 365.87 139.168 365.404 138.863C364.897 138.641 364.339 138.561 363.789 138.631C356.514 139.02 345.001 142.911 345.539 151.986Z" fill="#2EAC6A"/>
<path d="M179.919 97.6777C183.356 101.25 185.844 105.626 187.158 110.406C188.471 115.187 188.568 120.219 187.439 125.047C186.444 129.11 184.579 132.939 183.809 137.05C183.038 141.162 183.607 145.901 186.725 148.69C188.06 149.886 189.764 150.634 190.979 151.952C194.716 156.02 191.923 162.434 189.506 167.4C185.49 175.652 182.933 184.537 181.945 193.662C181.631 195.379 181.767 197.149 182.339 198.798C183.058 200.061 183.895 201.254 184.839 202.359C188.522 207.706 186.334 214.962 187.131 221.408C188.76 234.613 202.405 242.543 214.849 247.25C215.813 247.5 216.668 248.057 217.287 248.836C218.882 251.414 214.914 255.712 217.461 257.35C220.066 256.495 222.879 256.515 225.471 257.408C228.063 258.301 230.291 260.018 231.817 262.295C224.514 266.15 222.265 275.359 220.815 283.489C219.568 290.486 219.006 299.169 224.881 303.169C228.364 305.54 233.156 305.379 236.516 307.925C241.682 311.839 240.915 319.607 240.567 326.079C240.169 333.632 241.062 341.198 243.207 348.451C243.837 351.081 245.043 353.538 246.739 355.644C248.803 357.936 251.741 359.197 254.318 360.892C258.085 363.368 261.108 366.799 264.48 369.791C273.591 377.826 285.116 382.602 297.24 383.364C296.261 375.569 284.974 374.444 280.139 368.251C277.732 365.167 277.158 361.049 277.071 357.139C276.803 342.077 282.399 327.5 292.677 316.486C295.17 313.839 297.939 311.398 299.873 308.318C302.152 304.69 303.12 300.416 304.052 296.233L309.408 272.193C309.7 271.201 309.789 270.16 309.67 269.133C308.821 264.55 302.189 265.315 297.568 264.709C291.883 263.962 287.422 259.465 281.977 257.67C277.873 256.317 273.437 256.565 269.124 256.83L239.786 258.628C237.471 258.77 234.473 258.455 233.86 256.219C233.112 253.494 236.946 250.899 235.892 248.276L224.08 251.359C227.779 244.439 219.434 234.18 225.126 228.778C227.317 226.698 230.9 226.41 232.746 224.02C235.178 220.871 233.419 215.598 236.312 212.869C240.719 208.716 247.564 216.191 253.495 214.972C256.968 214.258 259.133 210.598 259.557 207.077C259.98 203.556 259.118 200.024 258.815 196.489C258.352 189.717 259.893 182.958 263.248 177.057C266.602 171.156 271.62 166.374 277.676 163.307C281.322 161.539 285.311 160.414 288.639 158.102C296.136 152.889 307.71 136.847 300.409 134.134C291.877 132.121 283.074 130.097 274.424 131.512C268.184 132.532 260.16 134.612 256.824 129.24C253.737 124.269 258.26 118.122 262.672 114.279C267.084 110.436 272.232 105.251 270.364 99.7059L258.666 99.5218C256.548 99.3684 254.419 99.5789 252.372 100.144C246.863 102.017 243.079 108.942 237.319 108.116C239.002 102.224 234.025 95.9081 228.042 94.5888C226.73 94.2997 225.287 94.1515 224.302 93.2382C222.574 91.6389 223.207 88.6919 221.996 86.6737C220.298 83.8436 216.143 84.1879 212.948 85.0165C204.329 87.2502 195.96 90.3541 187.968 94.2804L193.124 93.0513" fill="#2EAC6A"/>
<path d="M270.118 90.709C271.733 90.9797 273.473 91.1325 274.746 92.1628C276.02 93.193 276.37 95.5104 274.954 96.3334C281.523 99.9443 289.739 92.9601 296.913 95.1264C298.56 99.8495 300.921 105.248 305.79 106.392C308.098 106.933 310.512 106.357 312.879 106.493C314.394 106.58 316.04 106.933 317.341 106.151C318.417 105.506 318.941 104.254 319.712 103.262C321.751 100.641 325.39 99.9609 328.704 99.7326C332.017 99.5043 335.557 99.472 338.31 97.615C341.063 95.758 342.238 91.2099 339.61 89.1807C338.986 88.7457 338.302 88.4045 337.579 88.168L316.796 80.2667C305.888 76.1237 292.848 73.6747 281.066 74.6165C274.768 75.122 259.664 88.9533 270.118 90.709Z" fill="#2EAC6A"/>
<path d="M273.604 225.047C274.469 224.864 275.307 224.576 276.101 224.19C276.227 224.145 276.342 224.076 276.44 223.986C276.539 223.896 276.618 223.788 276.673 223.667C276.696 223.559 276.696 223.448 276.675 223.34C276.653 223.232 276.61 223.129 276.548 223.039C275.862 221.864 274.197 221.799 273.074 221.033C272.389 220.465 271.794 219.796 271.312 219.048C269.369 216.767 266.692 215.233 263.74 214.712C261.812 214.352 258.332 215.639 258.781 218.039C259.21 220.329 263.181 222.849 265.051 223.791C267.677 225.169 270.694 225.612 273.604 225.047Z" fill="#2EAC6A"/>
<path d="M287.051 231.812C287.719 232.012 288.428 232.038 289.109 231.888C289.791 231.738 290.422 231.416 290.944 230.953C292.206 229.664 292.059 227.529 291.339 225.876C290.972 224.869 290.247 224.032 289.302 223.526C287.386 222.671 282.468 224.815 281.518 226.712C280.297 229.142 285.149 231.341 287.051 231.812Z" fill="#2EAC6A"/>
<path d="M398.488 165.915C397.699 167.664 396.893 169.534 397.199 171.423C397.798 175.087 402.22 177.078 403.116 180.68C404.059 184.47 400.737 187.92 397.506 190.113C394.275 192.306 390.476 194.6 389.735 198.435C389.49 199.706 392.999 206.985 391.791 207.451C390.173 208.073 388.097 207.543 384.741 209.893C383.696 213.179 384.789 217.767 386.272 220.895C386.568 221.661 387.033 222.351 387.632 222.913C388.188 223.284 388.827 223.511 389.493 223.574C390.159 223.637 390.83 223.533 391.445 223.273C394.391 222.251 396.331 219.498 397.982 216.848C399.243 215.08 400.108 213.061 400.519 210.929C400.79 208.782 401.028 207.154 399.125 206.128C402.766 204.051 405.373 201.17 409.016 199.093C413.954 201.46 416.639 206.844 418.417 212.024C420.979 219.491 422.415 227.298 422.678 235.188C420.286 231.731 416.825 229.156 412.827 227.856C411.738 227.447 410.567 227.305 409.411 227.442C408.365 227.621 407.406 228.169 406.357 228.325C404.87 228.546 403.398 227.966 401.956 227.538C393.615 225.064 384.702 227.586 376.375 230.099C374.857 230.438 373.433 231.11 372.205 232.065C371.217 233.078 370.471 234.302 370.022 235.644C368.753 238.822 367.873 242.143 367.403 245.533C367.067 246.986 367.219 248.509 367.835 249.867C368.554 251.115 369.926 251.823 370.905 252.879C372.408 254.5 372.93 256.889 374.588 258.352C377.551 260.972 382.506 259.404 385.836 261.541C389.896 264.15 389.317 270.564 392.679 274.027C395.508 276.942 400.218 276.859 404.152 275.85C408.087 274.841 411.971 273.103 416.021 273.412C422.983 273.941 427.949 280.148 432.016 285.825C437.092 274.416 442.186 262.788 443.76 250.401C445.186 239.194 443.668 227.836 441.892 216.679C439.831 203.717 437.421 190.813 435.013 177.912C434.251 173.842 433.466 169.697 431.498 166.054C429.186 161.772 425.415 158.504 421.727 155.327C418.009 152.126 412.56 144.817 407.233 148.514C404.335 150.518 398.488 162.465 398.488 165.915Z" fill="#2EAC6A"/>
<g style="mix-blend-mode:multiply" opacity="0.3">
<path d="M192.089 129.632C191.174 132.082 190.579 134.861 191.598 137.273C192.433 139.246 194.202 140.633 195.62 142.237C197.78 144.767 199.148 147.877 199.553 151.179C199.958 154.48 199.383 157.828 197.9 160.806C196.949 162.631 195.641 164.324 195.215 166.338C194.511 169.652 196.338 172.971 196.412 176.357C196.556 183.154 189.721 189.297 191.677 195.808C192.723 199.294 196.113 201.762 196.911 205.314C197.633 208.531 196.053 211.929 196.758 215.149C197.282 217.543 198.991 219.484 200.636 221.303L210.833 232.581C211.525 233.346 212.361 234.174 213.39 234.126C214.041 234.043 214.648 233.749 215.118 233.29C219.859 229.297 219.974 222.221 220.626 216.056C221.277 209.891 224.174 202.58 230.34 201.92C233.173 201.616 235.906 202.887 238.685 203.528C241.463 204.169 244.899 203.924 246.445 201.528C247.071 200.363 247.418 199.067 247.458 197.745C248.571 187.249 249.797 175.821 257.191 168.294C264.833 160.513 277.451 158.787 284.167 150.193C284.952 149.188 285.67 147.891 285.227 146.694C284.924 146.033 284.426 145.479 283.8 145.107C279.184 141.901 273.099 142.201 267.477 142.213C261.855 142.224 255.526 141.462 252.055 137.041C247.473 131.208 250.524 122.501 255.087 116.654C256.23 115.189 257.507 113.19 256.464 111.653C256.1 111.228 255.64 110.896 255.122 110.684C254.604 110.471 254.044 110.385 253.486 110.433C249.748 110.407 246.397 112.545 242.946 113.974C231.706 118.626 227.486 103.262 215.334 106.684C206.016 109.306 195.346 120.912 192.089 129.632Z" fill="#4386C4"/>
</g>
<g style="mix-blend-mode:multiply" opacity="0.3">
<path d="M233.852 273.952C228.38 279.677 227.903 290.497 234.632 294.673C237.702 296.578 241.648 296.826 244.508 299.035C247.691 301.494 248.793 305.87 248.621 309.889C248.45 313.908 247.231 317.807 246.688 321.79C244.686 336.377 252.738 351.808 265.847 358.512C266.387 358.852 267.017 359.022 267.654 358.998C269.009 358.814 269.556 357.18 269.78 355.831C271.161 347.545 271.334 338.969 274.175 331.065C277.233 322.55 283.153 315.431 288.01 307.797C292.866 300.163 296.819 291.193 295.199 282.295C295.001 280.69 294.348 279.176 293.318 277.93C292.257 276.942 290.997 276.193 289.622 275.735C273.911 269.308 248.158 258.986 233.852 273.952Z" fill="#4386C4"/>
</g>
<g style="mix-blend-mode:multiply" opacity="0.3">
<path d="M378.737 238.729C377.741 239.345 377.019 240.321 376.722 241.454C376.651 242.324 376.878 243.192 377.366 243.915C379.332 247.208 383.308 248.63 386.199 251.15C390.055 254.511 391.782 259.627 394.516 263.947C394.723 264.355 395.051 264.688 395.456 264.902C395.813 264.987 396.187 264.97 396.536 264.853C396.884 264.735 397.192 264.522 397.425 264.238C399.451 262.285 399.819 259.18 399.616 256.376C399.414 253.571 398.76 250.753 399.204 247.976C399.572 245.664 400.69 243.513 400.997 241.191C402.612 229.024 383.591 235.022 378.737 238.729Z" fill="#4386C4"/>
</g>
<path d="M305.205 190.294C309.479 190.294 312.943 186.829 312.943 182.556C312.943 178.282 309.479 174.817 305.205 174.817C300.931 174.817 297.467 178.282 297.467 182.556C297.467 186.829 300.931 190.294 305.205 190.294Z" fill="#4D1D5A"/>
<path d="M338.493 190.294C342.767 190.294 346.231 186.829 346.231 182.556C346.231 178.282 342.767 174.817 338.493 174.817C334.219 174.817 330.755 178.282 330.755 182.556C330.755 186.829 334.219 190.294 338.493 190.294Z" fill="#4D1D5A"/>
<path d="M303.287 180.336C302.643 181.653 302.772 183.035 301.456 182.394C301.139 182.243 300.856 182.031 300.622 181.77C300.388 181.509 300.207 181.204 300.092 180.873C299.976 180.542 299.927 180.192 299.948 179.842C299.969 179.492 300.059 179.149 300.213 178.834C300.366 178.519 300.581 178.238 300.845 178.006C301.108 177.775 301.415 177.598 301.747 177.486C302.079 177.374 302.43 177.328 302.78 177.353C303.129 177.377 303.471 177.47 303.784 177.627C305.101 178.271 303.93 179.02 303.287 180.336Z" fill="white"/>
<path d="M336.387 180.336C335.742 181.652 335.872 183.035 334.556 182.394C333.931 182.08 333.455 181.533 333.231 180.871C333.008 180.209 333.054 179.486 333.361 178.858C333.668 178.23 334.21 177.749 334.869 177.518C335.529 177.288 336.253 177.327 336.884 177.627C338.201 178.271 337.03 179.02 336.387 180.336Z" fill="white"/>
<path d="M324.203 202.607C323.251 202.849 322.271 202.967 321.288 202.959C319.988 203.011 318.692 202.802 317.475 202.343C316.258 201.884 315.146 201.186 314.205 200.289C311.903 198.025 311.394 195.041 311.817 194.437C312.592 193.332 313.616 193.289 314.96 193.579C317.012 194.251 319.136 194.682 321.288 194.861C324.06 194.944 326.179 194.106 327.833 193.786C329.023 193.559 329.973 193.59 330.76 194.437C331.524 195.267 330.087 201.108 324.203 202.607Z" fill="#701758"/>
<path d="M324.203 202.607C323.25 202.849 322.27 202.967 321.287 202.959C319.988 203.011 318.691 202.802 317.474 202.343C316.258 201.885 315.145 201.186 314.204 200.289C315.838 199.272 317.808 198.945 319.682 199.379C321.556 199.813 323.182 200.974 324.202 202.605L324.203 202.607Z" fill="#BB1758"/>
<path d="M327.842 194.532C327.85 194.884 327.794 195.234 327.678 195.566C327.541 195.864 327.325 196.12 327.054 196.304C326.782 196.488 326.465 196.594 326.137 196.61C325.809 196.618 325.483 196.557 325.18 196.43C324.877 196.303 324.604 196.113 324.38 195.873C324.357 196.305 324.176 196.713 323.871 197.019C323.565 197.325 323.157 197.507 322.725 197.53C322.294 197.553 321.869 197.415 321.532 197.143C321.196 196.871 320.973 196.484 320.905 196.057C320.807 196.508 320.541 196.905 320.16 197.167C319.78 197.428 319.314 197.534 318.857 197.463C318.405 197.357 318.001 197.102 317.712 196.737C317.423 196.373 317.266 195.922 317.266 195.457C317.201 195.614 317.105 195.757 316.983 195.875C316.862 195.994 316.717 196.086 316.558 196.147C316.399 196.207 316.229 196.234 316.06 196.227C315.89 196.219 315.723 196.176 315.571 196.102C315.311 195.933 315.102 195.699 314.964 195.423C314.826 195.146 314.764 194.838 314.785 194.53C314.786 194.205 314.846 193.883 314.96 193.579C317.012 194.251 319.136 194.682 321.288 194.861C324.06 194.944 326.18 194.106 327.833 193.786C327.842 194.036 327.842 194.284 327.842 194.532Z" fill="white"/>
<path d="M206.803 93.2032C203.527 93.3653 198.74 96.5536 199.17 99.3322C199.599 102.111 201.062 105.508 202.779 105.615C204.495 105.722 204.147 101.681 204.147 101.681C204.147 101.681 206.08 105.651 207.588 105.068C209.096 104.485 208.049 99.4997 208.049 99.4997C208.049 99.4997 211.087 101.965 212.591 100.726C214.096 99.4869 211.902 96.4385 211.902 96.4385C211.902 96.4385 215.906 99.0624 217.07 97.4715C218.235 95.8806 212.055 88.5621 206.803 93.2032Z" fill="#FBAF9D"/>
<g style="mix-blend-mode:multiply">
<path d="M280.317 433.024C318.61 433.024 349.653 426.46 349.653 418.362C349.653 410.265 318.61 403.7 280.317 403.7C242.023 403.7 210.98 410.265 210.98 418.362C210.98 426.46 242.023 433.024 280.317 433.024Z" fill="#F0F2F3"/>
</g>
<path d="M495.691 47.8268H403.894C403.894 47.8268 412.787 24.6948 434.835 33.6815C449.276 15.7034 468.872 22.1666 468.872 32.3447C486.407 20.8611 497.43 37.378 495.691 47.8268Z" fill="#93CFFF"/>
<path d="M35.6592 156.11H122.692C122.692 156.11 115.641 138.398 93.3801 144.612C88.6533 126.071 58.7875 124.41 56.7003 143.291C43.2686 133.291 35.6592 156.11 35.6592 156.11Z" fill="#93CFFF"/>
<g style="mix-blend-mode:multiply" opacity="0.75">
<path d="M53.923 430.678C83.2067 430.678 106.946 427.101 106.946 422.688C106.946 418.275 83.2067 414.697 53.923 414.697C24.6394 414.697 0.900391 418.275 0.900391 422.688C0.900391 427.101 24.6394 430.678 53.923 430.678Z" fill="#EBEDEF"/>
</g>
<path d="M102.848 288.09L107.382 269.224L104.786 263.769L105.973 255.832L102.776 255.229L100.773 262.909L96.6486 266.052L91.8096 282.249" fill="#2EAC6A"/>
<path d="M103.483 300.95L119.608 298.004L117.582 283.111L109.398 272.083L86.1309 276.425L87.406 291.782L103.483 300.95Z" fill="#93CFFF"/>
<g style="mix-blend-mode:multiply" opacity="0.3">
<path d="M91.2637 289.828L106 282.143L115.902 294.841L119.607 298.004L107.383 300.238L91.2637 289.828Z" fill="#4386C4"/>
</g>
<path d="M35.229 321.05L35.9821 352.527L12.1182 393.405L20.3591 404.648C20.3591 404.648 57.792 365.022 60.8882 359.751C63.9845 354.48 63.8206 316.171 63.8206 316.171" fill="#43174F"/>
<path d="M54.4722 219.963C54.4722 219.963 43.9544 217.09 42.2382 206.966C40.5221 196.841 42.0881 186.343 46.5728 184.004C50.7987 181.803 52.8554 184.763 52.8554 184.763C52.8554 184.763 55.5972 175.679 60.7733 177.253C65.9493 178.826 68.7233 180.253 72.0764 180.168C75.4295 180.084 78.4217 181.934 80.7455 185.828C83.0693 189.721 96.6308 198.422 74.7988 204.104" fill="#4D1D5A"/>
<path d="M79.3694 198.518C79.3694 198.518 78.666 204.41 77.5805 209.891C77.2804 211.401 76.96 212.868 76.5982 214.181C76.4647 214.719 76.322 215.235 76.1636 215.711C74.4687 221.077 72.8133 224.727 63.6332 223.156L61.4089 232.347L46.0032 234.994L50.8634 217.685L52.9626 209.786C52.9626 209.786 49.6942 211.729 46.8106 207.511C45.7767 205.991 45.1239 200.422 48.7744 200.015C52.4249 199.608 54.6474 203.053 54.6474 203.053L57.8431 203.27L58.8973 197.636L63.6728 193.531L79.3694 198.518Z" fill="#FBAF9D"/>
<path d="M64.2979 235.811C73.4679 247.714 69.1167 301.379 69.1167 301.379H21.7305C21.7305 301.379 29.3353 190.433 64.2979 235.811Z" fill="#4386C4"/>
<path d="M21.7307 301.385C21.7307 301.385 21.2612 316.392 38.5856 329.882C53.2611 341.311 66.7177 353.175 66.7177 353.175L69.2708 407.17L84.6939 411.068C84.6939 411.068 92.4939 356.359 91.0982 348.566C89.7024 340.772 69.1179 301.385 69.1179 301.385H21.7307Z" fill="#4D1D5A"/>
<path d="M12.1163 393.404L4.89355 400.302C4.89355 400.302 19.164 419.577 20.2983 418.881C21.4326 418.185 20.3582 404.647 20.3582 404.647L12.1163 393.404Z" fill="#DE5FA1"/>
<path d="M69.2701 407.169L67.751 416.604C67.751 416.604 90 423.785 91.0026 422.544C92.0053 421.303 84.6923 411.067 84.6923 411.067L69.2701 407.169Z" fill="#DE5FA1"/>
<path d="M49.0714 201.654C49.6082 199.727 53.7227 203.452 53.2218 206.062C52.8388 208.054 51.0748 207.861 51.2884 206.396C51.723 203.383 48.7703 202.735 49.0714 201.654Z" fill="#FB8D86"/>
<path d="M144.262 350.184L137.961 331.83L132.842 328.621L129.584 321.286L126.563 322.494L128.997 330.049L127.204 334.915L131.814 351.178" fill="#2EAC6A"/>
<path d="M163.264 350.584L152.216 338.247L134.509 350.584H163.264Z" fill="#93CFFF"/>
<path d="M158.08 422.688H126.195C124.82 422.688 123.501 422.141 122.529 421.169C121.556 420.197 121.01 418.878 121.01 417.503V350.585H163.265V417.503C163.265 418.878 162.718 420.197 161.746 421.169C160.774 422.141 159.455 422.688 158.08 422.688V422.688Z" fill="#4D1D5A"/>
<path d="M123.378 355.242H161.494C162.835 355.241 164.121 354.708 165.069 353.76C166.017 352.811 166.55 351.525 166.55 350.184C166.55 348.843 166.017 347.556 165.068 346.608C164.12 345.659 162.833 345.126 161.492 345.126H123.376C122.035 345.127 120.749 345.66 119.801 346.608C118.853 347.557 118.32 348.843 118.32 350.184C118.32 351.526 118.853 352.812 119.802 353.76C120.75 354.709 122.036 355.242 123.378 355.242Z" fill="#4D1D5A"/>
<path d="M148.561 380.689C148.73 380.69 148.894 380.629 149.021 380.518C149.09 380.458 149.147 380.385 149.188 380.303C149.229 380.221 149.253 380.132 149.259 380.04C149.266 379.949 149.254 379.857 149.225 379.77C149.195 379.684 149.149 379.603 149.089 379.534L141.48 370.802C141.418 370.721 141.336 370.657 141.244 370.616C141.151 370.574 141.049 370.555 140.948 370.562C140.847 370.563 140.748 370.586 140.656 370.629C140.565 370.673 140.484 370.735 140.419 370.812L134.67 377.688C134.609 377.757 134.562 377.839 134.533 377.927C134.504 378.015 134.493 378.108 134.5 378.201C134.508 378.293 134.533 378.383 134.576 378.466C134.619 378.548 134.677 378.621 134.748 378.681C134.82 378.74 134.902 378.785 134.991 378.812C135.079 378.839 135.173 378.848 135.265 378.839C135.357 378.83 135.447 378.802 135.528 378.758C135.61 378.713 135.682 378.653 135.739 378.581L140.966 372.334L148.038 380.449C148.103 380.524 148.183 380.584 148.273 380.626C148.363 380.667 148.461 380.689 148.561 380.689Z" fill="white"/>
<path d="M134.534 379.735C134.583 379.735 134.631 379.73 134.679 379.72L138.606 378.88C138.783 378.837 138.936 378.727 139.033 378.573C139.13 378.419 139.163 378.233 139.125 378.055C139.087 377.877 138.981 377.721 138.83 377.62C138.678 377.519 138.493 377.482 138.314 377.515L135.231 378.176V375.299C135.231 375.114 135.157 374.937 135.026 374.806C134.896 374.675 134.718 374.602 134.533 374.602C134.348 374.602 134.171 374.675 134.04 374.806C133.909 374.937 133.836 375.114 133.836 375.299V379.039C133.836 379.143 133.859 379.245 133.904 379.339C133.949 379.433 134.014 379.515 134.095 379.58C134.219 379.68 134.374 379.735 134.534 379.735Z" fill="white"/>
<path d="M144.959 391.431H144.967L156.779 391.292C156.913 391.291 157.043 391.251 157.154 391.178C157.266 391.105 157.354 391.001 157.408 390.88C157.463 390.758 157.481 390.623 157.461 390.491C157.441 390.36 157.384 390.236 157.296 390.136L151.44 383.44C151.38 383.371 151.307 383.315 151.224 383.274C151.142 383.233 151.053 383.209 150.961 383.203C150.87 383.197 150.778 383.209 150.691 383.239C150.604 383.268 150.524 383.315 150.455 383.375C150.386 383.436 150.329 383.509 150.289 383.591C150.248 383.673 150.224 383.763 150.218 383.854C150.212 383.946 150.224 384.038 150.254 384.125C150.283 384.211 150.329 384.292 150.39 384.361L155.25 389.918L144.95 390.038C144.858 390.039 144.768 390.058 144.683 390.093C144.599 390.129 144.522 390.18 144.458 390.246C144.394 390.311 144.343 390.388 144.308 390.473C144.274 390.557 144.256 390.648 144.257 390.74C144.257 390.831 144.276 390.922 144.311 391.006C144.347 391.09 144.399 391.167 144.464 391.231C144.529 391.296 144.606 391.346 144.691 391.381C144.776 391.415 144.866 391.433 144.958 391.432L144.959 391.431Z" fill="white"/>
<path d="M150.852 387.844C150.883 387.844 150.914 387.842 150.944 387.837C151.127 387.812 151.293 387.716 151.405 387.569C151.517 387.422 151.566 387.236 151.542 387.053L151.151 384.186L154.031 384.378C154.123 384.385 154.215 384.374 154.302 384.345C154.389 384.316 154.469 384.27 154.538 384.209C154.607 384.149 154.663 384.075 154.704 383.993C154.744 383.91 154.767 383.821 154.772 383.729C154.784 383.545 154.723 383.363 154.601 383.224C154.48 383.085 154.308 383 154.123 382.987L150.392 382.74C150.289 382.733 150.186 382.75 150.091 382.788C149.995 382.826 149.909 382.885 149.839 382.96C149.768 383.036 149.715 383.126 149.683 383.224C149.652 383.323 149.642 383.427 149.655 383.529L150.161 387.242C150.184 387.409 150.267 387.562 150.394 387.672C150.521 387.783 150.684 387.844 150.852 387.844Z" fill="white"/>
<path d="M126.676 391.292L141.521 391.223C141.705 391.223 141.883 391.15 142.014 391.019C142.144 390.888 142.218 390.711 142.218 390.526C142.218 390.341 142.144 390.164 142.014 390.033C141.883 389.902 141.705 389.828 141.521 389.828L128.104 389.892L133.839 382.458C133.948 382.312 133.995 382.128 133.97 381.947C133.945 381.766 133.85 381.602 133.705 381.49C133.561 381.378 133.378 381.328 133.196 381.349C133.015 381.371 132.849 381.463 132.735 381.606L126.128 390.168C126.048 390.271 125.999 390.395 125.986 390.525C125.973 390.654 125.996 390.785 126.054 390.902C126.111 391.019 126.201 391.118 126.311 391.187C126.422 391.256 126.55 391.292 126.68 391.292H126.676Z" fill="white"/>
<path d="M138.658 393.311C138.783 393.311 138.905 393.277 139.012 393.213L142.234 391.307C142.323 391.254 142.399 391.182 142.456 391.097C142.514 391.011 142.552 390.914 142.567 390.812C142.583 390.709 142.576 390.605 142.546 390.506C142.516 390.407 142.465 390.316 142.396 390.239L139.886 387.465C139.825 387.395 139.751 387.338 139.668 387.297C139.585 387.256 139.495 387.232 139.402 387.227C139.31 387.221 139.217 387.234 139.13 387.265C139.042 387.296 138.962 387.343 138.893 387.405C138.824 387.468 138.769 387.543 138.729 387.627C138.69 387.711 138.668 387.801 138.664 387.894C138.66 387.987 138.675 388.079 138.707 388.166C138.74 388.253 138.789 388.332 138.852 388.4L140.786 390.54L138.3 392.013C138.168 392.091 138.066 392.21 138.008 392.352C137.951 392.494 137.941 392.65 137.982 392.798C138.022 392.945 138.11 393.075 138.232 393.168C138.353 393.261 138.502 393.311 138.655 393.311H138.658Z" fill="white"/>
<path d="M121.01 360.41H163.265V354.916H121.01V360.41Z" fill="#43174F"/>
<path d="M61.2218 246.386L48.6748 260.424C48.6748 260.424 70.1487 295.844 105.307 304.209C112.806 305.146 113.61 300.191 113.208 299.521C112.805 298.851 107.583 297.549 107.583 297.549C107.583 297.549 109.592 295.004 108.253 293.531C106.913 292.058 101.461 292.803 101.461 292.803C101.461 292.803 77.2471 272.083 61.2218 246.386Z" fill="#FBAF9D"/>
<path d="M70.1505 204.325C70.1045 204.589 69.9843 204.834 69.8038 205.031C69.6234 205.228 69.3904 205.37 69.1321 205.44C68.8738 205.509 68.601 205.504 68.3459 205.423C68.0908 205.343 67.8639 205.192 67.6919 204.987C67.52 204.782 67.4101 204.532 67.3752 204.267C67.3404 204.002 67.382 203.732 67.4952 203.49C67.6084 203.247 67.7885 203.042 68.0142 202.899C68.24 202.756 68.502 202.68 68.7695 202.68C69.1695 202.718 69.5385 202.912 69.7969 203.22C70.0552 203.528 70.1822 203.925 70.1505 204.325Z" fill="#4D1D5A"/>
<path d="M77.5792 206.194C77.5332 206.458 77.413 206.703 77.2326 206.9C77.0521 207.098 76.8191 207.239 76.5608 207.309C76.3025 207.378 76.0298 207.373 75.7746 207.292C75.5195 207.212 75.2926 207.061 75.1206 206.856C74.9487 206.651 74.8388 206.401 74.804 206.136C74.7691 205.871 74.8107 205.601 74.9239 205.359C75.0371 205.117 75.2172 204.912 75.4429 204.768C75.6687 204.625 75.9307 204.549 76.1982 204.549C76.5982 204.587 76.9672 204.781 77.2256 205.089C77.484 205.397 77.611 205.794 77.5792 206.194Z" fill="#4D1D5A"/>
<path d="M66.2871 201.708H70.7736C70.7736 201.708 69.353 198.942 66.2871 201.708Z" fill="#4D1D5A"/>
<path d="M76.1953 202.978L79.3707 204.549C79.3537 204.188 79.2404 203.838 79.0426 203.535C78.8447 203.233 78.5695 202.989 78.2455 202.829C77.9215 202.668 77.5605 202.598 77.2 202.624C76.8395 202.65 76.4926 202.773 76.1953 202.978Z" fill="#4D1D5A"/>
<path d="M72.4666 204.913L70.7734 211.653C70.7734 211.653 73.0853 213.879 74.1367 212.518C75.1881 211.158 72.7759 210.193 72.7759 210.193C72.7759 210.193 75.3731 204.974 72.4666 204.913Z" fill="#FB8076"/>
<path d="M67.3824 212.157C69.0517 213.094 70.7919 213.899 72.587 214.563C70.8635 216.539 66.5657 214.131 67.3824 212.157Z" fill="white"/>
<path d="M67.2089 207.932C67.2089 208.38 67.0763 208.817 66.8278 209.189C66.5793 209.56 66.2262 209.85 65.813 210.021C65.3998 210.193 64.9452 210.237 64.5066 210.15C64.0679 210.063 63.665 209.847 63.3488 209.531C63.0326 209.215 62.8172 208.812 62.73 208.373C62.6427 207.935 62.6875 207.48 62.8586 207.067C63.0298 206.654 63.3196 206.301 63.6915 206.052C64.0633 205.804 64.5005 205.671 64.9477 205.671C65.5474 205.671 66.1225 205.909 66.5466 206.333C66.9707 206.757 67.2089 207.333 67.2089 207.932Z" fill="#FB80B3"/>
<path d="M77.5813 209.894C77.2811 211.403 76.9607 212.871 76.5989 214.184C76.2151 214.003 75.8907 213.716 75.6636 213.357C75.4365 212.999 75.3161 212.583 75.3164 212.158C75.3163 211.861 75.3748 211.566 75.4886 211.292C75.6023 211.017 75.7692 210.767 75.9795 210.557C76.1898 210.346 76.4396 210.179 76.7144 210.066C76.9892 209.952 77.2838 209.893 77.5813 209.894Z" fill="#FB80B3"/>
<g style="mix-blend-mode:multiply">
<path d="M454.145 433.718C483.428 433.718 507.167 430.141 507.167 425.728C507.167 421.315 483.428 417.737 454.145 417.737C424.861 417.737 401.122 421.315 401.122 425.728C401.122 430.141 424.861 433.718 454.145 433.718Z" fill="#F0F2F3"/>
</g>
<path d="M481.319 214.881C478.859 214.812 477.216 212.224 476.779 209.801C476.341 207.379 476.629 204.823 475.811 202.503C475.074 200.424 473.509 198.707 472.858 196.603C471.486 192.171 475.436 186.979 480.069 187.12C482.969 187.205 485.578 188.985 488.465 189.289C491.227 189.58 493.917 188.5 496.58 187.724C499.242 186.947 502.278 186.497 504.665 187.908C507.4 189.528 508.41 193.058 510.892 195.043C512.295 195.969 513.774 196.775 515.312 197.453C517.588 198.761 519.441 200.696 520.651 203.026C521.86 205.356 522.375 207.985 522.134 210.6C521.817 213.511 520.55 216.411 521.178 219.271C521.587 221.129 522.766 222.753 523.143 224.617C523.763 227.676 522.107 230.768 519.985 233.057C517.863 235.346 515.244 237.145 513.237 239.537C511.663 241.244 510.738 243.449 510.623 245.768C510.641 250.226 514.776 253.529 516.202 257.754C517.209 260.737 516.825 264.099 518.108 266.974C519.461 270.008 522.482 272.07 523.742 275.143C525.085 278.412 524.157 282.203 522.515 285.334C520.646 288.806 517.976 291.782 514.725 294.014C511.474 296.246 507.737 297.669 503.825 298.166C499.906 298.593 495.941 298.096 492.248 296.716C488.555 295.335 485.236 293.109 482.558 290.216C479.929 287.278 478.009 283.776 476.947 279.979C475.884 276.182 475.708 272.193 476.431 268.317C478.18 259.255 484.668 251.73 486.889 242.772C487.837 238.842 487.945 234.756 487.207 230.782C486.468 226.807 484.9 223.033 482.603 219.706" fill="#0D134F"/>
<path d="M506.001 227.968C501.277 230.212 499.394 226.81 499.394 226.81L497.172 234.874L492.559 252.689L480.296 242.402L484.131 233.128C479.365 230.512 476.191 225.807 476.884 220.09C476.915 219.821 476.957 219.537 477.009 219.261C477.272 217.782 477.666 216.328 478.187 214.918C480.348 208.942 485.053 201.767 485.053 201.767L492.441 209.552L493.663 205.925L501.377 219.995C501.377 219.995 505.121 218.093 508.139 220.326C511.157 222.558 507.702 227.151 506.001 227.968Z" fill="#FBAF9D"/>
<path d="M506.973 221.823C507.492 219.841 501.932 221.014 501.031 223.579C500.341 225.539 502.003 226.278 502.569 224.874C503.737 221.983 506.682 222.933 506.973 221.823Z" fill="#FB8D86"/>
<path d="M454.996 284.702C454.996 284.702 434.528 238.576 460.925 209.554C498.333 257.217 454.996 284.702 454.996 284.702Z" fill="#DE5FA1"/>
<g style="mix-blend-mode:multiply" opacity="0.3">
<path d="M459.874 234.67C459.874 234.67 449.244 265.583 457.341 292.477C467.197 264.473 459.874 234.67 459.874 234.67Z" fill="#4386C4"/>
</g>
<path d="M447.065 275.241C447.065 275.241 433.946 239.13 471.994 219.015C481.683 257.583 447.065 275.241 447.065 275.241Z" fill="#F7C05B"/>
<g style="mix-blend-mode:multiply" opacity="0.3">
<path d="M470.325 223.213C470.325 223.213 454.49 244.342 450.086 267.517C462.436 250.106 470.325 223.213 470.325 223.213Z" fill="#C886C4"/>
</g>
<path d="M444.869 268.52C444.869 268.52 417.102 250.605 432.704 217.036C459.401 238.419 444.869 268.52 444.869 268.52Z" fill="#F7C05B"/>
<g style="mix-blend-mode:multiply" opacity="0.3">
<path d="M433.744 220.779C433.744 220.779 433.882 243.493 442.922 261.657C442.327 243.307 433.744 220.779 433.744 220.779Z" fill="#C886C4"/>
</g>
<path d="M447.487 249.712L444.591 248.409C444.725 248.112 457.802 218.376 444.16 196.022L446.869 194.365C452.896 204.239 454.908 216.951 452.691 231.126C451.72 237.51 449.972 243.751 447.487 249.712Z" fill="#F7C05B"/>
<path d="M448.006 251.078L443.227 248.927L443.649 247.985C443.781 247.691 456.624 218.431 443.281 196.564L442.742 195.681L447.217 192.95L447.755 193.833C453.911 203.919 455.972 216.872 453.716 231.292C452.73 237.765 450.956 244.094 448.432 250.136L448.006 251.078ZM445.932 247.878L446.945 248.338C449.16 242.745 450.744 236.922 451.667 230.977C453.785 217.469 451.998 205.336 446.511 195.807L445.567 196.383C457.322 216.809 448.037 242.627 445.928 247.879L445.932 247.878Z" fill="#F7C05B"/>
<path d="M449.848 204.922C439.519 208.184 426.555 198.424 428.615 183.766C433.807 185.079 438.217 185.808 438.217 185.808L443.345 174.995L451.549 183.417L459.282 174.61C459.282 174.61 466.757 199.582 449.848 204.922Z" fill="#DE5FA1"/>
<path d="M451.277 288.461L426.794 281.716L428.311 255.792L463.251 265.418L451.277 288.461Z" fill="#4D1D5A"/>
<path d="M469.065 259.537L426.762 247.883L423.808 258.604L466.112 270.258L469.065 259.537Z" fill="#4D1D5A"/>
<path d="M445.021 289.314C445.021 289.314 439.069 252.684 399.309 261.913C413.826 297.169 445.021 289.314 445.021 289.314Z" fill="#DE5FA1"/>
<g style="mix-blend-mode:multiply" opacity="0.3">
<path d="M441.22 284.404C441.22 284.404 431.812 270.437 407.179 265.026C425.552 281.073 441.22 284.404 441.22 284.404Z" fill="#4386C4"/>
</g>
<path d="M439.927 294.15C439.927 294.15 467.002 278.675 448.029 250.102C424.555 271.913 439.927 294.15 439.927 294.15Z" fill="#DE5FA1"/>
<g style="mix-blend-mode:multiply" opacity="0.3">
<path d="M442.67 289.712C442.67 289.712 450.891 278.194 447.892 257.212C440.678 276.397 442.67 289.712 442.67 289.712Z" fill="#4386C4"/>
</g>
<path d="M470.125 249.148C464.609 258.001 455.69 257.942 458.394 270.588C460.001 278.102 441.154 304.388 441.154 304.388L483.459 315.393C485.532 309.709 486.608 303.71 486.638 297.66C486.638 288.878 493.883 281.33 496.371 273.784C505.806 245.155 487.027 222.024 470.125 249.148Z" fill="#4386C4"/>
<path d="M487.682 243.876C495.029 246.454 485.081 289.432 474.665 294.172C464.248 298.913 443.022 295.102 443.022 295.102C443.022 295.102 433.801 299.997 430.11 295.146C426.362 290.219 434.456 284.759 434.345 284.574C434.233 284.389 461.031 280.823 464.465 279.201C467.898 277.579 475.017 239.432 487.682 243.876Z" fill="#FBAF9D"/>
<path d="M441.917 326.038C441.917 326.038 446.955 360.336 485.189 410.26L498.335 401.528C498.335 401.528 470.834 358.234 471.488 323.455" fill="#43174F"/>
<path d="M441.154 304.387C441.154 304.387 388.289 347.836 423.545 417.226L439.055 416.029C439.055 416.029 426.681 363.643 443.26 346.531C453.836 335.613 471.212 339.308 483.458 315.389L441.154 304.387Z" fill="#4D1D5A"/>
<path d="M439.055 416.032L441.154 425.017C441.154 425.017 413.81 428.942 412.933 427.846C412.055 426.75 423.546 417.227 423.546 417.227L439.055 416.032Z" fill="#4386C4"/>
<path d="M485.186 410.256C485.186 410.256 479.535 419.324 480.831 421.075C482.127 422.827 503.368 409.031 503.368 409.031L498.332 401.524" fill="#4386C4"/>
<path d="M487.788 214.511C487.698 214.762 487.682 215.035 487.741 215.295C487.8 215.556 487.933 215.795 488.123 215.983C488.313 216.171 488.553 216.301 488.814 216.357C489.076 216.413 489.348 216.394 489.599 216.301C489.849 216.208 490.068 216.045 490.23 215.832C490.391 215.618 490.488 215.363 490.51 215.097C490.531 214.83 490.476 214.563 490.351 214.327C490.226 214.091 490.035 213.895 489.803 213.763C489.436 213.598 489.019 213.584 488.642 213.724C488.265 213.864 487.959 214.146 487.788 214.511Z" fill="#4D1D5A"/>
<path d="M480.408 212.469C480.318 212.72 480.302 212.993 480.361 213.253C480.42 213.514 480.553 213.752 480.743 213.94C480.933 214.128 481.173 214.258 481.434 214.314C481.696 214.371 481.968 214.351 482.219 214.258C482.469 214.165 482.688 214.003 482.85 213.789C483.011 213.576 483.108 213.322 483.13 213.055C483.151 212.789 483.096 212.521 482.971 212.285C482.846 212.049 482.656 211.853 482.424 211.721C482.057 211.556 481.64 211.542 481.263 211.682C480.886 211.822 480.579 212.104 480.408 212.469Z" fill="#4D1D5A"/>
<path d="M493.004 212.85L489.104 210.64C489.104 210.64 491.704 208.931 493.004 212.85Z" fill="#4D1D5A"/>
<path d="M483.374 209.17L479.839 208.968C480.032 208.663 480.303 208.415 480.624 208.25C480.946 208.085 481.305 208.008 481.666 208.029C482.027 208.049 482.375 208.166 482.675 208.367C482.976 208.567 483.217 208.845 483.374 209.17Z" fill="#4D1D5A"/>
<path d="M487.299 220.781C487.299 220.781 482.192 220.32 479.657 219.844C479.856 220.655 480.298 221.387 480.922 221.942C481.547 222.496 482.326 222.847 483.155 222.949C483.984 223.051 484.825 222.898 485.565 222.51C486.305 222.123 486.91 221.52 487.299 220.781Z" fill="white"/>
<path d="M488.564 219.1C488.343 219.489 488.243 219.935 488.276 220.381C488.308 220.827 488.472 221.253 488.747 221.606C489.022 221.959 489.395 222.222 489.82 222.362C490.244 222.503 490.701 222.515 491.132 222.396C491.563 222.277 491.949 222.033 492.242 221.694C492.534 221.356 492.72 220.938 492.775 220.495C492.83 220.051 492.752 219.601 492.551 219.201C492.351 218.802 492.036 218.47 491.647 218.25C491.389 218.103 491.104 218.008 490.809 217.972C490.515 217.935 490.216 217.957 489.929 218.036C489.643 218.115 489.375 218.249 489.141 218.432C488.906 218.615 488.71 218.842 488.564 219.1Z" fill="#FB80B3"/>
<path d="M479.361 218.156C479.132 218.562 478.782 218.887 478.36 219.085C477.937 219.283 477.464 219.344 477.005 219.261C477.268 217.781 477.662 216.328 478.182 214.918C478.298 214.959 478.409 215.011 478.514 215.072C478.773 215.219 479 215.415 479.182 215.649C479.365 215.883 479.5 216.151 479.578 216.438C479.657 216.724 479.678 217.024 479.641 217.319C479.604 217.613 479.509 217.898 479.361 218.156Z" fill="#FB80B3"/>
<path d="M486.328 213.153L485.023 219.513C485.023 219.513 481.156 219.596 481.012 217.7C480.869 215.803 484.082 216.333 484.082 216.333C484.082 216.333 484.436 212.316 486.328 213.153Z" fill="#FB8076"/>
</svg>
