<svg width="162" height="161" viewBox="0 0 162 161" fill="none" xmlns="http://www.w3.org/2000/svg">
<path d="M80.5625 158.005C110.662 158.005 135.062 134.052 135.062 104.505C135.062 74.9575 110.662 51.0048 80.5625 51.0048C50.463 51.0048 26.0625 74.9575 26.0625 104.505C26.0625 134.052 50.463 158.005 80.5625 158.005Z" fill="#57B7EB"/>
<path d="M99.3473 136.855C90.257 136.87 81.3124 134.572 73.3553 130.176C65.3982 125.781 58.6904 119.433 53.8632 111.73C49.0361 104.028 46.2483 95.2232 45.7623 86.1459C45.2763 77.0686 47.1081 68.0169 51.0853 59.8428C44.1718 64.3772 38.3999 70.4483 34.2204 77.582C30.0408 84.7158 27.5668 92.719 26.9914 100.967C26.416 109.215 27.7548 117.484 30.9034 125.129C34.0519 132.774 38.9249 139.588 45.1419 145.038C51.3588 150.488 58.7515 154.428 66.7427 156.549C74.7338 158.671 83.1071 158.916 91.2088 157.267C99.3105 155.617 106.921 152.117 113.447 147.041C119.973 141.964 125.236 135.447 128.827 128C120.083 133.781 109.83 136.861 99.3473 136.855Z" fill="#4891D3"/>
<path d="M69.6943 157.222C73.2711 157.956 76.9131 158.324 80.5643 158.322C82.3753 158.322 84.1643 158.222 85.9313 158.054V142.222L75.1983 147.589L69.6943 157.222Z" fill="#A1D51C"/>
<path d="M108.105 58.6548C101.322 54.5713 93.7176 52.0439 85.8398 51.2548C77.962 50.4656 70.0073 51.4344 62.5493 54.0914C55.0912 56.7483 48.3157 61.0271 42.7113 66.6193C37.1068 72.2114 32.8132 78.9776 30.1399 86.4298L40.3149 96.6048L37.6319 104.655V115.388H28.0039C29.6985 123.628 33.3038 131.355 38.5297 137.947C43.7556 144.539 50.4561 149.812 58.0919 153.342L72.5179 136.855L53.7319 128.805L77.8819 115.388L59.0989 107.338L51.0489 91.2378L59.0989 80.5048L80.5649 91.2378L88.6149 80.5048L110.082 75.1378L108.105 58.6548Z" fill="#C4F236"/>
<path d="M134.232 104.655C134.229 96.2243 132.229 87.9144 128.396 80.4058L96.6647 110.022L107.398 120.755L93.9727 156.567C105.488 153.6 115.691 146.892 122.979 137.495C130.266 128.098 134.225 116.546 134.232 104.655Z" fill="#C4F236"/>
<path d="M72.5141 136.856L58.0771 153.331C50.4465 149.798 43.7505 144.525 38.5266 137.936C33.3026 131.346 29.6963 123.624 27.9971 115.389H37.6301V104.655L40.3131 96.6048L30.1431 86.4348C34.0665 75.5962 41.3655 66.3033 50.9661 59.9238C45.9226 70.4336 44.4361 82.2992 46.731 93.7283C49.0259 105.158 54.9775 115.53 63.6871 123.278L53.7321 128.806L72.5141 136.856Z" fill="#A1D51C"/>
<path d="M128.865 127.974C125.472 134.986 120.595 141.176 114.571 146.115C108.548 151.054 101.522 154.624 93.9814 156.578L101.387 136.802C111.187 136.459 120.699 133.402 128.865 127.974Z" fill="#A1D51C"/>
<path opacity="0.34" d="M158.381 48.3049C158.377 45.9645 157.606 43.6898 156.186 41.8295C154.766 39.9691 152.775 38.6256 150.519 38.0049C151.683 36.8968 152.489 35.465 152.831 33.8944C153.173 32.3238 153.036 30.6868 152.437 29.1949C151.839 27.703 150.807 26.4248 149.475 25.5256C148.143 24.6264 146.571 24.1475 144.964 24.1509C144.838 24.1509 144.72 24.1829 144.596 24.1889C144.317 23.0684 143.858 22.0008 143.236 21.0279C144.442 19.4959 145.047 17.5766 144.939 15.63C144.831 13.6834 144.016 11.8431 142.647 10.4544C141.279 9.06567 139.451 8.22382 137.506 8.08675C135.561 7.94968 133.633 8.52679 132.084 9.70987C131.091 8.36558 129.798 7.27277 128.306 6.51921C126.815 5.76564 125.168 5.37233 123.497 5.37087C122.849 5.3777 122.204 5.44229 121.568 5.56387C120.877 4.73069 120.023 4.0474 119.058 3.55587C118.094 3.06434 117.039 2.77493 115.959 2.70537C114.879 2.6358 113.796 2.78755 112.776 3.15132C111.757 3.51509 110.822 4.08321 110.03 4.82087C106.457 3.41328 102.651 2.68973 98.8108 2.68787H89.7998C89.0103 2.68867 88.2222 2.75557 87.4438 2.88787L82.2598 3.76487C80.2198 4.10523 78.2778 4.88355 76.5674 6.04628C74.857 7.209 73.4189 8.72851 72.3519 10.5002C71.285 12.272 70.6146 14.2538 70.3868 16.3094C70.1591 18.365 70.3795 20.4456 71.0328 22.4079L72.5138 26.8379H77.8808L81.7988 19.0029C82.2341 18.1316 82.9034 17.3987 83.7318 16.8865C84.5602 16.3743 85.5149 16.1029 86.4888 16.1029H89.1238C89.8124 16.1027 90.4943 16.2382 91.1305 16.5015C91.7667 16.7649 92.3448 17.151 92.8318 17.6379L97.0558 21.8619C97.7446 22.5508 98.6116 23.0343 99.5597 23.2583C100.508 23.4823 101.5 23.4378 102.424 23.1299C103.496 22.7755 104.654 22.7776 105.725 23.1359C106.796 23.4942 107.722 24.1895 108.365 25.1179C107.502 26.9606 107.187 29.012 107.456 31.0286C107.725 33.0453 108.567 34.9424 109.881 36.4949C111.196 38.0473 112.929 39.1898 114.874 39.7868C116.819 40.3838 118.894 40.4102 120.854 39.8629C120.854 39.9939 120.814 40.1309 120.814 40.2549C120.818 42.1888 121.52 44.0562 122.791 45.5138C124.062 46.9713 125.816 47.9209 127.732 48.1879C126.591 50.0302 126.04 52.1774 126.155 54.3415C126.269 56.5055 127.042 58.5829 128.371 60.2948C129.7 62.0067 131.52 63.2713 133.588 63.9189C135.656 64.5665 137.873 64.5661 139.941 63.9179C140.256 65.0595 140.82 66.1171 141.593 67.015C142.365 67.9128 143.327 68.6285 144.409 69.1109C145.49 69.5932 146.665 69.8301 147.849 69.8047C149.034 69.7792 150.197 69.492 151.257 68.9637C152.317 68.4353 153.247 67.6789 153.98 66.7487C154.714 65.8185 155.232 64.7376 155.498 63.5835C155.764 62.4294 155.771 61.2307 155.519 60.0734C155.267 58.9161 154.763 57.829 154.041 56.8899C155.385 55.8972 156.477 54.6033 157.231 53.112C157.984 51.6208 158.378 49.9737 158.38 48.3029L158.381 48.3049Z" fill="#93999A"/>
<path opacity="0.34" d="M147.991 55.8689C146.211 56.4499 144.3 56.4955 142.494 55.9999C140.689 55.5042 139.069 54.4892 137.835 53.0809C136.738 52.1367 135.851 50.9731 135.23 49.6652C134.61 48.3572 134.271 46.9339 134.235 45.4869C134.269 43.5983 134.804 41.7527 135.786 40.1389C133.87 39.8718 132.115 38.922 130.844 37.464C129.573 36.0061 128.871 34.1381 128.868 32.2039C128.868 32.0699 128.9 31.9359 128.908 31.8119C125.994 32.5789 122.782 32.5849 118.588 28.3849C117.579 27.4372 116.779 26.2897 116.239 25.0155C115.699 23.7414 115.431 22.3686 115.451 20.9849C115.517 19.6284 115.841 18.297 116.406 17.0619C115.752 16.117 114.806 15.4139 113.713 15.0612C112.619 14.7085 111.44 14.726 110.358 15.1109C109.448 15.41 108.472 15.4468 107.541 15.2169C106.611 14.9869 105.765 14.4997 105.099 13.8109C103.848 12.5571 102.992 10.9638 102.637 9.22851C102.283 7.49318 102.445 5.69195 103.104 4.04787L103.493 3.07887C101.944 2.82862 100.379 2.6979 98.8108 2.68787H89.7998C89.0103 2.68867 88.2222 2.75557 87.4438 2.88787L82.2598 3.76487C80.2198 4.10523 78.2778 4.88355 76.5674 6.04628C74.857 7.209 73.4189 8.72851 72.3519 10.5002C71.285 12.272 70.6146 14.2538 70.3868 16.3094C70.1591 18.365 70.3795 20.4456 71.0328 22.4079L72.5138 26.8379H77.8808L81.7988 19.0029C82.2341 18.1316 82.9034 17.3987 83.7318 16.8865C84.5602 16.3743 85.5149 16.1029 86.4888 16.1029H89.1238C89.8124 16.1027 90.4943 16.2382 91.1305 16.5015C91.7667 16.7649 92.3448 17.151 92.8318 17.6379L97.0558 21.8619C97.7446 22.5508 98.6116 23.0343 99.5597 23.2583C100.508 23.4823 101.5 23.4378 102.424 23.1299C103.496 22.7755 104.654 22.7776 105.725 23.1359C106.796 23.4942 107.722 24.1895 108.365 25.1179C107.502 26.9606 107.187 29.012 107.456 31.0286C107.725 33.0453 108.567 34.9424 109.881 36.4949C111.196 38.0473 112.929 39.1898 114.874 39.7868C116.819 40.3838 118.894 40.4102 120.854 39.8629C120.854 39.9939 120.814 40.1309 120.814 40.2549C120.818 42.1888 121.52 44.0562 122.791 45.5138C124.062 46.9713 125.816 47.9209 127.732 48.1879C126.591 50.0302 126.04 52.1774 126.155 54.3415C126.269 56.5055 127.042 58.5829 128.371 60.2948C129.7 62.0067 131.52 63.2713 133.588 63.9189C135.656 64.5665 137.873 64.5661 139.941 63.9179C140.467 65.786 141.653 67.4003 143.277 68.4618C144.902 69.5234 146.857 69.9604 148.779 69.692C150.701 69.4236 152.461 68.468 153.733 67.002C155.005 65.536 155.703 63.6588 155.698 61.7179C153.951 61.7155 152.253 61.1426 150.861 60.0862C149.47 59.0299 148.462 57.5479 147.991 55.8659V55.8689Z" fill="#656B76"/>
<path opacity="0.2" d="M53.0012 4.54382C51.8538 4.28046 50.6638 4.26088 49.5083 4.48637C48.3528 4.71185 47.2575 5.17738 46.2932 5.85282L45.0852 6.65782C44.5116 7.08238 43.8222 7.32214 43.1089 7.34519C42.3955 7.36823 41.6921 7.17347 41.0922 6.78682L38.1672 4.83382C37.753 4.56918 37.2874 4.3951 36.8011 4.323C36.3149 4.2509 35.8188 4.2824 35.3456 4.41544C34.8723 4.54849 34.4325 4.78006 34.0551 5.09499C33.6776 5.40992 33.3709 5.80108 33.1552 6.24282C32.8635 6.7879 32.4299 7.24398 31.9002 7.56278C31.3705 7.88158 30.7645 8.05125 30.1462 8.05382H28.9532C26.2403 7.95636 23.5876 7.22702 21.2062 5.92382C20.4732 5.55862 19.6652 5.36928 18.8462 5.37082C17.4228 5.37082 16.0577 5.93627 15.0512 6.94278C14.0447 7.94929 13.4792 9.31441 13.4792 10.7378C12.5158 10.7398 11.5706 11.0011 10.7429 11.4943C9.91517 11.9875 9.23551 12.6944 8.77521 13.5408C8.31492 14.3872 8.09097 15.342 8.12687 16.3048C8.16277 17.2676 8.4572 18.203 8.97925 19.0128C7.43247 19.3664 6.02531 20.1708 4.93577 21.3242C3.84623 22.4777 3.12326 23.9284 2.85831 25.4928C2.59337 27.0572 2.79835 28.665 3.44734 30.1129C4.09632 31.5608 5.16015 32.7836 6.50425 33.6268C5.8012 34.8225 5.43048 36.1843 5.43048 37.5713C5.43048 38.9584 5.8012 40.3202 6.50425 41.5158C5.1806 42.3442 4.12806 43.5416 3.47619 44.9605C2.82433 46.3795 2.60158 47.9581 2.83538 49.502C3.06918 51.0459 3.74931 52.4877 4.79206 53.6501C5.83481 54.8124 7.19467 55.6445 8.70425 56.0438C8.08806 57.551 7.94944 59.211 8.30712 60.7994C8.6648 62.3879 9.50154 63.8283 10.7042 64.9258C9.25538 65.4517 7.98928 66.3849 7.0582 67.6133C6.12712 68.8416 5.57071 70.3128 5.45588 71.8499C5.34106 73.3869 5.67271 74.9244 6.41095 76.2775C7.1492 77.6305 8.26259 78.7415 9.61725 79.4768C8.88637 80.235 8.39469 81.1915 8.20347 82.2271C8.01224 83.2627 8.12991 84.3317 8.54183 85.3009C8.95374 86.2701 9.64169 87.0967 10.52 87.6778C11.3983 88.2588 12.4281 88.5686 13.4812 88.5686C14.5344 88.5686 15.5642 88.2588 16.4425 87.6778C17.3208 87.0967 18.0088 86.2701 18.4207 85.3009C18.8326 84.3317 18.9502 83.2627 18.759 82.2271C18.5678 81.1915 18.0761 80.235 17.3452 79.4768C18.6085 78.7892 19.6635 77.7745 20.4 76.5391C21.1364 75.3037 21.5272 73.8931 21.5312 72.4548C21.5183 72.1916 21.4916 71.9293 21.4512 71.6688C22.0594 72.0438 22.7373 72.2913 23.444 72.3965C24.1506 72.5017 24.8713 72.4624 25.5622 72.2808C26.3937 72.0653 27.1612 71.6533 27.8004 71.0795C28.4396 70.5057 28.9317 69.7869 29.2355 68.9835C29.5392 68.1801 29.6457 67.3155 29.5459 66.4624C29.4462 65.6092 29.1431 64.7925 28.6622 64.0808C29.4301 63.8185 30.1278 63.3842 30.7023 62.8111C31.2767 62.238 31.7125 61.5412 31.9766 60.774C32.2406 60.0067 32.3259 59.1893 32.2258 58.3841C32.1258 57.5788 31.843 56.8071 31.3992 56.1278C33.1448 55.7271 34.706 54.7534 35.8338 53.3621C36.9616 51.9708 37.5911 50.2419 37.622 48.4512C37.6528 46.6604 37.0832 44.9109 36.004 43.4816C34.9247 42.0523 33.398 41.0254 31.6672 40.5648C32.0576 39.6142 32.2613 38.5974 32.2672 37.5698C34.1322 37.5629 35.937 36.9086 37.3731 35.7188C38.8093 34.5289 39.7877 32.8773 40.1413 31.0461C40.4949 29.215 40.2017 27.3178 39.3118 25.6788C38.422 24.0398 36.9906 22.7606 35.2622 22.0598C35.1844 21.5278 35.2967 20.9853 35.5792 20.5278L38.1042 16.7418C38.328 16.406 38.6355 16.1345 38.9965 15.9542C39.3575 15.7738 39.7593 15.6909 40.1621 15.7137C40.565 15.7364 40.9549 15.864 41.2933 16.0838C41.6316 16.3036 41.9067 16.608 42.0912 16.9668C42.2988 17.4575 42.6782 17.8555 43.1584 18.0862C43.6386 18.317 44.1865 18.3645 44.6992 18.2198L46.7682 17.5298C47.1671 17.3529 47.6072 17.2901 48.0397 17.3483C48.4721 17.4066 48.8799 17.5837 49.2178 17.8598C49.5556 18.136 49.8102 18.5005 49.9533 18.9127C50.0964 19.3249 50.1223 19.7687 50.0282 20.1948L48.3672 26.8358H56.4172L58.1932 19.7358C58.7949 17.325 59.0995 14.8496 59.1002 12.3648C59.0984 10.5686 58.4974 8.82432 57.3926 7.4081C56.2877 5.99188 54.742 4.98464 53.0002 4.54582L53.0012 4.54382Z" fill="#93999A"/>
<path d="M96.6643 67.0888H48.3643V45.6218H85.9313L96.6643 56.3548V67.0888Z" fill="#F9E109"/>
<path d="M59.0635 24.0049H49.0635V46.0049H59.0635V24.0049Z" fill="#57B7EB"/>
<path d="M81.0635 24.0049H70.0635V46.0049H81.0635V24.0049Z" fill="#57B7EB"/>
<path opacity="0.22" d="M48.3641 128.806C47.5996 128.808 46.8444 128.974 46.1499 129.294C45.4554 129.613 44.8378 130.078 44.3391 130.658C43.8404 130.078 43.2229 129.613 42.5283 129.294C41.8338 128.974 41.0786 128.808 40.3141 128.806C40.1501 128.806 39.9951 128.841 39.8361 128.854C39.2938 127.276 38.2729 125.906 36.9158 124.936C35.5586 123.965 33.9326 123.442 32.2641 123.439C32.2641 121.304 31.416 119.256 29.9063 117.747C28.3967 116.237 26.3491 115.389 24.2141 115.389C22.0791 115.389 20.0316 116.237 18.5219 117.747C17.0122 119.256 16.1641 121.304 16.1641 123.439C14.9727 123.439 13.796 123.703 12.719 124.212C11.642 124.722 10.6915 125.464 9.93611 126.385C9.18072 127.306 8.63927 128.384 8.35081 129.54C8.06236 130.696 8.03411 131.902 8.26809 133.07C8.50206 134.238 8.99244 135.34 9.70384 136.296C10.4152 137.251 11.3299 138.037 12.3819 138.597C13.4338 139.156 14.5968 139.475 15.787 139.53C16.9771 139.586 18.1647 139.376 19.2641 138.917C19.6718 139.895 20.3598 140.73 21.2413 141.317C22.1227 141.905 23.1583 142.218 24.2176 142.218C25.2769 142.218 26.3125 141.905 27.194 141.317C28.0755 140.73 28.7634 139.895 29.1711 138.917C30.4 139.431 31.7374 139.632 33.063 139.501C34.3886 139.369 35.6608 138.911 36.7651 138.166C37.2892 138.641 37.9033 139.007 38.5711 139.241C39.2389 139.474 39.9467 139.572 40.6529 139.527C41.359 139.483 42.0491 139.297 42.6822 138.982C43.3154 138.666 43.8788 138.226 44.3391 137.689C44.9286 138.369 45.6797 138.89 46.5233 139.204C47.367 139.518 48.2759 139.614 49.1667 139.485C50.0574 139.356 50.9013 139.004 51.6207 138.463C52.34 137.922 52.9118 137.209 53.2833 136.389C53.6548 135.569 53.8142 134.669 53.7467 133.772C53.6793 132.874 53.3872 132.008 52.8973 131.253C52.4074 130.498 51.7354 129.878 50.9433 129.45C50.1511 129.023 49.2642 128.802 48.3641 128.807V128.806Z" fill="#93999A"/>
<path d="M8.06348 110.005C10.8249 110.005 13.0635 107.542 13.0635 104.505C13.0635 101.467 10.8249 99.0049 8.06348 99.0049C5.30205 99.0049 3.06348 101.467 3.06348 104.505C3.06348 107.542 5.30205 110.005 8.06348 110.005Z" fill="#93999A"/>
<path opacity="0.17" d="M142.281 88.5549C142.045 88.5625 141.809 88.5865 141.575 88.6269C141.114 87.794 140.439 87.0995 139.62 86.615C138.8 86.1304 137.866 85.8736 136.914 85.8709C136.75 85.8709 136.595 85.9059 136.436 85.9189C135.873 84.2681 134.787 82.8461 133.343 81.8686C131.898 80.8911 130.174 80.4115 128.432 80.5025C126.69 80.5936 125.026 81.2503 123.691 82.3731C122.356 83.4959 121.424 85.0234 121.036 86.7239C120.357 86.2801 119.585 85.9974 118.78 85.8973C117.975 85.7972 117.158 85.8825 116.39 86.1465C115.623 86.4106 114.926 86.8465 114.353 87.4209C113.78 87.9953 113.346 88.693 113.083 89.4609C112.388 88.9947 111.592 88.6979 110.761 88.5942C109.93 88.4905 109.086 88.5827 108.297 88.8635C107.508 89.1444 106.796 89.606 106.217 90.2114C105.638 90.8169 105.209 91.5494 104.964 92.3503C104.719 93.1513 104.665 93.9984 104.806 94.824C104.947 95.6496 105.28 96.4307 105.777 97.1049C106.274 97.779 106.922 98.3275 107.669 98.7063C108.416 99.0852 109.241 99.284 110.078 99.2869C110.309 99.2652 110.537 99.2285 110.762 99.1769C111.219 100.021 111.894 100.726 112.718 101.217C113.543 101.708 114.484 101.968 115.443 101.968C116.403 101.968 117.344 101.708 118.168 101.217C118.992 100.726 119.668 100.021 120.124 99.1769C120.351 99.2298 120.58 99.2666 120.811 99.2869C120.969 99.2712 121.126 99.2471 121.281 99.2149C121.739 100.577 122.556 101.79 123.646 102.727C124.736 103.663 126.059 104.288 127.474 104.536C128.89 104.783 130.346 104.644 131.689 104.132C133.032 103.621 134.212 102.757 135.104 101.631C136.298 102.079 137.614 102.079 138.807 101.629C140.001 101.179 140.99 100.311 141.59 99.1859C141.818 99.2357 142.05 99.2691 142.282 99.2859C142.993 99.2956 143.699 99.1639 144.359 98.8986C145.018 98.6333 145.619 98.2395 146.125 97.7402C146.631 97.2409 147.033 96.6461 147.307 95.9901C147.581 95.3342 147.723 94.6303 147.723 93.9194C147.723 93.2084 147.581 92.5045 147.307 91.8486C147.033 91.1927 146.631 90.5978 146.125 90.0985C145.619 89.5992 145.018 89.2055 144.359 88.9401C143.699 88.6748 142.993 88.5432 142.282 88.5529L142.281 88.5549Z" fill="#93999A"/>
<path opacity="0.39" d="M153.015 126.122C152.071 126.128 151.145 126.384 150.332 126.865C149.663 126.46 148.911 126.213 148.132 126.142C147.353 126.072 146.568 126.179 145.837 126.457C144.901 125.255 143.634 124.352 142.192 123.86C140.75 123.367 139.196 123.307 137.72 123.686C136.932 122.724 135.93 121.959 134.794 121.453C133.658 120.946 132.419 120.711 131.177 120.767C129.934 120.822 128.722 121.167 127.636 121.773C126.55 122.379 125.62 123.23 124.92 124.258C122.499 123.25 119.791 123.171 117.315 124.037C114.839 124.902 112.769 126.651 111.503 128.948C111.034 128.859 110.558 128.811 110.081 128.806C108.095 128.811 106.181 129.556 104.714 130.896C103.563 129.848 102.132 129.158 100.596 128.909C99.0591 128.661 97.4834 128.865 96.0609 129.497C94.6385 130.129 93.4307 131.161 92.585 132.468C91.7392 133.775 91.2921 135.299 91.2982 136.856C90.3265 136.855 89.373 137.119 88.5392 137.618C87.7055 138.117 87.0229 138.833 86.5642 139.69C86.1056 140.546 85.8881 141.511 85.935 142.482C85.9818 143.452 86.2913 144.392 86.8304 145.2C87.3694 146.009 88.1179 146.656 88.9958 147.072C89.8738 147.488 90.8483 147.659 91.8154 147.565C92.7825 147.471 93.7059 147.116 94.4871 146.538C95.2684 145.96 95.8781 145.181 96.2512 144.284C97.6546 144.874 99.1977 145.049 100.698 144.789C102.198 144.529 103.592 143.844 104.714 142.816C106.181 144.155 108.095 144.901 110.081 144.906C110.084 146.045 110.449 147.153 111.124 148.071C111.798 148.988 112.747 149.668 113.833 150.01C114.919 150.353 116.086 150.341 117.165 149.977C118.244 149.613 119.179 148.915 119.835 147.984C121.08 149.943 122.928 151.446 125.1 152.265C127.272 153.084 129.652 153.176 131.88 152.526C134.109 151.876 136.067 150.52 137.459 148.662C138.85 146.804 139.601 144.544 139.598 142.223C139.591 141.575 139.527 140.93 139.405 140.294C139.705 140.045 139.986 139.776 140.248 139.489H140.304C140.88 140.529 141.787 141.347 142.88 141.815C143.973 142.282 145.191 142.372 146.341 142.07C147.491 141.768 148.507 141.091 149.23 140.147C149.952 139.203 150.339 138.045 150.33 136.856C150.324 136.619 150.3 136.383 150.258 136.15L150.338 136.107C151.147 136.591 152.071 136.849 153.013 136.856C153.724 136.866 154.43 136.734 155.089 136.469C155.749 136.203 156.349 135.809 156.856 135.31C157.362 134.811 157.764 134.216 158.038 133.56C158.312 132.904 158.453 132.2 158.453 131.489C158.453 130.778 158.312 130.074 158.038 129.419C157.764 128.763 157.362 128.168 156.856 127.668C156.349 127.169 155.749 126.775 155.089 126.51C154.43 126.245 153.724 126.113 153.013 126.123L153.015 126.122Z" fill="#93999A"/>
<path opacity="0.17" d="M145.796 89.8969C144.827 90.7573 143.577 91.2345 142.281 91.2388C142.049 91.2221 141.817 91.1887 141.589 91.1389C140.989 92.2643 140 93.1331 138.807 93.5835C137.614 94.0339 136.298 94.0351 135.103 93.5868C134.211 94.7119 133.031 95.5753 131.688 96.0859C130.346 96.5966 128.891 96.7356 127.476 96.4884C126.061 96.2411 124.739 95.6167 123.649 94.6811C122.56 93.7454 121.743 92.533 121.284 91.1719C121.129 91.2024 120.972 91.2248 120.814 91.2388C120.583 91.2219 120.354 91.1885 120.127 91.1389C119.671 91.9828 118.995 92.6878 118.171 93.1791C117.347 93.6704 116.406 93.9298 115.446 93.9298C114.487 93.9298 113.546 93.6704 112.722 93.1791C111.897 92.6878 111.222 91.9828 110.765 91.1389C110.54 91.1871 110.311 91.2205 110.081 91.2388C108.785 91.2348 107.535 90.7575 106.565 89.8969C105.738 90.6106 105.149 91.5608 104.879 92.6193C104.608 93.6779 104.668 94.794 105.051 95.8174C105.434 96.8407 106.121 97.7221 107.021 98.3428C107.92 98.9635 108.988 99.2937 110.08 99.2888C110.311 99.2672 110.539 99.2305 110.764 99.1789C111.221 100.023 111.896 100.728 112.721 101.219C113.545 101.71 114.486 101.97 115.445 101.97C116.405 101.97 117.346 101.71 118.17 101.219C118.994 100.728 119.67 100.023 120.126 99.1789C120.353 99.2318 120.582 99.2686 120.813 99.2888C120.971 99.2731 121.128 99.2491 121.283 99.2169C121.742 100.578 122.559 101.791 123.649 102.726C124.738 103.662 126.061 104.287 127.476 104.534C128.891 104.781 130.346 104.642 131.689 104.131C133.031 103.62 134.211 102.756 135.103 101.631C136.297 102.079 137.613 102.079 138.806 101.629C140 101.179 140.989 100.311 141.589 99.1859C141.817 99.2357 142.049 99.2691 142.281 99.2859C143.373 99.2899 144.44 98.9595 145.339 98.3389C146.237 97.7184 146.924 96.8375 147.307 95.8149C147.69 94.7922 147.75 93.6769 147.48 92.6188C147.21 91.5608 146.623 90.6109 145.796 89.8969Z" fill="#656B76"/>
<path opacity="0.47" d="M131.547 144.905C129.746 144.903 127.974 144.446 126.396 143.577C124.819 142.708 123.486 141.454 122.521 139.933C121.865 140.864 120.93 141.562 119.851 141.926C118.772 142.29 117.605 142.302 116.519 141.959C115.433 141.617 114.484 140.937 113.81 140.02C113.135 139.102 112.77 137.994 112.767 136.855C110.781 136.85 108.867 136.104 107.4 134.765C106.278 135.793 104.884 136.478 103.384 136.738C101.884 136.998 100.341 136.823 98.9373 136.233C98.5644 137.125 97.9573 137.9 97.1802 138.476C96.4032 139.051 95.485 139.406 94.5228 139.503C93.5606 139.6 92.5902 139.435 91.714 139.026C90.8378 138.616 90.0885 137.978 89.5453 137.178C88.6957 137.469 87.9326 137.968 87.3261 138.631C86.7195 139.293 86.2888 140.097 86.0735 140.969C85.8582 141.841 85.8651 142.753 86.0936 143.621C86.3222 144.49 86.765 145.287 87.3815 145.94C87.998 146.593 88.7686 147.081 89.6225 147.359C90.4765 147.637 91.3865 147.696 92.2694 147.531C93.1522 147.366 93.9795 146.983 94.6755 146.415C95.3716 145.848 95.9141 145.114 96.2533 144.283C97.6567 144.873 99.1998 145.048 100.7 144.788C102.2 144.528 103.594 143.843 104.716 142.815C106.183 144.154 108.097 144.9 110.083 144.905C110.086 146.044 110.451 147.152 111.126 148.07C111.8 148.987 112.749 149.667 113.835 150.009C114.921 150.352 116.088 150.34 117.167 149.976C118.246 149.612 119.181 148.914 119.837 147.983C121.082 149.942 122.93 151.445 125.102 152.264C127.274 153.083 129.654 153.175 131.883 152.525C134.111 151.875 136.069 150.519 137.461 148.661C138.853 146.803 139.603 144.543 139.6 142.222C139.6 141.911 139.538 141.622 139.509 141.315C138.511 142.441 137.285 143.343 135.913 143.962C134.54 144.581 133.053 144.902 131.547 144.905Z" fill="#656B76"/>
<path d="M157 128.609C156.316 129.878 155.379 130.995 154.248 131.889C153.117 132.784 151.815 133.438 150.422 133.811C149.029 134.185 147.574 134.27 146.147 134.061C144.72 133.852 143.351 133.354 142.123 132.597C142.217 133.117 142.27 133.644 142.281 134.172C142.276 136.192 141.696 138.169 140.609 139.872C141.089 140.588 141.737 141.176 142.496 141.585C143.255 141.994 144.102 142.211 144.964 142.217C146.387 142.217 147.752 141.653 148.759 140.647C149.766 139.642 150.332 138.278 150.333 136.855C150.327 136.618 150.303 136.382 150.261 136.149L150.342 136.106C151.151 136.59 152.075 136.848 153.017 136.855C153.992 136.855 154.947 136.589 155.782 136.087C156.617 135.585 157.3 134.866 157.757 134.005C158.213 133.145 158.428 132.176 158.376 131.203C158.324 130.231 158.009 129.29 157.463 128.483C157.308 128.537 157.153 128.569 157 128.609Z" fill="#93999A"/>
<path opacity="0.47" d="M48.3643 134.172C47.5997 134.17 46.8446 134.004 46.15 133.684C45.4555 133.365 44.8379 132.899 44.3393 132.32C43.879 132.858 43.3154 133.298 42.6819 133.614C42.0484 133.931 41.3579 134.116 40.6513 134.161C39.9447 134.206 39.2363 134.108 38.5681 133.874C37.8999 133.64 37.2855 133.274 36.7613 132.798C35.6569 133.543 34.3847 134.002 33.0591 134.133C31.7335 134.264 30.3961 134.063 29.1673 133.549C28.7595 134.527 28.0716 135.362 27.1901 135.949C26.3087 136.537 25.273 136.85 24.2138 136.85C23.1545 136.85 22.1189 136.537 21.2374 135.949C20.3559 135.362 19.668 134.527 19.2603 133.549C18.2529 133.972 17.1696 134.184 16.0772 134.172C14.9847 134.161 13.9062 133.925 12.9082 133.481C11.9101 133.036 11.0137 132.392 10.2742 131.588C9.53468 130.784 8.96771 129.837 8.60826 128.805C8.29019 129.664 8.12306 130.572 8.11426 131.488C8.11466 132.813 8.44217 134.118 9.06774 135.286C9.69331 136.454 10.5976 137.45 11.7003 138.184C12.803 138.919 14.0701 139.37 15.3891 139.498C16.708 139.626 18.0381 139.426 19.2613 138.916C19.669 139.894 20.3569 140.729 21.2384 141.316C22.1199 141.904 23.1555 142.217 24.2148 142.217C25.274 142.217 26.3097 141.904 27.1911 141.316C28.0726 140.729 28.7605 139.894 29.1683 138.916C30.3971 139.43 31.7345 139.631 33.0601 139.5C34.3857 139.369 35.6579 138.91 36.7623 138.165C37.2865 138.641 37.9009 139.007 38.5691 139.241C39.2373 139.475 39.9457 139.573 40.6523 139.528C41.3589 139.483 42.0494 139.298 42.6829 138.981C43.3164 138.665 43.88 138.225 44.3403 137.687C45.2095 138.703 46.4283 139.356 47.7558 139.517C49.0833 139.678 50.4228 139.335 51.5095 138.556C52.5963 137.777 53.3512 136.618 53.625 135.309C53.8988 134 53.6716 132.636 52.9883 131.487C52.5207 132.301 51.8473 132.977 51.0357 133.448C50.2241 133.92 49.3028 134.169 48.3643 134.172Z" fill="#656B76"/>
<path d="M10.7971 107.338C9.89994 107.342 9.0162 107.12 8.2274 106.692C7.43859 106.265 6.7701 105.645 6.28355 104.891C5.797 104.138 5.50804 103.273 5.44331 102.379C5.37857 101.484 5.54015 100.587 5.91315 99.7709C5.11715 100.125 4.41921 100.667 3.87958 101.35C3.33995 102.034 2.97485 102.839 2.81581 103.695C2.65677 104.552 2.70856 105.434 2.96671 106.266C3.22486 107.098 3.68162 107.855 4.29754 108.47C4.91347 109.086 5.67005 109.543 6.50197 109.801C7.33388 110.059 8.21613 110.111 9.07254 109.952C9.92894 109.793 10.7338 109.428 11.4175 108.888C12.1013 108.349 12.6434 107.651 12.9971 106.855C12.3065 107.17 11.5565 107.335 10.7971 107.338Z" fill="#656B76"/>
<path opacity="0.2" d="M19.5182 77.7169C19.2989 77.3374 19.1308 76.9305 19.0182 76.5069C18.7877 75.6161 18.7901 74.681 19.0251 73.7914C19.2601 72.9018 19.7199 72.0875 20.3602 71.4268C19.0043 70.6916 17.8898 69.58 17.1509 68.226C16.4121 66.872 16.0805 65.3333 16.196 63.7951C16.3115 62.257 16.8692 60.785 17.8019 59.5565C18.7347 58.328 20.0027 57.3953 21.4532 56.8708C20.2505 55.7733 19.4138 54.3329 19.0561 52.7444C18.6984 51.156 18.8371 49.496 19.4532 47.9888C17.9429 47.5909 16.582 46.7599 15.538 45.5982C14.494 44.4366 13.8125 42.9949 13.5775 41.4508C13.3425 39.9067 13.5643 38.3276 14.2154 36.908C14.8666 35.4883 15.9187 34.2901 17.2422 33.4608C16.5392 32.2652 16.1685 30.9034 16.1685 29.5163C16.1685 28.1293 16.5392 26.7675 17.2422 25.5718C15.8998 24.7283 14.8375 23.5059 14.1894 22.0589C13.5413 20.6119 13.3366 19.0053 13.6012 17.4421C13.8657 15.8788 14.5875 14.4291 15.6756 13.2758C16.7636 12.1226 18.169 11.3178 19.7142 10.9628C19.1782 10.1504 18.8787 9.20501 18.849 8.23217C18.8193 7.25933 19.0607 6.2974 19.5462 5.45385C19.3151 5.40989 19.0812 5.38215 18.8462 5.37085C17.4228 5.37085 16.0577 5.9363 15.0512 6.94281C14.0447 7.94932 13.4792 9.31443 13.4792 10.7378C12.5158 10.7398 11.5706 11.0011 10.7429 11.4943C9.91517 11.9875 9.23551 12.6944 8.77521 13.5408C8.31492 14.3873 8.09097 15.342 8.12687 16.3048C8.16277 17.2676 8.4572 18.203 8.97925 19.0128C7.43247 19.3664 6.02531 20.1708 4.93577 21.3243C3.84623 22.4777 3.12326 23.9284 2.85831 25.4928C2.59337 27.0572 2.79835 28.665 3.44734 30.1129C4.09632 31.5608 5.16015 32.7837 6.50425 33.6269C5.8012 34.8225 5.43048 36.1843 5.43048 37.5714C5.43048 38.9584 5.8012 40.3202 6.50425 41.5159C5.1806 42.3443 4.12806 43.5416 3.47619 44.9606C2.82433 46.3795 2.60158 47.9581 2.83538 49.502C3.06918 51.0459 3.74931 52.4878 4.79206 53.6501C5.83481 54.8124 7.19467 55.6445 8.70425 56.0438C8.08806 57.551 7.94944 59.211 8.30712 60.7994C8.6648 62.3879 9.50154 63.8283 10.7042 64.9258C9.25538 65.4517 7.98928 66.3849 7.0582 67.6133C6.12712 68.8416 5.57071 70.3128 5.45588 71.8499C5.34106 73.3869 5.67271 74.9245 6.41095 76.2775C7.1492 77.6306 8.26259 78.7416 9.61725 79.4769C8.88637 80.235 8.39469 81.1915 8.20347 82.2271C8.01224 83.2627 8.12991 84.3317 8.54183 85.3009C8.95374 86.2701 9.64169 87.0967 10.52 87.6778C11.3983 88.2588 12.4281 88.5687 13.4812 88.5687C14.5344 88.5687 15.5642 88.2588 16.4425 87.6778C17.3208 87.0967 18.0088 86.2701 18.4207 85.3009C18.8326 84.3317 18.9502 83.2627 18.759 82.2271C18.5678 81.1915 18.0761 80.235 17.3452 79.4769C18.1652 79.0188 18.9005 78.4235 19.5192 77.7169H19.5182Z" fill="#656B76"/>
<path d="M75.1981 34.8879V24.1549H69.8311V45.6219H80.5641V40.2549C79.1408 40.2546 77.7759 39.6891 76.7697 38.6826C75.7634 37.6761 75.1981 36.3112 75.1981 34.8879Z" fill="#4891D3"/>
<path d="M53.7313 34.8879V24.1549H48.3643V45.6219H59.0973V40.2549C57.674 40.2546 56.3092 39.6891 55.3029 38.6826C54.2966 37.6761 53.7313 36.3112 53.7313 34.8879Z" fill="#4891D3"/>
<path d="M70.3253 59.0388C66.4766 59.0367 62.7482 57.6974 59.778 55.25C56.8078 52.8025 54.7802 49.3991 54.0423 45.6218H48.3643V67.0888H96.6643V59.0388H70.3253Z" fill="#FCBC04"/>
<path d="M88.6157 115.389C87.9041 115.389 87.2217 115.672 86.7185 116.175C86.2154 116.678 85.9327 117.36 85.9327 118.072C85.9339 119.281 85.6359 120.472 85.0652 121.538C84.4944 122.604 83.6687 123.512 82.6617 124.182L79.0767 126.573C78.7786 126.766 78.5218 127.017 78.3214 127.31C78.1209 127.604 77.9807 127.934 77.9089 128.282C77.8371 128.63 77.8351 128.989 77.9031 129.338C77.971 129.687 78.1076 130.019 78.3048 130.314C78.5021 130.61 78.756 130.863 79.052 131.06C79.348 131.257 79.6801 131.393 80.029 131.46C80.3779 131.527 80.7368 131.525 81.0847 131.452C81.4326 131.38 81.7626 131.239 82.0557 131.038L85.6407 128.647C87.3831 127.488 88.8117 125.916 89.7991 124.071C90.7865 122.225 91.302 120.165 91.2997 118.072C91.2997 117.719 91.2303 117.371 91.0954 117.045C90.9605 116.719 90.7628 116.424 90.5135 116.174C90.2643 115.925 89.9684 115.728 89.6428 115.593C89.3171 115.458 88.9681 115.389 88.6157 115.389Z" fill="#29441E"/>
<path d="M93.5313 98.0949C93.9155 97.5027 94.0509 96.7831 93.9083 96.0918C93.7657 95.4004 93.3565 94.7932 92.7693 94.4014C92.1821 94.0096 91.4643 93.865 90.7712 93.9987C90.0781 94.1324 89.4656 94.5338 89.0663 95.1159L88.4063 96.1059C87.3789 97.6417 85.8759 98.7978 84.1279 99.3969C82.38 99.9959 80.4838 100.005 78.7303 99.4219C78.054 99.1965 77.3159 99.2489 76.6782 99.5677C76.0406 99.8865 75.5558 100.446 75.3303 101.122C75.1049 101.798 75.1573 102.536 75.4762 103.174C75.795 103.812 76.354 104.296 77.0303 104.522C79.9005 105.475 83.0041 105.46 85.8648 104.479C88.7255 103.498 91.1851 101.605 92.8663 99.0909L93.5313 98.0949Z" fill="#29441E"/>
<path d="M64.4655 53.6719H59.0985C58.3868 53.6719 57.7043 53.9546 57.201 54.4579C56.6978 54.9611 56.415 55.6437 56.415 56.3554C56.415 57.0671 56.6978 57.7496 57.201 58.2529C57.7043 58.7561 58.3868 59.0389 59.0985 59.0389H64.4655C65.1772 59.0389 65.8598 58.7561 66.3631 58.2529C66.8663 57.7496 67.149 57.0671 67.149 56.3554C67.149 55.6437 66.8663 54.9611 66.3631 54.4579C65.8598 53.9546 65.1772 53.6719 64.4655 53.6719Z" fill="#29441E"/>
<path d="M75.1981 53.6719C74.4864 53.6719 73.8039 53.9546 73.3006 54.4579C72.7974 54.9611 72.5146 55.6437 72.5146 56.3554C72.5146 57.0671 72.7974 57.7496 73.3006 58.2529C73.8039 58.7561 74.4864 59.0389 75.1981 59.0389H80.5651C81.2769 59.0389 81.9594 58.7561 82.4627 58.2529C82.9659 57.7496 83.2486 57.0671 83.2486 56.3554C83.2486 55.6437 82.9659 54.9611 82.4627 54.4579C81.9594 53.9546 81.2769 53.6719 80.5651 53.6719H75.1981Z" fill="#29441E"/>
<path d="M16.1645 104.655C16.1645 103.063 15.6923 101.506 14.8078 100.183C13.9232 98.8587 12.666 97.8269 11.1951 97.2176C9.72411 96.6083 8.10553 96.4489 6.54398 96.7595C4.98243 97.0702 3.54806 97.8368 2.42225 98.9627C1.29643 100.088 0.529746 101.523 0.219135 103.084C-0.0914758 104.646 0.067941 106.265 0.677226 107.735C1.28651 109.206 2.3183 110.464 3.64212 111.348C4.96593 112.233 6.52232 112.705 8.11446 112.705C10.2494 112.705 12.297 111.857 13.8067 110.347C15.3163 108.837 16.1645 106.79 16.1645 104.655ZM5.43146 104.655C5.43146 104.124 5.58881 103.605 5.88362 103.164C6.17844 102.723 6.59746 102.379 7.08772 102.176C7.57797 101.973 8.11743 101.92 8.63788 102.023C9.15833 102.127 9.6364 102.382 10.0116 102.758C10.3868 103.133 10.6424 103.611 10.7459 104.131C10.8494 104.652 10.7963 105.191 10.5932 105.682C10.3902 106.172 10.0463 106.591 9.60505 106.886C9.16383 107.181 8.6451 107.338 8.11446 107.338C7.40288 107.338 6.72045 107.055 6.21729 106.552C5.71413 106.049 5.43146 105.366 5.43146 104.655Z" fill="#29441E"/>
<path d="M153.018 123.439C152.103 123.441 151.195 123.603 150.335 123.917C149.181 123.492 147.942 123.348 146.721 123.498C145.643 122.506 144.366 121.753 142.976 121.291C141.585 120.829 140.113 120.666 138.655 120.815C136.633 118.998 133.994 118.022 131.277 118.086C128.559 118.151 125.969 119.25 124.036 121.161C121.489 120.559 118.821 120.707 116.356 121.587C113.891 122.467 111.733 124.042 110.144 126.122C108.242 126.156 106.379 126.658 104.718 127.585C103.091 126.629 101.238 126.125 99.3509 126.123C96.9055 126.125 94.5341 126.962 92.6281 128.493C90.7221 130.025 89.3953 132.161 88.8669 134.549C87.5316 134.978 86.3314 135.748 85.3844 136.783C84.4375 137.817 83.7766 139.081 83.4669 140.449L73.9969 145.182C73.5229 145.421 73.1299 145.794 72.8669 146.255L68.3669 154.133C66.3927 153.644 64.4493 153.038 62.5469 152.319L74.5329 138.619C74.8119 138.3 75.0116 137.92 75.1156 137.51C75.2196 137.099 75.225 136.67 75.1312 136.257C75.0375 135.844 74.8473 135.459 74.5763 135.134C74.3053 134.808 73.9611 134.552 73.5719 134.385L59.8179 128.486L79.1859 117.726C79.6243 117.482 79.9856 117.12 80.2288 116.681C80.472 116.243 80.5872 115.744 80.5615 115.243C80.5358 114.742 80.3701 114.259 80.0833 113.847C79.7965 113.435 79.4 113.112 78.9389 112.915L61.0569 105.255L54.1909 91.5069L59.9039 83.9069L79.3659 93.6549C79.9295 93.9342 80.5733 94.0067 81.1849 93.8595C81.7965 93.7124 82.337 93.355 82.7119 92.8499L90.1899 82.8789L110.734 77.7429C111.078 77.6596 111.402 77.5091 111.688 77.3C111.973 77.0909 112.215 76.8273 112.398 76.5245C112.581 76.2217 112.703 75.8856 112.756 75.5356C112.809 75.1856 112.792 74.8286 112.706 74.4851C112.62 74.1417 112.467 73.8186 112.256 73.5345C112.045 73.2505 111.78 73.011 111.475 72.8299C111.171 72.6488 110.834 72.5296 110.484 72.4794C110.134 72.4291 109.777 72.4486 109.434 72.5369L87.9629 77.9029C87.3653 78.0524 86.8374 78.4031 86.4679 78.8959L79.7599 87.8369L60.2949 78.1039C59.733 77.824 59.0908 77.7499 58.48 77.8946C57.8692 78.0393 57.3284 78.3936 56.9519 78.8959L48.9019 89.6289C48.6028 90.0273 48.4205 90.501 48.3755 90.9972C48.3304 91.4933 48.4244 91.9921 48.6469 92.4379L56.6969 108.538C56.9803 109.106 57.4558 109.555 58.0389 109.805L71.7939 115.705L52.4249 126.469C52.1999 126.596 51.9939 126.754 51.8129 126.939C50.6408 126.362 49.3434 126.087 48.0381 126.137C46.7328 126.188 45.4608 126.563 44.3369 127.229C43.4878 126.728 42.5534 126.389 41.5809 126.229C40.8547 124.93 39.8662 123.796 38.6784 122.899C37.4905 122.003 36.1292 121.363 34.6809 121.021C34.1407 118.649 32.811 116.531 30.9097 115.015C29.0084 113.498 26.6482 112.671 24.2159 112.671C21.7835 112.671 19.4233 113.498 17.522 115.015C15.6207 116.531 14.291 118.649 13.7509 121.021C11.0142 121.643 8.6302 123.313 7.10979 125.672C5.58939 128.031 5.05353 130.892 5.61704 133.642C6.18056 136.391 7.79861 138.81 10.1245 140.381C12.4503 141.952 15.2989 142.549 18.0599 142.045C18.8155 142.94 19.7573 143.659 20.8195 144.152C21.8817 144.645 23.0387 144.901 24.2099 144.901C25.381 144.901 26.538 144.645 27.6002 144.152C28.6624 143.659 29.6042 142.94 30.3599 142.045C32.4713 142.423 34.6475 142.162 36.6099 141.296C37.1773 141.587 37.7785 141.808 38.3999 141.953C47.328 152.105 59.6229 158.69 73.0212 160.496C86.4195 162.302 100.019 159.208 111.317 151.782C112.551 152.538 113.969 152.943 115.417 152.952C116.864 152.961 118.287 152.574 119.531 151.833C121.288 153.545 123.482 154.742 125.873 155.292C128.264 155.843 130.76 155.727 133.089 154.957C135.418 154.186 137.491 152.791 139.082 150.923C140.673 149.056 141.721 146.787 142.111 144.365C143.021 144.718 143.989 144.9 144.966 144.902C146.632 144.902 148.257 144.386 149.618 143.425C150.979 142.464 152.008 141.105 152.566 139.535C154.701 139.595 156.772 138.804 158.324 137.337C159.877 135.87 160.782 133.846 160.842 131.711C160.902 129.576 160.112 127.505 158.645 125.953C157.178 124.401 155.154 123.495 153.019 123.435L153.018 123.439ZM88.6179 149.779C90.1534 150.349 91.8279 150.428 93.4102 150.005C94.9926 149.583 96.4048 148.679 97.4519 147.42C99.9506 147.863 102.525 147.405 104.718 146.127C105.669 146.681 106.7 147.086 107.774 147.327C107.806 147.427 107.854 147.515 107.889 147.611C102.041 151.37 95.4805 153.883 88.6179 154.995V149.779ZM68.0629 137.867L57.4109 150.044C53.0616 147.819 49.0542 144.981 45.5109 141.618C46.8277 142.156 48.2651 142.328 49.6719 142.118C51.0787 141.908 52.4027 141.322 53.5047 140.423C54.6067 139.524 55.4459 138.344 55.9339 137.008C56.4219 135.672 56.5407 134.229 56.2779 132.831L68.0629 137.867ZM35.2629 135.943C34.5253 136.434 33.6783 136.737 32.7963 136.824C31.9143 136.911 31.0244 136.78 30.2049 136.443C29.8796 136.307 29.5308 136.237 29.1783 136.236C28.8258 136.235 28.4766 136.304 28.1507 136.438C27.8247 136.572 27.5284 136.769 27.2786 137.017C27.0288 137.266 26.8304 137.562 26.6949 137.887C26.4911 138.376 26.1472 138.793 25.7065 139.087C25.2658 139.381 24.748 139.538 24.2184 139.538C23.6887 139.538 23.1709 139.381 22.7302 139.087C22.2895 138.793 21.9456 138.376 21.7419 137.887C21.4675 137.23 20.9441 136.709 20.2862 136.437C19.6283 136.166 18.8896 136.166 18.2319 136.438C17.4986 136.746 16.7059 136.887 15.9113 136.851C15.1168 136.816 14.3401 136.604 13.6374 136.231C12.9348 135.858 12.3238 135.334 11.8487 134.696C11.3736 134.058 11.0462 133.322 10.8902 132.542C10.7342 131.762 10.7535 130.958 10.9468 130.186C11.14 129.414 11.5023 128.695 12.0075 128.081C12.5127 127.467 13.1481 126.972 13.8678 126.634C14.5875 126.295 15.3735 126.121 16.1689 126.123C16.8804 126.123 17.5629 125.84 18.066 125.337C18.5692 124.834 18.8519 124.151 18.8519 123.44C18.8422 122.729 18.9738 122.023 19.2391 121.364C19.5045 120.704 19.8982 120.104 20.3975 119.598C20.8968 119.091 21.4917 118.69 22.1476 118.415C22.8035 118.141 23.5074 118 24.2184 118C24.9293 118 25.6332 118.141 26.2891 118.415C26.9451 118.69 27.5399 119.091 28.0392 119.598C28.5385 120.104 28.9323 120.704 29.1976 121.364C29.4629 122.023 29.5946 122.729 29.5849 123.44C29.5849 124.151 29.8675 124.834 30.3707 125.337C30.8739 125.84 31.5563 126.123 32.2679 126.123C33.3781 126.13 34.4588 126.482 35.3609 127.129C36.2631 127.776 36.9422 128.687 37.3049 129.737C37.5561 130.311 37.9835 130.79 38.5252 131.105C39.0669 131.42 39.6947 131.554 40.3179 131.489C40.6987 131.492 41.0743 131.577 41.4194 131.739C41.7644 131.9 42.0708 132.133 42.3179 132.423C42.5769 132.699 42.8898 132.92 43.2373 133.07C43.5849 133.221 43.9596 133.298 44.3384 133.298C44.7171 133.298 45.0919 133.221 45.4394 133.07C45.7869 132.92 46.0999 132.699 46.3589 132.423C46.7162 132.007 47.1922 131.711 47.7228 131.574C48.2534 131.437 48.8133 131.466 49.3271 131.656C49.841 131.847 50.2842 132.19 50.5971 132.64C50.9101 133.09 51.0779 133.625 51.0779 134.173C51.0779 134.721 50.9101 135.256 50.5971 135.706C50.2842 136.156 49.841 136.499 49.3271 136.689C48.8133 136.88 48.2534 136.909 47.7228 136.772C47.1922 136.635 46.7162 136.338 46.3589 135.923C46.0999 135.646 45.7869 135.426 45.4394 135.276C45.0919 135.125 44.7171 135.047 44.3384 135.047C43.9596 135.047 43.5849 135.125 43.2373 135.276C42.8898 135.426 42.5769 135.646 42.3179 135.923C42.0908 136.194 41.8111 136.416 41.4957 136.576C41.1803 136.735 40.8358 136.829 40.483 136.852C40.1302 136.874 39.7765 136.825 39.4434 136.707C39.1102 136.588 38.8045 136.404 38.5449 136.164C38.0994 135.767 37.5344 135.53 36.9391 135.49C36.3438 135.45 35.7522 135.61 35.2579 135.944L35.2629 135.943ZM73.9489 155.188L77.1289 149.625L83.2519 146.563V155.536C82.3579 155.582 81.4679 155.636 80.5689 155.636C78.3547 155.63 76.1433 155.48 73.9489 155.185V155.188ZM151.696 133.788C151.278 133.559 150.81 133.439 150.334 133.439C149.858 133.439 149.389 133.559 148.972 133.788C148.494 134.064 148.11 134.477 147.871 134.975C147.631 135.472 147.547 136.03 147.63 136.576C147.642 136.668 147.649 136.762 147.651 136.855C147.651 137.566 147.368 138.249 146.865 138.752C146.362 139.255 145.679 139.538 144.968 139.538C144.492 139.537 144.025 139.408 143.617 139.164C143.208 138.921 142.873 138.571 142.647 138.153C142.385 137.707 142.004 137.344 141.546 137.104C141.089 136.864 140.573 136.757 140.058 136.795C139.356 136.844 138.702 137.168 138.236 137.695C138.061 137.887 137.873 138.067 137.672 138.232C137.313 138.537 137.041 138.932 136.883 139.375C136.725 139.819 136.687 140.297 136.772 140.76C137.115 142.594 136.808 144.49 135.905 146.122C135.001 147.754 133.557 149.02 131.82 149.703C130.084 150.385 128.164 150.441 126.391 149.861C124.618 149.281 123.102 148.101 122.105 146.524C121.868 146.153 121.543 145.846 121.159 145.631C120.776 145.415 120.345 145.297 119.905 145.287H119.846C119.415 145.287 118.991 145.39 118.609 145.589C118.227 145.787 117.898 146.075 117.651 146.427C117.323 146.891 116.857 147.24 116.319 147.422C115.781 147.605 115.198 147.611 114.656 147.442C114.114 147.272 113.639 146.934 113.301 146.477C112.963 146.021 112.779 145.468 112.775 144.9C112.775 144.188 112.492 143.506 111.989 143.003C111.486 142.5 110.803 142.217 110.092 142.217C108.768 142.212 107.494 141.712 106.52 140.817C106.027 140.373 105.388 140.128 104.725 140.128C104.062 140.128 103.423 140.373 102.93 140.817C102.184 141.504 101.256 141.961 100.257 142.136C99.2579 142.311 98.2298 142.195 97.2949 141.802C96.9696 141.666 96.6208 141.596 96.2683 141.595C95.9158 141.594 95.5666 141.663 95.2407 141.797C94.9147 141.931 94.6184 142.128 94.3686 142.376C94.1188 142.625 93.9204 142.921 93.7849 143.246C93.5982 143.694 93.2934 144.084 92.9029 144.372C92.5124 144.661 92.0508 144.838 91.5674 144.885C91.084 144.932 90.5969 144.847 90.1581 144.639C89.7193 144.431 89.3452 144.108 89.0758 143.704C88.8063 143.3 88.6515 142.83 88.628 142.345C88.6045 141.86 88.7131 141.377 88.9422 140.949C89.1713 140.521 89.5124 140.163 89.929 139.913C90.3456 139.664 90.8222 139.532 91.3079 139.532C92.0168 139.53 92.6961 139.247 93.1971 138.745C93.6981 138.243 93.9803 137.564 93.9819 136.855C93.9819 136.15 94.1207 135.452 94.3904 134.801C94.6601 134.15 95.0554 133.558 95.5538 133.06C96.0522 132.561 96.6438 132.166 97.295 131.896C97.9462 131.627 98.6441 131.488 99.3489 131.488C100.672 131.493 101.946 131.992 102.921 132.888C103.414 133.331 104.053 133.577 104.716 133.577C105.379 133.577 106.018 133.331 106.511 132.888C107.485 131.992 108.759 131.493 110.083 131.488C110.397 131.492 110.711 131.526 111.019 131.588C111.567 131.686 112.133 131.611 112.637 131.373C113.141 131.135 113.558 130.746 113.831 130.26C114.804 128.562 116.356 127.272 118.203 126.624C120.05 125.977 122.068 126.016 123.888 126.734C124.456 126.969 125.088 127.002 125.678 126.827C126.267 126.652 126.779 126.28 127.127 125.773C127.613 125.116 128.24 124.575 128.962 124.191C129.683 123.808 130.482 123.59 131.298 123.554C132.115 123.517 132.929 123.664 133.682 123.983C134.435 124.302 135.107 124.785 135.649 125.397C135.968 125.781 136.389 126.068 136.863 126.226C137.337 126.384 137.846 126.406 138.332 126.291C139.315 126.03 140.353 126.066 141.316 126.396C142.278 126.725 143.121 127.332 143.739 128.14C144.089 128.574 144.565 128.888 145.102 129.038C145.639 129.189 146.209 129.168 146.734 128.98C147.096 128.831 147.488 128.771 147.877 128.806C148.267 128.841 148.642 128.969 148.972 129.18C149.382 129.419 149.848 129.544 150.322 129.544C150.796 129.544 151.262 129.419 151.672 129.18C152.077 128.938 152.538 128.807 153.01 128.801C153.482 128.795 153.947 128.914 154.357 129.145C154.768 129.377 155.11 129.713 155.349 130.12C155.588 130.527 155.715 130.99 155.717 131.461C155.719 131.933 155.597 132.397 155.362 132.806C155.126 133.215 154.787 133.554 154.379 133.79C153.97 134.025 153.506 134.148 153.034 134.147C152.563 134.145 152.1 134.018 151.693 133.78L151.696 133.788Z" fill="#29441E"/>
<path d="M6.70521 40.8969C6.44648 40.6573 6.14306 40.471 5.81229 40.3487C5.48152 40.2265 5.1299 40.1706 4.77752 40.1844C4.42515 40.1981 4.07895 40.2812 3.75871 40.4289C3.43847 40.5765 3.15048 40.7858 2.91121 41.0449C1.81315 42.23 0.998281 43.6488 0.527964 45.1945C0.0576468 46.7402 -0.0558625 48.3724 0.195983 49.9683C0.447828 51.5642 1.05846 53.0821 1.98191 54.4078C2.90536 55.7336 4.11755 56.8325 5.52721 57.6219C5.46167 58.0914 5.42826 58.5648 5.42721 59.0389C5.42442 60.8212 5.87157 62.5754 6.7272 64.1389C5.54428 65.0876 4.57768 66.278 3.89212 67.6305C3.20656 68.983 2.81786 70.4664 2.75206 71.9813C2.68626 73.4962 2.94486 75.0077 3.51056 76.4146C4.07626 77.8214 4.93599 79.0912 6.03221 80.1389C5.3765 81.7465 5.25245 83.5217 5.67821 85.2049C6.04741 86.6582 6.81791 87.9783 7.90169 89.0145C8.98547 90.0507 10.3388 90.7612 11.8072 91.0649C12.3569 91.1821 12.9172 91.2424 13.4792 91.2449C14.8006 91.2456 16.1018 90.921 17.2681 90.2997C18.4343 89.6785 19.4297 88.7797 20.1663 87.6827C20.903 86.5857 21.3583 85.3243 21.492 84.0097C21.6258 82.6951 21.4339 81.3678 20.9332 80.1449C22.3527 78.7797 23.3686 77.0497 23.8692 75.1449C25.1147 75.1983 26.3556 74.9617 27.4941 74.4538C28.6325 73.9458 29.6375 73.1804 30.4297 72.2179C31.2219 71.2553 31.7797 70.1219 32.0592 68.907C32.3387 67.6921 32.3322 66.4289 32.0402 65.2169C33.1286 64.317 33.9598 63.1453 34.4494 61.8206C34.939 60.4959 35.0697 59.0654 34.8282 57.6739C36.4015 56.7966 37.7278 55.5363 38.6843 54.0098C39.6407 52.4833 40.1963 50.7401 40.2995 48.9417C40.4027 47.1433 40.0503 45.348 39.2747 43.7221C38.4992 42.0962 37.3258 40.6924 35.8632 39.6409C37.7024 38.9857 39.328 37.8412 40.565 36.3306C41.802 34.8201 42.6036 33.0008 42.8834 31.0685C43.1632 29.1362 42.9106 27.1643 42.1529 25.3649C41.3952 23.5655 40.161 22.0069 38.5832 20.8569L40.0052 18.7239C40.565 19.6367 41.4154 20.3349 42.4198 20.7062C43.4242 21.0774 44.5243 21.1002 45.5432 20.7709L47.3032 20.0119L46.8032 22.0349C46.4622 22.2744 46.1829 22.5915 45.9883 22.9601C45.7938 23.3287 45.6896 23.7382 45.6842 24.1549V60.5049C38.9792 65.7423 33.5596 72.4425 29.8392 80.094C26.1187 87.7454 24.1958 96.1459 24.2172 104.654C24.2172 105.366 24.4999 106.048 25.0032 106.551C25.5064 107.055 26.189 107.337 26.9007 107.337C27.6124 107.337 28.295 107.055 28.7982 106.551C29.3015 106.048 29.5842 105.366 29.5842 104.654C29.5872 100.183 30.1756 95.7319 31.3342 91.4139L37.2342 97.3139L35.0872 103.792C34.9941 104.069 34.9468 104.359 34.9472 104.651V110.018C34.9472 110.73 35.2299 111.412 35.7332 111.915C36.2364 112.419 36.919 112.701 37.6307 112.701C38.3424 112.701 39.025 112.419 39.5282 111.915C40.0315 111.412 40.3142 110.73 40.3142 110.018V105.086L42.8632 97.4529C43.0205 96.9802 43.0432 96.473 42.9285 95.9882C42.8139 95.5034 42.5666 95.0601 42.2142 94.7079L33.2272 85.7209C36.0076 78.788 40.2887 72.5568 45.7632 67.4749C45.847 68.1071 46.1561 68.6878 46.6338 69.1104C47.1114 69.5329 47.7255 69.7689 48.3632 69.7749H96.6632C97.0155 69.7749 97.3644 69.7055 97.6899 69.5707C98.0155 69.4358 98.3112 69.2382 98.5604 68.9891C98.8095 68.7399 99.0071 68.4441 99.142 68.1186C99.2768 67.7931 99.3462 67.4442 99.3462 67.0919V57.3669C109.845 61.5298 118.654 69.078 124.376 78.8149C122.316 79.7551 120.609 81.3289 119.506 83.3069C118.115 83.0794 116.689 83.2167 115.367 83.7053C114.045 84.194 112.872 85.0174 111.963 86.0949C110.288 85.6947 108.528 85.8426 106.943 86.5168C105.357 87.1911 104.03 88.3561 103.156 89.8406C102.282 91.3251 101.907 93.0509 102.087 94.7642C102.267 96.4775 102.991 98.0879 104.154 99.3589L94.8322 108.059C94.5688 108.305 94.3576 108.601 94.2112 108.93C94.0647 109.259 93.9861 109.614 93.9798 109.974C93.9735 110.334 94.0399 110.692 94.1748 111.026C94.3097 111.36 94.5105 111.663 94.7652 111.918L102.815 119.968C103.064 120.217 103.36 120.415 103.686 120.55C104.011 120.684 104.36 120.754 104.713 120.754C105.065 120.754 105.414 120.684 105.74 120.55C106.065 120.415 106.361 120.217 106.61 119.968C106.859 119.719 107.057 119.423 107.192 119.097C107.327 118.772 107.396 118.423 107.396 118.07C107.396 117.718 107.327 117.369 107.192 117.043C107.057 116.718 106.859 116.422 106.61 116.173L100.524 110.087L109.28 101.916C109.342 101.916 109.398 101.94 109.457 101.946C110.792 103.463 112.652 104.418 114.663 104.617C116.674 104.816 118.686 104.245 120.292 103.019C121.174 104.214 122.297 105.212 123.588 105.947C124.879 106.682 126.31 107.139 127.788 107.288C129.266 107.437 130.759 107.275 132.171 106.811C133.582 106.348 134.881 105.595 135.984 104.599C137.266 104.751 138.566 104.59 139.772 104.129C140.978 103.667 142.054 102.92 142.907 101.951C144.573 101.821 146.157 101.177 147.44 100.107C148.723 99.0364 149.641 97.5935 150.067 95.978C150.493 94.3625 150.406 92.6545 149.818 91.0907C149.23 89.527 148.169 88.185 146.784 87.2509C146.194 86.8787 145.483 86.7508 144.801 86.8942C144.118 87.0376 143.518 87.4411 143.128 88.0192C142.738 88.5972 142.589 89.3044 142.711 89.9909C142.833 90.6774 143.218 91.2893 143.784 91.6969C144.255 92.0155 144.613 92.4756 144.806 93.0108C144.999 93.546 145.016 94.1286 144.856 94.6745C144.696 95.2203 144.367 95.7012 143.916 96.0477C143.464 96.3941 142.915 96.5882 142.346 96.6019H142.33L141.944 96.5379C141.413 96.4744 140.875 96.5695 140.397 96.8112C139.92 97.0528 139.525 97.4302 139.261 97.8959C138.987 98.4802 138.496 98.9346 137.893 99.1626C137.289 99.3906 136.62 99.3742 136.028 99.1169C135.504 98.9284 134.933 98.908 134.397 99.0586C133.86 99.2091 133.383 99.5231 133.033 99.9569C132.441 100.709 131.656 101.286 130.762 101.628C129.868 101.969 128.899 102.062 127.956 101.897C127.013 101.732 126.133 101.315 125.408 100.69C124.684 100.065 124.142 99.2551 123.84 98.3469C123.645 97.7791 123.265 97.2931 122.761 96.9668C122.257 96.6404 121.658 96.4926 121.06 96.5469L120.816 96.5819L120.491 96.5279C119.959 96.4608 119.419 96.5549 118.941 96.7978C118.462 97.0408 118.068 97.4215 117.808 97.8909C117.566 98.2925 117.224 98.6247 116.815 98.8553C116.407 99.0859 115.945 99.2071 115.476 99.2071C115.007 99.2071 114.546 99.0859 114.137 98.8553C113.729 98.6247 113.387 98.2925 113.144 97.8909C112.883 97.4163 112.485 97.0317 112.001 96.7879C111.517 96.5441 110.971 96.4524 110.434 96.5249C110.276 96.5459 110.117 96.5789 110.109 96.6109C109.69 96.6108 109.276 96.5124 108.902 96.3235C108.527 96.1347 108.202 95.8607 107.953 95.5236C107.704 95.1865 107.537 94.7956 107.466 94.3823C107.395 93.969 107.422 93.5448 107.544 93.1437C107.667 92.7427 107.882 92.3759 108.171 92.0729C108.461 91.7699 108.818 91.5391 109.214 91.399C109.609 91.2589 110.031 91.2134 110.448 91.2662C110.864 91.319 111.261 91.4685 111.609 91.7029C111.949 91.9308 112.337 92.0778 112.743 92.1325C113.149 92.1873 113.562 92.1484 113.951 92.0189C114.339 91.8893 114.693 91.6726 114.985 91.3852C115.277 91.0978 115.499 90.7474 115.634 90.3609C115.776 89.9866 115.998 89.6481 116.285 89.3692C116.572 89.0903 116.916 88.8779 117.295 88.7471C117.673 88.6163 118.075 88.5703 118.473 88.6122C118.871 88.6542 119.255 88.7831 119.597 88.9899C119.959 89.2243 120.372 89.368 120.801 89.409C121.23 89.45 121.663 89.387 122.062 89.2253C122.462 89.0636 122.817 88.808 123.097 88.4802C123.376 88.1523 123.573 87.7619 123.67 87.3419C123.924 86.2319 124.527 85.2327 125.391 84.4912C126.255 83.7497 127.335 83.3052 128.47 83.2229H128.516C128.637 83.2229 128.755 83.1909 128.878 83.1909C129.988 83.1983 131.069 83.5498 131.971 84.1971C132.873 84.8443 133.553 85.7555 133.915 86.8049C134.154 87.4716 134.646 88.0171 135.285 88.3226C135.923 88.6281 136.657 88.6688 137.326 88.4359C137.994 88.2029 138.544 87.7152 138.854 87.0789C139.165 86.4427 139.212 85.7094 138.984 85.0389C138.321 83.1395 137.136 81.4649 135.567 80.2062C133.997 78.9474 132.105 78.1552 130.107 77.9199C126.393 71.0143 121.273 64.9637 115.077 60.1582C108.881 55.3528 101.747 51.8991 94.1342 50.0199L87.8422 43.7279C87.5917 43.4765 87.2938 43.2774 86.9658 43.1419C86.6377 43.0065 86.2861 42.9375 85.9312 42.9389H83.2482V24.1549C83.2376 23.6982 83.1073 23.2523 82.8702 22.8619L84.1972 20.2049C84.4091 19.7787 84.7361 19.4204 85.1412 19.1705C85.5463 18.9206 86.0133 18.7891 86.4892 18.7909H89.1242C89.8029 18.7925 90.4536 19.0616 90.9352 19.5399L95.1632 23.7609C96.2016 24.8058 97.5118 25.5391 98.9455 25.8777C100.379 26.2163 101.879 26.1468 103.275 25.6769C103.597 25.5675 103.939 25.5254 104.278 25.5531C104.617 25.5808 104.947 25.6777 105.247 25.8379C104.897 27.0345 104.718 28.275 104.718 29.5219C104.718 31.3133 105.076 33.0868 105.772 34.7375C106.467 36.3883 107.487 37.8831 108.769 39.1336C110.052 40.3841 111.572 41.3651 113.24 42.0186C114.908 42.6722 116.69 42.9851 118.481 42.9389C118.875 44.4191 119.578 45.7989 120.544 46.9873C121.51 48.1757 122.717 49.1456 124.086 49.8329C123.701 51.0765 123.504 52.3709 123.501 53.6729C123.49 55.558 123.878 57.4242 124.641 59.1482C125.403 60.8723 126.522 62.4151 127.925 63.675C129.327 64.9348 130.981 65.8829 132.776 66.4569C134.572 67.0309 136.469 67.2177 138.342 67.0049C139.505 69.0687 141.319 70.6888 143.501 71.6114C145.683 72.5341 148.109 72.7073 150.4 72.104C152.691 71.5006 154.717 70.1547 156.161 68.277C157.605 66.3993 158.386 64.0958 158.381 61.7269C158.382 60.2417 158.069 58.7731 157.461 57.4179C159.785 54.9536 161.074 51.6917 161.063 48.3049C161.055 46.0108 160.459 43.7572 159.331 41.7592C158.204 39.7613 156.583 38.0858 154.623 36.8929C155.334 35.4328 155.702 33.829 155.696 32.2049C155.693 29.6333 154.768 27.1481 153.089 25.2C151.41 23.2519 149.089 21.97 146.546 21.5869C146.487 21.4419 146.423 21.2969 146.358 21.1549C147.204 19.6061 147.647 17.8696 147.646 16.1049C147.652 14.1064 147.099 12.1461 146.048 10.446C144.998 8.74599 143.492 7.37418 141.702 6.486C139.911 5.59782 137.908 5.22879 135.919 5.42071C133.929 5.61263 132.034 6.35783 130.446 7.57189C129.879 8.00207 129.506 8.63994 129.409 9.34517C129.312 10.0504 129.5 10.7652 129.93 11.3324C130.36 11.8996 130.998 12.2726 131.703 12.3695C132.408 12.4663 133.123 12.2791 133.69 11.8489C134.612 11.1343 135.744 10.7438 136.91 10.7379C137.916 10.7303 138.903 11.0076 139.757 11.5375C140.612 12.0675 141.299 12.8286 141.739 13.7328C142.179 14.6369 142.354 15.6472 142.244 16.6467C142.134 17.6462 141.743 18.5942 141.117 19.3809C140.774 19.8201 140.576 20.3552 140.551 20.912C140.526 21.4688 140.675 22.0196 140.977 22.4879C141.442 23.2164 141.784 24.0159 141.991 24.8549C142.153 25.4462 142.507 25.9664 142.999 26.3323C143.491 26.6981 144.091 26.8885 144.704 26.8729C144.849 26.8729 144.991 26.8489 144.959 26.8379C146.383 26.8379 147.748 27.4033 148.754 28.4098C149.761 29.4164 150.326 30.7815 150.326 32.2049C150.327 32.9285 150.179 33.6445 149.892 34.309C149.606 34.9735 149.187 35.5724 148.66 36.0689C148.318 36.3962 148.068 36.8083 147.936 37.2634C147.805 37.7186 147.796 38.2004 147.911 38.66C148.026 39.1196 148.261 39.5405 148.591 39.88C148.921 40.2195 149.336 40.4655 149.792 40.5929C151.244 40.986 152.555 41.7809 153.575 42.886C154.595 43.9912 155.282 45.3617 155.557 46.8401C155.833 48.3185 155.686 49.8446 155.132 51.243C154.579 52.6413 153.643 53.8552 152.43 54.7449C152.146 54.9564 151.907 55.2219 151.726 55.5262C151.546 55.8306 151.427 56.1677 151.377 56.5181C151.327 56.8685 151.347 57.2254 151.436 57.5681C151.524 57.9108 151.68 58.2326 151.893 58.5149C152.371 59.1396 152.706 59.8624 152.872 60.6314C153.038 61.4004 153.032 62.1966 152.854 62.963C152.676 63.7294 152.331 64.447 151.844 65.0644C151.356 65.6818 150.738 66.1837 150.033 66.5341C149.329 66.8846 148.556 67.0749 147.769 67.0915C146.983 67.1081 146.202 66.9505 145.484 66.63C144.765 66.3095 144.126 65.8341 143.613 65.2378C143.1 64.6415 142.725 63.9391 142.515 63.1809C142.418 62.8401 142.254 62.5221 142.033 62.245C141.812 61.968 141.538 61.7375 141.227 61.5669C140.917 61.3963 140.575 61.2889 140.223 61.251C139.87 61.2131 139.514 61.2453 139.174 61.3459C138.442 61.5812 137.679 61.7078 136.909 61.7219C134.774 61.7219 132.727 60.8738 131.217 59.3641C129.707 57.8544 128.859 55.8069 128.859 53.6719C128.867 52.2239 129.272 50.8059 130.029 49.5719C130.254 49.1925 130.383 48.7635 130.402 48.3228C130.422 47.8821 130.333 47.4433 130.143 47.0453C129.952 46.6473 129.667 46.3023 129.312 46.0409C128.956 45.7796 128.542 45.6099 128.105 45.5469C126.854 45.3739 125.704 44.7636 124.86 43.824C124.016 42.8845 123.531 41.6765 123.492 40.4139C123.492 40.3329 123.53 40.0809 123.535 39.9979C123.556 39.5762 123.477 39.1555 123.305 38.77C123.133 38.3846 122.872 38.0452 122.543 37.7796C122.215 37.514 121.829 37.3295 121.416 37.2413C121.003 37.1531 120.575 37.1636 120.167 37.2719C119.503 37.4608 118.816 37.5616 118.125 37.5719C115.99 37.5719 113.943 36.7238 112.433 35.2141C110.923 33.7044 110.075 31.6569 110.075 29.5219C110.079 28.3826 110.327 27.2572 110.802 26.2219C110.994 25.7984 111.072 25.3324 111.029 24.8696C110.986 24.4069 110.824 23.9631 110.558 23.5819C109.59 22.1723 108.189 21.1167 106.566 20.5754C104.944 20.034 103.19 20.0363 101.569 20.5819C101.118 20.7342 100.633 20.7571 100.17 20.648C99.7066 20.539 99.283 20.3023 98.9472 19.9649L94.7232 15.7409C93.9888 15.0023 93.1152 14.4168 92.1529 14.0184C91.1906 13.62 90.1587 13.4166 89.1172 13.4199H86.4892C85.0154 13.4148 83.5696 13.823 82.3161 14.5981C81.0625 15.3732 80.0513 16.4841 79.3972 17.8049L77.5632 21.4719H73.5632C73.0416 19.8798 72.8705 18.1936 73.0618 16.5292C73.2531 14.8647 73.8021 13.2613 74.6713 11.829C75.5405 10.3967 76.7093 9.1694 78.0974 8.23124C79.4855 7.29308 81.0601 6.66629 82.7132 6.39389L87.9002 5.52989C88.5282 5.42569 89.1636 5.37285 89.8002 5.37189H98.8132C102.315 5.37148 105.786 6.03274 109.042 7.32089C109.51 7.50207 110.02 7.54921 110.513 7.457C111.006 7.36479 111.464 7.13689 111.835 6.79889C112.371 6.32446 112.995 5.96084 113.672 5.72902C114.349 5.49721 115.065 5.40179 115.779 5.44828C116.493 5.49477 117.191 5.68224 117.832 5.99987C118.474 6.31751 119.046 6.75901 119.515 7.29889C119.82 7.65887 120.214 7.93225 120.658 8.09148C121.101 8.25071 121.579 8.29017 122.043 8.20589C122.523 8.11179 123.011 8.06159 123.5 8.05589C124.212 8.05589 124.894 7.77316 125.398 7.26991C125.901 6.76665 126.184 6.0841 126.184 5.37239C126.184 4.66068 125.901 3.97812 125.398 3.47487C124.894 2.97161 124.212 2.68889 123.5 2.68889C123.181 2.68241 122.862 2.69577 122.545 2.72889C120.772 1.19266 118.549 0.271408 116.208 0.102709C113.868 -0.0659904 111.536 0.52692 109.56 1.79289C106.101 0.607159 102.468 0.0029736 98.8112 0.00488734H89.7982C88.8625 0.00548606 87.9283 0.0827444 87.0052 0.235887L81.8212 1.09989C79.4949 1.47816 77.2733 2.3387 75.2992 3.62627C73.3251 4.91384 71.642 6.59998 70.358 8.57644C69.0741 10.5529 68.2176 12.776 67.8436 15.1031C67.4695 17.4301 67.5863 19.8096 68.1862 22.0889C67.8673 22.3315 67.6081 22.6438 67.4282 23.0018C67.2483 23.3598 67.1525 23.7542 67.1482 24.1549V42.9389H61.7812V24.1549C61.7765 23.688 61.6481 23.2307 61.4092 22.8295C61.1704 22.4283 60.8294 22.0975 60.4212 21.8709L60.7942 20.3839C61.4493 17.7598 61.7808 15.0655 61.7812 12.3609C61.7733 9.97263 60.973 7.65452 59.5058 5.77003C58.0387 3.88554 55.9876 2.54123 53.6742 1.94789C52.1634 1.58991 50.5941 1.55396 49.0685 1.84238C47.5429 2.13079 46.0951 2.7371 44.8192 3.62189L43.6092 4.42689C43.4712 4.54615 43.3011 4.62201 43.1202 4.64496C42.9393 4.66791 42.7556 4.63692 42.5922 4.55589L39.6752 2.61089C38.9796 2.14031 38.1922 1.82241 37.3649 1.67815C36.5375 1.53388 35.689 1.56651 34.8752 1.77389C34.0102 1.99763 33.2016 2.39964 32.501 2.95414C31.8005 3.50865 31.2236 4.20341 30.8072 4.99389C30.741 5.11075 30.6444 5.20756 30.5277 5.27409C30.411 5.34062 30.2785 5.37441 30.1442 5.37189H28.9532C26.6554 5.27595 24.412 4.64268 22.4032 3.52289C21.3 2.96996 20.0822 2.68394 18.8482 2.68789C17.1218 2.6886 15.4414 3.2443 14.0549 4.27299C12.6684 5.30167 11.6494 6.74883 11.1482 8.40089C9.26832 8.97105 7.6618 10.2089 6.63126 11.8814C5.60072 13.5538 5.21729 15.5454 5.55321 17.4809C3.93106 18.3871 2.57264 19.6999 1.61144 21.2901C0.650237 22.8803 0.119337 24.6932 0.0709144 26.5507C0.0224921 28.4082 0.458214 30.2464 1.33526 31.8845C2.2123 33.5226 3.50049 34.9043 5.07321 35.8939C5.67435 36.2619 6.39611 36.3786 7.08261 36.2189C7.76911 36.0592 8.36524 35.6359 8.74225 35.0404C9.11926 34.4449 9.24689 33.7249 9.09757 33.0361C8.94825 32.3473 8.53397 31.7448 7.9442 31.3589C7.04847 30.798 6.3393 29.984 5.90647 29.0199C5.47363 28.0558 5.33661 26.9849 5.51275 25.9429C5.68889 24.9008 6.17026 23.9345 6.89592 23.1662C7.62159 22.3979 8.55891 21.8622 9.58921 21.6269C10.0092 21.5299 10.3997 21.3331 10.7275 21.0532C11.0553 20.7734 11.3109 20.4186 11.4726 20.019C11.6343 19.6194 11.6973 19.1868 11.6563 18.7577C11.6153 18.3286 11.4716 17.9157 11.2372 17.5539C10.9775 17.1492 10.8313 16.6821 10.814 16.2015C10.7967 15.721 10.9088 15.2446 11.1387 14.8222C11.3686 14.3999 11.7078 14.047 12.1208 13.8007C12.5337 13.5543 13.0053 13.4235 13.4862 13.4219C14.1969 13.4203 14.878 13.1368 15.3798 12.6336C15.8817 12.1304 16.1635 11.4486 16.1632 10.7379C16.1632 10.0263 16.4459 9.34388 16.949 8.84072C17.4522 8.33756 18.1346 8.05489 18.8462 8.05489C19.2491 8.0524 19.6471 8.14418 20.0082 8.32289C22.7564 9.82442 25.8218 10.6521 28.9522 10.7379H30.1462C31.2509 10.7389 32.3352 10.4399 33.2833 9.8728C34.2314 9.30568 35.0076 8.49175 35.5292 7.51789C35.5929 7.38875 35.6828 7.2743 35.7931 7.18184C35.9035 7.08938 36.0319 7.02094 36.1702 6.98089C36.258 6.95615 36.3503 6.95175 36.4401 6.96804C36.5298 6.98433 36.6147 7.02087 36.6882 7.07489L39.6072 9.01989C40.6483 9.70245 41.871 10.0553 43.1156 10.0322C44.3603 10.0092 45.5691 9.61147 46.5842 8.89089L47.7972 8.08589C48.4457 7.62019 49.1845 7.2955 49.9661 7.13274C50.7477 6.96998 51.5547 6.97275 52.3352 7.14089C53.4966 7.43709 54.5271 8.11006 55.2652 9.05444C56.0033 9.99883 56.4074 11.1613 56.4142 12.3599C56.4126 14.6213 56.1342 16.8741 55.5852 19.0679L54.9852 21.4559H52.4722L52.6282 20.8329C52.8442 19.9774 52.8262 19.0797 52.5761 18.2336C52.3259 17.3875 51.8527 16.6243 51.2062 16.0239C50.5029 15.3854 49.6393 14.95 48.7078 14.7642C47.7762 14.5784 46.8117 14.6491 45.9172 14.9689L44.3472 15.4919C43.9197 14.759 43.3128 14.1469 42.5835 13.7132C41.8542 13.2796 41.0265 13.0387 40.1784 13.0132C39.3303 12.9877 38.4897 13.1784 37.7356 13.5674C36.9816 13.9564 36.3389 14.531 35.8682 15.2369L33.3382 19.0369C32.7044 20.0163 32.4383 21.1888 32.5872 22.3459C32.6396 22.8291 32.8222 23.289 33.1157 23.6765C33.4091 24.064 33.8023 24.3645 34.2532 24.5459C35.4065 25.0119 36.362 25.8641 36.9566 26.9567C37.5511 28.0493 37.7477 29.3145 37.5126 30.5359C37.2776 31.7574 36.6256 32.8593 35.6681 33.6533C34.7106 34.4473 33.5071 34.884 32.2632 34.8889C31.5516 34.8889 30.8692 35.1716 30.366 35.6747C29.8629 36.1779 29.5802 36.8603 29.5802 37.5719C29.5759 38.258 29.4402 38.9369 29.1802 39.5719C29.0393 39.9235 28.9744 40.3009 28.9899 40.6794C29.0053 41.0578 29.1008 41.4287 29.2698 41.7677C29.4389 42.1066 29.6779 42.4059 29.9709 42.6459C30.264 42.8858 30.6046 43.061 30.9702 43.1599C32.1247 43.4641 33.1437 44.1468 33.8642 45.0987C34.5847 46.0507 34.9651 47.2168 34.9443 48.4105C34.9236 49.6042 34.503 50.7564 33.7498 51.6828C32.9967 52.6091 31.9545 53.256 30.7902 53.5199C30.3702 53.6169 29.9798 53.8137 29.6519 54.0935C29.3241 54.3734 29.0685 54.7282 28.9068 55.1277C28.7451 55.5273 28.6821 55.96 28.7231 56.3891C28.7641 56.8182 28.9078 57.2311 29.1422 57.5929C29.4266 58.0226 29.5779 58.5266 29.5772 59.0419C29.5727 59.5962 29.3967 60.1354 29.0733 60.5856C28.7499 61.0358 28.295 61.3747 27.7712 61.5559C27.3847 61.6913 27.0343 61.9135 26.7469 62.2053C26.4595 62.4971 26.2428 62.8508 26.1132 63.2393C25.9837 63.6278 25.9448 64.0409 25.9996 64.4468C26.0543 64.8526 26.2013 65.2406 26.4292 65.5809C26.6687 65.9367 26.8194 66.3447 26.8687 66.7707C26.918 67.1967 26.8645 67.6284 26.7125 68.0294C26.5606 68.4305 26.3148 68.7893 25.9956 69.0758C25.6765 69.3623 25.2933 69.568 24.8782 69.6759C24.5335 69.7682 24.1735 69.7883 23.8207 69.7348C23.4679 69.6812 23.13 69.5553 22.8282 69.3649C22.4018 69.1065 21.9118 68.972 21.4132 68.9766C20.9146 68.9811 20.4272 69.1246 20.0055 69.3907C19.5839 69.6569 19.2448 70.0353 19.0262 70.4834C18.8077 70.9316 18.7183 71.4318 18.7682 71.9279L18.8432 72.4589C18.8358 73.4166 18.5723 74.3549 18.0799 75.1765C17.5876 75.998 16.8843 76.6728 16.0432 77.1309C15.6826 77.3295 15.3726 77.6085 15.1371 77.9462C14.9016 78.2839 14.747 78.6712 14.6852 79.0783C14.6234 79.4853 14.6561 79.9011 14.7808 80.2934C14.9055 80.6858 15.1188 81.0442 15.4042 81.3409C15.7702 81.7197 16.0166 82.1978 16.1127 82.7157C16.2088 83.2336 16.1503 83.7683 15.9446 84.2532C15.7388 84.7381 15.3949 85.1516 14.9557 85.4424C14.5165 85.7331 14.0014 85.8882 13.4747 85.8882C12.948 85.8882 12.4329 85.7331 11.9937 85.4424C11.5545 85.1516 11.2106 84.7381 11.0049 84.2532C10.7991 83.7683 10.7406 83.2336 10.8367 82.7157C10.9328 82.1978 11.1792 81.7197 11.5452 81.3409C11.8306 81.0442 12.0439 80.6858 12.1686 80.2934C12.2933 79.9011 12.326 79.4853 12.2642 79.0783C12.2024 78.6712 12.0478 78.2839 11.8123 77.9462C11.5768 77.6085 11.2668 77.3295 10.9062 77.1309C10.0006 76.6446 9.25542 75.9061 8.7611 75.0049C8.26679 74.1036 8.04453 73.0783 8.12127 72.0533C8.19801 71.0282 8.57046 70.0474 9.19346 69.2298C9.81646 68.4122 10.6633 67.7929 11.6312 67.4469C12.0624 67.2888 12.4458 67.0227 12.7446 66.674C13.0435 66.3253 13.2479 65.9058 13.3382 65.4555C13.4285 65.0052 13.4017 64.5393 13.2605 64.1024C13.1192 63.6654 12.8681 63.272 12.5312 62.9599C11.9845 62.4641 11.5476 61.8594 11.2486 61.1846C10.9496 60.5098 10.7952 59.7799 10.7952 59.0419C10.7995 58.3558 10.9353 57.6769 11.1952 57.0419C11.3361 56.6903 11.401 56.3129 11.3855 55.9344C11.3701 55.5559 11.2747 55.185 11.1056 54.8461C10.9365 54.5072 10.6975 54.2079 10.4045 53.9679C10.1114 53.728 9.77084 53.5528 9.40521 53.4539C8.27033 53.1491 7.26684 52.4804 6.54876 51.5502C5.83069 50.6201 5.43773 49.4799 5.43021 48.3049C5.42988 46.9632 5.93841 45.6713 6.85321 44.6899C7.09267 44.4312 7.27881 44.1278 7.40098 43.7972C7.52315 43.4665 7.57896 43.115 7.56522 42.7627C7.55147 42.4105 7.46844 42.0644 7.32088 41.7442C7.17331 41.4241 6.9641 41.1361 6.70521 40.8969ZM56.4142 26.8379V32.2049H51.0472V26.8379H56.4142ZM93.9812 57.4659V64.4049H51.0472V48.3049H84.8202L93.9812 57.4659ZM72.5142 26.8379H77.8812V32.2049H72.5142V26.8379ZM72.5142 37.5709H77.8812V42.9379H72.5142V37.5709ZM51.0472 42.9389V37.5719H56.4142V42.9389H51.0472Z" fill="#29441E"/>
</svg>
