<svg width="234" height="165" viewBox="0 0 234 165" fill="none" xmlns="http://www.w3.org/2000/svg">
<path d="M170.874 97.8389C165.815 97.8023 160.975 95.7669 157.411 92.1765C153.846 88.586 151.846 83.7318 151.846 78.6724C151.846 73.613 153.846 68.7587 157.411 65.1683C160.975 61.5778 165.815 59.5424 170.874 59.5059H177.29C179.467 54.9172 182.901 51.0404 187.194 48.326C191.487 45.6117 196.461 44.1711 201.54 44.1719C208.657 44.1719 215.482 46.9989 220.514 52.0311C225.546 57.0632 228.373 63.8883 228.373 71.0049C228.373 78.1214 225.546 84.9465 220.514 89.9787C215.482 95.0108 208.657 97.8379 201.54 97.8379L170.874 97.8389Z" fill="#08D175" stroke="#29441E" stroke-width="3"/>
<path d="M232.207 132.338H230.499C216.651 132.338 203.149 128.011 191.881 119.962C186.784 116.321 180.836 114.055 174.609 113.382C168.381 112.709 162.086 113.652 156.329 116.119L136.374 124.671H101.874L93.974 122.697C89.1641 121.493 84.9149 118.671 81.94 114.705C79.7977 111.848 77.0196 109.53 73.8259 107.933C70.6323 106.336 67.1107 105.505 63.54 105.505H37.172C34.5939 105.505 32.041 106.013 29.6592 106.999C27.2773 107.986 25.113 109.432 23.29 111.255C21.4669 113.078 19.3025 114.524 16.9204 115.511C14.5384 116.497 11.9853 117.005 9.40703 117.005H2.20703V163.005H232.207V132.338Z" fill="#02C26A" stroke="#29441E" stroke-width="3"/>
<path d="M46.29 82.5049C35.6151 82.5049 25.3773 78.2643 17.829 70.7159C10.2807 63.1676 6.04004 52.9298 6.04004 42.2549C6.04004 31.5799 10.2807 21.3422 17.829 13.7938C25.3773 6.2455 35.6151 2.00488 46.29 2.00488H48.207C54.635 2.00339 60.9355 3.79771 66.3982 7.18556C71.8609 10.5734 76.2685 15.42 79.124 21.1789L94.207 21.1719C98.2343 21.1719 102.222 21.9651 105.943 23.5063C109.663 25.0474 113.044 27.3063 115.892 30.154C118.74 33.0017 120.998 36.3824 122.54 40.1031C124.081 43.8238 124.874 47.8116 124.874 51.8389C124.874 59.9721 121.643 67.7721 115.892 73.5231C110.14 79.274 102.34 82.5049 94.207 82.5049H46.29Z" fill="#08D175" stroke="#29441E" stroke-width="3"/>
<path d="M75.04 163.005V144.796C75.04 141.492 76.3526 138.323 78.6889 135.987C81.0252 133.65 84.194 132.338 87.498 132.338H98.04L105.707 120.838H121.04V124.671L113.373 132.338V139.1C113.372 141.675 112.654 144.199 111.3 146.389C109.946 148.579 108.009 150.348 105.706 151.5V163H101.873L94.206 151.5H86.54L82.707 163L75.04 163.005Z" fill="#FFC431" stroke="#29441E" stroke-width="3"/>
<path d="M155.541 143.839L147.874 163.005H140.207V140.005C137.904 138.853 135.967 137.084 134.613 134.894C133.259 132.704 132.541 130.18 132.54 127.605V113.172L124.874 105.505V101.672H140.207L147.874 117.005H163.207C165.221 117.005 167.214 117.401 169.075 118.172C170.935 118.943 172.625 120.072 174.049 121.496C175.473 122.92 176.602 124.61 177.373 126.47C178.143 128.33 178.54 130.324 178.54 132.338V163.005H170.874L163.207 143.838L155.541 143.839Z" fill="#FFC431" stroke="#29441E" stroke-width="3"/>
<path d="M114.332 120.838H106.665C106.655 117.82 107.49 114.859 109.077 112.292C110.664 109.725 112.938 107.654 115.642 106.314L116.451 105.914L119.88 112.771L119.071 113.171C117.644 113.878 116.443 114.972 115.605 116.327C114.768 117.682 114.327 119.245 114.332 120.838Z" fill="#FFA100" stroke="#29441E" stroke-width="3"/>
<path d="M136.373 101.671H128.706C128.712 100.078 128.271 98.5151 127.433 97.16C126.596 95.8049 125.395 94.7115 123.968 94.0038L123.158 93.6038L126.588 86.7468L127.397 87.1468C130.101 88.4872 132.375 90.5585 133.962 93.1256C135.548 95.6927 136.384 98.653 136.373 101.671Z" fill="#FFA100" stroke="#29441E" stroke-width="3"/>
<path d="M71.207 163.005L63.54 151.505V74.8379L90.373 59.5049L86.54 48.0049L63.54 59.5049V40.3379H48.207V151.505L40.54 163.005H71.207Z" fill="#DB8638" stroke="#29441E" stroke-width="3"/>
<path d="M82.4956 36.5079C81.5539 36.5093 80.6448 36.1631 79.9424 35.5357C79.2401 34.9083 78.794 34.0439 78.6896 33.1079C78.4258 30.6829 77.8687 28.2988 77.0306 26.0079C76.7092 25.1233 76.7254 24.1513 77.0759 23.2778C77.4265 22.4044 78.0869 21.6909 78.9306 21.2739C79.4106 21.033 79.9359 20.8959 80.4724 20.8714C81.0089 20.8469 81.5446 20.9357 82.0445 21.1319C82.5444 21.3281 82.9975 21.6273 83.3741 22.0102C83.7508 22.393 84.0426 22.8508 84.2306 23.3539C85.2887 26.2387 85.9902 29.2419 86.3196 32.2969C86.3734 32.8305 86.3145 33.3695 86.1466 33.8789C85.9787 34.3883 85.7057 34.8567 85.3451 35.2537C84.9845 35.6508 84.5445 35.9676 84.0537 36.1837C83.5628 36.3997 83.0319 36.5102 82.4956 36.5079Z" fill="#02C26A" stroke="#29441E" stroke-width="3"/>
<path d="M205.374 163.005L201.54 155.338V63.3379H190.04V78.6709L178.54 74.8379L174.707 86.3379L190.04 90.1709V155.338L186.207 163.005H205.374Z" fill="#DB8638" stroke="#29441E" stroke-width="3"/>
<path d="M174.978 71.0049C174.426 71.0033 173.88 70.8829 173.379 70.6519C172.878 70.4208 172.432 70.0845 172.072 69.6659C171.712 69.2472 171.447 68.7559 171.293 68.2255C171.14 67.6951 171.103 67.138 171.185 66.5919C171.65 63.3516 172.635 60.2077 174.104 57.2819C174.326 56.8263 174.637 56.4195 175.019 56.0849C175.4 55.7504 175.844 55.4948 176.324 55.3329C176.805 55.1711 177.313 55.1062 177.819 55.142C178.325 55.1779 178.818 55.3137 179.271 55.5417C179.724 55.7697 180.128 56.0853 180.458 56.4703C180.788 56.8552 181.039 57.3019 181.195 57.7843C181.351 58.2668 181.41 58.7755 181.369 59.2809C181.327 59.7864 181.186 60.2785 180.953 60.7289C179.859 62.9128 179.124 65.2585 178.776 67.6759C178.65 68.5955 178.196 69.4387 177.498 70.0502C176.799 70.6618 175.904 71.0004 174.976 71.0039L174.978 71.0049Z" fill="#02C26A" stroke="#29441E" stroke-width="3"/>
<path d="M7.1416 142.698L12.563 137.277L20.2294 144.943L14.8081 150.364L7.1416 142.698Z" fill="#3CDE8D"/>
<path d="M14.8086 135.034L20.23 129.613L27.8964 137.279L22.475 142.7L14.8086 135.034Z" fill="#3CDE8D"/>
<path d="M29.3691 126.763L33.2026 119.096L40.0602 122.525L36.2267 130.192L29.3691 126.763Z" fill="#3CDE8D"/>
<path d="M119.218 154.948L122.647 148.09L130.314 151.924L126.885 158.782L119.218 154.948Z" fill="#3CDE8D"/>
<path d="M119.223 143.45L122.651 136.592L130.318 140.426L126.89 147.283L119.223 143.45Z" fill="#3CDE8D"/>
<path d="M209.479 149.829L213.313 142.162L220.171 145.591L216.337 153.258L209.479 149.829Z" fill="#3CDE8D"/>
<path d="M220.977 149.834L224.81 142.167L231.668 145.596L227.834 153.263L220.977 149.834Z" fill="#3CDE8D"/>
<path d="M147.87 28.8388C146.854 28.8388 145.879 28.435 145.16 27.7162C144.441 26.9973 144.037 26.0224 144.037 25.0058C144.039 23.5776 143.59 22.1853 142.755 21.0267C141.92 19.8681 140.741 19.0021 139.385 18.5518L139.354 18.5418C138.505 18.2545 137.607 18.1388 136.713 18.2013C135.818 18.2638 134.945 18.5033 134.144 18.9058L130.418 20.7688L126.989 13.9118L130.715 12.0488C132.414 11.1924 134.266 10.6816 136.164 10.5462C138.061 10.4107 139.967 10.6533 141.77 11.2598L141.8 11.2698C144.124 12.0415 146.214 13.3895 147.876 15.1878C149.534 13.3924 151.619 12.0464 153.938 11.2758L154.001 11.2548C155.801 10.651 157.702 10.4099 159.596 10.5455C161.489 10.6811 163.337 11.1907 165.032 12.0448L168.758 13.9078L165.329 20.7648L161.603 18.9018C160.805 18.5 159.935 18.2605 159.043 18.1972C158.152 18.1338 157.256 18.2479 156.409 18.5328L156.345 18.5538C154.993 19.006 153.818 19.8723 152.986 21.0298C152.154 22.1873 151.707 23.5773 151.709 25.0028C151.709 26.0194 151.305 26.9943 150.587 27.7132C149.868 28.432 148.893 28.8358 147.876 28.8358L147.87 28.8388Z" fill="#D1E4FF" stroke="#29441E" stroke-width="3"/>
<path d="M182.37 40.3388C181.354 40.3388 180.379 39.935 179.66 39.2162C178.941 38.4974 178.537 37.5224 178.537 36.5058C178.538 35.0778 178.089 33.6859 177.254 32.5275C176.419 31.3691 175.24 30.5029 173.885 30.0518L173.854 30.0418C173.005 29.7546 172.107 29.6389 171.213 29.7014C170.318 29.7639 169.445 30.0033 168.644 30.4058L164.918 32.2688L161.489 25.4118L165.215 23.5488C166.914 22.6922 168.766 22.1813 170.664 22.0459C172.561 21.9105 174.467 22.1531 176.27 22.7598L176.3 22.7698C178.624 23.5416 180.714 24.8895 182.376 26.6878C184.034 24.8924 186.119 23.5465 188.438 22.7758L188.501 22.7548C190.301 22.151 192.202 21.9099 194.096 22.0455C195.989 22.1811 197.837 22.6907 199.532 23.5448L203.258 25.4078L199.829 32.2648L196.103 30.4018C195.305 29.9999 194.435 29.7603 193.543 29.697C192.652 29.6337 191.756 29.7478 190.909 30.0328L190.845 30.0538C189.493 30.5061 188.318 31.3723 187.486 32.5298C186.654 33.6873 186.207 35.0773 186.209 36.5028C186.209 37.0062 186.11 37.5046 185.917 37.9697C185.725 38.4347 185.443 38.8572 185.087 39.2132C184.731 39.5691 184.308 39.8514 183.843 40.0441C183.378 40.2367 182.88 40.3358 182.376 40.3358L182.37 40.3388Z" fill="#D1E4FF" stroke="#29441E" stroke-width="3"/>
</svg>
