<svg width="162" height="162" viewBox="0 0 162 162" fill="none" xmlns="http://www.w3.org/2000/svg">
<path d="M137.692 2.60205C143.059 2.60027 148.219 4.67656 152.089 8.39555C155.958 12.1145 158.238 17.1874 158.45 22.5504C158.661 27.9135 156.788 33.1501 153.223 37.1624C149.658 41.1747 144.679 43.651 139.328 44.0721C138.783 44.1241 138.237 44.1501 137.692 44.1501C132.182 44.1501 126.898 41.9614 123.003 38.0655C119.107 34.1696 116.918 28.8857 116.918 23.3761C116.918 17.8664 119.107 12.5825 123.003 8.68661C126.898 4.79073 132.182 2.60205 137.692 2.60205Z" fill="#FCD770"/>
<path d="M142.885 80.505H101.337C99.9627 80.4953 98.6472 79.945 97.6752 78.973C96.7032 78.001 96.1529 76.6855 96.1432 75.311C96.1472 73.9347 96.6956 72.6159 97.6689 71.6427C98.6421 70.6694 99.9609 70.121 101.337 70.117H106.531C107.906 70.1073 109.221 69.557 110.193 68.585C111.165 67.613 111.716 66.2975 111.725 64.923C111.721 63.5467 111.173 62.2279 110.2 61.2547C109.226 60.2814 107.908 59.733 106.531 59.729H96.1442C94.7702 59.7193 93.4551 59.1694 92.4832 58.1981C91.5114 57.2267 90.9607 55.912 90.9502 54.538C90.9542 53.1617 91.5026 51.8429 92.4759 50.8697C93.4491 49.8964 94.7679 49.348 96.1442 49.344H140.938C142.235 54.436 142.89 59.6704 142.886 64.925L142.885 80.505Z" fill="#B4DD7F"/>
<path d="M140.938 49.344H96.1445C94.7682 49.348 93.4493 49.8965 92.4761 50.8697C91.5029 51.8429 90.9544 53.1617 90.9505 54.538C90.9602 55.9126 91.5105 57.2281 92.4825 58.2C93.4544 59.172 94.7699 59.7223 96.1445 59.732H106.531C107.908 59.736 109.227 60.2845 110.2 61.2577C111.173 62.2309 111.722 63.5497 111.725 64.926C111.716 66.3006 111.165 67.6161 110.193 68.588C109.222 69.56 107.906 70.1103 106.531 70.12H101.337C99.9612 70.124 98.6423 70.6725 97.6691 71.6457C96.6959 72.6189 96.1474 73.9377 96.1435 75.314C96.1532 76.6886 96.7035 78.0041 97.6755 78.976C98.6474 79.948 99.9629 80.4983 101.337 80.508H80.5635V33.764H98.7405C100.807 33.764 102.788 32.9432 104.249 31.4822C105.71 30.0212 106.531 28.0397 106.531 25.9735C106.531 23.9074 105.71 21.9258 104.249 20.4648C102.788 19.0038 100.807 18.183 98.7405 18.183H96.1405C94.7642 18.1791 93.4453 17.6306 92.4721 16.6574C91.4989 15.6842 90.9504 14.3653 90.9465 12.989C90.9564 11.614 91.5074 10.2981 92.4802 9.32626C93.453 8.35439 94.7694 7.80466 96.1445 7.79602H105.518C110.131 9.81687 114.482 12.3889 118.476 15.456C117.181 18.613 116.683 22.0401 117.025 25.4353C117.367 28.8304 118.538 32.0893 120.437 34.9246C122.336 37.7599 124.903 40.0846 127.912 41.6936C130.921 43.3026 134.28 44.1465 137.692 44.151C138.238 44.151 138.783 44.125 139.328 44.073V44.096C139.925 45.813 140.471 47.553 140.938 49.344Z" fill="#69D6F4"/>
<path d="M105.492 7.79609H96.1445C94.7699 7.80578 93.4544 8.35611 92.4825 9.32808C91.5105 10.3001 90.9602 11.6155 90.9505 12.9901C90.9544 14.3664 91.5029 15.6852 92.4761 16.6584C93.4493 17.6316 94.7682 18.1801 96.1445 18.1841H98.7445C100.811 18.1841 102.792 19.0049 104.253 20.4659C105.714 21.9269 106.535 23.9084 106.535 25.9746C106.535 28.0408 105.714 30.0223 104.253 31.4833C102.792 32.9443 100.811 33.7651 98.7445 33.7651H80.5635V2.60209C87.4917 2.59457 94.3726 3.7437 100.922 6.00209C102.48 6.54909 104.012 7.14609 105.492 7.79609Z" fill="#B4DD7F"/>
<path d="M80.5644 70.118V80.505H64.9834V75.312C64.9874 73.9357 65.5359 72.6169 66.5091 71.6437C67.4823 70.6705 68.8011 70.122 70.1774 70.118H80.5644Z" fill="#A0D468"/>
<path d="M80.5642 33.763V70.118H70.1762C68.7999 70.122 67.4811 70.6705 66.5079 71.6437C65.5347 72.6169 64.9862 73.9357 64.9822 75.312V80.506H43.3782C43.94 78.8324 44.2208 77.0773 44.2092 75.312C23.4352 75.312 23.4352 90.889 23.4352 90.889C23.3211 88.8436 22.8034 86.841 21.912 84.9966C21.0205 83.1521 19.773 81.5023 18.2412 80.142V64.924H49.4022C50.7768 64.9143 52.0922 64.364 53.0642 63.392C54.0362 62.42 54.5865 61.1046 54.5962 59.73C54.5923 58.3537 54.0438 57.0349 53.0706 56.0617C52.0973 55.0885 50.7785 54.54 49.4022 54.536H33.8222C32.4477 54.5263 31.1322 53.976 30.1602 53.004C29.1882 52.032 28.6379 50.7166 28.6282 49.342C28.6322 47.9657 29.1807 46.6469 30.1539 45.6737C31.1271 44.7005 32.4459 44.152 33.8222 44.148H39.0162C40.3908 44.1383 41.7062 43.588 42.6782 42.616C43.6502 41.644 44.2005 40.3286 44.2102 38.954C44.2063 37.5777 43.6578 36.2589 42.6846 35.2857C41.7113 34.3125 40.3925 33.764 39.0162 33.76H26.6292C31.4305 25.4091 38.1174 18.2962 46.1562 12.989H64.9832C66.3595 12.993 67.6783 13.5415 68.6516 14.5147C69.6248 15.4879 70.1733 16.8067 70.1772 18.183C70.1675 19.5576 69.6172 20.873 68.6452 21.845C67.6732 22.817 66.3578 23.3673 64.9832 23.377H59.7892C58.4129 23.381 57.0941 23.9295 56.1209 24.9027C55.1477 25.8759 54.5992 27.1947 54.5952 28.571C54.6049 29.9456 55.1552 31.261 56.1272 32.233C57.0992 33.205 58.4147 33.7553 59.7892 33.765L80.5642 33.763Z" fill="#4FC1E9"/>
<path d="M80.5633 2.60199V33.763H59.7892C58.4147 33.7533 57.0992 33.203 56.1272 32.231C55.1553 31.259 54.6049 29.9435 54.5952 28.569C54.5992 27.1927 55.1477 25.8739 56.1209 24.9007C57.0941 23.9274 58.4129 23.379 59.7892 23.375H64.9832C66.3578 23.3653 67.6733 22.815 68.6453 21.843C69.6172 20.871 70.1676 19.5555 70.1772 18.181C70.1733 16.8047 69.6248 15.4859 68.6516 14.5126C67.6784 13.5394 66.3596 12.9909 64.9832 12.987H46.1562C56.3458 6.19869 68.3196 2.58466 80.5633 2.60199Z" fill="#A0D468"/>
<path d="M70.1763 116.86C70.1763 124.65 64.9823 132.441 54.5953 132.441H49.4023C49.4023 132.441 49.4023 116.86 70.1763 116.86Z" fill="#A0D468"/>
<path d="M49.4023 54.5371C50.7787 54.541 52.0975 55.0895 53.0707 56.0627C54.0439 57.0359 54.5924 58.3547 54.5963 59.7311C54.5866 61.1056 54.0363 62.4211 53.0643 63.3931C52.0924 64.365 50.7769 64.9154 49.4023 64.9251H18.2413C18.2191 53.977 21.1144 43.2207 26.6293 33.7631H39.0153C40.3917 33.767 41.7105 34.3155 42.6837 35.2887C43.6569 36.2619 44.2054 37.5807 44.2093 38.9571C44.1996 40.3316 43.6493 41.6471 42.6773 42.6191C41.7054 43.591 40.3899 44.1414 39.0153 44.1511H33.8223C32.446 44.155 31.1272 44.7035 30.154 45.6767C29.1808 46.6499 28.6323 47.9687 28.6283 49.3451C28.638 50.7196 29.1884 52.0351 30.1603 53.0071C31.1323 53.979 32.4478 54.5294 33.8223 54.5391L49.4023 54.5371Z" fill="#A0D468"/>
<path d="M49.4019 132.441H44.2089C33.8219 132.441 28.6279 124.65 28.6279 116.86C49.4019 116.86 49.4019 132.441 49.4019 132.441Z" fill="#A0D468"/>
<path d="M43.3776 80.506C41.5856 86.219 36.6516 90.893 28.6276 90.893H23.4346C23.4346 90.893 23.4346 75.312 44.2086 75.312C44.2201 77.0773 43.9393 78.8324 43.3776 80.506Z" fill="#A0D468"/>
<path d="M23.4342 90.893H18.2412C7.85416 90.893 2.66016 83.102 2.66016 75.312C10.3462 75.312 15.1762 77.441 18.2412 80.142C19.7732 81.5028 21.0208 83.1534 21.9121 84.9985C22.8034 86.8437 23.3207 88.847 23.4342 90.893Z" fill="#A0D468"/>
<path d="M54.5962 135.037C66.5312 135.037 72.7733 125.894 72.7733 116.86V114.263H70.1732C57.9942 114.263 52.1933 119.263 49.3993 124.016C46.6082 119.263 40.8073 114.263 28.6313 114.263H26.0312V116.863C26.0312 125.897 32.2743 135.04 44.2083 135.04H46.8083V145.424H41.6122V150.618H57.1922V145.424H51.9992V135.037H54.5962ZM44.2083 129.844C36.5712 129.844 32.4942 124.913 31.4792 119.569C42.2793 120.447 45.4702 126.295 46.4132 129.844H44.2083ZM67.3223 119.568C66.3102 124.912 62.2312 129.844 54.5962 129.844H52.3963C53.3523 126.338 56.5532 120.454 67.3223 119.568Z" fill="#29441E"/>
<path d="M114.322 150.618V133.83L128.747 124.214L125.865 119.893L123.029 121.783L121.977 118.636L117.054 120.277L118.554 124.769L112.059 129.098L106.906 123.949L111.591 109.89L106.668 108.249L102.8 119.844L97.9796 115.024L94.3076 118.696L109.128 133.516V150.616L114.322 150.618Z" fill="#29441E"/>
<path d="M83.1635 83.105H114.324V77.905H101.337C100.986 77.9219 100.635 77.8673 100.305 77.7444C99.975 77.6215 99.6736 77.4329 99.4188 77.1901C99.164 76.9473 98.9612 76.6553 98.8226 76.3318C98.6841 76.0083 98.6126 75.66 98.6126 75.308C98.6126 74.9561 98.6841 74.6078 98.8226 74.2843C98.9612 73.9607 99.164 73.6687 99.4188 73.4259C99.6736 73.1831 99.975 72.9945 100.305 72.8717C100.635 72.7488 100.986 72.6941 101.337 72.711H106.531C108.598 72.711 110.579 71.8902 112.04 70.4292C113.501 68.9682 114.322 66.9867 114.322 64.9205C114.322 62.8543 113.501 60.8728 112.04 59.4118C110.579 57.9508 108.598 57.13 106.531 57.13H96.1445C95.7929 57.1469 95.4416 57.0923 95.1118 56.9694C94.782 56.8465 94.4806 56.6579 94.2258 56.4151C93.971 56.1723 93.7682 55.8803 93.6296 55.5568C93.4911 55.2333 93.4196 54.885 93.4196 54.533C93.4196 54.1811 93.4911 53.8328 93.6296 53.5093C93.7682 53.1858 93.971 52.8937 94.2258 52.6509C94.4806 52.4081 94.782 52.2195 95.1118 52.0967C95.4416 51.9738 95.7929 51.9191 96.1445 51.936H119.515V46.747H96.1445C94.0783 46.747 92.0968 47.5678 90.6358 49.0288C89.1748 50.4898 88.354 52.4714 88.354 54.5375C88.354 56.6037 89.1748 58.5852 90.6358 60.0462C92.0968 61.5072 94.0783 62.328 96.1445 62.328H106.531C106.883 62.3111 107.234 62.3658 107.564 62.4887C107.894 62.6115 108.195 62.8001 108.45 63.0429C108.705 63.2857 108.908 63.5778 109.046 63.9013C109.185 64.2248 109.256 64.5731 109.256 64.925C109.256 65.277 109.185 65.6253 109.046 65.9488C108.908 66.2723 108.705 66.5643 108.45 66.8071C108.195 67.0499 107.894 67.2385 107.564 67.3614C107.234 67.4843 106.883 67.5389 106.531 67.522H101.337C99.2723 67.5247 97.2924 68.3462 95.832 69.8066C94.3717 71.2669 93.5501 73.2468 93.5475 75.312C93.5557 76.1998 93.7174 77.0794 94.0255 77.912H83.1635V36.36H98.7405C101.495 36.36 104.137 35.2657 106.085 33.3177C108.033 31.3698 109.127 28.7278 109.127 25.973C109.127 23.2182 108.033 20.5762 106.085 18.6283C104.137 16.6804 101.495 15.586 98.7405 15.586H96.1405C95.7889 15.6029 95.4376 15.5483 95.1078 15.4254C94.778 15.3025 94.4766 15.1139 94.2218 14.8711C93.967 14.6283 93.7642 14.3363 93.6256 14.0128C93.4871 13.6893 93.4156 13.341 93.4156 12.989C93.4156 12.6371 93.4871 12.2888 93.6256 11.9653C93.7642 11.6417 93.967 11.3497 94.2218 11.1069C94.4766 10.8641 94.778 10.6755 95.1078 10.5527C95.4376 10.4298 95.7889 10.3751 96.1405 10.392H104.933C108.608 12.0497 112.104 14.0768 115.367 16.442C114.29 19.9171 114.038 23.5958 114.633 27.1852C115.228 30.7746 116.653 34.1755 118.794 37.1172C120.935 40.0589 123.733 42.46 126.966 44.1294C130.198 45.7988 133.776 46.6903 137.414 46.733C139.307 52.6113 140.276 58.7476 140.286 64.923V74.235L136.928 70.877L133.263 74.551L141.814 83.102L137.363 87.55L130.863 83.221L132.363 78.731L127.44 77.087L126.391 80.237L123.553 78.347L120.673 82.668L135.093 92.281V109.069H140.287V91.969L152.51 79.746L148.838 76.074L145.48 79.432V64.924C145.468 58.579 144.525 52.2701 142.68 46.199C146.478 45.3741 150.009 43.615 152.955 41.0812C155.901 38.5474 158.169 35.3187 159.552 31.6877C160.936 28.0566 161.392 24.1377 160.879 20.286C160.367 16.4342 158.901 12.7711 156.616 9.62838C154.331 6.48567 151.298 3.9626 147.791 2.28761C144.285 0.612618 140.416 -0.161392 136.536 0.0356615C132.655 0.232715 128.885 1.39461 125.566 3.41614C122.248 5.43767 119.486 8.255 117.53 11.613C106.697 4.03114 93.7868 -0.0226387 80.5635 0.00502344C63.3519 0.0246091 46.8509 6.87056 34.6804 19.041C22.51 31.2114 15.6641 47.7124 15.6445 64.924V75.35C11.5775 73.4857 7.13549 72.584 2.66348 72.715H0.0634766V75.315C0.0634766 84.349 6.30648 93.492 18.2405 93.492H20.8405V103.879H15.6445V109.073H31.2245V103.879H26.0315V93.489H28.6315C37.0395 93.489 42.6095 88.945 45.1755 83.102H77.9635V155.812H0.0634766V161.005H161.063V155.811H83.1635V83.105ZM137.695 5.20502C141.291 5.20502 144.805 6.27109 147.794 8.2684C150.783 10.2657 153.113 13.1046 154.489 16.426C155.865 19.7474 156.225 23.4022 155.523 26.9282C154.822 30.4542 153.091 33.693 150.549 36.2351C148.006 38.7772 144.768 40.5084 141.242 41.2098C137.716 41.9111 134.061 41.5512 130.739 40.1754C127.418 38.7996 124.579 36.4698 122.582 33.4806C120.585 30.4914 119.518 26.9771 119.518 23.382C119.523 18.5625 121.439 13.9416 124.846 10.5328C128.253 7.12411 132.873 5.20591 137.692 5.19902L137.695 5.20502ZM96.1445 20.779H98.7445C100.109 20.798 101.412 21.3535 102.371 22.3254C103.329 23.2973 103.866 24.6075 103.866 25.9725C103.866 27.3376 103.329 28.6478 102.371 29.6197C101.412 30.5916 100.109 31.1471 98.7445 31.166H83.1635V5.30502C86.1719 5.42932 89.1667 5.77997 92.1225 6.35402C90.6649 7.22998 89.535 8.55999 88.9061 10.14C88.2772 11.72 88.1841 13.4627 88.641 15.1007C89.098 16.7387 90.0798 18.1815 91.4357 19.2078C92.7917 20.2341 94.4469 20.7871 96.1475 20.782L96.1445 20.779ZM64.9825 10.392H56.2495C63.0978 7.32413 70.4662 5.58367 77.9635 5.26302V31.163H59.7895C59.1223 31.1309 58.4931 30.8433 58.0322 30.3598C57.5714 29.8763 57.3143 29.234 57.3143 28.566C57.3143 27.8981 57.5714 27.2558 58.0322 26.7722C58.4931 26.2887 59.1223 26.0011 59.7895 25.969H64.9835C67.0496 25.969 69.0312 25.1482 70.4922 23.6872C71.9532 22.2262 72.774 20.2447 72.774 18.1785C72.774 16.1124 71.9532 14.1308 70.4922 12.6698C69.0312 11.2088 67.0496 10.388 64.9835 10.388L64.9825 10.392ZM33.8215 57.134H49.4025C49.754 57.1171 50.1053 57.1718 50.4351 57.2947C50.7649 57.4175 51.0664 57.6061 51.3211 57.8489C51.5759 58.0917 51.7787 58.3838 51.9173 58.7073C52.0559 59.0308 52.1273 59.3791 52.1273 59.731C52.1273 60.083 52.0559 60.4313 51.9173 60.7548C51.7787 61.0783 51.5759 61.3703 51.3211 61.6131C51.0664 61.8559 50.7649 62.0445 50.4351 62.1674C50.1053 62.2903 49.754 62.3449 49.4025 62.328H20.9025C21.284 53.2323 23.7552 44.3467 28.1245 36.36H39.0155C39.367 36.3431 39.7183 36.3978 40.0481 36.5207C40.3779 36.6435 40.6794 36.8321 40.9341 37.0749C41.1889 37.3177 41.3917 37.6098 41.5303 37.9333C41.6689 38.2568 41.7403 38.6051 41.7403 38.957C41.7403 39.309 41.6689 39.6573 41.5303 39.9808C41.3917 40.3043 41.1889 40.5963 40.9341 40.8391C40.6794 41.0819 40.3779 41.2705 40.0481 41.3934C39.7183 41.5163 39.367 41.5709 39.0155 41.554H33.8215C31.7553 41.554 29.7738 42.3748 28.3128 43.8358C26.8518 45.2968 26.031 47.2784 26.031 49.3445C26.031 51.4107 26.8518 53.3922 28.3128 54.8532C29.7738 56.3142 31.7553 57.135 33.8215 57.135V57.134ZM18.2405 88.295C10.6035 88.295 6.52648 83.364 5.51148 78.02C16.3115 78.898 19.5025 84.746 20.4455 88.295H18.2405ZM28.6275 88.295H26.4275C27.3775 84.789 30.5825 78.905 41.3515 78.02C40.3425 83.364 36.2635 88.295 28.6285 88.295H28.6275ZM44.2085 72.715C32.0295 72.715 26.2285 77.715 23.4345 82.468C22.707 81.2381 21.834 80.1002 20.8345 79.079V67.521H49.4025C51.4686 67.521 53.4502 66.7002 54.9112 65.2392C56.3722 63.7782 57.193 61.7967 57.193 59.7305C57.193 57.6644 56.3722 55.6828 54.9112 54.2218C53.4502 52.7608 51.4686 51.94 49.4025 51.94H33.8215C33.4699 51.9569 33.1186 51.9023 32.7888 51.7794C32.459 51.6565 32.1576 51.4679 31.9028 51.2251C31.6481 50.9823 31.4452 50.6903 31.3066 50.3668C31.1681 50.0433 31.0966 49.695 31.0966 49.343C31.0966 48.9911 31.1681 48.6428 31.3066 48.3193C31.4452 47.9958 31.6481 47.7037 31.9028 47.4609C32.1576 47.2181 32.459 47.0295 32.7888 46.9067C33.1186 46.7838 33.4699 46.7291 33.8215 46.746H39.0155C41.0816 46.746 43.0632 45.9252 44.5242 44.4642C45.9852 43.0032 46.806 41.0217 46.806 38.9555C46.806 36.8894 45.9852 34.9078 44.5242 33.4468C43.0632 31.9858 41.0816 31.165 39.0155 31.165H31.3265C35.5293 25.0537 40.8256 19.772 46.9485 15.586H64.9825C65.6497 15.6181 66.2789 15.9057 66.7397 16.3892C67.2005 16.8728 67.4576 17.5151 67.4576 18.183C67.4576 18.851 67.2005 19.4933 66.7397 19.9768C66.2789 20.4603 65.6497 20.7479 64.9825 20.78H59.7895C57.7233 20.78 55.7418 21.6008 54.2808 23.0618C52.8198 24.5228 51.999 26.5044 51.999 28.5705C51.999 30.6367 52.8198 32.6182 54.2808 34.0792C55.7418 35.5402 57.7233 36.361 59.7895 36.361H77.9635V67.521H70.1735C68.1083 67.5237 66.1284 68.3452 64.668 69.8056C63.2077 71.2659 62.3861 73.2458 62.3835 75.311V77.911H46.6155C46.7359 77.0495 46.7994 76.1809 46.8055 75.311V72.711L44.2085 72.715ZM67.5795 77.905V75.305C67.5795 74.6155 67.8534 73.9541 68.341 73.4665C68.8286 72.979 69.4899 72.705 70.1795 72.705H77.9635V77.905H67.5795Z" fill="#29441E"/>
<path d="M155.869 77.908H161.063V83.102H155.869V77.908Z" fill="#29441E"/>
<path d="M88.3535 93.489H122.112V98.683H88.3535V93.489Z" fill="#29441E"/>
<path d="M145.482 109.07H155.869V114.264H145.482V109.07Z" fill="#29441E"/>
<path d="M135.096 145.424H155.87V150.618H135.096V145.424Z" fill="#29441E"/>
<path d="M129.902 129.844H145.483V135.038H129.902V129.844Z" fill="#29441E"/>
</svg>
