<svg width="78" height="75" viewBox="0 0 78 75" fill="none" xmlns="http://www.w3.org/2000/svg">
<path d="M38.5635 75C59.8264 75 77.0635 58.2107 77.0635 37.5C77.0635 16.7893 59.8264 0 38.5635 0C17.3005 0 0.0634766 16.7893 0.0634766 37.5C0.0634766 58.2107 17.3005 75 38.5635 75Z" fill="white"/>
<path d="M38.5635 74.5C59.5503 74.5 76.5635 57.9345 76.5635 37.5C76.5635 17.0655 59.5503 0.5 38.5635 0.5C17.5767 0.5 0.563477 17.0655 0.563477 37.5C0.563477 57.9345 17.5767 74.5 38.5635 74.5Z" stroke="#A9B3A4"/>
<path d="M38.4635 22.1L31.6185 24.468L32.2845 26.688L38.0935 24.949V48H40.6835V22.1H38.4635Z" fill="#1D1963"/>
</svg>
