<svg width="104" height="98" viewBox="0 0 104 98" fill="none" xmlns="http://www.w3.org/2000/svg">
<path d="M62.2009 35.3429C62.2009 39.0045 60.7464 42.5161 58.1572 45.1052C55.5681 47.6943 52.0565 49.1489 48.3949 49.1489C44.7334 49.1489 41.2217 47.6943 38.6326 45.1052C36.0435 42.5161 34.5889 39.0045 34.5889 35.3429C34.5801 32.5414 35.4357 29.8053 37.0389 27.5079C38.2722 25.7097 39.9154 24.2306 41.8328 23.1924C43.7502 22.1542 45.887 21.5868 48.0669 21.5369H48.3949C48.9774 21.5348 49.5595 21.5682 50.1379 21.6369C50.506 22.6212 51.1663 23.4694 52.0301 24.0678C52.8939 24.6662 53.9201 24.9862 54.9709 24.9849H57.5249C58.9967 26.2785 60.1752 27.8715 60.9818 29.6573C61.7884 31.443 62.2043 33.3804 62.2019 35.3399L62.2009 35.3429Z" fill="#FFD422"/>
<path d="M23.0438 91.2919L19.4368 92.6039L10.0668 96.0209L1.79883 73.3099L11.1688 69.8929L14.7758 68.5809L23.0438 91.2919Z" fill="#5AAAE7"/>
<path d="M35.4126 84.9419L36.6036 88.1869L23.6256 92.9149L23.0386 91.2929L14.7716 68.5819L14.1846 66.9599L27.1456 62.2489L28.3366 65.4929L35.4126 84.9419Z" fill="#1E81CE"/>
<path d="M101.893 2.55389V30.1659H91.5381V2.55389H101.893Z" fill="#3D9AE2"/>
<path d="M68.8628 69.0999L81.2708 64.5999C81.9071 64.361 82.5852 64.2531 83.2643 64.2827C83.9434 64.3122 84.6096 64.4786 85.2228 64.7719C86.1465 65.2065 86.9212 65.9044 87.4494 66.778C87.9776 67.6516 88.2358 68.6618 88.1916 69.6817C88.1473 70.7016 87.8026 71.6856 87.2007 72.5102C86.5988 73.3347 85.7667 73.9629 84.8088 74.3159L54.0028 85.5289L49.1358 87.3059L38.6628 83.7689L35.4188 84.9419L28.3428 65.4919L41.2348 60.7979L45.2548 61.5059L64.6878 64.9399C65.5837 65.0975 66.4222 65.4883 67.119 66.0731C67.8158 66.6579 68.3462 67.4159 68.6568 68.2709C68.7521 68.5396 68.8215 68.8169 68.8638 69.0989L68.8628 69.0999Z" fill="#FFDAAA"/>
<path d="M91.5383 7.73392V24.9889H87.7593C87.7593 28.8029 82.5823 31.8889 77.4043 31.8889C72.2263 31.8889 67.0493 28.7999 67.0493 24.9889H54.9693C53.9185 24.9902 52.8923 24.6702 52.0285 24.0718C51.1646 23.4734 50.5044 22.6252 50.1363 21.6409C49.5579 21.5722 48.9758 21.5388 48.3933 21.5409H48.0653C45.8854 21.5908 43.7486 22.1582 41.8312 23.1964C39.9137 24.2346 38.2706 25.7138 37.0373 27.5119C36.3362 27.123 35.743 26.5656 35.3113 25.8899C34.7259 24.9032 34.4909 23.7477 34.6444 22.6107C34.798 21.4737 35.3311 20.422 36.1573 19.6259L50.2053 5.58992C51.1645 4.62599 52.3049 3.86138 53.5608 3.34015C54.8168 2.81892 56.1635 2.55138 57.5233 2.55292H75.6783L87.7583 7.72992L91.5383 7.73392Z" fill="#FFDAAA"/>
<path d="M88.0879 7.7309H91.5399V24.9879H88.0879V7.7309Z" fill="#F1CFA2"/>
<path d="M23.0439 91.2919L19.4369 92.6039L11.3259 70.3039L11.1699 69.8899L14.7769 68.5779L23.0439 91.2919Z" fill="#3D9AE2"/>
<path d="M101.893 0.827904H91.5384C91.0806 0.827904 90.6416 1.00975 90.3179 1.33344C89.9942 1.65713 89.8124 2.09614 89.8124 2.5539V6.0079H88.1124L76.3514 0.966904C76.1392 0.875029 75.9106 0.827392 75.6794 0.826904H57.5234C54.3212 0.832074 51.2513 2.10524 48.9854 4.3679L34.9324 18.4009C33.8255 19.4778 33.1171 20.8985 32.923 22.4306C32.729 23.9626 33.0609 25.5151 33.8644 26.8339C34.1327 27.2307 34.4406 27.5993 34.7834 27.9339C33.5266 30.2017 32.8653 32.7511 32.8614 35.3439C32.8554 37.7728 33.4192 40.1692 34.5074 42.3406C35.5956 44.5121 37.1779 46.3981 39.1272 47.8471C41.0765 49.2961 43.3385 50.2678 45.7314 50.684C48.1243 51.1003 50.5816 50.9496 52.9057 50.2439C55.2298 49.5383 57.356 48.2974 59.1136 46.621C60.8711 44.9446 62.2111 42.8794 63.0257 40.5912C63.8403 38.303 64.107 35.8557 63.8042 33.4457C63.5014 31.0358 62.6377 28.7305 61.2824 26.7149H65.5684C66.8024 30.8569 72.3514 33.6149 77.3944 33.6149C82.4374 33.6149 87.9874 30.8539 89.2224 26.7149H89.8114V30.1669C89.8114 30.6247 89.9932 31.0637 90.3169 31.3874C90.6406 31.7111 91.0796 31.8929 91.5374 31.8929H101.893C102.351 31.8929 102.79 31.7111 103.114 31.3874C103.438 31.0637 103.619 30.6247 103.619 30.1669V2.5529C103.619 2.09531 103.437 1.65656 103.113 1.33308C102.79 1.00961 102.351 0.827904 101.893 0.827904ZM60.4744 35.3429C60.4744 38.5469 59.2016 41.6196 56.9361 43.8851C54.6705 46.1506 51.5978 47.4234 48.3939 47.4234C45.1899 47.4234 42.1172 46.1506 39.8517 43.8851C37.5861 41.6196 36.3134 38.5469 36.3134 35.3429C36.3062 32.8901 37.0567 30.495 38.4624 28.4849C39.5371 26.9188 40.9671 25.6292 42.6356 24.7216C44.3041 23.8141 46.1637 23.3142 48.0624 23.2629H48.3904C48.6064 23.2629 48.8164 23.2909 49.0324 23.3009C49.6248 24.3473 50.4867 25.2158 51.5285 25.8162C52.5704 26.4166 53.754 26.727 54.9564 26.7149H56.8234C57.9773 27.8366 58.895 29.178 59.5222 30.66C60.1494 32.142 60.4735 33.7346 60.4754 35.3439L60.4744 35.3429ZM87.7494 23.2629C87.2918 23.2629 86.8529 23.4446 86.5293 23.7681C86.2056 24.0916 86.0236 24.5303 86.0234 24.9879C86.0234 27.6009 81.7514 30.1649 77.3944 30.1649C73.0374 30.1649 68.7654 27.6009 68.7654 24.9879C68.7655 24.7612 68.721 24.5367 68.6343 24.3272C68.5476 24.1178 68.4204 23.9274 68.2601 23.7671C68.0998 23.6068 67.9095 23.4797 67.7 23.393C67.4906 23.3063 67.2661 23.2618 67.0394 23.2619H54.9594C54.0647 23.2314 53.2169 22.8546 52.5947 22.2109C51.9726 21.5673 51.6249 20.7071 51.6249 19.8119C51.6249 18.9167 51.9726 18.0565 52.5947 17.4129C53.2169 16.7692 54.0647 16.3924 54.9594 16.3619H73.9434V12.9079H54.9604C53.1304 12.9079 51.3753 13.6349 50.0813 14.9289C48.7873 16.2229 48.0604 17.9779 48.0604 19.8079H48.0314C45.9051 19.8603 43.8123 20.3489 41.8826 21.2434C39.9529 22.1379 38.2275 23.4192 36.8134 25.0079C36.7994 24.9889 36.7824 24.9759 36.7684 24.9549C36.3994 24.2988 36.2593 23.5384 36.3703 22.7939C36.4813 22.0493 36.837 21.3629 37.3814 20.8429L51.4314 6.8079C53.0471 5.1916 55.238 4.2821 57.5234 4.2789H75.3234L87.0774 9.3159C87.2921 9.40844 87.5235 9.45608 87.7574 9.4559H89.8114V23.2629H87.7494ZM100.166 28.4399H93.2664V4.2789H100.166V28.4399Z" fill="#28431D"/>
<path d="M46.6682 30.1679H50.1202C50.578 30.1679 51.017 30.3498 51.3407 30.6735C51.6644 30.9971 51.8462 31.4362 51.8462 31.8939H55.2982C55.2979 30.521 54.7524 29.2043 53.7816 28.2335C52.8108 27.2627 51.4942 26.7172 50.1212 26.7169V24.9879H46.6692V26.7139C45.296 26.7139 43.9791 27.2594 43.0082 28.2304C42.0372 29.2013 41.4917 30.5183 41.4917 31.8914C41.4917 33.2646 42.0372 34.5815 43.0082 35.5525C43.9791 36.5234 45.296 37.0689 46.6692 37.0689H50.1212C50.579 37.0689 51.018 37.2508 51.3417 37.5745C51.6654 37.8981 51.8472 38.3372 51.8472 38.7949C51.8472 39.2527 51.6654 39.6917 51.3417 40.0154C51.018 40.3391 50.579 40.5209 50.1212 40.5209H46.6692C46.2114 40.5209 45.7724 40.3391 45.4487 40.0154C45.1251 39.6917 44.9432 39.2527 44.9432 38.7949H41.4912C41.4925 40.1672 42.0385 41.4828 43.0092 42.4527C43.9799 43.4227 45.296 43.9677 46.6682 43.9679V45.6939H50.1202V43.9679C51.4934 43.9679 52.8103 43.4224 53.7812 42.4515C54.7522 41.4805 55.2977 40.1636 55.2977 38.7904C55.2977 37.4173 54.7522 36.1003 53.7812 35.1294C52.8103 34.1584 51.4934 33.6129 50.1202 33.6129H46.6682C46.2104 33.6129 45.7714 33.4311 45.4477 33.1074C45.1241 32.7837 44.9422 32.3447 44.9422 31.8869C44.9422 31.4292 45.1241 30.9901 45.4477 30.6665C45.7714 30.3428 46.2104 30.1609 46.6682 30.1609V30.1679Z" fill="black"/>
<path d="M85.9545 63.1989C85.1343 62.8126 84.2456 62.5931 83.3398 62.5531C82.4341 62.5131 81.5295 62.6534 80.6785 62.9659L69.9205 66.8819C69.4335 65.9343 68.7344 65.112 67.8775 64.4789C67.0207 63.8458 66.0293 63.419 64.9805 63.2319L41.5255 59.0899C41.2282 59.0359 40.9218 59.0628 40.6385 59.1679L29.3665 63.2679L28.7755 61.6459C28.6985 61.4327 28.5802 61.2368 28.4275 61.0693C28.2747 60.9018 28.0904 60.7661 27.8852 60.6699C27.6799 60.5736 27.4577 60.5188 27.2313 60.5085C27.0049 60.4983 26.7786 60.5327 26.5655 60.6099L13.5915 65.3429C13.161 65.4988 12.81 65.8193 12.6157 66.2339C12.4215 66.6485 12.3998 67.1233 12.5555 67.5539L1.20247 71.6979C0.772151 71.854 0.421418 72.1746 0.227344 72.5892C0.0332704 73.0038 0.0117345 73.4784 0.167469 73.9089L8.44147 96.6089C8.56233 96.9416 8.7826 97.229 9.0724 97.4323C9.36221 97.6355 9.70751 97.7446 10.0615 97.7449C10.2625 97.7468 10.4623 97.713 10.6515 97.6449L22.0035 93.5029C22.0807 93.7162 22.1991 93.9121 22.3521 94.0796C22.5051 94.2471 22.6895 94.3827 22.895 94.4789C23.1004 94.575 23.3228 94.6297 23.5493 94.6398C23.7759 94.6499 24.0023 94.6153 24.2155 94.5379L37.1885 89.8149C37.619 89.659 37.9699 89.3385 38.1642 88.9239C38.3585 88.5093 38.3802 88.0345 38.2245 87.6039L37.6345 85.9819L38.6865 85.5989L48.5865 88.9419C48.9586 89.0658 49.3615 89.0609 49.7305 88.9279L54.5935 87.1579L85.4075 75.9399C86.6902 75.4732 87.8057 74.6365 88.6128 73.5356C89.42 72.4348 89.8824 71.1193 89.9417 69.7556C90.001 68.3918 89.6545 67.0411 88.946 65.8744C88.2375 64.7076 87.1989 63.7772 85.9615 63.2009L85.9545 63.1989ZM20.8235 90.2599L11.0935 93.8019L4.01047 74.3449L13.7405 70.7979L20.8235 90.2599ZM24.6585 90.7019L16.3935 68.0019L26.1325 64.4609L34.3975 87.1609L24.6585 90.7019ZM84.2195 72.6969L49.1105 85.4679L39.2105 82.1249C38.8391 81.9992 38.4359 82.0038 38.0675 82.1379L36.4455 82.7289L30.5455 66.5069L41.3825 62.5629L64.3825 66.6189C64.9831 66.7212 65.5454 66.9822 66.0113 67.3748C66.4772 67.7674 66.8298 68.2773 67.0325 68.8519C67.094 69.0506 67.1431 69.2531 67.1795 69.4579C67.257 69.8436 67.2618 70.2404 67.1935 70.6279C67.0326 71.5293 66.5218 72.3305 65.7724 72.8565C65.023 73.3826 64.0959 73.5909 63.1935 73.4359L43.7585 70.0089L43.1585 73.4089L62.5895 76.8339C63.5631 77.0298 64.568 77.0083 65.5323 76.7708C66.4966 76.5333 67.3965 76.0857 68.1678 75.46C68.9391 74.8344 69.5626 74.046 69.9939 73.1514C70.4251 72.2568 70.6534 71.278 70.6625 70.2849L81.8625 66.2079C82.2907 66.0432 82.7474 65.9655 83.206 65.9793C83.6646 65.9931 84.1158 66.0981 84.5334 66.2883C84.9509 66.4785 85.3263 66.7499 85.6378 67.0869C85.9492 67.4238 86.1904 67.8194 86.3472 68.2505C86.504 68.6817 86.5733 69.1398 86.5511 69.598C86.5288 70.0563 86.4155 70.5055 86.2177 70.9195C86.0199 71.3334 85.7416 71.7038 85.399 72.009C85.0564 72.3142 84.6564 72.548 84.2225 72.6969H84.2195Z" fill="#29441E"/>
</svg>
